<?xml version="1.0" encoding="utf-8" standalone="no"?>
<!DOCTYPE svg PUBLIC "-//W3C//DTD SVG 1.1//EN"
  "http://www.w3.org/Graphics/SVG/1.1/DTD/svg11.dtd">
<svg xmlns:xlink="http://www.w3.org/1999/xlink" width="343.424849pt" height="272.4pt" viewBox="0 0 343.424849 272.4" xmlns="http://www.w3.org/2000/svg" version="1.1">
 <metadata>
  <rdf:RDF xmlns:dc="http://purl.org/dc/elements/1.1/" xmlns:cc="http://creativecommons.org/ns#" xmlns:rdf="http://www.w3.org/1999/02/22-rdf-syntax-ns#">
   <cc:Work>
    <dc:type rdf:resource="http://purl.org/dc/dcmitype/StillImage"/>
    <dc:date>2025-05-30T23:38:56.230443</dc:date>
    <dc:format>image/svg+xml</dc:format>
    <dc:creator>
     <cc:Agent>
      <dc:title>Matplotlib v3.10.3, https://matplotlib.org/</dc:title>
     </cc:Agent>
    </dc:creator>
   </cc:Work>
  </rdf:RDF>
 </metadata>
 <defs>
  <style type="text/css">*{stroke-linejoin: round; stroke-linecap: butt}</style>
 </defs>
 <g id="figure_1">
  <g id="patch_1">
   <path d="M 0 272.4 
L 343.424849 272.4 
L 343.424849 0 
L 0 0 
z
" style="fill: #ffffff"/>
  </g>
  <g id="axes_1">
   <g id="patch_2">
    <path d="M 43.9 243.54375 
L 339.824849 243.54375 
L 339.824849 3.6 
L 43.9 3.6 
z
" style="fill: #ffffff"/>
   </g>
   <g id="FillBetweenPolyCollection_1">
    <path d="M 57.351129 211.144519 
L 57.351129 211.496805 
L 58.495906 232.637216 
L 59.640683 221.308404 
L 60.78546 199.450557 
L 61.930237 161.870415 
L 63.075014 95.76091 
L 64.219791 79.686712 
L 65.364568 71.912555 
L 66.509345 72.761111 
L 67.654122 72.461662 
L 68.798899 72.237941 
L 69.943676 74.053619 
L 71.088453 67.792198 
L 72.23323 64.883987 
L 73.378007 65.292357 
L 74.522784 68.867121 
L 75.667561 76.77353 
L 76.812338 75.775251 
L 77.957115 75.725966 
L 79.101892 75.892498 
L 80.246669 74.941874 
L 81.391446 67.449531 
L 82.536223 68.236723 
L 83.681 67.106807 
L 84.825777 62.214613 
L 85.970554 58.431356 
L 87.115331 47.327766 
L 88.260108 46.824278 
L 89.404885 49.696302 
L 90.549662 49.839857 
L 91.694439 47.569568 
L 92.839216 44.280384 
L 93.983993 44.32217 
L 95.12877 38.40246 
L 96.273547 34.423324 
L 97.418324 33.511845 
L 98.563101 31.861025 
L 99.707878 33.41743 
L 100.852655 32.796107 
L 101.997432 32.899594 
L 103.142209 35.323305 
L 104.286986 35.297137 
L 105.431763 34.563223 
L 106.57654 33.885455 
L 107.721316 33.73802 
L 108.866093 29.569342 
L 110.01087 30.106221 
L 111.155647 29.898768 
L 112.300424 29.026537 
L 113.445201 29.315568 
L 114.589978 29.297393 
L 115.734755 27.533051 
L 116.879532 41.367613 
L 118.024309 42.044339 
L 119.169086 41.869936 
L 120.313863 42.395305 
L 121.45864 42.787442 
L 122.603417 31.872553 
L 123.748194 31.168699 
L 124.892971 31.118122 
L 126.037748 29.761215 
L 127.182525 27.884215 
L 128.327302 28.675584 
L 129.472079 31.11602 
L 130.616856 31.953278 
L 131.761633 32.614185 
L 132.90641 32.543241 
L 134.051187 32.767004 
L 135.195964 31.110284 
L 136.340741 31.074242 
L 137.485518 30.923611 
L 138.630295 30.455186 
L 139.775072 29.374045 
L 140.919849 29.464704 
L 142.064626 28.653317 
L 143.209403 32.497324 
L 144.35418 32.532309 
L 145.498957 32.10209 
L 146.643734 31.801453 
L 147.788511 31.768216 
L 148.933288 26.939109 
L 150.078065 26.917929 
L 151.222842 27.329765 
L 152.367619 28.41953 
L 153.512396 28.196555 
L 154.657173 29.016001 
L 155.80195 28.997109 
L 156.946727 28.879683 
L 158.091503 28.503833 
L 159.23628 28.501002 
L 160.381057 27.477838 
L 161.525834 27.56846 
L 162.670611 28.680797 
L 163.815388 32.024046 
L 164.960165 32.333413 
L 166.104942 32.344718 
L 166.104942 25.739742 
L 166.104942 25.739742 
L 164.960165 25.43399 
L 163.815388 24.486872 
L 162.670611 25.211465 
L 161.525834 25.137774 
L 160.381057 24.887853 
L 159.23628 25.273832 
L 158.091503 25.470629 
L 156.946727 25.435322 
L 155.80195 25.62321 
L 154.657173 25.463404 
L 153.512396 24.932422 
L 152.367619 25.273103 
L 151.222842 25.42344 
L 150.078065 25.095477 
L 148.933288 24.933383 
L 147.788511 24.026389 
L 146.643734 24.075352 
L 145.498957 24.408828 
L 144.35418 25.399495 
L 143.209403 26.150793 
L 142.064626 26.683316 
L 140.919849 26.905301 
L 139.775072 26.855045 
L 138.630295 26.772046 
L 137.485518 27.888907 
L 136.340741 29.065218 
L 135.195964 29.111376 
L 134.051187 29.767998 
L 132.90641 28.758762 
L 131.761633 26.374475 
L 130.616856 25.203497 
L 129.472079 24.138413 
L 128.327302 24.793936 
L 127.182525 23.42462 
L 126.037748 24.013619 
L 124.892971 24.699968 
L 123.748194 25.001677 
L 122.603417 25.108079 
L 121.45864 25.431101 
L 120.313863 23.862181 
L 119.169086 22.567408 
L 118.024309 23.168033 
L 116.879532 21.918932 
L 115.734755 25.98344 
L 114.589978 26.156669 
L 113.445201 26.291151 
L 112.300424 25.417639 
L 111.155647 25.754922 
L 110.01087 26.146354 
L 108.866093 26.166548 
L 107.721316 26.037412 
L 106.57654 27.651405 
L 105.431763 28.194893 
L 104.286986 29.703864 
L 103.142209 29.40761 
L 101.997432 28.249751 
L 100.852655 27.813067 
L 99.707878 27.755401 
L 98.563101 26.657921 
L 97.418324 27.156043 
L 96.273547 28.299564 
L 95.12877 29.463797 
L 93.983993 29.345056 
L 92.839216 32.169898 
L 91.694439 34.352884 
L 90.549662 38.306307 
L 89.404885 35.64332 
L 88.260108 33.794717 
L 87.115331 35.851171 
L 85.970554 33.284635 
L 84.825777 34.315948 
L 83.681 41.248806 
L 82.536223 48.855572 
L 81.391446 60.046932 
L 80.246669 57.979787 
L 79.101892 59.953134 
L 77.957115 56.279752 
L 76.812338 52.343584 
L 75.667561 52.84839 
L 74.522784 52.781401 
L 73.378007 48.053969 
L 72.23323 46.924025 
L 71.088453 50.204297 
L 69.943676 48.921846 
L 68.798899 45.418011 
L 67.654122 46.990947 
L 66.509345 48.312012 
L 65.364568 47.774911 
L 64.219791 45.320267 
L 63.075014 51.334375 
L 61.930237 49.105988 
L 60.78546 74.373594 
L 59.640683 112.427781 
L 58.495906 147.283609 
L 57.351129 211.144519 
z
" clip-path="url(#pe56249e387)" style="fill: #0c5da5; fill-opacity: 0.2"/>
   </g>
   <g id="FillBetweenPolyCollection_2">
    <path d="M 57.351129 24.469627 
L 57.351129 100.877894 
L 58.495906 101.791487 
L 59.640683 103.002748 
L 60.78546 103.019939 
L 61.930237 102.194241 
L 63.075014 77.381947 
L 64.219791 76.668767 
L 65.364568 85.620074 
L 66.509345 84.633606 
L 67.654122 81.977481 
L 68.798899 92.130998 
L 69.943676 92.830792 
L 71.088453 86.699457 
L 72.23323 86.742 
L 73.378007 87.468653 
L 74.522784 75.780042 
L 75.667561 76.232712 
L 76.812338 78.180875 
L 77.957115 107.919816 
L 79.101892 97.727661 
L 80.246669 97.692856 
L 81.391446 95.559185 
L 82.536223 93.396542 
L 83.681 60.235472 
L 84.825777 60.386273 
L 85.970554 60.527 
L 87.115331 57.573323 
L 88.260108 57.554281 
L 89.404885 41.456438 
L 90.549662 41.421913 
L 91.694439 41.019947 
L 92.839216 34.998217 
L 93.983993 38.062872 
L 95.12877 36.737439 
L 96.273547 36.700145 
L 97.418324 36.442848 
L 98.563101 36.337623 
L 99.707878 30.638482 
L 100.852655 30.956064 
L 101.997432 33.653382 
L 103.142209 34.730617 
L 104.286986 34.513316 
L 105.431763 34.536253 
L 106.57654 36.064731 
L 107.721316 34.191213 
L 108.866093 33.155614 
L 110.01087 33.188185 
L 111.155647 33.22865 
L 112.300424 29.513719 
L 113.445201 29.488733 
L 114.589978 30.131713 
L 115.734755 32.181133 
L 116.879532 32.080209 
L 118.024309 32.198513 
L 119.169086 32.246776 
L 120.313863 32.288901 
L 121.45864 30.375833 
L 122.603417 30.256293 
L 123.748194 33.587848 
L 124.892971 35.004387 
L 126.037748 34.7985 
L 127.182525 35.399327 
L 128.327302 35.470848 
L 129.472079 34.452841 
L 130.616856 33.295708 
L 131.761633 34.249501 
L 132.90641 34.251017 
L 134.051187 34.179626 
L 135.195964 39.899178 
L 136.340741 39.64239 
L 137.485518 41.505181 
L 138.630295 41.623742 
L 139.775072 41.586042 
L 140.919849 37.012774 
L 142.064626 37.046484 
L 143.209403 32.037472 
L 144.35418 31.547593 
L 145.498957 31.413756 
L 146.643734 42.639272 
L 147.788511 46.73729 
L 148.933288 47.112258 
L 150.078065 47.20175 
L 151.222842 47.201784 
L 152.367619 41.673269 
L 153.512396 36.993646 
L 154.657173 36.402967 
L 155.80195 41.423184 
L 156.946727 42.12524 
L 158.091503 39.642754 
L 159.23628 39.896883 
L 160.381057 42.508638 
L 161.525834 38.469506 
L 162.670611 37.459465 
L 163.815388 37.180459 
L 164.960165 40.855528 
L 166.104942 44.028578 
L 167.249719 44.143405 
L 168.394496 44.13541 
L 169.539273 44.11932 
L 170.68405 47.168562 
L 171.828827 42.474196 
L 172.973604 43.490132 
L 174.118381 43.471016 
L 175.263158 43.629534 
L 176.407935 35.150208 
L 177.552712 34.474073 
L 178.697489 31.568584 
L 179.842266 31.560525 
L 180.987043 31.022377 
L 182.13182 30.972102 
L 183.276597 28.472218 
L 184.421374 28.761646 
L 185.566151 29.629345 
L 186.710928 34.610475 
L 187.855705 34.964194 
L 189.000482 34.958945 
L 190.145259 35.631544 
L 191.290036 35.579992 
L 192.434813 31.473658 
L 193.57959 31.282859 
L 194.724367 31.281064 
L 195.869144 31.639697 
L 197.013921 31.607494 
L 198.158698 31.327143 
L 199.303475 36.244587 
L 200.448252 36.304295 
L 201.593029 35.383436 
L 202.737806 38.565291 
L 203.882583 38.578832 
L 205.02736 35.446663 
L 206.172137 35.681281 
L 207.316914 35.946613 
L 208.46169 30.931432 
L 209.606467 30.835154 
L 210.751244 31.008232 
L 211.896021 30.837097 
L 213.040798 30.258494 
L 214.185575 32.256934 
L 215.330352 36.616005 
L 216.475129 36.306923 
L 217.619906 37.494269 
L 218.764683 37.444001 
L 219.90946 37.96991 
L 221.054237 35.026278 
L 222.199014 35.043593 
L 223.343791 35.731363 
L 224.488568 35.742405 
L 225.633345 34.07576 
L 226.778122 33.792896 
L 227.922899 33.768792 
L 229.067676 30.034594 
L 230.212453 30.063383 
L 231.35723 29.549057 
L 232.502007 30.085671 
L 233.646784 30.544073 
L 234.791561 30.479288 
L 235.936338 31.900889 
L 237.081115 31.889857 
L 238.225892 30.95139 
L 239.370669 30.943319 
L 240.515446 33.437486 
L 241.660223 32.650653 
L 242.805 32.862569 
L 243.949777 32.966114 
L 245.094554 32.952997 
L 246.239331 33.703235 
L 247.384108 33.484971 
L 248.528885 33.154837 
L 249.673662 32.650378 
L 250.818439 32.603831 
L 251.963216 27.57032 
L 253.107993 30.330455 
L 254.25277 34.097043 
L 255.397547 35.98658 
L 256.542324 35.918178 
L 257.687101 35.932057 
L 258.831877 35.561332 
L 259.976654 37.462793 
L 261.121431 35.84988 
L 262.266208 36.079113 
L 263.410985 36.187196 
L 264.555762 36.900795 
L 265.700539 32.181049 
L 266.845316 32.429114 
L 267.990093 33.368548 
L 269.13487 33.284259 
L 270.279647 31.952498 
L 271.424424 31.888378 
L 272.569201 32.169732 
L 273.713978 30.964041 
L 274.858755 30.881514 
L 276.003532 30.91218 
L 277.148309 31.087042 
L 278.293086 30.573079 
L 279.437863 30.573079 
L 280.58264 30.412048 
L 281.727417 30.272148 
L 282.872194 29.283766 
L 284.016971 29.261304 
L 285.161748 65.278718 
L 286.306525 65.9966 
L 287.451302 66.297904 
L 288.596079 66.085661 
L 289.740856 65.979269 
L 290.885633 31.688091 
L 292.03041 30.886146 
L 293.175187 30.560054 
L 294.319964 30.948901 
L 295.464741 31.357682 
L 296.609518 31.113136 
L 297.754295 30.38193 
L 298.899072 31.958179 
L 300.043849 31.689596 
L 301.188626 31.699019 
L 302.333403 31.678752 
L 303.47818 31.514672 
L 304.622957 29.897632 
L 305.767734 30.022188 
L 306.912511 31.777249 
L 308.057288 31.898006 
L 309.202064 31.860327 
L 310.346841 32.821607 
L 311.491618 32.876465 
L 312.636395 31.44818 
L 313.781172 31.631529 
L 314.925949 31.768786 
L 316.070726 38.785103 
L 317.215503 38.733953 
L 318.36028 39.42712 
L 319.505057 39.401817 
L 320.649834 39.320734 
L 321.794611 32.627549 
L 322.939388 32.683935 
L 324.084165 30.91746 
L 325.228942 31.703723 
L 326.373719 31.703926 
L 326.373719 29.551105 
L 326.373719 29.551105 
L 325.228942 29.915336 
L 324.084165 29.609515 
L 322.939388 29.04081 
L 321.794611 28.228225 
L 320.649834 27.277295 
L 319.505057 27.501526 
L 318.36028 27.617137 
L 317.215503 26.771991 
L 316.070726 27.155326 
L 314.925949 29.368816 
L 313.781172 27.826845 
L 312.636395 27.575709 
L 311.491618 27.521338 
L 310.346841 27.317853 
L 309.202064 26.916962 
L 308.057288 26.45654 
L 306.912511 26.248497 
L 305.767734 26.700102 
L 304.622957 26.484115 
L 303.47818 26.381903 
L 302.333403 27.697423 
L 301.188626 27.113499 
L 300.043849 27.111179 
L 298.899072 27.840739 
L 297.754295 27.221074 
L 296.609518 27.300125 
L 295.464741 28.593892 
L 294.319964 27.487846 
L 293.175187 26.068293 
L 292.03041 26.458515 
L 290.885633 26.325913 
L 289.740856 16.131068 
L 288.596079 16.494391 
L 287.451302 17.350747 
L 286.306525 16.254652 
L 285.161748 14.506534 
L 284.016971 26.321929 
L 282.872194 26.334696 
L 281.727417 26.450142 
L 280.58264 27.672413 
L 279.437863 28.77961 
L 278.293086 28.77961 
L 277.148309 29.533875 
L 276.003532 29.438651 
L 274.858755 29.751146 
L 273.713978 28.917076 
L 272.569201 28.897414 
L 271.424424 26.630569 
L 270.279647 26.660391 
L 269.13487 26.890429 
L 267.990093 27.13494 
L 266.845316 26.86486 
L 265.700539 28.122811 
L 264.555762 27.524806 
L 263.410985 26.841006 
L 262.266208 26.338461 
L 261.121431 25.827894 
L 259.976654 27.456008 
L 258.831877 27.842641 
L 257.687101 28.35263 
L 256.542324 28.507423 
L 255.397547 27.746193 
L 254.25277 26.077646 
L 253.107993 25.95735 
L 251.963216 26.639 
L 250.818439 25.010916 
L 249.673662 25.17574 
L 248.528885 25.974738 
L 247.384108 26.713203 
L 246.239331 27.516568 
L 245.094554 27.738377 
L 243.949777 28.758631 
L 242.805 27.852291 
L 241.660223 27.077807 
L 240.515446 27.441774 
L 239.370669 26.683171 
L 238.225892 26.686842 
L 237.081115 27.380632 
L 235.936338 27.627943 
L 234.791561 27.252887 
L 233.646784 26.800588 
L 232.502007 26.378276 
L 231.35723 26.527376 
L 230.212453 26.729364 
L 229.067676 26.687696 
L 227.922899 27.216154 
L 226.778122 27.520849 
L 225.633345 27.731185 
L 224.488568 28.471825 
L 223.343791 28.870381 
L 222.199014 28.912294 
L 221.054237 29.129238 
L 219.90946 29.403147 
L 218.764683 29.130542 
L 217.619906 28.410932 
L 216.475129 26.68605 
L 215.330352 27.363368 
L 214.185575 27.412812 
L 213.040798 27.50891 
L 211.896021 28.315963 
L 210.751244 29.2604 
L 209.606467 29.269078 
L 208.46169 28.738314 
L 207.316914 27.962302 
L 206.172137 26.841978 
L 205.02736 26.383767 
L 203.882583 26.950597 
L 202.737806 26.799738 
L 201.593029 25.824624 
L 200.448252 27.240592 
L 199.303475 26.818843 
L 198.158698 27.274004 
L 197.013921 27.909595 
L 195.869144 27.959591 
L 194.724367 28.059882 
L 193.57959 28.046344 
L 192.434813 28.325259 
L 191.290036 27.77701 
L 190.145259 27.936829 
L 189.000482 25.438858 
L 187.855705 25.457094 
L 186.710928 24.906614 
L 185.566151 25.953888 
L 184.421374 25.823444 
L 183.276597 27.404587 
L 182.13182 26.994931 
L 180.987043 27.144283 
L 179.842266 27.40465 
L 178.697489 27.091276 
L 177.552712 27.649929 
L 176.407935 27.760566 
L 175.263158 27.947465 
L 174.118381 26.814269 
L 172.973604 27.476238 
L 171.828827 25.979204 
L 170.68405 26.897922 
L 169.539273 26.999707 
L 168.394496 27.265446 
L 167.249719 27.363136 
L 166.104942 26.491564 
L 164.960165 27.010729 
L 163.815388 26.387914 
L 162.670611 27.10705 
L 161.525834 28.633466 
L 160.381057 31.416931 
L 159.23628 28.262945 
L 158.091503 27.342789 
L 156.946727 28.888102 
L 155.80195 27.194616 
L 154.657173 26.719178 
L 153.512396 28.077812 
L 152.367619 29.633644 
L 151.222842 28.849242 
L 150.078065 28.555704 
L 148.933288 27.588339 
L 147.788511 25.285936 
L 146.643734 21.927243 
L 145.498957 25.566877 
L 144.35418 25.691382 
L 143.209403 26.023503 
L 142.064626 26.909403 
L 140.919849 27.894284 
L 139.775072 27.806786 
L 138.630295 28.121371 
L 137.485518 26.807304 
L 136.340741 26.345011 
L 135.195964 27.239022 
L 134.051187 28.437575 
L 132.90641 28.612785 
L 131.761633 30.974614 
L 130.616856 28.992694 
L 129.472079 29.279931 
L 128.327302 29.260067 
L 127.182525 28.603532 
L 126.037748 27.619073 
L 124.892971 28.751872 
L 123.748194 27.502783 
L 122.603417 28.250911 
L 121.45864 27.097999 
L 120.313863 27.145988 
L 119.169086 27.129398 
L 118.024309 26.754919 
L 116.879532 26.650108 
L 115.734755 27.782184 
L 114.589978 27.67092 
L 113.445201 27.726757 
L 112.300424 28.676428 
L 111.155647 27.627124 
L 110.01087 27.503189 
L 108.866093 27.04256 
L 107.721316 27.650961 
L 106.57654 28.52527 
L 105.431763 27.928292 
L 104.286986 27.704628 
L 103.142209 26.324785 
L 101.997432 25.734536 
L 100.852655 26.15374 
L 99.707878 26.107293 
L 98.563101 25.469322 
L 97.418324 27.665696 
L 96.273547 28.336084 
L 95.12877 28.427962 
L 93.983993 29.82687 
L 92.839216 30.19067 
L 91.694439 30.42788 
L 90.549662 31.646427 
L 89.404885 32.856645 
L 88.260108 30.098683 
L 87.115331 30.208812 
L 85.970554 31.435591 
L 84.825777 30.214147 
L 83.681 28.098577 
L 82.536223 18.341013 
L 81.391446 23.282796 
L 80.246669 25.32958 
L 79.101892 25.64706 
L 77.957115 41.359639 
L 76.812338 33.204394 
L 75.667561 27.860246 
L 74.522784 27.737516 
L 73.378007 37.256497 
L 72.23323 37.32555 
L 71.088453 38.025693 
L 69.943676 51.775008 
L 68.798899 38.453836 
L 67.654122 29.536959 
L 66.509345 29.08849 
L 65.364568 33.163193 
L 64.219791 30.125047 
L 63.075014 35.76475 
L 61.930237 42.975215 
L 60.78546 43.041974 
L 59.640683 36.718025 
L 58.495906 29.533146 
L 57.351129 24.469627 
z
" clip-path="url(#pe56249e387)" style="fill: #00b945; fill-opacity: 0.2"/>
   </g>
   <g id="matplotlib.axis_1">
    <g id="xtick_1">
     <g id="line2d_1">
      <path d="M 57.351129 243.54375 
L 57.351129 3.6 
" clip-path="url(#pe56249e387)" style="fill: none; stroke: #b0b0b0; stroke-width: 0.5; stroke-linecap: square"/>
     </g>
     <g id="line2d_2">
      <defs>
       <path id="mc44227bdb7" d="M 0 0 
L 0 -3 
" style="stroke: #000000; stroke-width: 0.5"/>
      </defs>
      <g>
       <use xlink:href="#mc44227bdb7" x="57.351129" y="243.54375" style="stroke: #000000; stroke-width: 0.5"/>
      </g>
     </g>
     <g id="line2d_3">
      <defs>
       <path id="mce9c19f612" d="M 0 0 
L 0 3 
" style="stroke: #000000; stroke-width: 0.5"/>
      </defs>
      <g>
       <use xlink:href="#mce9c19f612" x="57.351129" y="3.6" style="stroke: #000000; stroke-width: 0.5"/>
      </g>
     </g>
     <g id="text_1">
      <!-- $\mathdefault{0}$ -->
      <g transform="translate(54.851129 253.982812) scale(0.1 -0.1)">
       <defs>
        <path id="Cmr10-30" d="M 1600 -141 
Q 816 -141 533 504 
Q 250 1150 250 2041 
Q 250 2597 351 3087 
Q 453 3578 754 3920 
Q 1056 4263 1600 4263 
Q 2022 4263 2290 4056 
Q 2559 3850 2700 3523 
Q 2841 3197 2892 2823 
Q 2944 2450 2944 2041 
Q 2944 1491 2842 1011 
Q 2741 531 2444 195 
Q 2147 -141 1600 -141 
z
M 1600 25 
Q 1956 25 2131 390 
Q 2306 756 2347 1200 
Q 2388 1644 2388 2144 
Q 2388 2625 2347 3031 
Q 2306 3438 2132 3767 
Q 1959 4097 1600 4097 
Q 1238 4097 1063 3765 
Q 888 3434 847 3029 
Q 806 2625 806 2144 
Q 806 1788 823 1472 
Q 841 1156 916 820 
Q 991 484 1158 254 
Q 1325 25 1600 25 
z
" transform="scale(0.015625)"/>
       </defs>
       <use xlink:href="#Cmr10-30" transform="translate(0 0.390625)"/>
      </g>
     </g>
    </g>
    <g id="xtick_2">
     <g id="line2d_4">
      <path d="M 114.589978 243.54375 
L 114.589978 3.6 
" clip-path="url(#pe56249e387)" style="fill: none; stroke: #b0b0b0; stroke-width: 0.5; stroke-linecap: square"/>
     </g>
     <g id="line2d_5">
      <g>
       <use xlink:href="#mc44227bdb7" x="114.589978" y="243.54375" style="stroke: #000000; stroke-width: 0.5"/>
      </g>
     </g>
     <g id="line2d_6">
      <g>
       <use xlink:href="#mce9c19f612" x="114.589978" y="3.6" style="stroke: #000000; stroke-width: 0.5"/>
      </g>
     </g>
     <g id="text_2">
      <!-- $\mathdefault{50000}$ -->
      <g transform="translate(102.089978 253.982812) scale(0.1 -0.1)">
       <defs>
        <path id="Cmr10-35" d="M 556 728 
Q 622 541 758 387 
Q 894 234 1080 148 
Q 1266 63 1466 63 
Q 1928 63 2103 422 
Q 2278 781 2278 1294 
Q 2278 1516 2270 1667 
Q 2263 1819 2228 1959 
Q 2169 2184 2020 2353 
Q 1872 2522 1656 2522 
Q 1441 2522 1286 2456 
Q 1131 2391 1034 2303 
Q 938 2216 863 2119 
Q 788 2022 769 2016 
L 697 2016 
Q 681 2016 657 2036 
Q 634 2056 634 2075 
L 634 4213 
Q 634 4228 654 4245 
Q 675 4263 697 4263 
L 716 4263 
Q 1147 4056 1631 4056 
Q 2106 4056 2547 4263 
L 2566 4263 
Q 2588 4263 2606 4247 
Q 2625 4231 2625 4213 
L 2625 4153 
Q 2625 4122 2613 4122 
Q 2394 3831 2064 3668 
Q 1734 3506 1381 3506 
Q 1125 3506 856 3578 
L 856 2369 
Q 1069 2541 1236 2614 
Q 1403 2688 1663 2688 
Q 2016 2688 2295 2484 
Q 2575 2281 2725 1954 
Q 2875 1628 2875 1288 
Q 2875 903 2686 575 
Q 2497 247 2172 53 
Q 1847 -141 1466 -141 
Q 1150 -141 886 21 
Q 622 184 470 459 
Q 319 734 319 1044 
Q 319 1188 412 1278 
Q 506 1369 647 1369 
Q 788 1369 883 1276 
Q 978 1184 978 1044 
Q 978 906 883 811 
Q 788 716 647 716 
Q 625 716 597 720 
Q 569 725 556 728 
z
" transform="scale(0.015625)"/>
       </defs>
       <use xlink:href="#Cmr10-35" transform="translate(0 0.390625)"/>
       <use xlink:href="#Cmr10-30" transform="translate(50 0.390625)"/>
       <use xlink:href="#Cmr10-30" transform="translate(100 0.390625)"/>
       <use xlink:href="#Cmr10-30" transform="translate(150 0.390625)"/>
       <use xlink:href="#Cmr10-30" transform="translate(200 0.390625)"/>
      </g>
     </g>
    </g>
    <g id="xtick_3">
     <g id="line2d_7">
      <path d="M 171.828827 243.54375 
L 171.828827 3.6 
" clip-path="url(#pe56249e387)" style="fill: none; stroke: #b0b0b0; stroke-width: 0.5; stroke-linecap: square"/>
     </g>
     <g id="line2d_8">
      <g>
       <use xlink:href="#mc44227bdb7" x="171.828827" y="243.54375" style="stroke: #000000; stroke-width: 0.5"/>
      </g>
     </g>
     <g id="line2d_9">
      <g>
       <use xlink:href="#mce9c19f612" x="171.828827" y="3.6" style="stroke: #000000; stroke-width: 0.5"/>
      </g>
     </g>
     <g id="text_3">
      <!-- $\mathdefault{100000}$ -->
      <g transform="translate(156.828827 253.982812) scale(0.1 -0.1)">
       <defs>
        <path id="Cmr10-31" d="M 594 0 
L 594 225 
Q 1394 225 1394 428 
L 1394 3788 
Q 1063 3628 556 3628 
L 556 3853 
Q 1341 3853 1741 4263 
L 1831 4263 
Q 1853 4263 1873 4245 
Q 1894 4228 1894 4206 
L 1894 428 
Q 1894 225 2694 225 
L 2694 0 
L 594 0 
z
" transform="scale(0.015625)"/>
       </defs>
       <use xlink:href="#Cmr10-31" transform="translate(0 0.390625)"/>
       <use xlink:href="#Cmr10-30" transform="translate(50 0.390625)"/>
       <use xlink:href="#Cmr10-30" transform="translate(100 0.390625)"/>
       <use xlink:href="#Cmr10-30" transform="translate(150 0.390625)"/>
       <use xlink:href="#Cmr10-30" transform="translate(200 0.390625)"/>
       <use xlink:href="#Cmr10-30" transform="translate(250 0.390625)"/>
      </g>
     </g>
    </g>
    <g id="xtick_4">
     <g id="line2d_10">
      <path d="M 229.067676 243.54375 
L 229.067676 3.6 
" clip-path="url(#pe56249e387)" style="fill: none; stroke: #b0b0b0; stroke-width: 0.5; stroke-linecap: square"/>
     </g>
     <g id="line2d_11">
      <g>
       <use xlink:href="#mc44227bdb7" x="229.067676" y="243.54375" style="stroke: #000000; stroke-width: 0.5"/>
      </g>
     </g>
     <g id="line2d_12">
      <g>
       <use xlink:href="#mce9c19f612" x="229.067676" y="3.6" style="stroke: #000000; stroke-width: 0.5"/>
      </g>
     </g>
     <g id="text_4">
      <!-- $\mathdefault{150000}$ -->
      <g transform="translate(214.067676 253.982812) scale(0.1 -0.1)">
       <use xlink:href="#Cmr10-31" transform="translate(0 0.390625)"/>
       <use xlink:href="#Cmr10-35" transform="translate(50 0.390625)"/>
       <use xlink:href="#Cmr10-30" transform="translate(100 0.390625)"/>
       <use xlink:href="#Cmr10-30" transform="translate(150 0.390625)"/>
       <use xlink:href="#Cmr10-30" transform="translate(200 0.390625)"/>
       <use xlink:href="#Cmr10-30" transform="translate(250 0.390625)"/>
      </g>
     </g>
    </g>
    <g id="xtick_5">
     <g id="line2d_13">
      <path d="M 286.306525 243.54375 
L 286.306525 3.6 
" clip-path="url(#pe56249e387)" style="fill: none; stroke: #b0b0b0; stroke-width: 0.5; stroke-linecap: square"/>
     </g>
     <g id="line2d_14">
      <g>
       <use xlink:href="#mc44227bdb7" x="286.306525" y="243.54375" style="stroke: #000000; stroke-width: 0.5"/>
      </g>
     </g>
     <g id="line2d_15">
      <g>
       <use xlink:href="#mce9c19f612" x="286.306525" y="3.6" style="stroke: #000000; stroke-width: 0.5"/>
      </g>
     </g>
     <g id="text_5">
      <!-- $\mathdefault{200000}$ -->
      <g transform="translate(271.306525 253.982812) scale(0.1 -0.1)">
       <defs>
        <path id="Cmr10-32" d="M 319 0 
L 319 172 
Q 319 188 331 206 
L 1325 1306 
Q 1550 1550 1690 1715 
Q 1831 1881 1968 2097 
Q 2106 2313 2186 2536 
Q 2266 2759 2266 3009 
Q 2266 3272 2169 3511 
Q 2072 3750 1880 3894 
Q 1688 4038 1416 4038 
Q 1138 4038 916 3870 
Q 694 3703 603 3438 
Q 628 3444 672 3444 
Q 816 3444 917 3347 
Q 1019 3250 1019 3097 
Q 1019 2950 917 2848 
Q 816 2747 672 2747 
Q 522 2747 420 2851 
Q 319 2956 319 3097 
Q 319 3338 409 3548 
Q 500 3759 670 3923 
Q 841 4088 1055 4175 
Q 1269 4263 1509 4263 
Q 1875 4263 2190 4108 
Q 2506 3953 2690 3670 
Q 2875 3388 2875 3009 
Q 2875 2731 2753 2481 
Q 2631 2231 2440 2026 
Q 2250 1822 1953 1562 
Q 1656 1303 1563 1216 
L 838 519 
L 1453 519 
Q 1906 519 2211 526 
Q 2516 534 2534 550 
Q 2609 631 2688 1141 
L 2875 1141 
L 2694 0 
L 319 0 
z
" transform="scale(0.015625)"/>
       </defs>
       <use xlink:href="#Cmr10-32" transform="translate(0 0.390625)"/>
       <use xlink:href="#Cmr10-30" transform="translate(50 0.390625)"/>
       <use xlink:href="#Cmr10-30" transform="translate(100 0.390625)"/>
       <use xlink:href="#Cmr10-30" transform="translate(150 0.390625)"/>
       <use xlink:href="#Cmr10-30" transform="translate(200 0.390625)"/>
       <use xlink:href="#Cmr10-30" transform="translate(250 0.390625)"/>
      </g>
     </g>
    </g>
    <g id="xtick_6">
     <g id="line2d_16">
      <defs>
       <path id="mfb4fa0366b" d="M 0 0 
L 0 -1.5 
" style="stroke: #000000; stroke-width: 0.5"/>
      </defs>
      <g>
       <use xlink:href="#mfb4fa0366b" x="45.90336" y="243.54375" style="stroke: #000000; stroke-width: 0.5"/>
      </g>
     </g>
     <g id="line2d_17">
      <defs>
       <path id="m1539a18b0c" d="M 0 0 
L 0 1.5 
" style="stroke: #000000; stroke-width: 0.5"/>
      </defs>
      <g>
       <use xlink:href="#m1539a18b0c" x="45.90336" y="3.6" style="stroke: #000000; stroke-width: 0.5"/>
      </g>
     </g>
    </g>
    <g id="xtick_7">
     <g id="line2d_18">
      <g>
       <use xlink:href="#mfb4fa0366b" x="68.798899" y="243.54375" style="stroke: #000000; stroke-width: 0.5"/>
      </g>
     </g>
     <g id="line2d_19">
      <g>
       <use xlink:href="#m1539a18b0c" x="68.798899" y="3.6" style="stroke: #000000; stroke-width: 0.5"/>
      </g>
     </g>
    </g>
    <g id="xtick_8">
     <g id="line2d_20">
      <g>
       <use xlink:href="#mfb4fa0366b" x="80.246669" y="243.54375" style="stroke: #000000; stroke-width: 0.5"/>
      </g>
     </g>
     <g id="line2d_21">
      <g>
       <use xlink:href="#m1539a18b0c" x="80.246669" y="3.6" style="stroke: #000000; stroke-width: 0.5"/>
      </g>
     </g>
    </g>
    <g id="xtick_9">
     <g id="line2d_22">
      <g>
       <use xlink:href="#mfb4fa0366b" x="91.694439" y="243.54375" style="stroke: #000000; stroke-width: 0.5"/>
      </g>
     </g>
     <g id="line2d_23">
      <g>
       <use xlink:href="#m1539a18b0c" x="91.694439" y="3.6" style="stroke: #000000; stroke-width: 0.5"/>
      </g>
     </g>
    </g>
    <g id="xtick_10">
     <g id="line2d_24">
      <g>
       <use xlink:href="#mfb4fa0366b" x="103.142209" y="243.54375" style="stroke: #000000; stroke-width: 0.5"/>
      </g>
     </g>
     <g id="line2d_25">
      <g>
       <use xlink:href="#m1539a18b0c" x="103.142209" y="3.6" style="stroke: #000000; stroke-width: 0.5"/>
      </g>
     </g>
    </g>
    <g id="xtick_11">
     <g id="line2d_26">
      <g>
       <use xlink:href="#mfb4fa0366b" x="126.037748" y="243.54375" style="stroke: #000000; stroke-width: 0.5"/>
      </g>
     </g>
     <g id="line2d_27">
      <g>
       <use xlink:href="#m1539a18b0c" x="126.037748" y="3.6" style="stroke: #000000; stroke-width: 0.5"/>
      </g>
     </g>
    </g>
    <g id="xtick_12">
     <g id="line2d_28">
      <g>
       <use xlink:href="#mfb4fa0366b" x="137.485518" y="243.54375" style="stroke: #000000; stroke-width: 0.5"/>
      </g>
     </g>
     <g id="line2d_29">
      <g>
       <use xlink:href="#m1539a18b0c" x="137.485518" y="3.6" style="stroke: #000000; stroke-width: 0.5"/>
      </g>
     </g>
    </g>
    <g id="xtick_13">
     <g id="line2d_30">
      <g>
       <use xlink:href="#mfb4fa0366b" x="148.933288" y="243.54375" style="stroke: #000000; stroke-width: 0.5"/>
      </g>
     </g>
     <g id="line2d_31">
      <g>
       <use xlink:href="#m1539a18b0c" x="148.933288" y="3.6" style="stroke: #000000; stroke-width: 0.5"/>
      </g>
     </g>
    </g>
    <g id="xtick_14">
     <g id="line2d_32">
      <g>
       <use xlink:href="#mfb4fa0366b" x="160.381057" y="243.54375" style="stroke: #000000; stroke-width: 0.5"/>
      </g>
     </g>
     <g id="line2d_33">
      <g>
       <use xlink:href="#m1539a18b0c" x="160.381057" y="3.6" style="stroke: #000000; stroke-width: 0.5"/>
      </g>
     </g>
    </g>
    <g id="xtick_15">
     <g id="line2d_34">
      <g>
       <use xlink:href="#mfb4fa0366b" x="183.276597" y="243.54375" style="stroke: #000000; stroke-width: 0.5"/>
      </g>
     </g>
     <g id="line2d_35">
      <g>
       <use xlink:href="#m1539a18b0c" x="183.276597" y="3.6" style="stroke: #000000; stroke-width: 0.5"/>
      </g>
     </g>
    </g>
    <g id="xtick_16">
     <g id="line2d_36">
      <g>
       <use xlink:href="#mfb4fa0366b" x="194.724367" y="243.54375" style="stroke: #000000; stroke-width: 0.5"/>
      </g>
     </g>
     <g id="line2d_37">
      <g>
       <use xlink:href="#m1539a18b0c" x="194.724367" y="3.6" style="stroke: #000000; stroke-width: 0.5"/>
      </g>
     </g>
    </g>
    <g id="xtick_17">
     <g id="line2d_38">
      <g>
       <use xlink:href="#mfb4fa0366b" x="206.172137" y="243.54375" style="stroke: #000000; stroke-width: 0.5"/>
      </g>
     </g>
     <g id="line2d_39">
      <g>
       <use xlink:href="#m1539a18b0c" x="206.172137" y="3.6" style="stroke: #000000; stroke-width: 0.5"/>
      </g>
     </g>
    </g>
    <g id="xtick_18">
     <g id="line2d_40">
      <g>
       <use xlink:href="#mfb4fa0366b" x="217.619906" y="243.54375" style="stroke: #000000; stroke-width: 0.5"/>
      </g>
     </g>
     <g id="line2d_41">
      <g>
       <use xlink:href="#m1539a18b0c" x="217.619906" y="3.6" style="stroke: #000000; stroke-width: 0.5"/>
      </g>
     </g>
    </g>
    <g id="xtick_19">
     <g id="line2d_42">
      <g>
       <use xlink:href="#mfb4fa0366b" x="240.515446" y="243.54375" style="stroke: #000000; stroke-width: 0.5"/>
      </g>
     </g>
     <g id="line2d_43">
      <g>
       <use xlink:href="#m1539a18b0c" x="240.515446" y="3.6" style="stroke: #000000; stroke-width: 0.5"/>
      </g>
     </g>
    </g>
    <g id="xtick_20">
     <g id="line2d_44">
      <g>
       <use xlink:href="#mfb4fa0366b" x="251.963216" y="243.54375" style="stroke: #000000; stroke-width: 0.5"/>
      </g>
     </g>
     <g id="line2d_45">
      <g>
       <use xlink:href="#m1539a18b0c" x="251.963216" y="3.6" style="stroke: #000000; stroke-width: 0.5"/>
      </g>
     </g>
    </g>
    <g id="xtick_21">
     <g id="line2d_46">
      <g>
       <use xlink:href="#mfb4fa0366b" x="263.410985" y="243.54375" style="stroke: #000000; stroke-width: 0.5"/>
      </g>
     </g>
     <g id="line2d_47">
      <g>
       <use xlink:href="#m1539a18b0c" x="263.410985" y="3.6" style="stroke: #000000; stroke-width: 0.5"/>
      </g>
     </g>
    </g>
    <g id="xtick_22">
     <g id="line2d_48">
      <g>
       <use xlink:href="#mfb4fa0366b" x="274.858755" y="243.54375" style="stroke: #000000; stroke-width: 0.5"/>
      </g>
     </g>
     <g id="line2d_49">
      <g>
       <use xlink:href="#m1539a18b0c" x="274.858755" y="3.6" style="stroke: #000000; stroke-width: 0.5"/>
      </g>
     </g>
    </g>
    <g id="xtick_23">
     <g id="line2d_50">
      <g>
       <use xlink:href="#mfb4fa0366b" x="297.754295" y="243.54375" style="stroke: #000000; stroke-width: 0.5"/>
      </g>
     </g>
     <g id="line2d_51">
      <g>
       <use xlink:href="#m1539a18b0c" x="297.754295" y="3.6" style="stroke: #000000; stroke-width: 0.5"/>
      </g>
     </g>
    </g>
    <g id="xtick_24">
     <g id="line2d_52">
      <g>
       <use xlink:href="#mfb4fa0366b" x="309.202064" y="243.54375" style="stroke: #000000; stroke-width: 0.5"/>
      </g>
     </g>
     <g id="line2d_53">
      <g>
       <use xlink:href="#m1539a18b0c" x="309.202064" y="3.6" style="stroke: #000000; stroke-width: 0.5"/>
      </g>
     </g>
    </g>
    <g id="xtick_25">
     <g id="line2d_54">
      <g>
       <use xlink:href="#mfb4fa0366b" x="320.649834" y="243.54375" style="stroke: #000000; stroke-width: 0.5"/>
      </g>
     </g>
     <g id="line2d_55">
      <g>
       <use xlink:href="#m1539a18b0c" x="320.649834" y="3.6" style="stroke: #000000; stroke-width: 0.5"/>
      </g>
     </g>
    </g>
    <g id="xtick_26">
     <g id="line2d_56">
      <g>
       <use xlink:href="#mfb4fa0366b" x="332.097604" y="243.54375" style="stroke: #000000; stroke-width: 0.5"/>
      </g>
     </g>
     <g id="line2d_57">
      <g>
       <use xlink:href="#m1539a18b0c" x="332.097604" y="3.6" style="stroke: #000000; stroke-width: 0.5"/>
      </g>
     </g>
    </g>
    <g id="text_6">
     <!-- Timestep -->
     <g transform="translate(171.576487 266.860937) scale(0.1 -0.1)">
      <defs>
       <path id="Cmr10-54" d="M 1081 0 
L 1081 225 
Q 1403 225 1706 261 
Q 2009 297 2009 428 
L 2009 3944 
Q 2009 4081 1932 4114 
Q 1856 4147 1684 4147 
L 1416 4147 
Q 888 4147 666 3916 
Q 550 3800 500 3545 
Q 450 3291 416 2906 
L 231 2906 
L 353 4372 
L 4263 4372 
L 4384 2906 
L 4197 2906 
Q 4159 3319 4114 3561 
Q 4069 3803 3950 3916 
Q 3725 4147 3200 4147 
L 2931 4147 
Q 2816 4147 2752 4137 
Q 2688 4128 2647 4083 
Q 2606 4038 2606 3944 
L 2606 428 
Q 2606 297 2909 261 
Q 3213 225 3531 225 
L 3531 0 
L 1081 0 
z
" transform="scale(0.015625)"/>
       <path id="Cmr10-69" d="M 197 0 
L 197 225 
Q 416 225 556 259 
Q 697 294 697 428 
L 697 2175 
Q 697 2422 601 2478 
Q 506 2534 225 2534 
L 225 2759 
L 1147 2828 
L 1147 428 
Q 1147 294 1269 259 
Q 1391 225 1594 225 
L 1594 0 
L 197 0 
z
M 469 3928 
Q 469 4069 575 4175 
Q 681 4281 819 4281 
Q 909 4281 993 4234 
Q 1078 4188 1125 4103 
Q 1172 4019 1172 3928 
Q 1172 3791 1065 3684 
Q 959 3578 819 3578 
Q 681 3578 575 3684 
Q 469 3791 469 3928 
z
" transform="scale(0.015625)"/>
       <path id="Cmr10-6d" d="M 191 0 
L 191 225 
Q 409 225 550 259 
Q 691 294 691 428 
L 691 2175 
Q 691 2347 639 2423 
Q 588 2500 491 2517 
Q 394 2534 191 2534 
L 191 2759 
L 1119 2828 
L 1119 2203 
Q 1247 2478 1498 2653 
Q 1750 2828 2047 2828 
Q 2784 2828 2913 2228 
Q 3041 2497 3287 2662 
Q 3534 2828 3828 2828 
Q 4119 2828 4317 2734 
Q 4516 2641 4616 2448 
Q 4716 2256 4716 1966 
L 4716 428 
Q 4716 294 4858 259 
Q 5000 225 5216 225 
L 5216 0 
L 3750 0 
L 3750 225 
Q 3969 225 4109 259 
Q 4250 294 4250 428 
L 4250 1947 
Q 4250 2269 4159 2466 
Q 4069 2663 3788 2663 
Q 3419 2663 3178 2366 
Q 2938 2069 2938 1691 
L 2938 428 
Q 2938 294 3078 259 
Q 3219 225 3438 225 
L 3438 0 
L 1972 0 
L 1972 225 
Q 2191 225 2331 259 
Q 2472 294 2472 428 
L 2472 1947 
Q 2472 2259 2381 2461 
Q 2291 2663 2009 2663 
Q 1638 2663 1398 2366 
Q 1159 2069 1159 1691 
L 1159 428 
Q 1159 294 1300 259 
Q 1441 225 1656 225 
L 1656 0 
L 191 0 
z
" transform="scale(0.015625)"/>
       <path id="Cmr10-65" d="M 1594 -72 
Q 1203 -72 876 133 
Q 550 338 364 680 
Q 178 1022 178 1403 
Q 178 1778 348 2115 
Q 519 2453 823 2661 
Q 1128 2869 1503 2869 
Q 1797 2869 2014 2770 
Q 2231 2672 2372 2497 
Q 2513 2322 2584 2084 
Q 2656 1847 2656 1563 
Q 2656 1478 2591 1478 
L 738 1478 
L 738 1409 
Q 738 878 952 497 
Q 1166 116 1650 116 
Q 1847 116 2014 203 
Q 2181 291 2304 447 
Q 2428 603 2472 781 
Q 2478 803 2495 820 
Q 2513 838 2534 838 
L 2591 838 
Q 2656 838 2656 756 
Q 2566 394 2266 161 
Q 1966 -72 1594 -72 
z
M 744 1638 
L 2203 1638 
Q 2203 1878 2136 2125 
Q 2069 2372 1912 2536 
Q 1756 2700 1503 2700 
Q 1141 2700 942 2361 
Q 744 2022 744 1638 
z
" transform="scale(0.015625)"/>
       <path id="Cmr10-73" d="M 213 -19 
L 213 1025 
Q 213 1075 269 1075 
L 347 1075 
Q 384 1075 397 1025 
Q 575 97 1259 97 
Q 1563 97 1767 234 
Q 1972 372 1972 659 
Q 1972 866 1812 1011 
Q 1653 1156 1434 1209 
L 1006 1294 
Q 791 1341 614 1437 
Q 438 1534 325 1695 
Q 213 1856 213 2069 
Q 213 2350 361 2529 
Q 509 2709 746 2789 
Q 984 2869 1259 2869 
Q 1588 2869 1831 2694 
L 2016 2853 
Q 2016 2869 2047 2869 
L 2094 2869 
Q 2113 2869 2128 2851 
Q 2144 2834 2144 2816 
L 2144 1978 
Q 2144 1919 2094 1919 
L 2016 1919 
Q 1959 1919 1959 1978 
Q 1959 2313 1773 2516 
Q 1588 2719 1253 2719 
Q 966 2719 755 2612 
Q 544 2506 544 2247 
Q 544 2069 695 1955 
Q 847 1841 1050 1791 
L 1484 1709 
Q 1703 1659 1892 1540 
Q 2081 1422 2192 1240 
Q 2303 1059 2303 831 
Q 2303 600 2223 429 
Q 2144 259 2001 146 
Q 1859 34 1665 -19 
Q 1472 -72 1259 -72 
Q 859 -72 575 197 
L 341 -56 
Q 341 -72 306 -72 
L 269 -72 
Q 213 -72 213 -19 
z
" transform="scale(0.015625)"/>
       <path id="Cmr10-74" d="M 653 769 
L 653 2534 
L 122 2534 
L 122 2700 
Q 541 2700 737 3090 
Q 934 3481 934 3938 
L 1119 3938 
L 1119 2759 
L 2022 2759 
L 2022 2534 
L 1119 2534 
L 1119 781 
Q 1119 516 1208 316 
Q 1297 116 1528 116 
Q 1747 116 1844 327 
Q 1941 538 1941 781 
L 1941 1159 
L 2125 1159 
L 2125 769 
Q 2125 569 2051 373 
Q 1978 178 1834 53 
Q 1691 -72 1484 -72 
Q 1100 -72 876 158 
Q 653 388 653 769 
z
" transform="scale(0.015625)"/>
       <path id="Cmr10-70" d="M 166 -1241 
L 166 -1019 
Q 384 -1019 525 -981 
Q 666 -944 666 -813 
L 666 2272 
Q 666 2447 541 2490 
Q 416 2534 166 2534 
L 166 2759 
L 1113 2828 
L 1113 2431 
Q 1288 2625 1520 2726 
Q 1753 2828 2016 2828 
Q 2394 2828 2697 2623 
Q 3000 2419 3170 2086 
Q 3341 1753 3341 1381 
Q 3341 994 3152 659 
Q 2963 325 2636 126 
Q 2309 -72 1919 -72 
Q 1453 -72 1131 306 
L 1131 -813 
Q 1131 -944 1273 -981 
Q 1416 -1019 1631 -1019 
L 1631 -1241 
L 166 -1241 
z
M 1131 622 
Q 1244 394 1444 245 
Q 1644 97 1881 97 
Q 2103 97 2273 215 
Q 2444 334 2559 534 
Q 2675 734 2729 954 
Q 2784 1175 2784 1381 
Q 2784 1638 2692 1936 
Q 2600 2234 2411 2439 
Q 2222 2644 1953 2644 
Q 1694 2644 1476 2511 
Q 1259 2378 1131 2150 
L 1131 622 
z
" transform="scale(0.015625)"/>
      </defs>
      <use xlink:href="#Cmr10-54"/>
      <use xlink:href="#Cmr10-69" transform="translate(72.216797 0)"/>
      <use xlink:href="#Cmr10-6d" transform="translate(99.902344 0)"/>
      <use xlink:href="#Cmr10-65" transform="translate(183.203125 0)"/>
      <use xlink:href="#Cmr10-73" transform="translate(227.587891 0)"/>
      <use xlink:href="#Cmr10-74" transform="translate(266.992188 0)"/>
      <use xlink:href="#Cmr10-65" transform="translate(305.810547 0)"/>
      <use xlink:href="#Cmr10-70" transform="translate(350.195312 0)"/>
     </g>
    </g>
   </g>
   <g id="matplotlib.axis_2">
    <g id="ytick_1">
     <g id="line2d_58">
      <path d="M 43.9 211.408733 
L 339.824849 211.408733 
" clip-path="url(#pe56249e387)" style="fill: none; stroke: #b0b0b0; stroke-width: 0.5; stroke-linecap: square"/>
     </g>
     <g id="line2d_59">
      <defs>
       <path id="med4dbb7b16" d="M 0 0 
L 3 0 
" style="stroke: #000000; stroke-width: 0.5"/>
      </defs>
      <g>
       <use xlink:href="#med4dbb7b16" x="43.9" y="211.408733" style="stroke: #000000; stroke-width: 0.5"/>
      </g>
     </g>
     <g id="line2d_60">
      <defs>
       <path id="m62f7328ea1" d="M 0 0 
L -3 0 
" style="stroke: #000000; stroke-width: 0.5"/>
      </defs>
      <g>
       <use xlink:href="#m62f7328ea1" x="339.824849" y="211.408733" style="stroke: #000000; stroke-width: 0.5"/>
      </g>
     </g>
     <g id="text_7">
      <!-- $\mathdefault{−500}$ -->
      <g transform="translate(17.6 214.878264) scale(0.1 -0.1)">
       <defs>
        <path id="Cmsy10-a1" d="M 653 1472 
Q 600 1472 565 1512 
Q 531 1553 531 1600 
Q 531 1647 565 1687 
Q 600 1728 653 1728 
L 4325 1728 
Q 4375 1728 4408 1687 
Q 4441 1647 4441 1600 
Q 4441 1553 4408 1512 
Q 4375 1472 4325 1472 
L 653 1472 
z
" transform="scale(0.015625)"/>
       </defs>
       <use xlink:href="#Cmsy10-a1" transform="translate(0 0.390625)"/>
       <use xlink:href="#Cmr10-35" transform="translate(77.685547 0.390625)"/>
       <use xlink:href="#Cmr10-30" transform="translate(127.685547 0.390625)"/>
       <use xlink:href="#Cmr10-30" transform="translate(177.685547 0.390625)"/>
      </g>
     </g>
    </g>
    <g id="ytick_2">
     <g id="line2d_61">
      <path d="M 43.9 167.373035 
L 339.824849 167.373035 
" clip-path="url(#pe56249e387)" style="fill: none; stroke: #b0b0b0; stroke-width: 0.5; stroke-linecap: square"/>
     </g>
     <g id="line2d_62">
      <g>
       <use xlink:href="#med4dbb7b16" x="43.9" y="167.373035" style="stroke: #000000; stroke-width: 0.5"/>
      </g>
     </g>
     <g id="line2d_63">
      <g>
       <use xlink:href="#m62f7328ea1" x="339.824849" y="167.373035" style="stroke: #000000; stroke-width: 0.5"/>
      </g>
     </g>
     <g id="text_8">
      <!-- $\mathdefault{−400}$ -->
      <g transform="translate(17.6 170.842567) scale(0.1 -0.1)">
       <defs>
        <path id="Cmr10-34" d="M 178 1056 
L 178 1281 
L 2156 4231 
Q 2178 4263 2222 4263 
L 2316 4263 
Q 2388 4263 2388 4191 
L 2388 1281 
L 3016 1281 
L 3016 1056 
L 2388 1056 
L 2388 428 
Q 2388 297 2575 261 
Q 2763 225 3009 225 
L 3009 0 
L 1247 0 
L 1247 225 
Q 1494 225 1681 261 
Q 1869 297 1869 428 
L 1869 1056 
L 178 1056 
z
M 391 1281 
L 1906 1281 
L 1906 3547 
L 391 1281 
z
" transform="scale(0.015625)"/>
       </defs>
       <use xlink:href="#Cmsy10-a1" transform="translate(0 0.390625)"/>
       <use xlink:href="#Cmr10-34" transform="translate(77.685547 0.390625)"/>
       <use xlink:href="#Cmr10-30" transform="translate(127.685547 0.390625)"/>
       <use xlink:href="#Cmr10-30" transform="translate(177.685547 0.390625)"/>
      </g>
     </g>
    </g>
    <g id="ytick_3">
     <g id="line2d_64">
      <path d="M 43.9 123.337338 
L 339.824849 123.337338 
" clip-path="url(#pe56249e387)" style="fill: none; stroke: #b0b0b0; stroke-width: 0.5; stroke-linecap: square"/>
     </g>
     <g id="line2d_65">
      <g>
       <use xlink:href="#med4dbb7b16" x="43.9" y="123.337338" style="stroke: #000000; stroke-width: 0.5"/>
      </g>
     </g>
     <g id="line2d_66">
      <g>
       <use xlink:href="#m62f7328ea1" x="339.824849" y="123.337338" style="stroke: #000000; stroke-width: 0.5"/>
      </g>
     </g>
     <g id="text_9">
      <!-- $\mathdefault{−300}$ -->
      <g transform="translate(17.6 126.806869) scale(0.1 -0.1)">
       <defs>
        <path id="Cmr10-33" d="M 609 494 
Q 759 275 1012 169 
Q 1266 63 1556 63 
Q 1928 63 2084 380 
Q 2241 697 2241 1100 
Q 2241 1281 2208 1462 
Q 2175 1644 2097 1800 
Q 2019 1956 1883 2050 
Q 1747 2144 1550 2144 
L 1125 2144 
Q 1069 2144 1069 2203 
L 1069 2259 
Q 1069 2309 1125 2309 
L 1478 2338 
Q 1703 2338 1851 2506 
Q 2000 2675 2069 2917 
Q 2138 3159 2138 3378 
Q 2138 3684 1994 3881 
Q 1850 4078 1556 4078 
Q 1313 4078 1091 3986 
Q 869 3894 738 3706 
Q 750 3709 759 3711 
Q 769 3713 781 3713 
Q 925 3713 1022 3613 
Q 1119 3513 1119 3372 
Q 1119 3234 1022 3134 
Q 925 3034 781 3034 
Q 641 3034 541 3134 
Q 441 3234 441 3372 
Q 441 3647 606 3850 
Q 772 4053 1033 4158 
Q 1294 4263 1556 4263 
Q 1750 4263 1965 4205 
Q 2181 4147 2356 4039 
Q 2531 3931 2642 3762 
Q 2753 3594 2753 3378 
Q 2753 3109 2633 2881 
Q 2513 2653 2303 2487 
Q 2094 2322 1844 2241 
Q 2122 2188 2372 2031 
Q 2622 1875 2773 1631 
Q 2925 1388 2925 1106 
Q 2925 753 2731 467 
Q 2538 181 2222 20 
Q 1906 -141 1556 -141 
Q 1256 -141 954 -26 
Q 653 88 461 316 
Q 269 544 269 863 
Q 269 1022 375 1128 
Q 481 1234 641 1234 
Q 744 1234 830 1186 
Q 916 1138 964 1050 
Q 1013 963 1013 863 
Q 1013 706 903 600 
Q 794 494 641 494 
L 609 494 
z
" transform="scale(0.015625)"/>
       </defs>
       <use xlink:href="#Cmsy10-a1" transform="translate(0 0.390625)"/>
       <use xlink:href="#Cmr10-33" transform="translate(77.685547 0.390625)"/>
       <use xlink:href="#Cmr10-30" transform="translate(127.685547 0.390625)"/>
       <use xlink:href="#Cmr10-30" transform="translate(177.685547 0.390625)"/>
      </g>
     </g>
    </g>
    <g id="ytick_4">
     <g id="line2d_67">
      <path d="M 43.9 79.30164 
L 339.824849 79.30164 
" clip-path="url(#pe56249e387)" style="fill: none; stroke: #b0b0b0; stroke-width: 0.5; stroke-linecap: square"/>
     </g>
     <g id="line2d_68">
      <g>
       <use xlink:href="#med4dbb7b16" x="43.9" y="79.30164" style="stroke: #000000; stroke-width: 0.5"/>
      </g>
     </g>
     <g id="line2d_69">
      <g>
       <use xlink:href="#m62f7328ea1" x="339.824849" y="79.30164" style="stroke: #000000; stroke-width: 0.5"/>
      </g>
     </g>
     <g id="text_10">
      <!-- $\mathdefault{−200}$ -->
      <g transform="translate(17.6 82.771171) scale(0.1 -0.1)">
       <use xlink:href="#Cmsy10-a1" transform="translate(0 0.390625)"/>
       <use xlink:href="#Cmr10-32" transform="translate(77.685547 0.390625)"/>
       <use xlink:href="#Cmr10-30" transform="translate(127.685547 0.390625)"/>
       <use xlink:href="#Cmr10-30" transform="translate(177.685547 0.390625)"/>
      </g>
     </g>
    </g>
    <g id="ytick_5">
     <g id="line2d_70">
      <path d="M 43.9 35.265942 
L 339.824849 35.265942 
" clip-path="url(#pe56249e387)" style="fill: none; stroke: #b0b0b0; stroke-width: 0.5; stroke-linecap: square"/>
     </g>
     <g id="line2d_71">
      <g>
       <use xlink:href="#med4dbb7b16" x="43.9" y="35.265942" style="stroke: #000000; stroke-width: 0.5"/>
      </g>
     </g>
     <g id="line2d_72">
      <g>
       <use xlink:href="#m62f7328ea1" x="339.824849" y="35.265942" style="stroke: #000000; stroke-width: 0.5"/>
      </g>
     </g>
     <g id="text_11">
      <!-- $\mathdefault{−100}$ -->
      <g transform="translate(17.6 38.735474) scale(0.1 -0.1)">
       <use xlink:href="#Cmsy10-a1" transform="translate(0 0.390625)"/>
       <use xlink:href="#Cmr10-31" transform="translate(77.685547 0.390625)"/>
       <use xlink:href="#Cmr10-30" transform="translate(127.685547 0.390625)"/>
       <use xlink:href="#Cmr10-30" transform="translate(177.685547 0.390625)"/>
      </g>
     </g>
    </g>
    <g id="ytick_6">
     <g id="line2d_73">
      <defs>
       <path id="m43038543b3" d="M 0 0 
L 1.5 0 
" style="stroke: #000000; stroke-width: 0.5"/>
      </defs>
      <g>
       <use xlink:href="#m43038543b3" x="43.9" y="237.830152" style="stroke: #000000; stroke-width: 0.5"/>
      </g>
     </g>
     <g id="line2d_74">
      <defs>
       <path id="mb5d60f5713" d="M 0 0 
L -1.5 0 
" style="stroke: #000000; stroke-width: 0.5"/>
      </defs>
      <g>
       <use xlink:href="#mb5d60f5713" x="339.824849" y="237.830152" style="stroke: #000000; stroke-width: 0.5"/>
      </g>
     </g>
    </g>
    <g id="ytick_7">
     <g id="line2d_75">
      <g>
       <use xlink:href="#m43038543b3" x="43.9" y="229.023012" style="stroke: #000000; stroke-width: 0.5"/>
      </g>
     </g>
     <g id="line2d_76">
      <g>
       <use xlink:href="#mb5d60f5713" x="339.824849" y="229.023012" style="stroke: #000000; stroke-width: 0.5"/>
      </g>
     </g>
    </g>
    <g id="ytick_8">
     <g id="line2d_77">
      <g>
       <use xlink:href="#m43038543b3" x="43.9" y="220.215873" style="stroke: #000000; stroke-width: 0.5"/>
      </g>
     </g>
     <g id="line2d_78">
      <g>
       <use xlink:href="#mb5d60f5713" x="339.824849" y="220.215873" style="stroke: #000000; stroke-width: 0.5"/>
      </g>
     </g>
    </g>
    <g id="ytick_9">
     <g id="line2d_79">
      <g>
       <use xlink:href="#m43038543b3" x="43.9" y="202.601594" style="stroke: #000000; stroke-width: 0.5"/>
      </g>
     </g>
     <g id="line2d_80">
      <g>
       <use xlink:href="#mb5d60f5713" x="339.824849" y="202.601594" style="stroke: #000000; stroke-width: 0.5"/>
      </g>
     </g>
    </g>
    <g id="ytick_10">
     <g id="line2d_81">
      <g>
       <use xlink:href="#m43038543b3" x="43.9" y="193.794454" style="stroke: #000000; stroke-width: 0.5"/>
      </g>
     </g>
     <g id="line2d_82">
      <g>
       <use xlink:href="#mb5d60f5713" x="339.824849" y="193.794454" style="stroke: #000000; stroke-width: 0.5"/>
      </g>
     </g>
    </g>
    <g id="ytick_11">
     <g id="line2d_83">
      <g>
       <use xlink:href="#m43038543b3" x="43.9" y="184.987314" style="stroke: #000000; stroke-width: 0.5"/>
      </g>
     </g>
     <g id="line2d_84">
      <g>
       <use xlink:href="#mb5d60f5713" x="339.824849" y="184.987314" style="stroke: #000000; stroke-width: 0.5"/>
      </g>
     </g>
    </g>
    <g id="ytick_12">
     <g id="line2d_85">
      <g>
       <use xlink:href="#m43038543b3" x="43.9" y="176.180175" style="stroke: #000000; stroke-width: 0.5"/>
      </g>
     </g>
     <g id="line2d_86">
      <g>
       <use xlink:href="#mb5d60f5713" x="339.824849" y="176.180175" style="stroke: #000000; stroke-width: 0.5"/>
      </g>
     </g>
    </g>
    <g id="ytick_13">
     <g id="line2d_87">
      <g>
       <use xlink:href="#m43038543b3" x="43.9" y="158.565896" style="stroke: #000000; stroke-width: 0.5"/>
      </g>
     </g>
     <g id="line2d_88">
      <g>
       <use xlink:href="#mb5d60f5713" x="339.824849" y="158.565896" style="stroke: #000000; stroke-width: 0.5"/>
      </g>
     </g>
    </g>
    <g id="ytick_14">
     <g id="line2d_89">
      <g>
       <use xlink:href="#m43038543b3" x="43.9" y="149.758756" style="stroke: #000000; stroke-width: 0.5"/>
      </g>
     </g>
     <g id="line2d_90">
      <g>
       <use xlink:href="#mb5d60f5713" x="339.824849" y="149.758756" style="stroke: #000000; stroke-width: 0.5"/>
      </g>
     </g>
    </g>
    <g id="ytick_15">
     <g id="line2d_91">
      <g>
       <use xlink:href="#m43038543b3" x="43.9" y="140.951617" style="stroke: #000000; stroke-width: 0.5"/>
      </g>
     </g>
     <g id="line2d_92">
      <g>
       <use xlink:href="#mb5d60f5713" x="339.824849" y="140.951617" style="stroke: #000000; stroke-width: 0.5"/>
      </g>
     </g>
    </g>
    <g id="ytick_16">
     <g id="line2d_93">
      <g>
       <use xlink:href="#m43038543b3" x="43.9" y="132.144477" style="stroke: #000000; stroke-width: 0.5"/>
      </g>
     </g>
     <g id="line2d_94">
      <g>
       <use xlink:href="#mb5d60f5713" x="339.824849" y="132.144477" style="stroke: #000000; stroke-width: 0.5"/>
      </g>
     </g>
    </g>
    <g id="ytick_17">
     <g id="line2d_95">
      <g>
       <use xlink:href="#m43038543b3" x="43.9" y="114.530198" style="stroke: #000000; stroke-width: 0.5"/>
      </g>
     </g>
     <g id="line2d_96">
      <g>
       <use xlink:href="#mb5d60f5713" x="339.824849" y="114.530198" style="stroke: #000000; stroke-width: 0.5"/>
      </g>
     </g>
    </g>
    <g id="ytick_18">
     <g id="line2d_97">
      <g>
       <use xlink:href="#m43038543b3" x="43.9" y="105.723059" style="stroke: #000000; stroke-width: 0.5"/>
      </g>
     </g>
     <g id="line2d_98">
      <g>
       <use xlink:href="#mb5d60f5713" x="339.824849" y="105.723059" style="stroke: #000000; stroke-width: 0.5"/>
      </g>
     </g>
    </g>
    <g id="ytick_19">
     <g id="line2d_99">
      <g>
       <use xlink:href="#m43038543b3" x="43.9" y="96.915919" style="stroke: #000000; stroke-width: 0.5"/>
      </g>
     </g>
     <g id="line2d_100">
      <g>
       <use xlink:href="#mb5d60f5713" x="339.824849" y="96.915919" style="stroke: #000000; stroke-width: 0.5"/>
      </g>
     </g>
    </g>
    <g id="ytick_20">
     <g id="line2d_101">
      <g>
       <use xlink:href="#m43038543b3" x="43.9" y="88.10878" style="stroke: #000000; stroke-width: 0.5"/>
      </g>
     </g>
     <g id="line2d_102">
      <g>
       <use xlink:href="#mb5d60f5713" x="339.824849" y="88.10878" style="stroke: #000000; stroke-width: 0.5"/>
      </g>
     </g>
    </g>
    <g id="ytick_21">
     <g id="line2d_103">
      <g>
       <use xlink:href="#m43038543b3" x="43.9" y="70.4945" style="stroke: #000000; stroke-width: 0.5"/>
      </g>
     </g>
     <g id="line2d_104">
      <g>
       <use xlink:href="#mb5d60f5713" x="339.824849" y="70.4945" style="stroke: #000000; stroke-width: 0.5"/>
      </g>
     </g>
    </g>
    <g id="ytick_22">
     <g id="line2d_105">
      <g>
       <use xlink:href="#m43038543b3" x="43.9" y="61.687361" style="stroke: #000000; stroke-width: 0.5"/>
      </g>
     </g>
     <g id="line2d_106">
      <g>
       <use xlink:href="#mb5d60f5713" x="339.824849" y="61.687361" style="stroke: #000000; stroke-width: 0.5"/>
      </g>
     </g>
    </g>
    <g id="ytick_23">
     <g id="line2d_107">
      <g>
       <use xlink:href="#m43038543b3" x="43.9" y="52.880221" style="stroke: #000000; stroke-width: 0.5"/>
      </g>
     </g>
     <g id="line2d_108">
      <g>
       <use xlink:href="#mb5d60f5713" x="339.824849" y="52.880221" style="stroke: #000000; stroke-width: 0.5"/>
      </g>
     </g>
    </g>
    <g id="ytick_24">
     <g id="line2d_109">
      <g>
       <use xlink:href="#m43038543b3" x="43.9" y="44.073082" style="stroke: #000000; stroke-width: 0.5"/>
      </g>
     </g>
     <g id="line2d_110">
      <g>
       <use xlink:href="#mb5d60f5713" x="339.824849" y="44.073082" style="stroke: #000000; stroke-width: 0.5"/>
      </g>
     </g>
    </g>
    <g id="ytick_25">
     <g id="line2d_111">
      <g>
       <use xlink:href="#m43038543b3" x="43.9" y="26.458803" style="stroke: #000000; stroke-width: 0.5"/>
      </g>
     </g>
     <g id="line2d_112">
      <g>
       <use xlink:href="#mb5d60f5713" x="339.824849" y="26.458803" style="stroke: #000000; stroke-width: 0.5"/>
      </g>
     </g>
    </g>
    <g id="ytick_26">
     <g id="line2d_113">
      <g>
       <use xlink:href="#m43038543b3" x="43.9" y="17.651663" style="stroke: #000000; stroke-width: 0.5"/>
      </g>
     </g>
     <g id="line2d_114">
      <g>
       <use xlink:href="#mb5d60f5713" x="339.824849" y="17.651663" style="stroke: #000000; stroke-width: 0.5"/>
      </g>
     </g>
    </g>
    <g id="ytick_27">
     <g id="line2d_115">
      <g>
       <use xlink:href="#m43038543b3" x="43.9" y="8.844524" style="stroke: #000000; stroke-width: 0.5"/>
      </g>
     </g>
     <g id="line2d_116">
      <g>
       <use xlink:href="#mb5d60f5713" x="339.824849" y="8.844524" style="stroke: #000000; stroke-width: 0.5"/>
      </g>
     </g>
    </g>
    <g id="text_12">
     <!-- Mean Eval. Reward ($\pm\sigma$), Smoothed (Window = 5 ep.) -->
     <g transform="translate(11.1 245.521875) rotate(-90) scale(0.1 -0.1)">
      <defs>
       <path id="Cmr10-4d" d="M 225 0 
L 225 225 
Q 884 225 884 603 
L 884 3944 
Q 884 4147 225 4147 
L 225 4372 
L 1434 4372 
Q 1513 4372 1538 4300 
L 2931 678 
L 4325 4300 
Q 4350 4372 4428 4372 
L 5638 4372 
L 5638 4147 
Q 4978 4147 4978 3944 
L 4978 428 
Q 4978 225 5638 225 
L 5638 0 
L 3775 0 
L 3775 225 
Q 4434 225 4434 428 
L 4434 4153 
L 2859 72 
Q 2831 0 2753 0 
Q 2672 0 2644 72 
L 1088 4103 
L 1088 603 
Q 1088 225 1747 225 
L 1747 0 
L 225 0 
z
" transform="scale(0.015625)"/>
       <path id="Cmr10-61" d="M 256 628 
Q 256 1009 556 1248 
Q 856 1488 1276 1586 
Q 1697 1684 2075 1684 
L 2075 1947 
Q 2075 2131 1994 2304 
Q 1913 2478 1759 2589 
Q 1606 2700 1422 2700 
Q 997 2700 775 2509 
Q 897 2509 976 2417 
Q 1056 2325 1056 2203 
Q 1056 2075 965 1984 
Q 875 1894 750 1894 
Q 622 1894 531 1984 
Q 441 2075 441 2203 
Q 441 2541 747 2705 
Q 1053 2869 1422 2869 
Q 1681 2869 1943 2758 
Q 2206 2647 2373 2440 
Q 2541 2234 2541 1959 
L 2541 519 
Q 2541 394 2594 289 
Q 2647 184 2759 184 
Q 2866 184 2917 290 
Q 2969 397 2969 519 
L 2969 928 
L 3156 928 
L 3156 519 
Q 3156 375 3081 245 
Q 3006 116 2879 39 
Q 2753 -38 2606 -38 
Q 2419 -38 2283 107 
Q 2147 253 2131 453 
Q 2013 213 1781 70 
Q 1550 -72 1288 -72 
Q 1044 -72 808 0 
Q 572 72 414 226 
Q 256 381 256 628 
z
M 775 628 
Q 775 403 940 250 
Q 1106 97 1331 97 
Q 1538 97 1706 200 
Q 1875 303 1975 481 
Q 2075 659 2075 856 
L 2075 1522 
Q 1784 1522 1479 1426 
Q 1175 1331 975 1128 
Q 775 925 775 628 
z
" transform="scale(0.015625)"/>
       <path id="Cmr10-6e" d="M 191 0 
L 191 225 
Q 409 225 550 259 
Q 691 294 691 428 
L 691 2175 
Q 691 2347 639 2423 
Q 588 2500 491 2517 
Q 394 2534 191 2534 
L 191 2759 
L 1119 2828 
L 1119 2203 
Q 1247 2478 1498 2653 
Q 1750 2828 2047 2828 
Q 2491 2828 2714 2615 
Q 2938 2403 2938 1966 
L 2938 428 
Q 2938 294 3078 259 
Q 3219 225 3438 225 
L 3438 0 
L 1972 0 
L 1972 225 
Q 2191 225 2331 259 
Q 2472 294 2472 428 
L 2472 1947 
Q 2472 2259 2381 2461 
Q 2291 2663 2009 2663 
Q 1638 2663 1398 2366 
Q 1159 2069 1159 1691 
L 1159 428 
Q 1159 294 1300 259 
Q 1441 225 1656 225 
L 1656 0 
L 191 0 
z
" transform="scale(0.015625)"/>
       <path id="Cmr10-20" transform="scale(0.015625)"/>
       <path id="Cmr10-45" d="M 197 0 
L 197 225 
Q 856 225 856 428 
L 856 3944 
Q 856 4147 197 4147 
L 197 4372 
L 3816 4372 
L 3994 2906 
L 3809 2906 
Q 3741 3459 3617 3709 
Q 3494 3959 3222 4053 
Q 2950 4147 2406 4147 
L 1778 4147 
Q 1663 4147 1598 4137 
Q 1534 4128 1493 4083 
Q 1453 4038 1453 3944 
L 1453 2381 
L 1925 2381 
Q 2250 2381 2411 2436 
Q 2572 2491 2633 2645 
Q 2694 2800 2694 3128 
L 2881 3128 
L 2881 1409 
L 2694 1409 
Q 2694 1734 2633 1890 
Q 2572 2047 2411 2101 
Q 2250 2156 1925 2156 
L 1453 2156 
L 1453 428 
Q 1453 291 1531 258 
Q 1609 225 1778 225 
L 2456 225 
Q 2900 225 3173 295 
Q 3447 366 3598 530 
Q 3750 694 3833 955 
Q 3916 1216 3988 1678 
L 4172 1678 
L 3903 0 
L 197 0 
z
" transform="scale(0.015625)"/>
       <path id="Cmr10-76" d="M 1563 0 
L 628 2350 
Q 569 2469 445 2501 
Q 322 2534 122 2534 
L 122 2759 
L 1466 2759 
L 1466 2534 
Q 1106 2534 1106 2381 
Q 1106 2356 1113 2344 
L 1831 538 
L 2478 2169 
Q 2497 2219 2497 2272 
Q 2497 2394 2405 2464 
Q 2313 2534 2188 2534 
L 2188 2759 
L 3250 2759 
L 3250 2534 
Q 3053 2534 2904 2443 
Q 2756 2353 2675 2175 
L 1813 0 
Q 1788 -72 1709 -72 
L 1663 -72 
Q 1584 -72 1563 0 
z
" transform="scale(0.015625)"/>
       <path id="Cmr10-6c" d="M 197 0 
L 197 225 
Q 416 225 556 259 
Q 697 294 697 428 
L 697 3788 
Q 697 3959 645 4036 
Q 594 4113 497 4130 
Q 400 4147 197 4147 
L 197 4372 
L 1147 4441 
L 1147 428 
Q 1147 294 1287 259 
Q 1428 225 1644 225 
L 1644 0 
L 197 0 
z
" transform="scale(0.015625)"/>
       <path id="Cmr10-2e" d="M 538 353 
Q 538 497 644 600 
Q 750 703 891 703 
Q 978 703 1062 656 
Q 1147 609 1194 525 
Q 1241 441 1241 353 
Q 1241 213 1137 106 
Q 1034 0 891 0 
Q 750 0 644 106 
Q 538 213 538 353 
z
" transform="scale(0.015625)"/>
       <path id="Cmr10-52" d="M 213 0 
L 213 225 
Q 872 225 872 428 
L 872 3944 
Q 872 4147 213 4147 
L 213 4372 
L 2222 4372 
Q 2581 4372 2976 4242 
Q 3372 4113 3637 3847 
Q 3903 3581 3903 3213 
Q 3903 2944 3742 2733 
Q 3581 2522 3329 2380 
Q 3078 2238 2816 2175 
Q 3103 2075 3318 1856 
Q 3534 1638 3578 1356 
L 3669 788 
Q 3731 403 3800 214 
Q 3869 25 4103 25 
Q 4303 25 4401 211 
Q 4500 397 4500 616 
Q 4500 638 4520 655 
Q 4541 672 4563 672 
L 4622 672 
Q 4684 672 4684 588 
Q 4684 413 4615 245 
Q 4547 78 4417 -31 
Q 4288 -141 4109 -141 
Q 3647 -141 3314 89 
Q 2981 319 2981 763 
L 2981 1331 
Q 2981 1650 2759 1878 
Q 2538 2106 2216 2106 
L 1447 2106 
L 1447 428 
Q 1447 225 2106 225 
L 2106 0 
L 213 0 
z
M 1447 2272 
L 2131 2272 
Q 2663 2272 2941 2486 
Q 3219 2700 3219 3213 
Q 3219 3722 2944 3934 
Q 2669 4147 2131 4147 
L 1772 4147 
Q 1656 4147 1592 4137 
Q 1528 4128 1487 4083 
Q 1447 4038 1447 3944 
L 1447 2272 
z
" transform="scale(0.015625)"/>
       <path id="Cmr10-77" d="M 1416 0 
L 588 2328 
Q 531 2469 425 2501 
Q 319 2534 116 2534 
L 116 2759 
L 1434 2759 
L 1434 2534 
Q 1056 2534 1056 2375 
Q 1059 2366 1061 2356 
Q 1063 2347 1063 2328 
L 1678 603 
L 2209 2106 
L 2125 2328 
Q 2075 2469 1965 2501 
Q 1856 2534 1656 2534 
L 1656 2759 
L 2919 2759 
L 2919 2534 
Q 2541 2534 2541 2375 
Q 2541 2350 2547 2328 
L 3188 525 
L 3769 2156 
Q 3781 2206 3781 2247 
Q 3781 2381 3667 2457 
Q 3553 2534 3413 2534 
L 3413 2759 
L 4500 2759 
L 4500 2534 
Q 4306 2534 4167 2432 
Q 4028 2331 3963 2156 
L 3200 0 
Q 3178 -72 3103 -72 
L 3053 -72 
Q 2978 -72 2956 0 
L 2309 1825 
L 1663 0 
Q 1631 -72 1563 -72 
L 1516 -72 
Q 1438 -72 1416 0 
z
" transform="scale(0.015625)"/>
       <path id="Cmr10-72" d="M 166 0 
L 166 225 
Q 384 225 525 259 
Q 666 294 666 428 
L 666 2175 
Q 666 2347 614 2423 
Q 563 2500 466 2517 
Q 369 2534 166 2534 
L 166 2759 
L 1081 2828 
L 1081 2203 
Q 1184 2481 1375 2654 
Q 1566 2828 1838 2828 
Q 2028 2828 2178 2715 
Q 2328 2603 2328 2419 
Q 2328 2303 2245 2217 
Q 2163 2131 2041 2131 
Q 1922 2131 1837 2215 
Q 1753 2300 1753 2419 
Q 1753 2591 1875 2663 
L 1838 2663 
Q 1578 2663 1414 2475 
Q 1250 2288 1181 2009 
Q 1113 1731 1113 1478 
L 1113 428 
Q 1113 225 1734 225 
L 1734 0 
L 166 0 
z
" transform="scale(0.015625)"/>
       <path id="Cmr10-64" d="M 1563 -72 
Q 1184 -72 871 133 
Q 559 338 386 672 
Q 213 1006 213 1381 
Q 213 1769 402 2101 
Q 591 2434 916 2631 
Q 1241 2828 1631 2828 
Q 1866 2828 2075 2729 
Q 2284 2631 2438 2456 
L 2438 3788 
Q 2438 3959 2386 4036 
Q 2334 4113 2239 4130 
Q 2144 4147 1941 4147 
L 1941 4372 
L 2888 4441 
L 2888 581 
Q 2888 413 2939 336 
Q 2991 259 3086 242 
Q 3181 225 3384 225 
L 3384 0 
L 2419 -72 
L 2419 331 
Q 2253 141 2025 34 
Q 1797 -72 1563 -72 
z
M 909 556 
Q 1019 347 1201 222 
Q 1384 97 1600 97 
Q 1866 97 2087 250 
Q 2309 403 2419 647 
L 2419 2181 
Q 2344 2322 2230 2433 
Q 2116 2544 1973 2603 
Q 1831 2663 1672 2663 
Q 1338 2663 1134 2473 
Q 931 2284 850 1990 
Q 769 1697 769 1375 
Q 769 1119 795 928 
Q 822 738 909 556 
z
" transform="scale(0.015625)"/>
       <path id="Cmr10-28" d="M 1984 -1588 
Q 1628 -1306 1370 -942 
Q 1113 -578 948 -165 
Q 784 247 703 697 
Q 622 1147 622 1600 
Q 622 2059 703 2509 
Q 784 2959 951 3375 
Q 1119 3791 1378 4153 
Q 1638 4516 1984 4788 
Q 1984 4800 2016 4800 
L 2075 4800 
Q 2094 4800 2109 4783 
Q 2125 4766 2125 4744 
Q 2125 4716 2113 4703 
Q 1800 4397 1592 4047 
Q 1384 3697 1257 3301 
Q 1131 2906 1075 2482 
Q 1019 2059 1019 1600 
Q 1019 -434 2106 -1491 
Q 2125 -1509 2125 -1544 
Q 2125 -1559 2108 -1579 
Q 2091 -1600 2075 -1600 
L 2016 -1600 
Q 1984 -1600 1984 -1588 
z
" transform="scale(0.015625)"/>
       <path id="Cmsy10-a7" d="M 481 0 
Q 428 0 393 37 
Q 359 75 359 128 
Q 359 175 393 215 
Q 428 256 481 256 
L 2363 256 
L 2363 2003 
L 481 2003 
Q 428 2003 393 2043 
Q 359 2084 359 2131 
Q 359 2178 393 2218 
Q 428 2259 481 2259 
L 2363 2259 
L 2363 4147 
Q 2363 4197 2400 4230 
Q 2438 4263 2491 4263 
Q 2534 4263 2576 4230 
Q 2619 4197 2619 4147 
L 2619 2259 
L 4500 2259 
Q 4547 2259 4581 2218 
Q 4616 2178 4616 2131 
Q 4616 2084 4581 2043 
Q 4547 2003 4500 2003 
L 2619 2003 
L 2619 256 
L 4500 256 
Q 4547 256 4581 215 
Q 4616 175 4616 128 
Q 4616 75 4581 37 
Q 4547 0 4500 0 
L 481 0 
z
" transform="scale(0.015625)"/>
       <path id="Cmmi10-be" d="M 1197 -72 
Q 913 -72 692 64 
Q 472 200 351 431 
Q 231 663 231 941 
Q 231 1238 365 1566 
Q 500 1894 733 2166 
Q 966 2438 1259 2598 
Q 1553 2759 1863 2759 
L 3475 2759 
Q 3541 2759 3587 2715 
Q 3634 2672 3634 2597 
Q 3634 2503 3567 2433 
Q 3500 2363 3406 2363 
L 2625 2363 
Q 2809 2088 2809 1697 
Q 2809 1375 2684 1062 
Q 2559 750 2337 492 
Q 2116 234 1820 81 
Q 1525 -72 1197 -72 
z
M 1203 97 
Q 1553 97 1823 370 
Q 2094 644 2237 1039 
Q 2381 1434 2381 1772 
Q 2381 2047 2229 2205 
Q 2078 2363 1806 2363 
Q 1434 2363 1173 2113 
Q 913 1863 783 1484 
Q 653 1106 653 756 
Q 653 481 798 289 
Q 944 97 1203 97 
z
" transform="scale(0.015625)"/>
       <path id="Cmr10-29" d="M 416 -1600 
Q 359 -1600 359 -1544 
Q 359 -1516 372 -1503 
Q 1466 -434 1466 1600 
Q 1466 3634 384 4691 
Q 359 4706 359 4744 
Q 359 4766 376 4783 
Q 394 4800 416 4800 
L 475 4800 
Q 494 4800 506 4788 
Q 966 4425 1272 3906 
Q 1578 3388 1720 2800 
Q 1863 2213 1863 1600 
Q 1863 1147 1786 708 
Q 1709 269 1542 -157 
Q 1375 -584 1119 -945 
Q 863 -1306 506 -1588 
Q 494 -1600 475 -1600 
L 416 -1600 
z
" transform="scale(0.015625)"/>
       <path id="Cmr10-2c" d="M 634 -1153 
Q 634 -1125 659 -1100 
Q 891 -878 1019 -587 
Q 1147 -297 1147 25 
L 1147 103 
Q 1044 0 891 0 
Q 744 0 641 103 
Q 538 206 538 353 
Q 538 503 641 603 
Q 744 703 891 703 
Q 1119 703 1216 492 
Q 1313 281 1313 25 
Q 1313 -331 1170 -651 
Q 1028 -972 769 -1228 
Q 744 -1241 728 -1241 
Q 697 -1241 665 -1212 
Q 634 -1184 634 -1153 
z
" transform="scale(0.015625)"/>
       <path id="Cmr10-53" d="M 359 -91 
L 359 1403 
Q 359 1453 416 1453 
L 494 1453 
Q 513 1453 528 1437 
Q 544 1422 544 1403 
Q 544 775 933 429 
Q 1322 84 1953 84 
Q 2175 84 2362 212 
Q 2550 341 2654 548 
Q 2759 756 2759 978 
Q 2759 1172 2681 1355 
Q 2603 1538 2456 1672 
Q 2309 1806 2125 1850 
L 1294 2053 
Q 881 2163 620 2502 
Q 359 2841 359 3263 
Q 359 3594 528 3884 
Q 697 4175 983 4344 
Q 1269 4513 1600 4513 
Q 2241 4513 2619 4078 
L 2881 4494 
Q 2900 4513 2925 4513 
L 2969 4513 
Q 2988 4513 3005 4498 
Q 3022 4484 3022 4459 
L 3022 2975 
Q 3022 2919 2969 2919 
L 2894 2919 
Q 2834 2919 2834 2975 
Q 2834 3138 2779 3331 
Q 2725 3525 2628 3703 
Q 2531 3881 2419 3994 
Q 2109 4306 1600 4306 
Q 1381 4306 1197 4195 
Q 1013 4084 903 3893 
Q 794 3703 794 3494 
Q 794 3219 964 2995 
Q 1134 2772 1409 2700 
L 2241 2497 
Q 2447 2447 2630 2317 
Q 2813 2188 2934 2016 
Q 3056 1844 3125 1633 
Q 3194 1422 3194 1197 
Q 3194 850 3034 542 
Q 2875 234 2586 46 
Q 2297 -141 1953 -141 
Q 1741 -141 1519 -94 
Q 1297 -47 1109 50 
Q 922 147 769 300 
L 500 -122 
Q 481 -141 453 -141 
L 416 -141 
Q 359 -141 359 -91 
z
" transform="scale(0.015625)"/>
       <path id="Cmr10-6f" d="M 1600 -72 
Q 1216 -72 887 123 
Q 559 319 368 647 
Q 178 975 178 1363 
Q 178 1656 283 1928 
Q 388 2200 583 2414 
Q 778 2628 1037 2748 
Q 1297 2869 1600 2869 
Q 1994 2869 2317 2661 
Q 2641 2453 2828 2104 
Q 3016 1756 3016 1363 
Q 3016 978 2825 648 
Q 2634 319 2307 123 
Q 1981 -72 1600 -72 
z
M 1600 116 
Q 2113 116 2284 487 
Q 2456 859 2456 1434 
Q 2456 1756 2422 1967 
Q 2388 2178 2272 2350 
Q 2200 2456 2089 2536 
Q 1978 2616 1854 2658 
Q 1731 2700 1600 2700 
Q 1400 2700 1220 2609 
Q 1041 2519 922 2350 
Q 803 2169 770 1951 
Q 738 1734 738 1434 
Q 738 1075 800 789 
Q 863 503 1052 309 
Q 1241 116 1600 116 
z
" transform="scale(0.015625)"/>
       <path id="Cmr10-68" d="M 191 0 
L 191 225 
Q 409 225 550 259 
Q 691 294 691 428 
L 691 3788 
Q 691 3959 639 4036 
Q 588 4113 491 4130 
Q 394 4147 191 4147 
L 191 4372 
L 1141 4441 
L 1141 2241 
Q 1275 2506 1515 2667 
Q 1756 2828 2047 2828 
Q 2491 2828 2714 2615 
Q 2938 2403 2938 1966 
L 2938 428 
Q 2938 294 3078 259 
Q 3219 225 3438 225 
L 3438 0 
L 1972 0 
L 1972 225 
Q 2191 225 2331 259 
Q 2472 294 2472 428 
L 2472 1947 
Q 2472 2259 2381 2461 
Q 2291 2663 2009 2663 
Q 1638 2663 1398 2366 
Q 1159 2069 1159 1691 
L 1159 428 
Q 1159 294 1300 259 
Q 1441 225 1656 225 
L 1656 0 
L 191 0 
z
" transform="scale(0.015625)"/>
       <path id="Cmr10-57" d="M 1991 -72 
L 684 3944 
Q 634 4078 490 4112 
Q 347 4147 116 4147 
L 116 4372 
L 1831 4372 
L 1831 4147 
Q 1294 4147 1294 3975 
L 1294 3944 
L 2316 794 
L 3188 3488 
L 3041 3944 
Q 2991 4078 2847 4112 
Q 2703 4147 2472 4147 
L 2472 4372 
L 4184 4372 
L 4184 4147 
Q 3641 4147 3641 3975 
Q 3641 3966 3647 3947 
Q 3653 3928 3653 3922 
L 4672 794 
L 5631 3769 
Q 5638 3788 5638 3828 
Q 5638 3997 5459 4072 
Q 5281 4147 5088 4147 
L 5088 4372 
L 6456 4372 
L 6456 4147 
Q 5950 4147 5831 3769 
L 4581 -72 
Q 4559 -141 4488 -141 
L 4441 -141 
Q 4369 -141 4347 -72 
L 3291 3188 
L 2228 -72 
Q 2206 -141 2131 -141 
L 2088 -141 
Q 2013 -141 1991 -72 
z
" transform="scale(0.015625)"/>
       <path id="Cmr10-3d" d="M 481 850 
Q 428 850 393 890 
Q 359 931 359 978 
Q 359 1031 393 1068 
Q 428 1106 481 1106 
L 4500 1106 
Q 4547 1106 4581 1068 
Q 4616 1031 4616 978 
Q 4616 931 4581 890 
Q 4547 850 4500 850 
L 481 850 
z
M 481 2094 
Q 428 2094 393 2131 
Q 359 2169 359 2222 
Q 359 2269 393 2309 
Q 428 2350 481 2350 
L 4500 2350 
Q 4547 2350 4581 2309 
Q 4616 2269 4616 2222 
Q 4616 2169 4581 2131 
Q 4547 2094 4500 2094 
L 481 2094 
z
" transform="scale(0.015625)"/>
      </defs>
      <use xlink:href="#Cmr10-4d"/>
      <use xlink:href="#Cmr10-65" transform="translate(91.601562 0)"/>
      <use xlink:href="#Cmr10-61" transform="translate(135.986328 0)"/>
      <use xlink:href="#Cmr10-6e" transform="translate(185.986328 0)"/>
      <use xlink:href="#Cmr10-20" transform="translate(241.503906 0)"/>
      <use xlink:href="#Cmr10-45" transform="translate(274.804688 0)"/>
      <use xlink:href="#Cmr10-76" transform="translate(342.822266 0)"/>
      <use xlink:href="#Cmr10-61" transform="translate(395.507812 0)"/>
      <use xlink:href="#Cmr10-6c" transform="translate(445.507812 0)"/>
      <use xlink:href="#Cmr10-2e" transform="translate(473.193359 0)"/>
      <use xlink:href="#Cmr10-20" transform="translate(500.878906 0)"/>
      <use xlink:href="#Cmr10-52" transform="translate(534.179688 0)"/>
      <use xlink:href="#Cmr10-65" transform="translate(607.763672 0)"/>
      <use xlink:href="#Cmr10-77" transform="translate(652.148438 0)"/>
      <use xlink:href="#Cmr10-61" transform="translate(724.365234 0)"/>
      <use xlink:href="#Cmr10-72" transform="translate(774.365234 0)"/>
      <use xlink:href="#Cmr10-64" transform="translate(813.476562 0)"/>
      <use xlink:href="#Cmr10-20" transform="translate(868.994141 0)"/>
      <use xlink:href="#Cmr10-28" transform="translate(902.294922 0)"/>
      <use xlink:href="#Cmsy10-a7" transform="translate(941.113281 0)"/>
      <use xlink:href="#Cmmi10-be" transform="translate(1018.798828 0)"/>
      <use xlink:href="#Cmr10-29" transform="translate(1075.878906 0)"/>
      <use xlink:href="#Cmr10-2c" transform="translate(1114.697266 0)"/>
      <use xlink:href="#Cmr10-20" transform="translate(1142.382812 0)"/>
      <use xlink:href="#Cmr10-53" transform="translate(1175.683594 0)"/>
      <use xlink:href="#Cmr10-6d" transform="translate(1231.201172 0)"/>
      <use xlink:href="#Cmr10-6f" transform="translate(1314.501953 0)"/>
      <use xlink:href="#Cmr10-6f" transform="translate(1364.501953 0)"/>
      <use xlink:href="#Cmr10-74" transform="translate(1414.501953 0)"/>
      <use xlink:href="#Cmr10-68" transform="translate(1453.320312 0)"/>
      <use xlink:href="#Cmr10-65" transform="translate(1508.837891 0)"/>
      <use xlink:href="#Cmr10-64" transform="translate(1553.222656 0)"/>
      <use xlink:href="#Cmr10-20" transform="translate(1608.740234 0)"/>
      <use xlink:href="#Cmr10-28" transform="translate(1642.041016 0)"/>
      <use xlink:href="#Cmr10-57" transform="translate(1680.859375 0)"/>
      <use xlink:href="#Cmr10-69" transform="translate(1783.544922 0)"/>
      <use xlink:href="#Cmr10-6e" transform="translate(1811.230469 0)"/>
      <use xlink:href="#Cmr10-64" transform="translate(1866.748047 0)"/>
      <use xlink:href="#Cmr10-6f" transform="translate(1922.265625 0)"/>
      <use xlink:href="#Cmr10-77" transform="translate(1972.265625 0)"/>
      <use xlink:href="#Cmr10-20" transform="translate(2044.482422 0)"/>
      <use xlink:href="#Cmr10-3d" transform="translate(2077.783203 0)"/>
      <use xlink:href="#Cmr10-20" transform="translate(2155.46875 0)"/>
      <use xlink:href="#Cmr10-35" transform="translate(2188.769531 0)"/>
      <use xlink:href="#Cmr10-20" transform="translate(2238.769531 0)"/>
      <use xlink:href="#Cmr10-65" transform="translate(2272.070312 0)"/>
      <use xlink:href="#Cmr10-70" transform="translate(2316.455078 0)"/>
      <use xlink:href="#Cmr10-2e" transform="translate(2371.972656 0)"/>
      <use xlink:href="#Cmr10-29" transform="translate(2399.658203 0)"/>
     </g>
    </g>
   </g>
   <g id="line2d_117">
    <path d="M 57.351129 211.320662 
L 58.495906 189.960413 
L 59.640683 166.868093 
L 60.78546 136.912075 
L 61.930237 105.488202 
L 63.075014 73.547642 
L 64.219791 62.503489 
L 65.364568 59.843733 
L 66.509345 60.536561 
L 67.654122 59.726305 
L 68.798899 58.827976 
L 69.943676 61.487732 
L 71.088453 58.998248 
L 72.23323 55.904006 
L 73.378007 56.673163 
L 74.522784 60.824261 
L 75.667561 64.81096 
L 76.812338 64.059417 
L 77.957115 66.002859 
L 79.101892 67.922816 
L 80.246669 66.460831 
L 81.391446 63.748232 
L 82.536223 58.546148 
L 83.681 54.177807 
L 84.825777 48.26528 
L 85.970554 45.857995 
L 87.115331 41.589468 
L 88.260108 40.309498 
L 89.404885 42.669811 
L 90.549662 44.073082 
L 91.694439 40.961226 
L 92.839216 38.225141 
L 93.983993 36.833613 
L 95.12877 33.933129 
L 96.273547 31.361444 
L 97.418324 30.333944 
L 98.563101 29.259473 
L 99.707878 30.586415 
L 100.852655 30.304587 
L 101.997432 30.574673 
L 103.142209 32.365458 
L 104.286986 32.5005 
L 105.431763 31.379058 
L 106.57654 30.76843 
L 107.721316 29.887716 
L 108.866093 27.867945 
L 110.01087 28.126288 
L 111.155647 27.826845 
L 112.300424 27.222088 
L 113.445201 27.803359 
L 114.589978 27.727031 
L 115.734755 26.758245 
L 116.879532 31.643272 
L 118.024309 32.606186 
L 119.169086 32.218672 
L 120.313863 33.128743 
L 121.45864 34.109271 
L 122.603417 28.490316 
L 123.748194 28.085188 
L 124.892971 27.909045 
L 126.037748 26.887417 
L 127.182525 25.654417 
L 128.327302 26.73476 
L 129.472079 27.627217 
L 130.616856 28.578388 
L 131.761633 29.49433 
L 132.90641 30.651001 
L 134.051187 31.267501 
L 135.195964 30.11083 
L 136.340741 30.06973 
L 137.485518 29.406259 
L 138.630295 28.613616 
L 139.775072 28.114545 
L 140.919849 28.185002 
L 142.064626 27.668317 
L 143.209403 29.324059 
L 144.35418 28.965902 
L 145.498957 28.255459 
L 146.643734 27.938402 
L 147.788511 27.897302 
L 148.933288 25.936246 
L 150.078065 26.006703 
L 151.222842 26.376603 
L 152.367619 26.846317 
L 153.512396 26.564488 
L 154.657173 27.239702 
L 155.80195 27.31016 
L 156.946727 27.157502 
L 158.091503 26.987231 
L 159.23628 26.887417 
L 160.381057 26.182846 
L 161.525834 26.353117 
L 162.670611 26.946131 
L 163.815388 28.255459 
L 164.960165 28.883702 
L 166.104942 29.04223 
" clip-path="url(#pe56249e387)" style="fill: none; stroke: #0c5da5; stroke-linecap: square"/>
   </g>
   <g id="line2d_118">
    <path d="M 57.351129 62.673761 
L 58.495906 65.662317 
L 59.640683 69.860386 
L 60.78546 73.030957 
L 61.930237 72.584728 
L 63.075014 56.573349 
L 64.219791 53.396907 
L 65.364568 59.391633 
L 66.509345 56.861048 
L 67.654122 55.75722 
L 68.798899 65.292417 
L 69.943676 72.3029 
L 71.088453 62.362575 
L 72.23323 62.033775 
L 73.378007 62.362575 
L 74.522784 51.758779 
L 75.667561 52.046479 
L 76.812338 55.692635 
L 77.957115 74.639727 
L 79.101892 61.687361 
L 80.246669 61.511218 
L 81.391446 59.42099 
L 82.536223 55.868777 
L 83.681 44.167025 
L 84.825777 45.30021 
L 85.970554 45.981295 
L 87.115331 43.891068 
L 88.260108 43.826482 
L 89.404885 37.156542 
L 90.549662 36.53417 
L 91.694439 35.723914 
L 92.839216 32.594443 
L 93.983993 33.944871 
L 95.12877 32.5827 
L 96.273547 32.518115 
L 97.418324 32.054272 
L 98.563101 30.903473 
L 99.707878 28.372888 
L 100.852655 28.554902 
L 101.997432 29.693959 
L 103.142209 30.527701 
L 104.286986 31.108972 
L 105.431763 31.232272 
L 106.57654 32.295001 
L 107.721316 30.921087 
L 108.866093 30.099087 
L 110.01087 30.345687 
L 111.155647 30.427887 
L 112.300424 29.095073 
L 113.445201 28.607745 
L 114.589978 28.901316 
L 115.734755 29.981659 
L 116.879532 29.365159 
L 120.313863 29.717444 
L 121.45864 28.736916 
L 122.603417 29.253602 
L 124.892971 31.878129 
L 126.037748 31.208787 
L 127.182525 32.001429 
L 128.327302 32.365458 
L 129.472079 31.866386 
L 130.616856 31.144201 
L 131.761633 32.612058 
L 132.90641 31.431901 
L 134.051187 31.308601 
L 135.195964 33.5691 
L 136.340741 32.9937 
L 137.485518 34.156243 
L 138.630295 34.872557 
L 139.775072 34.696414 
L 140.919849 32.453529 
L 142.064626 31.977944 
L 143.209403 29.030488 
L 144.35418 28.619488 
L 145.498957 28.490316 
L 147.788511 36.011613 
L 148.933288 37.350299 
L 150.078065 37.878727 
L 151.222842 38.025513 
L 152.367619 35.653456 
L 153.512396 32.535729 
L 154.657173 31.561072 
L 155.80195 34.3089 
L 156.946727 35.506671 
L 158.091503 33.492772 
L 159.23628 34.079914 
L 160.381057 36.962785 
L 161.525834 33.551486 
L 162.670611 32.283258 
L 163.815388 31.784186 
L 164.960165 33.933129 
L 166.104942 35.260071 
L 167.249719 35.753271 
L 169.539273 35.559514 
L 170.68405 37.033242 
L 171.828827 34.2267 
L 172.973604 35.483185 
L 174.118381 35.142642 
L 175.263158 35.788499 
L 176.407935 31.455387 
L 177.552712 31.062001 
L 178.697489 29.32993 
L 179.842266 29.482587 
L 180.987043 29.08333 
L 182.13182 28.983516 
L 183.276597 27.938402 
L 184.421374 27.292545 
L 185.566151 27.791617 
L 186.710928 29.758544 
L 187.855705 30.210644 
L 189.000482 30.198901 
L 190.145259 31.784186 
L 191.290036 31.678501 
L 192.434813 29.899459 
L 193.57959 29.664602 
L 194.724367 29.670473 
L 195.869144 29.799644 
L 197.013921 29.758544 
L 198.158698 29.300573 
L 199.303475 31.531715 
L 200.448252 31.772444 
L 201.593029 30.60403 
L 202.737806 32.682515 
L 203.882583 32.764715 
L 205.02736 30.915215 
L 206.172137 31.26163 
L 207.316914 31.954458 
L 208.46169 29.834873 
L 209.606467 30.052116 
L 210.751244 30.134316 
L 211.896021 29.57653 
L 213.040798 28.883702 
L 214.185575 29.834873 
L 215.330352 31.989686 
L 216.475129 31.496487 
L 217.619906 32.9526 
L 219.90946 33.686529 
L 221.054237 32.077758 
L 222.199014 31.977944 
L 223.343791 32.300872 
L 224.488568 32.107115 
L 225.633345 30.903473 
L 227.922899 30.492473 
L 229.067676 28.361145 
L 230.212453 28.396373 
L 231.35723 28.038216 
L 232.502007 28.231974 
L 233.646784 28.67233 
L 234.791561 28.866088 
L 235.936338 29.764416 
L 237.081115 29.635244 
L 238.225892 28.819116 
L 239.370669 28.813245 
L 240.515446 30.43963 
L 241.660223 29.86423 
L 243.949777 30.862373 
L 245.094554 30.345687 
L 246.239331 30.609901 
L 248.528885 29.564787 
L 249.673662 28.913059 
L 250.818439 28.807373 
L 251.963216 27.10466 
L 253.107993 28.143902 
L 255.397547 31.866386 
L 256.542324 32.212801 
L 257.687101 32.142343 
L 258.831877 31.701986 
L 259.976654 32.4594 
L 261.121431 30.838887 
L 263.410985 31.514101 
L 264.555762 32.212801 
L 265.700539 30.15193 
L 266.845316 29.646987 
L 267.990093 30.251744 
L 269.13487 30.087344 
L 270.279647 29.306445 
L 271.424424 29.259473 
L 272.569201 30.533573 
L 273.713978 29.940559 
L 274.858755 30.31633 
L 276.003532 30.175416 
L 277.148309 30.310458 
L 278.293086 29.676344 
L 279.437863 29.676344 
L 282.872194 27.809231 
L 284.016971 27.791617 
L 285.161748 39.892626 
L 286.306525 41.125626 
L 287.451302 41.824326 
L 288.596079 41.290026 
L 289.740856 41.055169 
L 290.885633 29.007002 
L 293.175187 28.314173 
L 294.319964 29.218373 
L 295.464741 29.975787 
L 296.609518 29.20663 
L 297.754295 28.801502 
L 298.899072 29.899459 
L 300.043849 29.400387 
L 301.188626 29.406259 
L 302.333403 29.688087 
L 304.622957 28.190874 
L 305.767734 28.361145 
L 306.912511 29.012873 
L 309.202064 29.388645 
L 310.346841 30.06973 
L 311.491618 30.198901 
L 312.636395 29.511944 
L 313.781172 29.729187 
L 314.925949 30.568801 
L 316.070726 32.970215 
L 317.215503 32.752972 
L 318.36028 33.522129 
L 320.649834 33.299014 
L 321.794611 30.427887 
L 322.939388 30.862373 
L 324.084165 30.263487 
L 325.228942 30.80953 
L 326.373719 30.627515 
L 326.373719 30.627515 
" clip-path="url(#pe56249e387)" style="fill: none; stroke: #00b945; stroke-linecap: square"/>
   </g>
   <g id="patch_3">
    <path d="M 43.9 243.54375 
L 43.9 3.6 
" style="fill: none; stroke: #000000; stroke-width: 0.5; stroke-linejoin: miter; stroke-linecap: square"/>
   </g>
   <g id="patch_4">
    <path d="M 339.824849 243.54375 
L 339.824849 3.6 
" style="fill: none; stroke: #000000; stroke-width: 0.5; stroke-linejoin: miter; stroke-linecap: square"/>
   </g>
   <g id="patch_5">
    <path d="M 43.9 243.54375 
L 339.824849 243.54375 
" style="fill: none; stroke: #000000; stroke-width: 0.5; stroke-linejoin: miter; stroke-linecap: square"/>
   </g>
   <g id="patch_6">
    <path d="M 43.9 3.6 
L 339.824849 3.6 
" style="fill: none; stroke: #000000; stroke-width: 0.5; stroke-linejoin: miter; stroke-linecap: square"/>
   </g>
   <g id="legend_1">
    <g id="line2d_119">
     <path d="M 279.924849 215.114062 
L 289.924849 215.114062 
L 299.924849 215.114062 
" style="fill: none; stroke: #0c5da5; stroke-linecap: square"/>
    </g>
    <g id="text_13">
     <!-- PPO -->
     <g transform="translate(307.924849 218.614062) scale(0.1 -0.1)">
      <defs>
       <path id="Cmr10-50" d="M 213 0 
L 213 225 
Q 872 225 872 428 
L 872 3944 
Q 872 4147 213 4147 
L 213 4372 
L 2491 4372 
Q 2841 4372 3191 4228 
Q 3541 4084 3767 3809 
Q 3994 3534 3994 3169 
Q 3994 2813 3766 2544 
Q 3538 2275 3191 2136 
Q 2844 1997 2491 1997 
L 1466 1997 
L 1466 428 
Q 1466 225 2125 225 
L 2125 0 
L 213 0 
z
M 1447 2188 
L 2316 2188 
Q 2669 2188 2887 2289 
Q 3106 2391 3207 2605 
Q 3309 2819 3309 3169 
Q 3309 3691 3079 3919 
Q 2850 4147 2316 4147 
L 1772 4147 
Q 1656 4147 1592 4137 
Q 1528 4128 1487 4083 
Q 1447 4038 1447 3944 
L 1447 2188 
z
" transform="scale(0.015625)"/>
       <path id="Cmr10-4f" d="M 2491 -141 
Q 1881 -141 1395 182 
Q 909 506 634 1042 
Q 359 1578 359 2169 
Q 359 2606 517 3034 
Q 675 3463 958 3794 
Q 1241 4125 1637 4319 
Q 2034 4513 2491 4513 
Q 2944 4513 3342 4317 
Q 3741 4122 4025 3787 
Q 4309 3453 4462 3037 
Q 4616 2622 4616 2169 
Q 4616 1578 4341 1042 
Q 4066 506 3578 182 
Q 3091 -141 2491 -141 
z
M 1428 691 
Q 1616 397 1891 223 
Q 2166 50 2491 50 
Q 2700 50 2901 134 
Q 3103 219 3267 366 
Q 3431 513 3547 691 
Q 3928 1266 3928 2272 
Q 3928 3194 3547 3731 
Q 3359 4000 3079 4162 
Q 2800 4325 2491 4325 
Q 2178 4325 1897 4162 
Q 1616 4000 1428 3731 
Q 1278 3522 1195 3286 
Q 1113 3050 1078 2797 
Q 1044 2544 1044 2272 
Q 1044 1981 1076 1704 
Q 1109 1428 1198 1162 
Q 1288 897 1428 691 
z
" transform="scale(0.015625)"/>
      </defs>
      <use xlink:href="#Cmr10-50"/>
      <use xlink:href="#Cmr10-50" transform="translate(68.017578 0)"/>
      <use xlink:href="#Cmr10-4f" transform="translate(136.035156 0)"/>
     </g>
    </g>
    <g id="line2d_120">
     <path d="M 279.924849 229.104687 
L 289.924849 229.104687 
L 299.924849 229.104687 
" style="fill: none; stroke: #00b945; stroke-linecap: square"/>
    </g>
    <g id="text_14">
     <!-- DQN -->
     <g transform="translate(307.924849 232.604687) scale(0.1 -0.1)">
      <defs>
       <path id="Cmr10-44" d="M 213 0 
L 213 225 
Q 872 225 872 428 
L 872 3944 
Q 872 4147 213 4147 
L 213 4372 
L 2572 4372 
Q 3009 4372 3371 4183 
Q 3734 3994 3990 3678 
Q 4247 3363 4386 2963 
Q 4525 2563 4525 2144 
Q 4525 1738 4384 1355 
Q 4244 972 3980 664 
Q 3716 356 3355 178 
Q 2994 0 2572 0 
L 213 0 
z
M 1447 428 
Q 1447 291 1525 258 
Q 1603 225 1772 225 
L 2406 225 
Q 2734 225 3029 367 
Q 3325 509 3519 763 
Q 3722 1031 3790 1364 
Q 3859 1697 3859 2144 
Q 3859 2609 3790 2959 
Q 3722 3309 3519 3584 
Q 3328 3856 3034 4001 
Q 2741 4147 2406 4147 
L 1772 4147 
Q 1656 4147 1592 4137 
Q 1528 4128 1487 4083 
Q 1447 4038 1447 3944 
L 1447 428 
z
" transform="scale(0.015625)"/>
       <path id="Cmr10-51" d="M 2491 -141 
Q 1881 -141 1395 182 
Q 909 506 634 1042 
Q 359 1578 359 2169 
Q 359 2606 517 3034 
Q 675 3463 958 3794 
Q 1241 4125 1637 4319 
Q 2034 4513 2491 4513 
Q 2944 4513 3342 4317 
Q 3741 4122 4025 3787 
Q 4309 3453 4462 3037 
Q 4616 2622 4616 2169 
Q 4616 1728 4461 1309 
Q 4306 891 4011 559 
Q 3716 228 3322 44 
Q 3444 -241 3572 -398 
Q 3700 -556 3928 -556 
Q 4169 -556 4341 -390 
Q 4513 -225 4513 13 
Q 4513 34 4536 53 
Q 4559 72 4581 72 
Q 4653 72 4653 -13 
Q 4653 -472 4473 -856 
Q 4294 -1241 3884 -1241 
Q 3659 -1241 3512 -1130 
Q 3366 -1019 3289 -848 
Q 3213 -678 3169 -453 
Q 3125 -228 3091 -44 
Q 2809 -141 2491 -141 
z
M 2491 44 
Q 2778 44 3047 191 
Q 2988 466 2864 630 
Q 2741 794 2491 794 
Q 2338 794 2231 680 
Q 2125 566 2125 416 
Q 2125 253 2226 148 
Q 2328 44 2491 44 
z
M 1959 416 
Q 1959 556 2028 681 
Q 2097 806 2220 882 
Q 2344 959 2491 959 
Q 2769 959 2931 779 
Q 3094 600 3219 294 
Q 3431 453 3575 670 
Q 3719 888 3798 1127 
Q 3878 1366 3914 1633 
Q 3950 1900 3950 2169 
Q 3950 2613 3861 3003 
Q 3772 3394 3559 3706 
Q 3375 3984 3090 4154 
Q 2806 4325 2491 4325 
Q 2169 4325 1886 4158 
Q 1603 3991 1416 3706 
Q 1197 3388 1111 2997 
Q 1025 2606 1025 2169 
Q 1025 1488 1256 930 
Q 1488 372 2028 141 
Q 1959 272 1959 416 
z
" transform="scale(0.015625)"/>
       <path id="Cmr10-4e" d="M 197 0 
L 197 225 
Q 856 225 856 603 
L 856 4109 
Q 647 4147 197 4147 
L 197 4372 
L 1422 4372 
Q 1453 4372 1466 4347 
L 3731 1013 
L 3731 3769 
Q 3731 4147 3072 4147 
L 3072 4372 
L 4594 4372 
L 4594 4147 
Q 3938 4147 3938 3769 
L 3938 56 
Q 3938 38 3913 19 
Q 3888 0 3872 0 
L 3794 0 
Q 3763 0 3750 25 
L 1063 3981 
L 1063 603 
Q 1063 225 1722 225 
L 1722 0 
L 197 0 
z
" transform="scale(0.015625)"/>
      </defs>
      <use xlink:href="#Cmr10-44"/>
      <use xlink:href="#Cmr10-51" transform="translate(76.318359 0)"/>
      <use xlink:href="#Cmr10-4e" transform="translate(154.003906 0)"/>
     </g>
    </g>
   </g>
  </g>
 </g>
 <defs>
  <clipPath id="pe56249e387">
   <rect x="43.9" y="3.6" width="295.924849" height="239.94375"/>
  </clipPath>
 </defs>
</svg>
