<?xml version="1.0" encoding="utf-8" standalone="no"?>
<!DOCTYPE svg PUBLIC "-//W3C//DTD SVG 1.1//EN"
  "http://www.w3.org/Graphics/SVG/1.1/DTD/svg11.dtd">
<svg xmlns:xlink="http://www.w3.org/1999/xlink" width="362.406953pt" height="272.236875pt" viewBox="0 0 362.406953 272.236875" xmlns="http://www.w3.org/2000/svg" version="1.1">
 <metadata>
  <rdf:RDF xmlns:dc="http://purl.org/dc/elements/1.1/" xmlns:cc="http://creativecommons.org/ns#" xmlns:rdf="http://www.w3.org/1999/02/22-rdf-syntax-ns#">
   <cc:Work>
    <dc:type rdf:resource="http://purl.org/dc/dcmitype/StillImage"/>
    <dc:date>2025-05-30T21:24:36.462400</dc:date>
    <dc:format>image/svg+xml</dc:format>
    <dc:creator>
     <cc:Agent>
      <dc:title>Matplotlib v3.10.3, https://matplotlib.org/</dc:title>
     </cc:Agent>
    </dc:creator>
   </cc:Work>
  </rdf:RDF>
 </metadata>
 <defs>
  <style type="text/css">*{stroke-linejoin: round; stroke-linecap: butt}</style>
 </defs>
 <g id="figure_1">
  <g id="patch_1">
   <path d="M 0 272.236875 
L 362.406953 272.236875 
L 362.406953 0 
L 0 0 
z
" style="fill: #ffffff"/>
  </g>
  <g id="axes_1">
   <g id="patch_2">
    <path d="M 36.1 243.380625 
L 339.793281 243.380625 
L 339.793281 18.6 
L 36.1 18.6 
z
" style="fill: #ffffff"/>
   </g>
   <g id="FillBetweenPolyCollection_1">
    <path d="M 49.90424 87.373319 
L 49.90424 184.020378 
L 52.971849 161.50789 
L 56.039458 141.9987 
L 59.107067 142.416396 
L 62.174676 123.62454 
L 65.242285 108.456989 
L 68.309893 101.527679 
L 71.377502 96.878414 
L 74.445111 95.194515 
L 77.51272 89.652658 
L 80.580329 83.833349 
L 83.647938 83.952139 
L 86.715547 77.237742 
L 89.783156 83.750812 
L 92.850765 89.236717 
L 95.918374 89.236717 
L 98.985982 88.750636 
L 102.053591 88.750636 
L 105.1212 83.122862 
L 108.188809 85.240207 
L 111.256418 85.240207 
L 114.324027 85.099366 
L 117.391636 85.099366 
L 120.459245 79.18524 
L 123.526854 71.458697 
L 126.594463 76.073235 
L 129.662071 76.836256 
L 132.72968 76.836256 
L 135.797289 76.836256 
L 138.864898 71.696901 
L 141.932507 71.696901 
L 145.000116 71.696901 
L 148.067725 71.696901 
L 151.135334 71.309079 
L 154.202943 70.90093 
L 157.270552 69.224568 
L 160.338161 68.174041 
L 163.405769 73.048958 
L 166.473378 73.048958 
L 169.540987 70.1555 
L 172.608596 70.1555 
L 175.676205 70.1555 
L 178.743814 70.1555 
L 181.811423 70.1555 
L 184.879032 70.1555 
L 187.946641 65.928178 
L 191.01425 65.928178 
L 194.081858 55.088288 
L 197.149467 55.088288 
L 200.217076 55.088288 
L 203.284685 55.088288 
L 206.352294 55.088288 
L 209.419903 55.088288 
L 212.487512 55.088288 
L 215.555121 57.03306 
L 218.62273 57.03306 
L 221.690339 57.03306 
L 224.757947 57.03306 
L 227.825556 57.03306 
L 230.893165 57.907459 
L 233.960774 57.907459 
L 237.028383 57.907459 
L 240.095992 57.907459 
L 243.163601 57.907459 
L 246.23121 56.900462 
L 249.298819 56.900462 
L 252.366428 56.900462 
L 255.434036 56.900462 
L 258.501645 56.900462 
L 261.569254 55.088288 
L 264.636863 55.088288 
L 267.704472 55.088288 
L 270.772081 55.088288 
L 273.83969 55.088288 
L 276.907299 55.088288 
L 279.974908 55.088288 
L 283.042517 55.088288 
L 286.110125 55.088288 
L 289.177734 62.42538 
L 292.245343 62.42538 
L 295.312952 62.42538 
L 298.380561 62.42538 
L 301.44817 62.42538 
L 304.515779 62.42538 
L 307.583388 62.42538 
L 310.650997 62.42538 
L 313.718606 62.42538 
L 316.786214 62.42538 
L 319.853823 55.088288 
L 322.921432 55.088288 
L 325.989041 55.088288 
L 325.989041 55.088288 
L 325.989041 55.088288 
L 322.921432 55.088288 
L 319.853823 55.088288 
L 316.786214 51.419742 
L 313.718606 51.419742 
L 310.650997 51.419742 
L 307.583388 51.419742 
L 304.515779 51.419742 
L 301.44817 51.419742 
L 298.380561 51.419742 
L 295.312952 51.419742 
L 292.245343 51.419742 
L 289.177734 51.419742 
L 286.110125 55.088288 
L 283.042517 55.088288 
L 279.974908 55.088288 
L 276.907299 55.088288 
L 273.83969 55.088288 
L 270.772081 55.088288 
L 267.704472 55.088288 
L 264.636863 55.088288 
L 261.569254 55.088288 
L 258.501645 54.182202 
L 255.434036 54.182202 
L 252.366428 54.182202 
L 249.298819 54.182202 
L 246.23121 54.182202 
L 243.163601 54.14759 
L 240.095992 54.14759 
L 237.028383 54.14759 
L 233.960774 54.14759 
L 230.893165 54.14759 
L 227.825556 54.115903 
L 224.757947 54.115903 
L 221.690339 54.115903 
L 218.62273 54.115903 
L 215.555121 54.115903 
L 212.487512 55.088288 
L 209.419903 55.088288 
L 206.352294 55.088288 
L 203.284685 55.088288 
L 200.217076 55.088288 
L 197.149467 55.088288 
L 194.081858 55.088288 
L 191.01425 49.668343 
L 187.946641 49.668343 
L 184.879032 50.037754 
L 181.811423 50.037754 
L 178.743814 50.037754 
L 175.676205 50.037754 
L 172.608596 50.037754 
L 169.540987 50.037754 
L 166.473378 51.26036 
L 163.405769 51.26036 
L 160.338161 50.715332 
L 157.270552 51.709025 
L 154.202943 51.098972 
L 151.135334 51.90078 
L 148.067725 52.772639 
L 145.000116 52.772639 
L 141.932507 52.772639 
L 138.864898 52.772639 
L 135.797289 51.158182 
L 132.72968 51.158182 
L 129.662071 51.158182 
L 126.594463 49.876984 
L 123.526854 48.82848 
L 120.459245 48.02466 
L 117.391636 48.817785 
L 114.324027 48.817785 
L 111.256418 49.339934 
L 108.188809 49.339934 
L 105.1212 49.578807 
L 102.053591 52.028464 
L 98.985982 52.028464 
L 95.918374 53.791024 
L 92.850765 53.791024 
L 89.783156 51.14425 
L 86.715547 49.690388 
L 83.647938 51.092095 
L 80.580329 50.547896 
L 77.51272 53.115412 
L 74.445111 52.601232 
L 71.377502 52.480884 
L 68.309893 56.848287 
L 65.242285 59.803056 
L 62.174676 64.177141 
L 59.107067 70.181119 
L 56.039458 74.283936 
L 52.971849 75.46004 
L 49.90424 87.373319 
z
" clip-path="url(#pc693940862)" style="fill: #0c5da5; fill-opacity: 0.2"/>
   </g>
   <g id="FillBetweenPolyCollection_2">
    <path d="M 49.90424 90.274775 
L 49.90424 206.284926 
L 52.971849 191.292851 
L 56.039458 191.292851 
L 59.107067 177.906748 
L 62.174676 164.311488 
L 65.242285 150.805325 
L 68.309893 125.23964 
L 71.377502 122.995606 
L 74.445111 105.475545 
L 77.51272 85.585838 
L 80.580329 85.585838 
L 83.647938 85.585838 
L 86.715547 85.585838 
L 89.783156 85.585838 
L 92.850765 85.585838 
L 95.918374 85.585838 
L 98.985982 114.845944 
L 102.053591 114.845944 
L 105.1212 102.724135 
L 108.188809 102.724135 
L 111.256418 102.724135 
L 114.324027 102.724135 
L 117.391636 124.479831 
L 120.459245 124.479831 
L 123.526854 124.479831 
L 126.594463 133.12054 
L 129.662071 111.42836 
L 132.72968 111.42836 
L 135.797289 111.42836 
L 138.864898 111.42836 
L 141.932507 129.725824 
L 145.000116 129.725824 
L 148.067725 117.963572 
L 151.135334 117.963572 
L 154.202943 117.963572 
L 157.270552 107.772791 
L 160.338161 112.01531 
L 163.405769 112.819413 
L 166.473378 112.819413 
L 169.540987 112.819413 
L 172.608596 88.447824 
L 175.676205 88.447824 
L 178.743814 93.993861 
L 181.811423 93.993861 
L 184.879032 94.392876 
L 187.946641 94.392876 
L 191.01425 88.900627 
L 194.081858 101.194438 
L 197.149467 115.960816 
L 200.217076 115.960816 
L 203.284685 120.513014 
L 206.352294 120.513014 
L 209.419903 109.240929 
L 212.487512 109.240929 
L 215.555121 108.9395 
L 218.62273 108.9395 
L 221.690339 110.268625 
L 224.757947 107.127844 
L 227.825556 89.691694 
L 230.893165 89.691694 
L 233.960774 91.808733 
L 237.028383 91.808733 
L 240.095992 91.644809 
L 243.163601 94.09834 
L 246.23121 94.09834 
L 249.298819 94.09834 
L 252.366428 93.167099 
L 255.434036 82.31214 
L 258.501645 82.31214 
L 261.569254 83.122136 
L 264.636863 79.313486 
L 267.704472 79.313486 
L 270.772081 79.313486 
L 273.83969 75.930426 
L 276.907299 75.930426 
L 279.974908 87.745192 
L 283.042517 86.944668 
L 286.110125 86.944668 
L 289.177734 86.944668 
L 292.245343 86.155848 
L 295.312952 77.960246 
L 298.380561 77.960246 
L 301.44817 77.960246 
L 304.515779 77.696255 
L 307.583388 77.696255 
L 310.650997 55.088288 
L 313.718606 55.088288 
L 316.786214 55.088288 
L 319.853823 55.088288 
L 322.921432 55.088288 
L 325.989041 55.088288 
L 325.989041 55.088288 
L 325.989041 55.088288 
L 322.921432 55.088288 
L 319.853823 55.088288 
L 316.786214 55.088288 
L 313.718606 55.088288 
L 310.650997 55.088288 
L 307.583388 43.784305 
L 304.515779 43.784305 
L 301.44817 44.216454 
L 298.380561 44.216454 
L 295.312952 44.216454 
L 292.245343 45.203266 
L 289.177734 46.602313 
L 286.110125 46.602313 
L 283.042517 46.602313 
L 279.974908 48.155405 
L 276.907299 48.666188 
L 273.83969 48.666188 
L 270.772081 49.89091 
L 267.704472 49.89091 
L 264.636863 49.89091 
L 261.569254 48.220404 
L 258.501645 46.842532 
L 255.434036 46.842532 
L 252.366428 47.772224 
L 249.298819 48.664206 
L 246.23121 48.664206 
L 243.163601 48.664206 
L 240.095992 45.813815 
L 237.028383 46.346031 
L 233.960774 46.346031 
L 230.893165 46.938193 
L 227.825556 46.938193 
L 224.757947 46.88896 
L 221.690339 46.383566 
L 218.62273 43.535852 
L 215.555121 43.535852 
L 212.487512 44.593553 
L 209.419903 44.593553 
L 206.352294 48.636542 
L 203.284685 48.636542 
L 200.217076 43.39306 
L 197.149467 43.39306 
L 194.081858 40.772519 
L 191.01425 41.430852 
L 187.946641 44.126532 
L 184.879032 44.126532 
L 181.811423 43.166418 
L 178.743814 43.166418 
L 175.676205 45.579825 
L 172.608596 45.579825 
L 169.540987 42.589671 
L 166.473378 42.589671 
L 163.405769 42.589671 
L 160.338161 40.609215 
L 157.270552 36.663805 
L 154.202943 40.893061 
L 151.135334 40.893061 
L 148.067725 40.893061 
L 145.000116 38.677868 
L 141.932507 38.677868 
L 138.864898 35.593898 
L 135.797289 35.593898 
L 132.72968 35.593898 
L 129.662071 35.593898 
L 126.594463 37.719641 
L 123.526854 31.940313 
L 120.459245 31.940313 
L 117.391636 31.940313 
L 114.324027 31.270365 
L 111.256418 31.270365 
L 108.188809 31.270365 
L 105.1212 31.270365 
L 102.053591 34.397331 
L 98.985982 34.397331 
L 95.918374 39.839513 
L 92.850765 39.839513 
L 89.783156 39.839513 
L 86.715547 39.839513 
L 83.647938 39.839513 
L 80.580329 39.839513 
L 77.51272 39.839513 
L 74.445111 38.182038 
L 71.377502 31.833361 
L 68.309893 35.274468 
L 65.242285 38.432835 
L 62.174676 47.501488 
L 59.107067 58.851235 
L 56.039458 72.929502 
L 52.971849 72.929502 
L 49.90424 90.274775 
z
" clip-path="url(#pc693940862)" style="fill: #00b945; fill-opacity: 0.2"/>
   </g>
   <g id="FillBetweenPolyCollection_3">
    <path d="M 49.90424 89.683938 
L 49.90424 233.163324 
L 52.971849 218.685998 
L 56.039458 207.716979 
L 59.107067 200.227609 
L 62.174676 194.95225 
L 65.242285 190.07796 
L 68.309893 200.455565 
L 71.377502 199.07391 
L 74.445111 202.300149 
L 77.51272 207.356317 
L 80.580329 202.199905 
L 83.647938 198.625556 
L 86.715547 198.774957 
L 89.783156 187.821744 
L 92.850765 171.898423 
L 95.918374 162.667438 
L 98.985982 139.794443 
L 102.053591 130.670247 
L 105.1212 130.670247 
L 108.188809 105.197644 
L 111.256418 110.323847 
L 114.324027 110.323847 
L 117.391636 110.323847 
L 120.459245 110.323847 
L 123.526854 108.371159 
L 126.594463 108.371159 
L 129.662071 108.371159 
L 132.72968 106.47003 
L 135.797289 106.47003 
L 138.864898 127.307764 
L 141.932507 99.806978 
L 145.000116 119.073771 
L 148.067725 136.653055 
L 151.135334 147.153372 
L 154.202943 147.153372 
L 157.270552 147.153372 
L 160.338161 147.153372 
L 163.405769 147.153372 
L 166.473378 147.153372 
L 169.540987 136.680954 
L 172.608596 136.680954 
L 175.676205 121.935173 
L 178.743814 100.493262 
L 181.811423 78.491843 
L 184.879032 78.491843 
L 187.946641 78.491843 
L 191.01425 78.491843 
L 194.081858 78.491843 
L 197.149467 78.491843 
L 200.217076 55.088288 
L 203.284685 55.088288 
L 206.352294 55.088288 
L 209.419903 55.088288 
L 212.487512 97.387064 
L 215.555121 97.387064 
L 218.62273 97.387064 
L 221.690339 97.387064 
L 224.757947 97.387064 
L 227.825556 97.387064 
L 230.893165 97.387064 
L 233.960774 97.387064 
L 237.028383 126.563321 
L 240.095992 126.563321 
L 243.163601 107.630263 
L 246.23121 107.630263 
L 249.298819 124.011464 
L 252.366428 142.376679 
L 255.434036 151.719884 
L 258.501645 151.719884 
L 261.569254 151.719884 
L 264.636863 166.66388 
L 267.704472 149.399387 
L 270.772081 153.821873 
L 273.83969 153.821873 
L 276.907299 153.821873 
L 279.974908 143.305562 
L 283.042517 126.169978 
L 286.110125 113.503089 
L 289.177734 113.503089 
L 292.245343 113.503089 
L 295.312952 80.83718 
L 298.380561 80.83718 
L 301.44817 59.994416 
L 304.515779 98.41754 
L 307.583388 98.41754 
L 310.650997 107.655106 
L 313.718606 133.187812 
L 316.786214 133.187812 
L 319.853823 133.187812 
L 322.921432 133.187812 
L 325.989041 144.350045 
L 325.989041 43.794181 
L 325.989041 43.794181 
L 322.921432 36.740758 
L 319.853823 36.740758 
L 316.786214 36.740758 
L 313.718606 36.740758 
L 310.650997 38.538414 
L 307.583388 35.361489 
L 304.515779 35.361489 
L 301.44817 52.635225 
L 298.380561 44.074354 
L 295.312952 44.074354 
L 292.245343 35.889359 
L 289.177734 35.889359 
L 286.110125 35.889359 
L 283.042517 40.460215 
L 279.974908 43.976777 
L 276.907299 52.687182 
L 273.83969 52.687182 
L 270.772081 52.687182 
L 267.704472 44.827774 
L 264.636863 53.834268 
L 261.569254 44.29735 
L 258.501645 44.29735 
L 255.434036 44.29735 
L 252.366428 36.40281 
L 249.298819 31.662816 
L 246.23121 28.817301 
L 243.163601 28.817301 
L 240.095992 31.033631 
L 237.028383 31.033631 
L 233.960774 33.938901 
L 230.893165 33.938901 
L 227.825556 33.938901 
L 224.757947 33.938901 
L 221.690339 33.938901 
L 218.62273 33.938901 
L 215.555121 33.938901 
L 212.487512 33.938901 
L 209.419903 55.088288 
L 206.352294 55.088288 
L 203.284685 55.088288 
L 200.217076 55.088288 
L 197.149467 43.386511 
L 194.081858 43.386511 
L 191.01425 43.386511 
L 187.946641 43.386511 
L 184.879032 43.386511 
L 181.811423 43.386511 
L 178.743814 39.401851 
L 175.676205 39.838617 
L 172.608596 45.347187 
L 169.540987 45.347187 
L 166.473378 45.532337 
L 163.405769 45.532337 
L 160.338161 45.532337 
L 157.270552 45.532337 
L 154.202943 45.532337 
L 151.135334 45.532337 
L 148.067725 38.015895 
L 145.000116 33.716502 
L 141.932507 32.728943 
L 138.864898 30.919029 
L 135.797289 29.397418 
L 132.72968 29.397418 
L 129.662071 31.673127 
L 126.594463 31.673127 
L 123.526854 31.673127 
L 120.459245 34.195622 
L 117.391636 34.195622 
L 114.324027 34.195622 
L 111.256418 34.195622 
L 108.188809 36.703014 
L 105.1212 36.556638 
L 102.053591 36.556638 
L 98.985982 40.161853 
L 95.918374 46.443853 
L 92.850765 57.218598 
L 89.783156 65.743041 
L 86.715547 81.70723 
L 83.647938 94.552894 
L 80.580329 116.470519 
L 77.51272 117.811411 
L 74.445111 106.458571 
L 71.377502 117.259474 
L 68.309893 100.314123 
L 65.242285 81.636182 
L 62.174676 82.861402 
L 59.107067 82.293274 
L 56.039458 82.063646 
L 52.971849 89.061662 
L 49.90424 89.683938 
z
" clip-path="url(#pc693940862)" style="fill: #ff9500; fill-opacity: 0.2"/>
   </g>
   <g id="matplotlib.axis_1">
    <g id="xtick_1">
     <g id="line2d_1">
      <path d="M 49.90424 243.380625 
L 49.90424 18.6 
" clip-path="url(#pc693940862)" style="fill: none; stroke: #b0b0b0; stroke-width: 0.5; stroke-linecap: square"/>
     </g>
     <g id="line2d_2">
      <defs>
       <path id="mcc597d9445" d="M 0 0 
L 0 -3 
" style="stroke: #000000; stroke-width: 0.5"/>
      </defs>
      <g>
       <use xlink:href="#mcc597d9445" x="49.90424" y="243.380625" style="stroke: #000000; stroke-width: 0.5"/>
      </g>
     </g>
     <g id="line2d_3">
      <defs>
       <path id="m85605515df" d="M 0 0 
L 0 3 
" style="stroke: #000000; stroke-width: 0.5"/>
      </defs>
      <g>
       <use xlink:href="#m85605515df" x="49.90424" y="18.6" style="stroke: #000000; stroke-width: 0.5"/>
      </g>
     </g>
     <g id="text_1">
      <!-- $\mathdefault{0}$ -->
      <g transform="translate(47.40424 253.819687) scale(0.1 -0.1)">
       <defs>
        <path id="Cmr10-30" d="M 1600 -141 
Q 816 -141 533 504 
Q 250 1150 250 2041 
Q 250 2597 351 3087 
Q 453 3578 754 3920 
Q 1056 4263 1600 4263 
Q 2022 4263 2290 4056 
Q 2559 3850 2700 3523 
Q 2841 3197 2892 2823 
Q 2944 2450 2944 2041 
Q 2944 1491 2842 1011 
Q 2741 531 2444 195 
Q 2147 -141 1600 -141 
z
M 1600 25 
Q 1956 25 2131 390 
Q 2306 756 2347 1200 
Q 2388 1644 2388 2144 
Q 2388 2625 2347 3031 
Q 2306 3438 2132 3767 
Q 1959 4097 1600 4097 
Q 1238 4097 1063 3765 
Q 888 3434 847 3029 
Q 806 2625 806 2144 
Q 806 1788 823 1472 
Q 841 1156 916 820 
Q 991 484 1158 254 
Q 1325 25 1600 25 
z
" transform="scale(0.015625)"/>
       </defs>
       <use xlink:href="#Cmr10-30" transform="translate(0 0.390625)"/>
      </g>
     </g>
    </g>
    <g id="xtick_2">
     <g id="line2d_4">
      <path d="M 111.256418 243.380625 
L 111.256418 18.6 
" clip-path="url(#pc693940862)" style="fill: none; stroke: #b0b0b0; stroke-width: 0.5; stroke-linecap: square"/>
     </g>
     <g id="line2d_5">
      <g>
       <use xlink:href="#mcc597d9445" x="111.256418" y="243.380625" style="stroke: #000000; stroke-width: 0.5"/>
      </g>
     </g>
     <g id="line2d_6">
      <g>
       <use xlink:href="#m85605515df" x="111.256418" y="18.6" style="stroke: #000000; stroke-width: 0.5"/>
      </g>
     </g>
     <g id="text_2">
      <!-- $\mathdefault{20000}$ -->
      <g transform="translate(98.756418 253.819687) scale(0.1 -0.1)">
       <defs>
        <path id="Cmr10-32" d="M 319 0 
L 319 172 
Q 319 188 331 206 
L 1325 1306 
Q 1550 1550 1690 1715 
Q 1831 1881 1968 2097 
Q 2106 2313 2186 2536 
Q 2266 2759 2266 3009 
Q 2266 3272 2169 3511 
Q 2072 3750 1880 3894 
Q 1688 4038 1416 4038 
Q 1138 4038 916 3870 
Q 694 3703 603 3438 
Q 628 3444 672 3444 
Q 816 3444 917 3347 
Q 1019 3250 1019 3097 
Q 1019 2950 917 2848 
Q 816 2747 672 2747 
Q 522 2747 420 2851 
Q 319 2956 319 3097 
Q 319 3338 409 3548 
Q 500 3759 670 3923 
Q 841 4088 1055 4175 
Q 1269 4263 1509 4263 
Q 1875 4263 2190 4108 
Q 2506 3953 2690 3670 
Q 2875 3388 2875 3009 
Q 2875 2731 2753 2481 
Q 2631 2231 2440 2026 
Q 2250 1822 1953 1562 
Q 1656 1303 1563 1216 
L 838 519 
L 1453 519 
Q 1906 519 2211 526 
Q 2516 534 2534 550 
Q 2609 631 2688 1141 
L 2875 1141 
L 2694 0 
L 319 0 
z
" transform="scale(0.015625)"/>
       </defs>
       <use xlink:href="#Cmr10-32" transform="translate(0 0.390625)"/>
       <use xlink:href="#Cmr10-30" transform="translate(50 0.390625)"/>
       <use xlink:href="#Cmr10-30" transform="translate(100 0.390625)"/>
       <use xlink:href="#Cmr10-30" transform="translate(150 0.390625)"/>
       <use xlink:href="#Cmr10-30" transform="translate(200 0.390625)"/>
      </g>
     </g>
    </g>
    <g id="xtick_3">
     <g id="line2d_7">
      <path d="M 172.608596 243.380625 
L 172.608596 18.6 
" clip-path="url(#pc693940862)" style="fill: none; stroke: #b0b0b0; stroke-width: 0.5; stroke-linecap: square"/>
     </g>
     <g id="line2d_8">
      <g>
       <use xlink:href="#mcc597d9445" x="172.608596" y="243.380625" style="stroke: #000000; stroke-width: 0.5"/>
      </g>
     </g>
     <g id="line2d_9">
      <g>
       <use xlink:href="#m85605515df" x="172.608596" y="18.6" style="stroke: #000000; stroke-width: 0.5"/>
      </g>
     </g>
     <g id="text_3">
      <!-- $\mathdefault{40000}$ -->
      <g transform="translate(160.108596 253.819687) scale(0.1 -0.1)">
       <defs>
        <path id="Cmr10-34" d="M 178 1056 
L 178 1281 
L 2156 4231 
Q 2178 4263 2222 4263 
L 2316 4263 
Q 2388 4263 2388 4191 
L 2388 1281 
L 3016 1281 
L 3016 1056 
L 2388 1056 
L 2388 428 
Q 2388 297 2575 261 
Q 2763 225 3009 225 
L 3009 0 
L 1247 0 
L 1247 225 
Q 1494 225 1681 261 
Q 1869 297 1869 428 
L 1869 1056 
L 178 1056 
z
M 391 1281 
L 1906 1281 
L 1906 3547 
L 391 1281 
z
" transform="scale(0.015625)"/>
       </defs>
       <use xlink:href="#Cmr10-34" transform="translate(0 0.390625)"/>
       <use xlink:href="#Cmr10-30" transform="translate(50 0.390625)"/>
       <use xlink:href="#Cmr10-30" transform="translate(100 0.390625)"/>
       <use xlink:href="#Cmr10-30" transform="translate(150 0.390625)"/>
       <use xlink:href="#Cmr10-30" transform="translate(200 0.390625)"/>
      </g>
     </g>
    </g>
    <g id="xtick_4">
     <g id="line2d_10">
      <path d="M 233.960774 243.380625 
L 233.960774 18.6 
" clip-path="url(#pc693940862)" style="fill: none; stroke: #b0b0b0; stroke-width: 0.5; stroke-linecap: square"/>
     </g>
     <g id="line2d_11">
      <g>
       <use xlink:href="#mcc597d9445" x="233.960774" y="243.380625" style="stroke: #000000; stroke-width: 0.5"/>
      </g>
     </g>
     <g id="line2d_12">
      <g>
       <use xlink:href="#m85605515df" x="233.960774" y="18.6" style="stroke: #000000; stroke-width: 0.5"/>
      </g>
     </g>
     <g id="text_4">
      <!-- $\mathdefault{60000}$ -->
      <g transform="translate(221.460774 253.819687) scale(0.1 -0.1)">
       <defs>
        <path id="Cmr10-36" d="M 1600 -141 
Q 1203 -141 937 70 
Q 672 281 526 617 
Q 381 953 325 1322 
Q 269 1691 269 2069 
Q 269 2575 466 3084 
Q 663 3594 1045 3928 
Q 1428 4263 1953 4263 
Q 2172 4263 2361 4180 
Q 2550 4097 2658 3936 
Q 2766 3775 2766 3547 
Q 2766 3416 2677 3327 
Q 2588 3238 2456 3238 
Q 2331 3238 2240 3328 
Q 2150 3419 2150 3547 
Q 2150 3672 2240 3762 
Q 2331 3853 2456 3853 
L 2491 3853 
Q 2409 3969 2261 4023 
Q 2113 4078 1953 4078 
Q 1759 4078 1595 3993 
Q 1431 3909 1300 3765 
Q 1169 3622 1081 3448 
Q 994 3275 945 3053 
Q 897 2831 884 2637 
Q 872 2444 872 2150 
Q 984 2413 1190 2580 
Q 1397 2747 1656 2747 
Q 1941 2747 2175 2631 
Q 2409 2516 2578 2311 
Q 2747 2106 2836 1843 
Q 2925 1581 2925 1313 
Q 2925 938 2758 598 
Q 2591 259 2287 59 
Q 1984 -141 1600 -141 
z
M 1600 63 
Q 1847 63 1997 175 
Q 2147 288 2217 473 
Q 2288 659 2305 848 
Q 2322 1038 2322 1313 
Q 2322 1675 2287 1931 
Q 2253 2188 2100 2383 
Q 1947 2578 1631 2578 
Q 1372 2578 1205 2403 
Q 1038 2228 961 1961 
Q 884 1694 884 1447 
Q 884 1363 891 1319 
Q 891 1309 889 1303 
Q 888 1297 884 1288 
Q 884 1013 940 731 
Q 997 450 1156 256 
Q 1316 63 1600 63 
z
" transform="scale(0.015625)"/>
       </defs>
       <use xlink:href="#Cmr10-36" transform="translate(0 0.390625)"/>
       <use xlink:href="#Cmr10-30" transform="translate(50 0.390625)"/>
       <use xlink:href="#Cmr10-30" transform="translate(100 0.390625)"/>
       <use xlink:href="#Cmr10-30" transform="translate(150 0.390625)"/>
       <use xlink:href="#Cmr10-30" transform="translate(200 0.390625)"/>
      </g>
     </g>
    </g>
    <g id="xtick_5">
     <g id="line2d_13">
      <path d="M 295.312952 243.380625 
L 295.312952 18.6 
" clip-path="url(#pc693940862)" style="fill: none; stroke: #b0b0b0; stroke-width: 0.5; stroke-linecap: square"/>
     </g>
     <g id="line2d_14">
      <g>
       <use xlink:href="#mcc597d9445" x="295.312952" y="243.380625" style="stroke: #000000; stroke-width: 0.5"/>
      </g>
     </g>
     <g id="line2d_15">
      <g>
       <use xlink:href="#m85605515df" x="295.312952" y="18.6" style="stroke: #000000; stroke-width: 0.5"/>
      </g>
     </g>
     <g id="text_5">
      <!-- $\mathdefault{80000}$ -->
      <g transform="translate(282.812952 253.819687) scale(0.1 -0.1)">
       <defs>
        <path id="Cmr10-38" d="M 269 972 
Q 269 1356 522 1651 
Q 775 1947 1172 2144 
L 934 2297 
Q 716 2441 578 2680 
Q 441 2919 441 3181 
Q 441 3488 602 3734 
Q 763 3981 1030 4122 
Q 1297 4263 1600 4263 
Q 1884 4263 2148 4147 
Q 2413 4031 2583 3815 
Q 2753 3600 2753 3303 
Q 2753 3088 2651 2903 
Q 2550 2719 2373 2572 
Q 2197 2425 1997 2322 
L 2363 2088 
Q 2616 1922 2770 1653 
Q 2925 1384 2925 1088 
Q 2925 741 2739 456 
Q 2553 172 2247 15 
Q 1941 -141 1600 -141 
Q 1269 -141 961 -6 
Q 653 128 461 383 
Q 269 638 269 972 
z
M 616 972 
Q 616 719 755 509 
Q 894 300 1122 181 
Q 1350 63 1600 63 
Q 1972 63 2275 280 
Q 2578 497 2578 856 
Q 2578 978 2529 1098 
Q 2481 1219 2395 1317 
Q 2309 1416 2203 1478 
L 1344 2034 
Q 1144 1928 976 1765 
Q 809 1603 712 1400 
Q 616 1197 616 972 
z
M 1056 2925 
L 1831 2425 
Q 2100 2581 2272 2803 
Q 2444 3025 2444 3303 
Q 2444 3519 2323 3698 
Q 2203 3878 2009 3978 
Q 1816 4078 1594 4078 
Q 1400 4078 1203 4003 
Q 1006 3928 878 3779 
Q 750 3631 750 3431 
Q 750 3131 1056 2925 
z
" transform="scale(0.015625)"/>
       </defs>
       <use xlink:href="#Cmr10-38" transform="translate(0 0.390625)"/>
       <use xlink:href="#Cmr10-30" transform="translate(50 0.390625)"/>
       <use xlink:href="#Cmr10-30" transform="translate(100 0.390625)"/>
       <use xlink:href="#Cmr10-30" transform="translate(150 0.390625)"/>
       <use xlink:href="#Cmr10-30" transform="translate(200 0.390625)"/>
      </g>
     </g>
    </g>
    <g id="xtick_6">
     <g id="line2d_16">
      <defs>
       <path id="m66babad22c" d="M 0 0 
L 0 -1.5 
" style="stroke: #000000; stroke-width: 0.5"/>
      </defs>
      <g>
       <use xlink:href="#m66babad22c" x="65.242285" y="243.380625" style="stroke: #000000; stroke-width: 0.5"/>
      </g>
     </g>
     <g id="line2d_17">
      <defs>
       <path id="m00878481a1" d="M 0 0 
L 0 1.5 
" style="stroke: #000000; stroke-width: 0.5"/>
      </defs>
      <g>
       <use xlink:href="#m00878481a1" x="65.242285" y="18.6" style="stroke: #000000; stroke-width: 0.5"/>
      </g>
     </g>
    </g>
    <g id="xtick_7">
     <g id="line2d_18">
      <g>
       <use xlink:href="#m66babad22c" x="80.580329" y="243.380625" style="stroke: #000000; stroke-width: 0.5"/>
      </g>
     </g>
     <g id="line2d_19">
      <g>
       <use xlink:href="#m00878481a1" x="80.580329" y="18.6" style="stroke: #000000; stroke-width: 0.5"/>
      </g>
     </g>
    </g>
    <g id="xtick_8">
     <g id="line2d_20">
      <g>
       <use xlink:href="#m66babad22c" x="95.918374" y="243.380625" style="stroke: #000000; stroke-width: 0.5"/>
      </g>
     </g>
     <g id="line2d_21">
      <g>
       <use xlink:href="#m00878481a1" x="95.918374" y="18.6" style="stroke: #000000; stroke-width: 0.5"/>
      </g>
     </g>
    </g>
    <g id="xtick_9">
     <g id="line2d_22">
      <g>
       <use xlink:href="#m66babad22c" x="126.594463" y="243.380625" style="stroke: #000000; stroke-width: 0.5"/>
      </g>
     </g>
     <g id="line2d_23">
      <g>
       <use xlink:href="#m00878481a1" x="126.594463" y="18.6" style="stroke: #000000; stroke-width: 0.5"/>
      </g>
     </g>
    </g>
    <g id="xtick_10">
     <g id="line2d_24">
      <g>
       <use xlink:href="#m66babad22c" x="141.932507" y="243.380625" style="stroke: #000000; stroke-width: 0.5"/>
      </g>
     </g>
     <g id="line2d_25">
      <g>
       <use xlink:href="#m00878481a1" x="141.932507" y="18.6" style="stroke: #000000; stroke-width: 0.5"/>
      </g>
     </g>
    </g>
    <g id="xtick_11">
     <g id="line2d_26">
      <g>
       <use xlink:href="#m66babad22c" x="157.270552" y="243.380625" style="stroke: #000000; stroke-width: 0.5"/>
      </g>
     </g>
     <g id="line2d_27">
      <g>
       <use xlink:href="#m00878481a1" x="157.270552" y="18.6" style="stroke: #000000; stroke-width: 0.5"/>
      </g>
     </g>
    </g>
    <g id="xtick_12">
     <g id="line2d_28">
      <g>
       <use xlink:href="#m66babad22c" x="187.946641" y="243.380625" style="stroke: #000000; stroke-width: 0.5"/>
      </g>
     </g>
     <g id="line2d_29">
      <g>
       <use xlink:href="#m00878481a1" x="187.946641" y="18.6" style="stroke: #000000; stroke-width: 0.5"/>
      </g>
     </g>
    </g>
    <g id="xtick_13">
     <g id="line2d_30">
      <g>
       <use xlink:href="#m66babad22c" x="203.284685" y="243.380625" style="stroke: #000000; stroke-width: 0.5"/>
      </g>
     </g>
     <g id="line2d_31">
      <g>
       <use xlink:href="#m00878481a1" x="203.284685" y="18.6" style="stroke: #000000; stroke-width: 0.5"/>
      </g>
     </g>
    </g>
    <g id="xtick_14">
     <g id="line2d_32">
      <g>
       <use xlink:href="#m66babad22c" x="218.62273" y="243.380625" style="stroke: #000000; stroke-width: 0.5"/>
      </g>
     </g>
     <g id="line2d_33">
      <g>
       <use xlink:href="#m00878481a1" x="218.62273" y="18.6" style="stroke: #000000; stroke-width: 0.5"/>
      </g>
     </g>
    </g>
    <g id="xtick_15">
     <g id="line2d_34">
      <g>
       <use xlink:href="#m66babad22c" x="249.298819" y="243.380625" style="stroke: #000000; stroke-width: 0.5"/>
      </g>
     </g>
     <g id="line2d_35">
      <g>
       <use xlink:href="#m00878481a1" x="249.298819" y="18.6" style="stroke: #000000; stroke-width: 0.5"/>
      </g>
     </g>
    </g>
    <g id="xtick_16">
     <g id="line2d_36">
      <g>
       <use xlink:href="#m66babad22c" x="264.636863" y="243.380625" style="stroke: #000000; stroke-width: 0.5"/>
      </g>
     </g>
     <g id="line2d_37">
      <g>
       <use xlink:href="#m00878481a1" x="264.636863" y="18.6" style="stroke: #000000; stroke-width: 0.5"/>
      </g>
     </g>
    </g>
    <g id="xtick_17">
     <g id="line2d_38">
      <g>
       <use xlink:href="#m66babad22c" x="279.974908" y="243.380625" style="stroke: #000000; stroke-width: 0.5"/>
      </g>
     </g>
     <g id="line2d_39">
      <g>
       <use xlink:href="#m00878481a1" x="279.974908" y="18.6" style="stroke: #000000; stroke-width: 0.5"/>
      </g>
     </g>
    </g>
    <g id="xtick_18">
     <g id="line2d_40">
      <g>
       <use xlink:href="#m66babad22c" x="310.650997" y="243.380625" style="stroke: #000000; stroke-width: 0.5"/>
      </g>
     </g>
     <g id="line2d_41">
      <g>
       <use xlink:href="#m00878481a1" x="310.650997" y="18.6" style="stroke: #000000; stroke-width: 0.5"/>
      </g>
     </g>
    </g>
    <g id="xtick_19">
     <g id="line2d_42">
      <g>
       <use xlink:href="#m66babad22c" x="325.989041" y="243.380625" style="stroke: #000000; stroke-width: 0.5"/>
      </g>
     </g>
     <g id="line2d_43">
      <g>
       <use xlink:href="#m00878481a1" x="325.989041" y="18.6" style="stroke: #000000; stroke-width: 0.5"/>
      </g>
     </g>
    </g>
    <g id="text_6">
     <!-- Timestep -->
     <g transform="translate(167.660703 266.697812) scale(0.1 -0.1)">
      <defs>
       <path id="Cmr10-54" d="M 1081 0 
L 1081 225 
Q 1403 225 1706 261 
Q 2009 297 2009 428 
L 2009 3944 
Q 2009 4081 1932 4114 
Q 1856 4147 1684 4147 
L 1416 4147 
Q 888 4147 666 3916 
Q 550 3800 500 3545 
Q 450 3291 416 2906 
L 231 2906 
L 353 4372 
L 4263 4372 
L 4384 2906 
L 4197 2906 
Q 4159 3319 4114 3561 
Q 4069 3803 3950 3916 
Q 3725 4147 3200 4147 
L 2931 4147 
Q 2816 4147 2752 4137 
Q 2688 4128 2647 4083 
Q 2606 4038 2606 3944 
L 2606 428 
Q 2606 297 2909 261 
Q 3213 225 3531 225 
L 3531 0 
L 1081 0 
z
" transform="scale(0.015625)"/>
       <path id="Cmr10-69" d="M 197 0 
L 197 225 
Q 416 225 556 259 
Q 697 294 697 428 
L 697 2175 
Q 697 2422 601 2478 
Q 506 2534 225 2534 
L 225 2759 
L 1147 2828 
L 1147 428 
Q 1147 294 1269 259 
Q 1391 225 1594 225 
L 1594 0 
L 197 0 
z
M 469 3928 
Q 469 4069 575 4175 
Q 681 4281 819 4281 
Q 909 4281 993 4234 
Q 1078 4188 1125 4103 
Q 1172 4019 1172 3928 
Q 1172 3791 1065 3684 
Q 959 3578 819 3578 
Q 681 3578 575 3684 
Q 469 3791 469 3928 
z
" transform="scale(0.015625)"/>
       <path id="Cmr10-6d" d="M 191 0 
L 191 225 
Q 409 225 550 259 
Q 691 294 691 428 
L 691 2175 
Q 691 2347 639 2423 
Q 588 2500 491 2517 
Q 394 2534 191 2534 
L 191 2759 
L 1119 2828 
L 1119 2203 
Q 1247 2478 1498 2653 
Q 1750 2828 2047 2828 
Q 2784 2828 2913 2228 
Q 3041 2497 3287 2662 
Q 3534 2828 3828 2828 
Q 4119 2828 4317 2734 
Q 4516 2641 4616 2448 
Q 4716 2256 4716 1966 
L 4716 428 
Q 4716 294 4858 259 
Q 5000 225 5216 225 
L 5216 0 
L 3750 0 
L 3750 225 
Q 3969 225 4109 259 
Q 4250 294 4250 428 
L 4250 1947 
Q 4250 2269 4159 2466 
Q 4069 2663 3788 2663 
Q 3419 2663 3178 2366 
Q 2938 2069 2938 1691 
L 2938 428 
Q 2938 294 3078 259 
Q 3219 225 3438 225 
L 3438 0 
L 1972 0 
L 1972 225 
Q 2191 225 2331 259 
Q 2472 294 2472 428 
L 2472 1947 
Q 2472 2259 2381 2461 
Q 2291 2663 2009 2663 
Q 1638 2663 1398 2366 
Q 1159 2069 1159 1691 
L 1159 428 
Q 1159 294 1300 259 
Q 1441 225 1656 225 
L 1656 0 
L 191 0 
z
" transform="scale(0.015625)"/>
       <path id="Cmr10-65" d="M 1594 -72 
Q 1203 -72 876 133 
Q 550 338 364 680 
Q 178 1022 178 1403 
Q 178 1778 348 2115 
Q 519 2453 823 2661 
Q 1128 2869 1503 2869 
Q 1797 2869 2014 2770 
Q 2231 2672 2372 2497 
Q 2513 2322 2584 2084 
Q 2656 1847 2656 1563 
Q 2656 1478 2591 1478 
L 738 1478 
L 738 1409 
Q 738 878 952 497 
Q 1166 116 1650 116 
Q 1847 116 2014 203 
Q 2181 291 2304 447 
Q 2428 603 2472 781 
Q 2478 803 2495 820 
Q 2513 838 2534 838 
L 2591 838 
Q 2656 838 2656 756 
Q 2566 394 2266 161 
Q 1966 -72 1594 -72 
z
M 744 1638 
L 2203 1638 
Q 2203 1878 2136 2125 
Q 2069 2372 1912 2536 
Q 1756 2700 1503 2700 
Q 1141 2700 942 2361 
Q 744 2022 744 1638 
z
" transform="scale(0.015625)"/>
       <path id="Cmr10-73" d="M 213 -19 
L 213 1025 
Q 213 1075 269 1075 
L 347 1075 
Q 384 1075 397 1025 
Q 575 97 1259 97 
Q 1563 97 1767 234 
Q 1972 372 1972 659 
Q 1972 866 1812 1011 
Q 1653 1156 1434 1209 
L 1006 1294 
Q 791 1341 614 1437 
Q 438 1534 325 1695 
Q 213 1856 213 2069 
Q 213 2350 361 2529 
Q 509 2709 746 2789 
Q 984 2869 1259 2869 
Q 1588 2869 1831 2694 
L 2016 2853 
Q 2016 2869 2047 2869 
L 2094 2869 
Q 2113 2869 2128 2851 
Q 2144 2834 2144 2816 
L 2144 1978 
Q 2144 1919 2094 1919 
L 2016 1919 
Q 1959 1919 1959 1978 
Q 1959 2313 1773 2516 
Q 1588 2719 1253 2719 
Q 966 2719 755 2612 
Q 544 2506 544 2247 
Q 544 2069 695 1955 
Q 847 1841 1050 1791 
L 1484 1709 
Q 1703 1659 1892 1540 
Q 2081 1422 2192 1240 
Q 2303 1059 2303 831 
Q 2303 600 2223 429 
Q 2144 259 2001 146 
Q 1859 34 1665 -19 
Q 1472 -72 1259 -72 
Q 859 -72 575 197 
L 341 -56 
Q 341 -72 306 -72 
L 269 -72 
Q 213 -72 213 -19 
z
" transform="scale(0.015625)"/>
       <path id="Cmr10-74" d="M 653 769 
L 653 2534 
L 122 2534 
L 122 2700 
Q 541 2700 737 3090 
Q 934 3481 934 3938 
L 1119 3938 
L 1119 2759 
L 2022 2759 
L 2022 2534 
L 1119 2534 
L 1119 781 
Q 1119 516 1208 316 
Q 1297 116 1528 116 
Q 1747 116 1844 327 
Q 1941 538 1941 781 
L 1941 1159 
L 2125 1159 
L 2125 769 
Q 2125 569 2051 373 
Q 1978 178 1834 53 
Q 1691 -72 1484 -72 
Q 1100 -72 876 158 
Q 653 388 653 769 
z
" transform="scale(0.015625)"/>
       <path id="Cmr10-70" d="M 166 -1241 
L 166 -1019 
Q 384 -1019 525 -981 
Q 666 -944 666 -813 
L 666 2272 
Q 666 2447 541 2490 
Q 416 2534 166 2534 
L 166 2759 
L 1113 2828 
L 1113 2431 
Q 1288 2625 1520 2726 
Q 1753 2828 2016 2828 
Q 2394 2828 2697 2623 
Q 3000 2419 3170 2086 
Q 3341 1753 3341 1381 
Q 3341 994 3152 659 
Q 2963 325 2636 126 
Q 2309 -72 1919 -72 
Q 1453 -72 1131 306 
L 1131 -813 
Q 1131 -944 1273 -981 
Q 1416 -1019 1631 -1019 
L 1631 -1241 
L 166 -1241 
z
M 1131 622 
Q 1244 394 1444 245 
Q 1644 97 1881 97 
Q 2103 97 2273 215 
Q 2444 334 2559 534 
Q 2675 734 2729 954 
Q 2784 1175 2784 1381 
Q 2784 1638 2692 1936 
Q 2600 2234 2411 2439 
Q 2222 2644 1953 2644 
Q 1694 2644 1476 2511 
Q 1259 2378 1131 2150 
L 1131 622 
z
" transform="scale(0.015625)"/>
      </defs>
      <use xlink:href="#Cmr10-54"/>
      <use xlink:href="#Cmr10-69" transform="translate(72.216797 0)"/>
      <use xlink:href="#Cmr10-6d" transform="translate(99.902344 0)"/>
      <use xlink:href="#Cmr10-65" transform="translate(183.203125 0)"/>
      <use xlink:href="#Cmr10-73" transform="translate(227.587891 0)"/>
      <use xlink:href="#Cmr10-74" transform="translate(266.992188 0)"/>
      <use xlink:href="#Cmr10-65" transform="translate(305.810547 0)"/>
      <use xlink:href="#Cmr10-70" transform="translate(350.195312 0)"/>
     </g>
    </g>
   </g>
   <g id="matplotlib.axis_2">
    <g id="ytick_1">
     <g id="line2d_44">
      <path d="M 36.1 220.835842 
L 339.793281 220.835842 
" clip-path="url(#pc693940862)" style="fill: none; stroke: #b0b0b0; stroke-width: 0.5; stroke-linecap: square"/>
     </g>
     <g id="line2d_45">
      <defs>
       <path id="me8e29304c2" d="M 0 0 
L 3 0 
" style="stroke: #000000; stroke-width: 0.5"/>
      </defs>
      <g>
       <use xlink:href="#me8e29304c2" x="36.1" y="220.835842" style="stroke: #000000; stroke-width: 0.5"/>
      </g>
     </g>
     <g id="line2d_46">
      <defs>
       <path id="mc237dd0d26" d="M 0 0 
L -3 0 
" style="stroke: #000000; stroke-width: 0.5"/>
      </defs>
      <g>
       <use xlink:href="#mc237dd0d26" x="339.793281" y="220.835842" style="stroke: #000000; stroke-width: 0.5"/>
      </g>
     </g>
     <g id="text_7">
      <!-- $\mathdefault{100}$ -->
      <g transform="translate(17.6 224.305373) scale(0.1 -0.1)">
       <defs>
        <path id="Cmr10-31" d="M 594 0 
L 594 225 
Q 1394 225 1394 428 
L 1394 3788 
Q 1063 3628 556 3628 
L 556 3853 
Q 1341 3853 1741 4263 
L 1831 4263 
Q 1853 4263 1873 4245 
Q 1894 4228 1894 4206 
L 1894 428 
Q 1894 225 2694 225 
L 2694 0 
L 594 0 
z
" transform="scale(0.015625)"/>
       </defs>
       <use xlink:href="#Cmr10-31" transform="translate(0 0.390625)"/>
       <use xlink:href="#Cmr10-30" transform="translate(50 0.390625)"/>
       <use xlink:href="#Cmr10-30" transform="translate(100 0.390625)"/>
      </g>
     </g>
    </g>
    <g id="ytick_2">
     <g id="line2d_47">
      <path d="M 36.1 179.398953 
L 339.793281 179.398953 
" clip-path="url(#pc693940862)" style="fill: none; stroke: #b0b0b0; stroke-width: 0.5; stroke-linecap: square"/>
     </g>
     <g id="line2d_48">
      <g>
       <use xlink:href="#me8e29304c2" x="36.1" y="179.398953" style="stroke: #000000; stroke-width: 0.5"/>
      </g>
     </g>
     <g id="line2d_49">
      <g>
       <use xlink:href="#mc237dd0d26" x="339.793281" y="179.398953" style="stroke: #000000; stroke-width: 0.5"/>
      </g>
     </g>
     <g id="text_8">
      <!-- $\mathdefault{200}$ -->
      <g transform="translate(17.6 182.868485) scale(0.1 -0.1)">
       <use xlink:href="#Cmr10-32" transform="translate(0 0.390625)"/>
       <use xlink:href="#Cmr10-30" transform="translate(50 0.390625)"/>
       <use xlink:href="#Cmr10-30" transform="translate(100 0.390625)"/>
      </g>
     </g>
    </g>
    <g id="ytick_3">
     <g id="line2d_50">
      <path d="M 36.1 137.962065 
L 339.793281 137.962065 
" clip-path="url(#pc693940862)" style="fill: none; stroke: #b0b0b0; stroke-width: 0.5; stroke-linecap: square"/>
     </g>
     <g id="line2d_51">
      <g>
       <use xlink:href="#me8e29304c2" x="36.1" y="137.962065" style="stroke: #000000; stroke-width: 0.5"/>
      </g>
     </g>
     <g id="line2d_52">
      <g>
       <use xlink:href="#mc237dd0d26" x="339.793281" y="137.962065" style="stroke: #000000; stroke-width: 0.5"/>
      </g>
     </g>
     <g id="text_9">
      <!-- $\mathdefault{300}$ -->
      <g transform="translate(17.6 141.431596) scale(0.1 -0.1)">
       <defs>
        <path id="Cmr10-33" d="M 609 494 
Q 759 275 1012 169 
Q 1266 63 1556 63 
Q 1928 63 2084 380 
Q 2241 697 2241 1100 
Q 2241 1281 2208 1462 
Q 2175 1644 2097 1800 
Q 2019 1956 1883 2050 
Q 1747 2144 1550 2144 
L 1125 2144 
Q 1069 2144 1069 2203 
L 1069 2259 
Q 1069 2309 1125 2309 
L 1478 2338 
Q 1703 2338 1851 2506 
Q 2000 2675 2069 2917 
Q 2138 3159 2138 3378 
Q 2138 3684 1994 3881 
Q 1850 4078 1556 4078 
Q 1313 4078 1091 3986 
Q 869 3894 738 3706 
Q 750 3709 759 3711 
Q 769 3713 781 3713 
Q 925 3713 1022 3613 
Q 1119 3513 1119 3372 
Q 1119 3234 1022 3134 
Q 925 3034 781 3034 
Q 641 3034 541 3134 
Q 441 3234 441 3372 
Q 441 3647 606 3850 
Q 772 4053 1033 4158 
Q 1294 4263 1556 4263 
Q 1750 4263 1965 4205 
Q 2181 4147 2356 4039 
Q 2531 3931 2642 3762 
Q 2753 3594 2753 3378 
Q 2753 3109 2633 2881 
Q 2513 2653 2303 2487 
Q 2094 2322 1844 2241 
Q 2122 2188 2372 2031 
Q 2622 1875 2773 1631 
Q 2925 1388 2925 1106 
Q 2925 753 2731 467 
Q 2538 181 2222 20 
Q 1906 -141 1556 -141 
Q 1256 -141 954 -26 
Q 653 88 461 316 
Q 269 544 269 863 
Q 269 1022 375 1128 
Q 481 1234 641 1234 
Q 744 1234 830 1186 
Q 916 1138 964 1050 
Q 1013 963 1013 863 
Q 1013 706 903 600 
Q 794 494 641 494 
L 609 494 
z
" transform="scale(0.015625)"/>
       </defs>
       <use xlink:href="#Cmr10-33" transform="translate(0 0.390625)"/>
       <use xlink:href="#Cmr10-30" transform="translate(50 0.390625)"/>
       <use xlink:href="#Cmr10-30" transform="translate(100 0.390625)"/>
      </g>
     </g>
    </g>
    <g id="ytick_4">
     <g id="line2d_53">
      <path d="M 36.1 96.525177 
L 339.793281 96.525177 
" clip-path="url(#pc693940862)" style="fill: none; stroke: #b0b0b0; stroke-width: 0.5; stroke-linecap: square"/>
     </g>
     <g id="line2d_54">
      <g>
       <use xlink:href="#me8e29304c2" x="36.1" y="96.525177" style="stroke: #000000; stroke-width: 0.5"/>
      </g>
     </g>
     <g id="line2d_55">
      <g>
       <use xlink:href="#mc237dd0d26" x="339.793281" y="96.525177" style="stroke: #000000; stroke-width: 0.5"/>
      </g>
     </g>
     <g id="text_10">
      <!-- $\mathdefault{400}$ -->
      <g transform="translate(17.6 99.994708) scale(0.1 -0.1)">
       <use xlink:href="#Cmr10-34" transform="translate(0 0.390625)"/>
       <use xlink:href="#Cmr10-30" transform="translate(50 0.390625)"/>
       <use xlink:href="#Cmr10-30" transform="translate(100 0.390625)"/>
      </g>
     </g>
    </g>
    <g id="ytick_5">
     <g id="line2d_56">
      <path d="M 36.1 55.088288 
L 339.793281 55.088288 
" clip-path="url(#pc693940862)" style="fill: none; stroke: #b0b0b0; stroke-width: 0.5; stroke-linecap: square"/>
     </g>
     <g id="line2d_57">
      <g>
       <use xlink:href="#me8e29304c2" x="36.1" y="55.088288" style="stroke: #000000; stroke-width: 0.5"/>
      </g>
     </g>
     <g id="line2d_58">
      <g>
       <use xlink:href="#mc237dd0d26" x="339.793281" y="55.088288" style="stroke: #000000; stroke-width: 0.5"/>
      </g>
     </g>
     <g id="text_11">
      <!-- $\mathdefault{500}$ -->
      <g transform="translate(17.6 58.55782) scale(0.1 -0.1)">
       <defs>
        <path id="Cmr10-35" d="M 556 728 
Q 622 541 758 387 
Q 894 234 1080 148 
Q 1266 63 1466 63 
Q 1928 63 2103 422 
Q 2278 781 2278 1294 
Q 2278 1516 2270 1667 
Q 2263 1819 2228 1959 
Q 2169 2184 2020 2353 
Q 1872 2522 1656 2522 
Q 1441 2522 1286 2456 
Q 1131 2391 1034 2303 
Q 938 2216 863 2119 
Q 788 2022 769 2016 
L 697 2016 
Q 681 2016 657 2036 
Q 634 2056 634 2075 
L 634 4213 
Q 634 4228 654 4245 
Q 675 4263 697 4263 
L 716 4263 
Q 1147 4056 1631 4056 
Q 2106 4056 2547 4263 
L 2566 4263 
Q 2588 4263 2606 4247 
Q 2625 4231 2625 4213 
L 2625 4153 
Q 2625 4122 2613 4122 
Q 2394 3831 2064 3668 
Q 1734 3506 1381 3506 
Q 1125 3506 856 3578 
L 856 2369 
Q 1069 2541 1236 2614 
Q 1403 2688 1663 2688 
Q 2016 2688 2295 2484 
Q 2575 2281 2725 1954 
Q 2875 1628 2875 1288 
Q 2875 903 2686 575 
Q 2497 247 2172 53 
Q 1847 -141 1466 -141 
Q 1150 -141 886 21 
Q 622 184 470 459 
Q 319 734 319 1044 
Q 319 1188 412 1278 
Q 506 1369 647 1369 
Q 788 1369 883 1276 
Q 978 1184 978 1044 
Q 978 906 883 811 
Q 788 716 647 716 
Q 625 716 597 720 
Q 569 725 556 728 
z
" transform="scale(0.015625)"/>
       </defs>
       <use xlink:href="#Cmr10-35" transform="translate(0 0.390625)"/>
       <use xlink:href="#Cmr10-30" transform="translate(50 0.390625)"/>
       <use xlink:href="#Cmr10-30" transform="translate(100 0.390625)"/>
      </g>
     </g>
    </g>
    <g id="ytick_6">
     <g id="line2d_59">
      <defs>
       <path id="m7340bed0c2" d="M 0 0 
L 1.5 0 
" style="stroke: #000000; stroke-width: 0.5"/>
      </defs>
      <g>
       <use xlink:href="#m7340bed0c2" x="36.1" y="237.410597" style="stroke: #000000; stroke-width: 0.5"/>
      </g>
     </g>
     <g id="line2d_60">
      <defs>
       <path id="m70b959ff76" d="M 0 0 
L -1.5 0 
" style="stroke: #000000; stroke-width: 0.5"/>
      </defs>
      <g>
       <use xlink:href="#m70b959ff76" x="339.793281" y="237.410597" style="stroke: #000000; stroke-width: 0.5"/>
      </g>
     </g>
    </g>
    <g id="ytick_7">
     <g id="line2d_61">
      <g>
       <use xlink:href="#m7340bed0c2" x="36.1" y="229.123219" style="stroke: #000000; stroke-width: 0.5"/>
      </g>
     </g>
     <g id="line2d_62">
      <g>
       <use xlink:href="#m70b959ff76" x="339.793281" y="229.123219" style="stroke: #000000; stroke-width: 0.5"/>
      </g>
     </g>
    </g>
    <g id="ytick_8">
     <g id="line2d_63">
      <g>
       <use xlink:href="#m7340bed0c2" x="36.1" y="212.548464" style="stroke: #000000; stroke-width: 0.5"/>
      </g>
     </g>
     <g id="line2d_64">
      <g>
       <use xlink:href="#m70b959ff76" x="339.793281" y="212.548464" style="stroke: #000000; stroke-width: 0.5"/>
      </g>
     </g>
    </g>
    <g id="ytick_9">
     <g id="line2d_65">
      <g>
       <use xlink:href="#m7340bed0c2" x="36.1" y="204.261086" style="stroke: #000000; stroke-width: 0.5"/>
      </g>
     </g>
     <g id="line2d_66">
      <g>
       <use xlink:href="#m70b959ff76" x="339.793281" y="204.261086" style="stroke: #000000; stroke-width: 0.5"/>
      </g>
     </g>
    </g>
    <g id="ytick_10">
     <g id="line2d_67">
      <g>
       <use xlink:href="#m7340bed0c2" x="36.1" y="195.973709" style="stroke: #000000; stroke-width: 0.5"/>
      </g>
     </g>
     <g id="line2d_68">
      <g>
       <use xlink:href="#m70b959ff76" x="339.793281" y="195.973709" style="stroke: #000000; stroke-width: 0.5"/>
      </g>
     </g>
    </g>
    <g id="ytick_11">
     <g id="line2d_69">
      <g>
       <use xlink:href="#m7340bed0c2" x="36.1" y="187.686331" style="stroke: #000000; stroke-width: 0.5"/>
      </g>
     </g>
     <g id="line2d_70">
      <g>
       <use xlink:href="#m70b959ff76" x="339.793281" y="187.686331" style="stroke: #000000; stroke-width: 0.5"/>
      </g>
     </g>
    </g>
    <g id="ytick_12">
     <g id="line2d_71">
      <g>
       <use xlink:href="#m7340bed0c2" x="36.1" y="171.111576" style="stroke: #000000; stroke-width: 0.5"/>
      </g>
     </g>
     <g id="line2d_72">
      <g>
       <use xlink:href="#m70b959ff76" x="339.793281" y="171.111576" style="stroke: #000000; stroke-width: 0.5"/>
      </g>
     </g>
    </g>
    <g id="ytick_13">
     <g id="line2d_73">
      <g>
       <use xlink:href="#m7340bed0c2" x="36.1" y="162.824198" style="stroke: #000000; stroke-width: 0.5"/>
      </g>
     </g>
     <g id="line2d_74">
      <g>
       <use xlink:href="#m70b959ff76" x="339.793281" y="162.824198" style="stroke: #000000; stroke-width: 0.5"/>
      </g>
     </g>
    </g>
    <g id="ytick_14">
     <g id="line2d_75">
      <g>
       <use xlink:href="#m7340bed0c2" x="36.1" y="154.53682" style="stroke: #000000; stroke-width: 0.5"/>
      </g>
     </g>
     <g id="line2d_76">
      <g>
       <use xlink:href="#m70b959ff76" x="339.793281" y="154.53682" style="stroke: #000000; stroke-width: 0.5"/>
      </g>
     </g>
    </g>
    <g id="ytick_15">
     <g id="line2d_77">
      <g>
       <use xlink:href="#m7340bed0c2" x="36.1" y="146.249443" style="stroke: #000000; stroke-width: 0.5"/>
      </g>
     </g>
     <g id="line2d_78">
      <g>
       <use xlink:href="#m70b959ff76" x="339.793281" y="146.249443" style="stroke: #000000; stroke-width: 0.5"/>
      </g>
     </g>
    </g>
    <g id="ytick_16">
     <g id="line2d_79">
      <g>
       <use xlink:href="#m7340bed0c2" x="36.1" y="129.674687" style="stroke: #000000; stroke-width: 0.5"/>
      </g>
     </g>
     <g id="line2d_80">
      <g>
       <use xlink:href="#m70b959ff76" x="339.793281" y="129.674687" style="stroke: #000000; stroke-width: 0.5"/>
      </g>
     </g>
    </g>
    <g id="ytick_17">
     <g id="line2d_81">
      <g>
       <use xlink:href="#m7340bed0c2" x="36.1" y="121.38731" style="stroke: #000000; stroke-width: 0.5"/>
      </g>
     </g>
     <g id="line2d_82">
      <g>
       <use xlink:href="#m70b959ff76" x="339.793281" y="121.38731" style="stroke: #000000; stroke-width: 0.5"/>
      </g>
     </g>
    </g>
    <g id="ytick_18">
     <g id="line2d_83">
      <g>
       <use xlink:href="#m7340bed0c2" x="36.1" y="113.099932" style="stroke: #000000; stroke-width: 0.5"/>
      </g>
     </g>
     <g id="line2d_84">
      <g>
       <use xlink:href="#m70b959ff76" x="339.793281" y="113.099932" style="stroke: #000000; stroke-width: 0.5"/>
      </g>
     </g>
    </g>
    <g id="ytick_19">
     <g id="line2d_85">
      <g>
       <use xlink:href="#m7340bed0c2" x="36.1" y="104.812554" style="stroke: #000000; stroke-width: 0.5"/>
      </g>
     </g>
     <g id="line2d_86">
      <g>
       <use xlink:href="#m70b959ff76" x="339.793281" y="104.812554" style="stroke: #000000; stroke-width: 0.5"/>
      </g>
     </g>
    </g>
    <g id="ytick_20">
     <g id="line2d_87">
      <g>
       <use xlink:href="#m7340bed0c2" x="36.1" y="88.237799" style="stroke: #000000; stroke-width: 0.5"/>
      </g>
     </g>
     <g id="line2d_88">
      <g>
       <use xlink:href="#m70b959ff76" x="339.793281" y="88.237799" style="stroke: #000000; stroke-width: 0.5"/>
      </g>
     </g>
    </g>
    <g id="ytick_21">
     <g id="line2d_89">
      <g>
       <use xlink:href="#m7340bed0c2" x="36.1" y="79.950421" style="stroke: #000000; stroke-width: 0.5"/>
      </g>
     </g>
     <g id="line2d_90">
      <g>
       <use xlink:href="#m70b959ff76" x="339.793281" y="79.950421" style="stroke: #000000; stroke-width: 0.5"/>
      </g>
     </g>
    </g>
    <g id="ytick_22">
     <g id="line2d_91">
      <g>
       <use xlink:href="#m7340bed0c2" x="36.1" y="71.663044" style="stroke: #000000; stroke-width: 0.5"/>
      </g>
     </g>
     <g id="line2d_92">
      <g>
       <use xlink:href="#m70b959ff76" x="339.793281" y="71.663044" style="stroke: #000000; stroke-width: 0.5"/>
      </g>
     </g>
    </g>
    <g id="ytick_23">
     <g id="line2d_93">
      <g>
       <use xlink:href="#m7340bed0c2" x="36.1" y="63.375666" style="stroke: #000000; stroke-width: 0.5"/>
      </g>
     </g>
     <g id="line2d_94">
      <g>
       <use xlink:href="#m70b959ff76" x="339.793281" y="63.375666" style="stroke: #000000; stroke-width: 0.5"/>
      </g>
     </g>
    </g>
    <g id="ytick_24">
     <g id="line2d_95">
      <g>
       <use xlink:href="#m7340bed0c2" x="36.1" y="46.800911" style="stroke: #000000; stroke-width: 0.5"/>
      </g>
     </g>
     <g id="line2d_96">
      <g>
       <use xlink:href="#m70b959ff76" x="339.793281" y="46.800911" style="stroke: #000000; stroke-width: 0.5"/>
      </g>
     </g>
    </g>
    <g id="ytick_25">
     <g id="line2d_97">
      <g>
       <use xlink:href="#m7340bed0c2" x="36.1" y="38.513533" style="stroke: #000000; stroke-width: 0.5"/>
      </g>
     </g>
     <g id="line2d_98">
      <g>
       <use xlink:href="#m70b959ff76" x="339.793281" y="38.513533" style="stroke: #000000; stroke-width: 0.5"/>
      </g>
     </g>
    </g>
    <g id="ytick_26">
     <g id="line2d_99">
      <g>
       <use xlink:href="#m7340bed0c2" x="36.1" y="30.226155" style="stroke: #000000; stroke-width: 0.5"/>
      </g>
     </g>
     <g id="line2d_100">
      <g>
       <use xlink:href="#m70b959ff76" x="339.793281" y="30.226155" style="stroke: #000000; stroke-width: 0.5"/>
      </g>
     </g>
    </g>
    <g id="ytick_27">
     <g id="line2d_101">
      <g>
       <use xlink:href="#m7340bed0c2" x="36.1" y="21.938778" style="stroke: #000000; stroke-width: 0.5"/>
      </g>
     </g>
     <g id="line2d_102">
      <g>
       <use xlink:href="#m70b959ff76" x="339.793281" y="21.938778" style="stroke: #000000; stroke-width: 0.5"/>
      </g>
     </g>
    </g>
    <g id="text_12">
     <!-- Mean Eval. Reward ($\pm\sigma$), Smoothed (Window = 10 ep.) -->
     <g transform="translate(11.1 255.440313) rotate(-90) scale(0.1 -0.1)">
      <defs>
       <path id="Cmr10-4d" d="M 225 0 
L 225 225 
Q 884 225 884 603 
L 884 3944 
Q 884 4147 225 4147 
L 225 4372 
L 1434 4372 
Q 1513 4372 1538 4300 
L 2931 678 
L 4325 4300 
Q 4350 4372 4428 4372 
L 5638 4372 
L 5638 4147 
Q 4978 4147 4978 3944 
L 4978 428 
Q 4978 225 5638 225 
L 5638 0 
L 3775 0 
L 3775 225 
Q 4434 225 4434 428 
L 4434 4153 
L 2859 72 
Q 2831 0 2753 0 
Q 2672 0 2644 72 
L 1088 4103 
L 1088 603 
Q 1088 225 1747 225 
L 1747 0 
L 225 0 
z
" transform="scale(0.015625)"/>
       <path id="Cmr10-61" d="M 256 628 
Q 256 1009 556 1248 
Q 856 1488 1276 1586 
Q 1697 1684 2075 1684 
L 2075 1947 
Q 2075 2131 1994 2304 
Q 1913 2478 1759 2589 
Q 1606 2700 1422 2700 
Q 997 2700 775 2509 
Q 897 2509 976 2417 
Q 1056 2325 1056 2203 
Q 1056 2075 965 1984 
Q 875 1894 750 1894 
Q 622 1894 531 1984 
Q 441 2075 441 2203 
Q 441 2541 747 2705 
Q 1053 2869 1422 2869 
Q 1681 2869 1943 2758 
Q 2206 2647 2373 2440 
Q 2541 2234 2541 1959 
L 2541 519 
Q 2541 394 2594 289 
Q 2647 184 2759 184 
Q 2866 184 2917 290 
Q 2969 397 2969 519 
L 2969 928 
L 3156 928 
L 3156 519 
Q 3156 375 3081 245 
Q 3006 116 2879 39 
Q 2753 -38 2606 -38 
Q 2419 -38 2283 107 
Q 2147 253 2131 453 
Q 2013 213 1781 70 
Q 1550 -72 1288 -72 
Q 1044 -72 808 0 
Q 572 72 414 226 
Q 256 381 256 628 
z
M 775 628 
Q 775 403 940 250 
Q 1106 97 1331 97 
Q 1538 97 1706 200 
Q 1875 303 1975 481 
Q 2075 659 2075 856 
L 2075 1522 
Q 1784 1522 1479 1426 
Q 1175 1331 975 1128 
Q 775 925 775 628 
z
" transform="scale(0.015625)"/>
       <path id="Cmr10-6e" d="M 191 0 
L 191 225 
Q 409 225 550 259 
Q 691 294 691 428 
L 691 2175 
Q 691 2347 639 2423 
Q 588 2500 491 2517 
Q 394 2534 191 2534 
L 191 2759 
L 1119 2828 
L 1119 2203 
Q 1247 2478 1498 2653 
Q 1750 2828 2047 2828 
Q 2491 2828 2714 2615 
Q 2938 2403 2938 1966 
L 2938 428 
Q 2938 294 3078 259 
Q 3219 225 3438 225 
L 3438 0 
L 1972 0 
L 1972 225 
Q 2191 225 2331 259 
Q 2472 294 2472 428 
L 2472 1947 
Q 2472 2259 2381 2461 
Q 2291 2663 2009 2663 
Q 1638 2663 1398 2366 
Q 1159 2069 1159 1691 
L 1159 428 
Q 1159 294 1300 259 
Q 1441 225 1656 225 
L 1656 0 
L 191 0 
z
" transform="scale(0.015625)"/>
       <path id="Cmr10-20" transform="scale(0.015625)"/>
       <path id="Cmr10-45" d="M 197 0 
L 197 225 
Q 856 225 856 428 
L 856 3944 
Q 856 4147 197 4147 
L 197 4372 
L 3816 4372 
L 3994 2906 
L 3809 2906 
Q 3741 3459 3617 3709 
Q 3494 3959 3222 4053 
Q 2950 4147 2406 4147 
L 1778 4147 
Q 1663 4147 1598 4137 
Q 1534 4128 1493 4083 
Q 1453 4038 1453 3944 
L 1453 2381 
L 1925 2381 
Q 2250 2381 2411 2436 
Q 2572 2491 2633 2645 
Q 2694 2800 2694 3128 
L 2881 3128 
L 2881 1409 
L 2694 1409 
Q 2694 1734 2633 1890 
Q 2572 2047 2411 2101 
Q 2250 2156 1925 2156 
L 1453 2156 
L 1453 428 
Q 1453 291 1531 258 
Q 1609 225 1778 225 
L 2456 225 
Q 2900 225 3173 295 
Q 3447 366 3598 530 
Q 3750 694 3833 955 
Q 3916 1216 3988 1678 
L 4172 1678 
L 3903 0 
L 197 0 
z
" transform="scale(0.015625)"/>
       <path id="Cmr10-76" d="M 1563 0 
L 628 2350 
Q 569 2469 445 2501 
Q 322 2534 122 2534 
L 122 2759 
L 1466 2759 
L 1466 2534 
Q 1106 2534 1106 2381 
Q 1106 2356 1113 2344 
L 1831 538 
L 2478 2169 
Q 2497 2219 2497 2272 
Q 2497 2394 2405 2464 
Q 2313 2534 2188 2534 
L 2188 2759 
L 3250 2759 
L 3250 2534 
Q 3053 2534 2904 2443 
Q 2756 2353 2675 2175 
L 1813 0 
Q 1788 -72 1709 -72 
L 1663 -72 
Q 1584 -72 1563 0 
z
" transform="scale(0.015625)"/>
       <path id="Cmr10-6c" d="M 197 0 
L 197 225 
Q 416 225 556 259 
Q 697 294 697 428 
L 697 3788 
Q 697 3959 645 4036 
Q 594 4113 497 4130 
Q 400 4147 197 4147 
L 197 4372 
L 1147 4441 
L 1147 428 
Q 1147 294 1287 259 
Q 1428 225 1644 225 
L 1644 0 
L 197 0 
z
" transform="scale(0.015625)"/>
       <path id="Cmr10-2e" d="M 538 353 
Q 538 497 644 600 
Q 750 703 891 703 
Q 978 703 1062 656 
Q 1147 609 1194 525 
Q 1241 441 1241 353 
Q 1241 213 1137 106 
Q 1034 0 891 0 
Q 750 0 644 106 
Q 538 213 538 353 
z
" transform="scale(0.015625)"/>
       <path id="Cmr10-52" d="M 213 0 
L 213 225 
Q 872 225 872 428 
L 872 3944 
Q 872 4147 213 4147 
L 213 4372 
L 2222 4372 
Q 2581 4372 2976 4242 
Q 3372 4113 3637 3847 
Q 3903 3581 3903 3213 
Q 3903 2944 3742 2733 
Q 3581 2522 3329 2380 
Q 3078 2238 2816 2175 
Q 3103 2075 3318 1856 
Q 3534 1638 3578 1356 
L 3669 788 
Q 3731 403 3800 214 
Q 3869 25 4103 25 
Q 4303 25 4401 211 
Q 4500 397 4500 616 
Q 4500 638 4520 655 
Q 4541 672 4563 672 
L 4622 672 
Q 4684 672 4684 588 
Q 4684 413 4615 245 
Q 4547 78 4417 -31 
Q 4288 -141 4109 -141 
Q 3647 -141 3314 89 
Q 2981 319 2981 763 
L 2981 1331 
Q 2981 1650 2759 1878 
Q 2538 2106 2216 2106 
L 1447 2106 
L 1447 428 
Q 1447 225 2106 225 
L 2106 0 
L 213 0 
z
M 1447 2272 
L 2131 2272 
Q 2663 2272 2941 2486 
Q 3219 2700 3219 3213 
Q 3219 3722 2944 3934 
Q 2669 4147 2131 4147 
L 1772 4147 
Q 1656 4147 1592 4137 
Q 1528 4128 1487 4083 
Q 1447 4038 1447 3944 
L 1447 2272 
z
" transform="scale(0.015625)"/>
       <path id="Cmr10-77" d="M 1416 0 
L 588 2328 
Q 531 2469 425 2501 
Q 319 2534 116 2534 
L 116 2759 
L 1434 2759 
L 1434 2534 
Q 1056 2534 1056 2375 
Q 1059 2366 1061 2356 
Q 1063 2347 1063 2328 
L 1678 603 
L 2209 2106 
L 2125 2328 
Q 2075 2469 1965 2501 
Q 1856 2534 1656 2534 
L 1656 2759 
L 2919 2759 
L 2919 2534 
Q 2541 2534 2541 2375 
Q 2541 2350 2547 2328 
L 3188 525 
L 3769 2156 
Q 3781 2206 3781 2247 
Q 3781 2381 3667 2457 
Q 3553 2534 3413 2534 
L 3413 2759 
L 4500 2759 
L 4500 2534 
Q 4306 2534 4167 2432 
Q 4028 2331 3963 2156 
L 3200 0 
Q 3178 -72 3103 -72 
L 3053 -72 
Q 2978 -72 2956 0 
L 2309 1825 
L 1663 0 
Q 1631 -72 1563 -72 
L 1516 -72 
Q 1438 -72 1416 0 
z
" transform="scale(0.015625)"/>
       <path id="Cmr10-72" d="M 166 0 
L 166 225 
Q 384 225 525 259 
Q 666 294 666 428 
L 666 2175 
Q 666 2347 614 2423 
Q 563 2500 466 2517 
Q 369 2534 166 2534 
L 166 2759 
L 1081 2828 
L 1081 2203 
Q 1184 2481 1375 2654 
Q 1566 2828 1838 2828 
Q 2028 2828 2178 2715 
Q 2328 2603 2328 2419 
Q 2328 2303 2245 2217 
Q 2163 2131 2041 2131 
Q 1922 2131 1837 2215 
Q 1753 2300 1753 2419 
Q 1753 2591 1875 2663 
L 1838 2663 
Q 1578 2663 1414 2475 
Q 1250 2288 1181 2009 
Q 1113 1731 1113 1478 
L 1113 428 
Q 1113 225 1734 225 
L 1734 0 
L 166 0 
z
" transform="scale(0.015625)"/>
       <path id="Cmr10-64" d="M 1563 -72 
Q 1184 -72 871 133 
Q 559 338 386 672 
Q 213 1006 213 1381 
Q 213 1769 402 2101 
Q 591 2434 916 2631 
Q 1241 2828 1631 2828 
Q 1866 2828 2075 2729 
Q 2284 2631 2438 2456 
L 2438 3788 
Q 2438 3959 2386 4036 
Q 2334 4113 2239 4130 
Q 2144 4147 1941 4147 
L 1941 4372 
L 2888 4441 
L 2888 581 
Q 2888 413 2939 336 
Q 2991 259 3086 242 
Q 3181 225 3384 225 
L 3384 0 
L 2419 -72 
L 2419 331 
Q 2253 141 2025 34 
Q 1797 -72 1563 -72 
z
M 909 556 
Q 1019 347 1201 222 
Q 1384 97 1600 97 
Q 1866 97 2087 250 
Q 2309 403 2419 647 
L 2419 2181 
Q 2344 2322 2230 2433 
Q 2116 2544 1973 2603 
Q 1831 2663 1672 2663 
Q 1338 2663 1134 2473 
Q 931 2284 850 1990 
Q 769 1697 769 1375 
Q 769 1119 795 928 
Q 822 738 909 556 
z
" transform="scale(0.015625)"/>
       <path id="Cmr10-28" d="M 1984 -1588 
Q 1628 -1306 1370 -942 
Q 1113 -578 948 -165 
Q 784 247 703 697 
Q 622 1147 622 1600 
Q 622 2059 703 2509 
Q 784 2959 951 3375 
Q 1119 3791 1378 4153 
Q 1638 4516 1984 4788 
Q 1984 4800 2016 4800 
L 2075 4800 
Q 2094 4800 2109 4783 
Q 2125 4766 2125 4744 
Q 2125 4716 2113 4703 
Q 1800 4397 1592 4047 
Q 1384 3697 1257 3301 
Q 1131 2906 1075 2482 
Q 1019 2059 1019 1600 
Q 1019 -434 2106 -1491 
Q 2125 -1509 2125 -1544 
Q 2125 -1559 2108 -1579 
Q 2091 -1600 2075 -1600 
L 2016 -1600 
Q 1984 -1600 1984 -1588 
z
" transform="scale(0.015625)"/>
       <path id="Cmsy10-a7" d="M 481 0 
Q 428 0 393 37 
Q 359 75 359 128 
Q 359 175 393 215 
Q 428 256 481 256 
L 2363 256 
L 2363 2003 
L 481 2003 
Q 428 2003 393 2043 
Q 359 2084 359 2131 
Q 359 2178 393 2218 
Q 428 2259 481 2259 
L 2363 2259 
L 2363 4147 
Q 2363 4197 2400 4230 
Q 2438 4263 2491 4263 
Q 2534 4263 2576 4230 
Q 2619 4197 2619 4147 
L 2619 2259 
L 4500 2259 
Q 4547 2259 4581 2218 
Q 4616 2178 4616 2131 
Q 4616 2084 4581 2043 
Q 4547 2003 4500 2003 
L 2619 2003 
L 2619 256 
L 4500 256 
Q 4547 256 4581 215 
Q 4616 175 4616 128 
Q 4616 75 4581 37 
Q 4547 0 4500 0 
L 481 0 
z
" transform="scale(0.015625)"/>
       <path id="Cmmi10-be" d="M 1197 -72 
Q 913 -72 692 64 
Q 472 200 351 431 
Q 231 663 231 941 
Q 231 1238 365 1566 
Q 500 1894 733 2166 
Q 966 2438 1259 2598 
Q 1553 2759 1863 2759 
L 3475 2759 
Q 3541 2759 3587 2715 
Q 3634 2672 3634 2597 
Q 3634 2503 3567 2433 
Q 3500 2363 3406 2363 
L 2625 2363 
Q 2809 2088 2809 1697 
Q 2809 1375 2684 1062 
Q 2559 750 2337 492 
Q 2116 234 1820 81 
Q 1525 -72 1197 -72 
z
M 1203 97 
Q 1553 97 1823 370 
Q 2094 644 2237 1039 
Q 2381 1434 2381 1772 
Q 2381 2047 2229 2205 
Q 2078 2363 1806 2363 
Q 1434 2363 1173 2113 
Q 913 1863 783 1484 
Q 653 1106 653 756 
Q 653 481 798 289 
Q 944 97 1203 97 
z
" transform="scale(0.015625)"/>
       <path id="Cmr10-29" d="M 416 -1600 
Q 359 -1600 359 -1544 
Q 359 -1516 372 -1503 
Q 1466 -434 1466 1600 
Q 1466 3634 384 4691 
Q 359 4706 359 4744 
Q 359 4766 376 4783 
Q 394 4800 416 4800 
L 475 4800 
Q 494 4800 506 4788 
Q 966 4425 1272 3906 
Q 1578 3388 1720 2800 
Q 1863 2213 1863 1600 
Q 1863 1147 1786 708 
Q 1709 269 1542 -157 
Q 1375 -584 1119 -945 
Q 863 -1306 506 -1588 
Q 494 -1600 475 -1600 
L 416 -1600 
z
" transform="scale(0.015625)"/>
       <path id="Cmr10-2c" d="M 634 -1153 
Q 634 -1125 659 -1100 
Q 891 -878 1019 -587 
Q 1147 -297 1147 25 
L 1147 103 
Q 1044 0 891 0 
Q 744 0 641 103 
Q 538 206 538 353 
Q 538 503 641 603 
Q 744 703 891 703 
Q 1119 703 1216 492 
Q 1313 281 1313 25 
Q 1313 -331 1170 -651 
Q 1028 -972 769 -1228 
Q 744 -1241 728 -1241 
Q 697 -1241 665 -1212 
Q 634 -1184 634 -1153 
z
" transform="scale(0.015625)"/>
       <path id="Cmr10-53" d="M 359 -91 
L 359 1403 
Q 359 1453 416 1453 
L 494 1453 
Q 513 1453 528 1437 
Q 544 1422 544 1403 
Q 544 775 933 429 
Q 1322 84 1953 84 
Q 2175 84 2362 212 
Q 2550 341 2654 548 
Q 2759 756 2759 978 
Q 2759 1172 2681 1355 
Q 2603 1538 2456 1672 
Q 2309 1806 2125 1850 
L 1294 2053 
Q 881 2163 620 2502 
Q 359 2841 359 3263 
Q 359 3594 528 3884 
Q 697 4175 983 4344 
Q 1269 4513 1600 4513 
Q 2241 4513 2619 4078 
L 2881 4494 
Q 2900 4513 2925 4513 
L 2969 4513 
Q 2988 4513 3005 4498 
Q 3022 4484 3022 4459 
L 3022 2975 
Q 3022 2919 2969 2919 
L 2894 2919 
Q 2834 2919 2834 2975 
Q 2834 3138 2779 3331 
Q 2725 3525 2628 3703 
Q 2531 3881 2419 3994 
Q 2109 4306 1600 4306 
Q 1381 4306 1197 4195 
Q 1013 4084 903 3893 
Q 794 3703 794 3494 
Q 794 3219 964 2995 
Q 1134 2772 1409 2700 
L 2241 2497 
Q 2447 2447 2630 2317 
Q 2813 2188 2934 2016 
Q 3056 1844 3125 1633 
Q 3194 1422 3194 1197 
Q 3194 850 3034 542 
Q 2875 234 2586 46 
Q 2297 -141 1953 -141 
Q 1741 -141 1519 -94 
Q 1297 -47 1109 50 
Q 922 147 769 300 
L 500 -122 
Q 481 -141 453 -141 
L 416 -141 
Q 359 -141 359 -91 
z
" transform="scale(0.015625)"/>
       <path id="Cmr10-6f" d="M 1600 -72 
Q 1216 -72 887 123 
Q 559 319 368 647 
Q 178 975 178 1363 
Q 178 1656 283 1928 
Q 388 2200 583 2414 
Q 778 2628 1037 2748 
Q 1297 2869 1600 2869 
Q 1994 2869 2317 2661 
Q 2641 2453 2828 2104 
Q 3016 1756 3016 1363 
Q 3016 978 2825 648 
Q 2634 319 2307 123 
Q 1981 -72 1600 -72 
z
M 1600 116 
Q 2113 116 2284 487 
Q 2456 859 2456 1434 
Q 2456 1756 2422 1967 
Q 2388 2178 2272 2350 
Q 2200 2456 2089 2536 
Q 1978 2616 1854 2658 
Q 1731 2700 1600 2700 
Q 1400 2700 1220 2609 
Q 1041 2519 922 2350 
Q 803 2169 770 1951 
Q 738 1734 738 1434 
Q 738 1075 800 789 
Q 863 503 1052 309 
Q 1241 116 1600 116 
z
" transform="scale(0.015625)"/>
       <path id="Cmr10-68" d="M 191 0 
L 191 225 
Q 409 225 550 259 
Q 691 294 691 428 
L 691 3788 
Q 691 3959 639 4036 
Q 588 4113 491 4130 
Q 394 4147 191 4147 
L 191 4372 
L 1141 4441 
L 1141 2241 
Q 1275 2506 1515 2667 
Q 1756 2828 2047 2828 
Q 2491 2828 2714 2615 
Q 2938 2403 2938 1966 
L 2938 428 
Q 2938 294 3078 259 
Q 3219 225 3438 225 
L 3438 0 
L 1972 0 
L 1972 225 
Q 2191 225 2331 259 
Q 2472 294 2472 428 
L 2472 1947 
Q 2472 2259 2381 2461 
Q 2291 2663 2009 2663 
Q 1638 2663 1398 2366 
Q 1159 2069 1159 1691 
L 1159 428 
Q 1159 294 1300 259 
Q 1441 225 1656 225 
L 1656 0 
L 191 0 
z
" transform="scale(0.015625)"/>
       <path id="Cmr10-57" d="M 1991 -72 
L 684 3944 
Q 634 4078 490 4112 
Q 347 4147 116 4147 
L 116 4372 
L 1831 4372 
L 1831 4147 
Q 1294 4147 1294 3975 
L 1294 3944 
L 2316 794 
L 3188 3488 
L 3041 3944 
Q 2991 4078 2847 4112 
Q 2703 4147 2472 4147 
L 2472 4372 
L 4184 4372 
L 4184 4147 
Q 3641 4147 3641 3975 
Q 3641 3966 3647 3947 
Q 3653 3928 3653 3922 
L 4672 794 
L 5631 3769 
Q 5638 3788 5638 3828 
Q 5638 3997 5459 4072 
Q 5281 4147 5088 4147 
L 5088 4372 
L 6456 4372 
L 6456 4147 
Q 5950 4147 5831 3769 
L 4581 -72 
Q 4559 -141 4488 -141 
L 4441 -141 
Q 4369 -141 4347 -72 
L 3291 3188 
L 2228 -72 
Q 2206 -141 2131 -141 
L 2088 -141 
Q 2013 -141 1991 -72 
z
" transform="scale(0.015625)"/>
       <path id="Cmr10-3d" d="M 481 850 
Q 428 850 393 890 
Q 359 931 359 978 
Q 359 1031 393 1068 
Q 428 1106 481 1106 
L 4500 1106 
Q 4547 1106 4581 1068 
Q 4616 1031 4616 978 
Q 4616 931 4581 890 
Q 4547 850 4500 850 
L 481 850 
z
M 481 2094 
Q 428 2094 393 2131 
Q 359 2169 359 2222 
Q 359 2269 393 2309 
Q 428 2350 481 2350 
L 4500 2350 
Q 4547 2350 4581 2309 
Q 4616 2269 4616 2222 
Q 4616 2169 4581 2131 
Q 4547 2094 4500 2094 
L 481 2094 
z
" transform="scale(0.015625)"/>
      </defs>
      <use xlink:href="#Cmr10-4d"/>
      <use xlink:href="#Cmr10-65" transform="translate(91.601562 0)"/>
      <use xlink:href="#Cmr10-61" transform="translate(135.986328 0)"/>
      <use xlink:href="#Cmr10-6e" transform="translate(185.986328 0)"/>
      <use xlink:href="#Cmr10-20" transform="translate(241.503906 0)"/>
      <use xlink:href="#Cmr10-45" transform="translate(274.804688 0)"/>
      <use xlink:href="#Cmr10-76" transform="translate(342.822266 0)"/>
      <use xlink:href="#Cmr10-61" transform="translate(395.507812 0)"/>
      <use xlink:href="#Cmr10-6c" transform="translate(445.507812 0)"/>
      <use xlink:href="#Cmr10-2e" transform="translate(473.193359 0)"/>
      <use xlink:href="#Cmr10-20" transform="translate(500.878906 0)"/>
      <use xlink:href="#Cmr10-52" transform="translate(534.179688 0)"/>
      <use xlink:href="#Cmr10-65" transform="translate(607.763672 0)"/>
      <use xlink:href="#Cmr10-77" transform="translate(652.148438 0)"/>
      <use xlink:href="#Cmr10-61" transform="translate(724.365234 0)"/>
      <use xlink:href="#Cmr10-72" transform="translate(774.365234 0)"/>
      <use xlink:href="#Cmr10-64" transform="translate(813.476562 0)"/>
      <use xlink:href="#Cmr10-20" transform="translate(868.994141 0)"/>
      <use xlink:href="#Cmr10-28" transform="translate(902.294922 0)"/>
      <use xlink:href="#Cmsy10-a7" transform="translate(941.113281 0)"/>
      <use xlink:href="#Cmmi10-be" transform="translate(1018.798828 0)"/>
      <use xlink:href="#Cmr10-29" transform="translate(1075.878906 0)"/>
      <use xlink:href="#Cmr10-2c" transform="translate(1114.697266 0)"/>
      <use xlink:href="#Cmr10-20" transform="translate(1142.382812 0)"/>
      <use xlink:href="#Cmr10-53" transform="translate(1175.683594 0)"/>
      <use xlink:href="#Cmr10-6d" transform="translate(1231.201172 0)"/>
      <use xlink:href="#Cmr10-6f" transform="translate(1314.501953 0)"/>
      <use xlink:href="#Cmr10-6f" transform="translate(1364.501953 0)"/>
      <use xlink:href="#Cmr10-74" transform="translate(1414.501953 0)"/>
      <use xlink:href="#Cmr10-68" transform="translate(1453.320312 0)"/>
      <use xlink:href="#Cmr10-65" transform="translate(1508.837891 0)"/>
      <use xlink:href="#Cmr10-64" transform="translate(1553.222656 0)"/>
      <use xlink:href="#Cmr10-20" transform="translate(1608.740234 0)"/>
      <use xlink:href="#Cmr10-28" transform="translate(1642.041016 0)"/>
      <use xlink:href="#Cmr10-57" transform="translate(1680.859375 0)"/>
      <use xlink:href="#Cmr10-69" transform="translate(1783.544922 0)"/>
      <use xlink:href="#Cmr10-6e" transform="translate(1811.230469 0)"/>
      <use xlink:href="#Cmr10-64" transform="translate(1866.748047 0)"/>
      <use xlink:href="#Cmr10-6f" transform="translate(1922.265625 0)"/>
      <use xlink:href="#Cmr10-77" transform="translate(1972.265625 0)"/>
      <use xlink:href="#Cmr10-20" transform="translate(2044.482422 0)"/>
      <use xlink:href="#Cmr10-3d" transform="translate(2077.783203 0)"/>
      <use xlink:href="#Cmr10-20" transform="translate(2155.46875 0)"/>
      <use xlink:href="#Cmr10-31" transform="translate(2188.769531 0)"/>
      <use xlink:href="#Cmr10-30" transform="translate(2238.769531 0)"/>
      <use xlink:href="#Cmr10-20" transform="translate(2288.769531 0)"/>
      <use xlink:href="#Cmr10-65" transform="translate(2322.070312 0)"/>
      <use xlink:href="#Cmr10-70" transform="translate(2366.455078 0)"/>
      <use xlink:href="#Cmr10-2e" transform="translate(2421.972656 0)"/>
      <use xlink:href="#Cmr10-29" transform="translate(2449.658203 0)"/>
     </g>
    </g>
   </g>
   <g id="line2d_103">
    <path d="M 49.90424 135.696848 
L 52.971849 118.483965 
L 56.039458 108.141318 
L 59.107067 106.298757 
L 62.174676 93.90084 
L 65.242285 84.130022 
L 68.309893 79.187983 
L 71.377502 74.679649 
L 74.445111 73.897873 
L 77.51272 71.384035 
L 80.580329 67.190622 
L 83.647938 67.522117 
L 86.715547 63.464065 
L 89.783156 67.447531 
L 92.850765 71.513871 
L 95.918374 71.513871 
L 98.985982 70.38955 
L 102.053591 70.38955 
L 105.1212 66.350835 
L 108.188809 67.290071 
L 111.256418 67.290071 
L 114.324027 66.958576 
L 117.391636 66.958576 
L 120.459245 63.60495 
L 123.526854 60.143589 
L 126.594463 62.975109 
L 129.662071 63.997219 
L 132.72968 63.997219 
L 135.797289 63.997219 
L 138.864898 62.23477 
L 141.932507 62.23477 
L 145.000116 62.23477 
L 148.067725 62.23477 
L 151.135334 61.60493 
L 154.202943 60.999951 
L 157.270552 60.466796 
L 160.338161 59.444687 
L 163.405769 62.154659 
L 166.473378 62.154659 
L 169.540987 60.096627 
L 172.608596 60.096627 
L 175.676205 60.096627 
L 178.743814 60.096627 
L 181.811423 60.096627 
L 184.879032 60.096627 
L 187.946641 57.798261 
L 191.01425 57.798261 
L 194.081858 55.088288 
L 197.149467 55.088288 
L 200.217076 55.088288 
L 203.284685 55.088288 
L 206.352294 55.088288 
L 209.419903 55.088288 
L 212.487512 55.088288 
L 215.555121 55.574481 
L 218.62273 55.574481 
L 221.690339 55.574481 
L 224.757947 55.574481 
L 227.825556 55.574481 
L 230.893165 56.027524 
L 233.960774 56.027524 
L 237.028383 56.027524 
L 240.095992 56.027524 
L 243.163601 56.027524 
L 246.23121 55.541332 
L 249.298819 55.541332 
L 252.366428 55.541332 
L 255.434036 55.541332 
L 258.501645 55.541332 
L 261.569254 55.088288 
L 264.636863 55.088288 
L 267.704472 55.088288 
L 270.772081 55.088288 
L 273.83969 55.088288 
L 276.907299 55.088288 
L 279.974908 55.088288 
L 283.042517 55.088288 
L 286.110125 55.088288 
L 289.177734 56.922561 
L 292.245343 56.922561 
L 295.312952 56.922561 
L 298.380561 56.922561 
L 301.44817 56.922561 
L 304.515779 56.922561 
L 307.583388 56.922561 
L 310.650997 56.922561 
L 313.718606 56.922561 
L 316.786214 56.922561 
L 319.853823 55.088288 
L 322.921432 55.088288 
L 325.989041 55.088288 
" clip-path="url(#pc693940862)" style="fill: none; stroke: #0c5da5; stroke-linecap: square"/>
   </g>
   <g id="line2d_104">
    <path d="M 49.90424 148.27985 
L 52.971849 132.111176 
L 56.039458 132.111176 
L 59.107067 118.378992 
L 62.174676 105.906488 
L 65.242285 94.61908 
L 68.309893 80.257054 
L 71.377502 77.414484 
L 74.445111 71.828791 
L 77.51272 62.712676 
L 80.580329 62.712676 
L 83.647938 62.712676 
L 86.715547 62.712676 
L 89.783156 62.712676 
L 92.850765 62.712676 
L 95.918374 62.712676 
L 98.985982 74.621637 
L 102.053591 74.621637 
L 105.1212 66.99725 
L 108.188809 66.99725 
L 111.256418 66.99725 
L 114.324027 66.99725 
L 117.391636 78.210072 
L 120.459245 78.210072 
L 123.526854 78.210072 
L 126.594463 85.420091 
L 129.662071 73.511129 
L 132.72968 73.511129 
L 135.797289 73.511129 
L 138.864898 73.511129 
L 141.932507 84.201846 
L 145.000116 84.201846 
L 148.067725 79.428317 
L 151.135334 79.428317 
L 154.202943 79.428317 
L 157.270552 72.218298 
L 160.338161 76.312263 
L 163.405769 77.704542 
L 166.473378 77.704542 
L 169.540987 77.704542 
L 172.608596 67.013825 
L 175.676205 67.013825 
L 178.743814 68.580139 
L 181.811423 68.580139 
L 184.879032 69.259704 
L 187.946641 69.259704 
L 191.01425 65.16574 
L 194.081858 70.983479 
L 197.149467 79.676938 
L 200.217076 79.676938 
L 203.284685 84.574778 
L 206.352294 84.574778 
L 209.419903 76.917241 
L 212.487512 76.917241 
L 215.555121 76.237676 
L 218.62273 76.237676 
L 221.690339 78.326095 
L 224.757947 77.008402 
L 227.825556 68.314943 
L 230.893165 68.314943 
L 233.960774 69.077382 
L 237.028383 69.077382 
L 240.095992 68.729312 
L 243.163601 71.381273 
L 246.23121 71.381273 
L 249.298819 71.381273 
L 252.366428 70.469661 
L 255.434036 64.577336 
L 258.501645 64.577336 
L 261.569254 65.67127 
L 264.636863 64.602198 
L 267.704472 64.602198 
L 270.772081 64.602198 
L 273.83969 62.298307 
L 276.907299 62.298307 
L 279.974908 67.950298 
L 283.042517 66.773491 
L 286.110125 66.773491 
L 289.177734 66.773491 
L 292.245343 65.679557 
L 295.312952 61.08835 
L 298.380561 61.08835 
L 301.44817 61.08835 
L 304.515779 60.74028 
L 307.583388 60.74028 
L 310.650997 55.088288 
L 313.718606 55.088288 
L 316.786214 55.088288 
L 319.853823 55.088288 
L 322.921432 55.088288 
L 325.989041 55.088288 
" clip-path="url(#pc693940862)" style="fill: none; stroke: #00b945; stroke-linecap: square"/>
   </g>
   <g id="line2d_105">
    <path d="M 49.90424 161.423631 
L 52.971849 153.87383 
L 56.039458 144.890313 
L 59.107067 141.260441 
L 62.174676 138.906826 
L 65.242285 135.857071 
L 68.309893 150.384844 
L 71.377502 158.166692 
L 74.445111 154.37936 
L 77.51272 162.583864 
L 80.580329 159.335212 
L 83.647938 146.589225 
L 86.715547 140.241094 
L 89.783156 126.782392 
L 92.850765 114.55851 
L 95.918374 104.555646 
L 98.985982 89.978148 
L 102.053591 83.613442 
L 105.1212 83.613442 
L 108.188809 70.950329 
L 111.256418 72.259735 
L 114.324027 72.259735 
L 117.391636 72.259735 
L 120.459245 72.259735 
L 123.526854 70.022143 
L 126.594463 70.022143 
L 129.662071 70.022143 
L 132.72968 67.933724 
L 135.797289 67.933724 
L 138.864898 79.113396 
L 141.932507 66.267961 
L 145.000116 76.395136 
L 148.067725 87.334475 
L 151.135334 96.342854 
L 154.202943 96.342854 
L 157.270552 96.342854 
L 160.338161 96.342854 
L 163.405769 96.342854 
L 166.473378 96.342854 
L 169.540987 91.01407 
L 172.608596 91.01407 
L 175.676205 80.886895 
L 178.743814 69.947556 
L 181.811423 60.939177 
L 184.879032 60.939177 
L 187.946641 60.939177 
L 191.01425 60.939177 
L 194.081858 60.939177 
L 197.149467 60.939177 
L 200.217076 55.088288 
L 203.284685 55.088288 
L 206.352294 55.088288 
L 209.419903 55.088288 
L 212.487512 65.662982 
L 215.555121 65.662982 
L 218.62273 65.662982 
L 221.690339 65.662982 
L 224.757947 65.662982 
L 227.825556 65.662982 
L 230.893165 65.662982 
L 233.960774 65.662982 
L 237.028383 78.798476 
L 240.095992 78.798476 
L 243.163601 68.223782 
L 246.23121 68.223782 
L 249.298819 77.83714 
L 252.366428 89.389744 
L 255.434036 98.008617 
L 258.501645 98.008617 
L 261.569254 98.008617 
L 264.636863 110.249074 
L 267.704472 97.11358 
L 270.772081 103.254527 
L 273.83969 103.254527 
L 276.907299 103.254527 
L 279.974908 93.641169 
L 283.042517 83.315097 
L 286.110125 74.696224 
L 289.177734 74.696224 
L 292.245343 74.696224 
L 295.312952 62.455767 
L 298.380561 62.455767 
L 301.44817 56.31482 
L 304.515779 66.889514 
L 307.583388 66.889514 
L 310.650997 73.09676 
L 313.718606 84.964285 
L 316.786214 84.964285 
L 319.853823 84.964285 
L 322.921432 84.964285 
L 325.989041 94.072113 
" clip-path="url(#pc693940862)" style="fill: none; stroke: #ff9500; stroke-linecap: square"/>
   </g>
   <g id="patch_3">
    <path d="M 36.1 243.380625 
L 36.1 18.6 
" style="fill: none; stroke: #000000; stroke-width: 0.5; stroke-linejoin: miter; stroke-linecap: square"/>
   </g>
   <g id="patch_4">
    <path d="M 339.793281 243.380625 
L 339.793281 18.6 
" style="fill: none; stroke: #000000; stroke-width: 0.5; stroke-linejoin: miter; stroke-linecap: square"/>
   </g>
   <g id="patch_5">
    <path d="M 36.1 243.380625 
L 339.793281 243.380625 
" style="fill: none; stroke: #000000; stroke-width: 0.5; stroke-linejoin: miter; stroke-linecap: square"/>
   </g>
   <g id="patch_6">
    <path d="M 36.1 18.6 
L 339.793281 18.6 
" style="fill: none; stroke: #000000; stroke-width: 0.5; stroke-linejoin: miter; stroke-linecap: square"/>
   </g>
   <g id="text_13">
    <!-- Eval. reward vs. timestep on CartPole-v1 (3 seeds avg.) for PPO -->
    <g transform="translate(17.086328 12.6) scale(0.12 -0.12)">
     <defs>
      <path id="Cmr10-43" d="M 1459 684 
Q 1678 406 2006 245 
Q 2334 84 2688 84 
Q 2984 84 3237 201 
Q 3491 319 3680 528 
Q 3869 738 3970 1003 
Q 4072 1269 4072 1563 
Q 4072 1613 4128 1613 
L 4206 1613 
Q 4256 1613 4256 1550 
Q 4256 1216 4128 905 
Q 4000 594 3765 358 
Q 3531 122 3226 -9 
Q 2922 -141 2591 -141 
Q 2131 -141 1720 45 
Q 1309 231 1004 554 
Q 700 878 529 1303 
Q 359 1728 359 2188 
Q 359 2647 529 3072 
Q 700 3497 1004 3822 
Q 1309 4147 1720 4330 
Q 2131 4513 2591 4513 
Q 2919 4513 3219 4370 
Q 3519 4228 3744 3969 
L 4116 4494 
Q 4153 4513 4159 4513 
L 4206 4513 
Q 4225 4513 4240 4497 
Q 4256 4481 4256 4459 
L 4256 2731 
Q 4256 2675 4206 2675 
L 4091 2675 
Q 4031 2675 4031 2731 
Q 4031 2916 3957 3144 
Q 3884 3372 3770 3576 
Q 3656 3781 3506 3938 
Q 3147 4288 2681 4288 
Q 2328 4288 2004 4128 
Q 1681 3969 1459 3688 
Q 1225 3388 1134 3005 
Q 1044 2622 1044 2188 
Q 1044 1753 1134 1368 
Q 1225 984 1459 684 
z
" transform="scale(0.015625)"/>
      <path id="Cmr10-50" d="M 213 0 
L 213 225 
Q 872 225 872 428 
L 872 3944 
Q 872 4147 213 4147 
L 213 4372 
L 2491 4372 
Q 2841 4372 3191 4228 
Q 3541 4084 3767 3809 
Q 3994 3534 3994 3169 
Q 3994 2813 3766 2544 
Q 3538 2275 3191 2136 
Q 2844 1997 2491 1997 
L 1466 1997 
L 1466 428 
Q 1466 225 2125 225 
L 2125 0 
L 213 0 
z
M 1447 2188 
L 2316 2188 
Q 2669 2188 2887 2289 
Q 3106 2391 3207 2605 
Q 3309 2819 3309 3169 
Q 3309 3691 3079 3919 
Q 2850 4147 2316 4147 
L 1772 4147 
Q 1656 4147 1592 4137 
Q 1528 4128 1487 4083 
Q 1447 4038 1447 3944 
L 1447 2188 
z
" transform="scale(0.015625)"/>
      <path id="Cmr10-2d" d="M 72 1184 
L 72 1581 
L 1766 1581 
L 1766 1184 
L 72 1184 
z
" transform="scale(0.015625)"/>
      <path id="Cmr10-67" d="M 178 -500 
Q 178 -272 343 -101 
Q 509 69 738 141 
Q 609 238 542 384 
Q 475 531 475 697 
Q 475 997 666 1228 
Q 372 1516 372 1888 
Q 372 2088 458 2263 
Q 544 2438 697 2566 
Q 850 2694 1037 2761 
Q 1225 2828 1422 2828 
Q 1803 2828 2106 2606 
Q 2238 2747 2417 2823 
Q 2597 2900 2791 2900 
Q 2928 2900 3015 2801 
Q 3103 2703 3103 2566 
Q 3103 2488 3043 2428 
Q 2984 2369 2906 2369 
Q 2825 2369 2765 2428 
Q 2706 2488 2706 2566 
Q 2706 2684 2784 2731 
Q 2453 2731 2216 2503 
Q 2331 2388 2401 2220 
Q 2472 2053 2472 1888 
Q 2472 1616 2322 1398 
Q 2172 1181 1926 1061 
Q 1681 941 1422 941 
Q 1072 941 781 1131 
Q 691 1006 691 850 
Q 691 681 802 554 
Q 913 428 1081 428 
L 1606 428 
Q 1988 428 2294 359 
Q 2600 291 2808 84 
Q 3016 -122 3016 -500 
Q 3016 -781 2778 -967 
Q 2541 -1153 2211 -1236 
Q 1881 -1319 1600 -1319 
Q 1316 -1319 984 -1236 
Q 653 -1153 415 -967 
Q 178 -781 178 -500 
z
M 538 -500 
Q 538 -716 713 -861 
Q 888 -1006 1134 -1076 
Q 1381 -1147 1600 -1147 
Q 1816 -1147 2062 -1076 
Q 2309 -1006 2482 -861 
Q 2656 -716 2656 -500 
Q 2656 -166 2350 -67 
Q 2044 31 1606 31 
L 1081 31 
Q 934 31 811 -39 
Q 688 -109 613 -236 
Q 538 -363 538 -500 
z
M 1422 1113 
Q 1966 1113 1966 1888 
Q 1966 2222 1850 2439 
Q 1734 2656 1422 2656 
Q 1109 2656 993 2439 
Q 878 2222 878 1888 
Q 878 1675 922 1503 
Q 966 1331 1084 1222 
Q 1203 1113 1422 1113 
z
" transform="scale(0.015625)"/>
      <path id="Cmr10-66" d="M 206 0 
L 206 225 
Q 422 225 562 259 
Q 703 294 703 428 
L 703 2534 
L 213 2534 
L 213 2759 
L 703 2759 
L 703 3525 
Q 703 3731 789 3911 
Q 875 4091 1020 4225 
Q 1166 4359 1355 4436 
Q 1544 4513 1747 4513 
Q 1963 4513 2136 4384 
Q 2309 4256 2309 4044 
Q 2309 3922 2226 3839 
Q 2144 3756 2022 3756 
Q 1900 3756 1814 3839 
Q 1728 3922 1728 4044 
Q 1728 4244 1900 4313 
Q 1797 4347 1716 4347 
Q 1528 4347 1395 4214 
Q 1263 4081 1197 3890 
Q 1131 3700 1131 3513 
L 1131 2759 
L 1869 2759 
L 1869 2534 
L 1153 2534 
L 1153 428 
Q 1153 297 1340 261 
Q 1528 225 1772 225 
L 1772 0 
L 206 0 
z
" transform="scale(0.015625)"/>
      <path id="Cmr10-4f" d="M 2491 -141 
Q 1881 -141 1395 182 
Q 909 506 634 1042 
Q 359 1578 359 2169 
Q 359 2606 517 3034 
Q 675 3463 958 3794 
Q 1241 4125 1637 4319 
Q 2034 4513 2491 4513 
Q 2944 4513 3342 4317 
Q 3741 4122 4025 3787 
Q 4309 3453 4462 3037 
Q 4616 2622 4616 2169 
Q 4616 1578 4341 1042 
Q 4066 506 3578 182 
Q 3091 -141 2491 -141 
z
M 1428 691 
Q 1616 397 1891 223 
Q 2166 50 2491 50 
Q 2700 50 2901 134 
Q 3103 219 3267 366 
Q 3431 513 3547 691 
Q 3928 1266 3928 2272 
Q 3928 3194 3547 3731 
Q 3359 4000 3079 4162 
Q 2800 4325 2491 4325 
Q 2178 4325 1897 4162 
Q 1616 4000 1428 3731 
Q 1278 3522 1195 3286 
Q 1113 3050 1078 2797 
Q 1044 2544 1044 2272 
Q 1044 1981 1076 1704 
Q 1109 1428 1198 1162 
Q 1288 897 1428 691 
z
" transform="scale(0.015625)"/>
     </defs>
     <use xlink:href="#Cmr10-45"/>
     <use xlink:href="#Cmr10-76" transform="translate(68.017578 0)"/>
     <use xlink:href="#Cmr10-61" transform="translate(120.703125 0)"/>
     <use xlink:href="#Cmr10-6c" transform="translate(170.703125 0)"/>
     <use xlink:href="#Cmr10-2e" transform="translate(198.388672 0)"/>
     <use xlink:href="#Cmr10-20" transform="translate(226.074219 0)"/>
     <use xlink:href="#Cmr10-72" transform="translate(259.375 0)"/>
     <use xlink:href="#Cmr10-65" transform="translate(298.486328 0)"/>
     <use xlink:href="#Cmr10-77" transform="translate(342.871094 0)"/>
     <use xlink:href="#Cmr10-61" transform="translate(415.087891 0)"/>
     <use xlink:href="#Cmr10-72" transform="translate(465.087891 0)"/>
     <use xlink:href="#Cmr10-64" transform="translate(504.199219 0)"/>
     <use xlink:href="#Cmr10-20" transform="translate(559.716797 0)"/>
     <use xlink:href="#Cmr10-76" transform="translate(593.017578 0)"/>
     <use xlink:href="#Cmr10-73" transform="translate(645.703125 0)"/>
     <use xlink:href="#Cmr10-2e" transform="translate(685.107422 0)"/>
     <use xlink:href="#Cmr10-20" transform="translate(712.792969 0)"/>
     <use xlink:href="#Cmr10-74" transform="translate(746.09375 0)"/>
     <use xlink:href="#Cmr10-69" transform="translate(784.912109 0)"/>
     <use xlink:href="#Cmr10-6d" transform="translate(812.597656 0)"/>
     <use xlink:href="#Cmr10-65" transform="translate(895.898438 0)"/>
     <use xlink:href="#Cmr10-73" transform="translate(940.283203 0)"/>
     <use xlink:href="#Cmr10-74" transform="translate(979.6875 0)"/>
     <use xlink:href="#Cmr10-65" transform="translate(1018.505859 0)"/>
     <use xlink:href="#Cmr10-70" transform="translate(1062.890625 0)"/>
     <use xlink:href="#Cmr10-20" transform="translate(1118.408203 0)"/>
     <use xlink:href="#Cmr10-6f" transform="translate(1151.708984 0)"/>
     <use xlink:href="#Cmr10-6e" transform="translate(1201.708984 0)"/>
     <use xlink:href="#Cmr10-20" transform="translate(1257.226562 0)"/>
     <use xlink:href="#Cmr10-43" transform="translate(1290.527344 0)"/>
     <use xlink:href="#Cmr10-61" transform="translate(1362.744141 0)"/>
     <use xlink:href="#Cmr10-72" transform="translate(1412.744141 0)"/>
     <use xlink:href="#Cmr10-74" transform="translate(1451.855469 0)"/>
     <use xlink:href="#Cmr10-50" transform="translate(1490.673828 0)"/>
     <use xlink:href="#Cmr10-6f" transform="translate(1558.691406 0)"/>
     <use xlink:href="#Cmr10-6c" transform="translate(1608.691406 0)"/>
     <use xlink:href="#Cmr10-65" transform="translate(1636.376953 0)"/>
     <use xlink:href="#Cmr10-2d" transform="translate(1680.761719 0)"/>
     <use xlink:href="#Cmr10-76" transform="translate(1714.0625 0)"/>
     <use xlink:href="#Cmr10-31" transform="translate(1766.748047 0)"/>
     <use xlink:href="#Cmr10-20" transform="translate(1816.748047 0)"/>
     <use xlink:href="#Cmr10-28" transform="translate(1850.048828 0)"/>
     <use xlink:href="#Cmr10-33" transform="translate(1888.867188 0)"/>
     <use xlink:href="#Cmr10-20" transform="translate(1938.867188 0)"/>
     <use xlink:href="#Cmr10-73" transform="translate(1972.167969 0)"/>
     <use xlink:href="#Cmr10-65" transform="translate(2011.572266 0)"/>
     <use xlink:href="#Cmr10-65" transform="translate(2055.957031 0)"/>
     <use xlink:href="#Cmr10-64" transform="translate(2100.341797 0)"/>
     <use xlink:href="#Cmr10-73" transform="translate(2155.859375 0)"/>
     <use xlink:href="#Cmr10-20" transform="translate(2195.263672 0)"/>
     <use xlink:href="#Cmr10-61" transform="translate(2228.564453 0)"/>
     <use xlink:href="#Cmr10-76" transform="translate(2278.564453 0)"/>
     <use xlink:href="#Cmr10-67" transform="translate(2331.25 0)"/>
     <use xlink:href="#Cmr10-2e" transform="translate(2381.25 0)"/>
     <use xlink:href="#Cmr10-29" transform="translate(2408.935547 0)"/>
     <use xlink:href="#Cmr10-20" transform="translate(2447.753906 0)"/>
     <use xlink:href="#Cmr10-66" transform="translate(2481.054688 0)"/>
     <use xlink:href="#Cmr10-6f" transform="translate(2511.572266 0)"/>
     <use xlink:href="#Cmr10-72" transform="translate(2561.572266 0)"/>
     <use xlink:href="#Cmr10-20" transform="translate(2600.683594 0)"/>
     <use xlink:href="#Cmr10-50" transform="translate(2633.984375 0)"/>
     <use xlink:href="#Cmr10-50" transform="translate(2702.001953 0)"/>
     <use xlink:href="#Cmr10-4f" transform="translate(2770.019531 0)"/>
    </g>
   </g>
   <g id="legend_1">
    <g id="line2d_106">
     <path d="M 225.246406 198.380625 
L 235.246406 198.380625 
L 245.246406 198.380625 
" style="fill: none; stroke: #0c5da5; stroke-linecap: square"/>
    </g>
    <g id="text_14">
     <!-- PPO (steps 4096) -->
     <g transform="translate(253.246406 201.880625) scale(0.1 -0.1)">
      <defs>
       <path id="Cmr10-39" d="M 722 269 
Q 897 63 1331 63 
Q 1575 63 1786 228 
Q 1997 394 2113 634 
Q 2247 906 2284 1214 
Q 2322 1522 2322 1978 
Q 2213 1719 2008 1553 
Q 1803 1388 1538 1388 
Q 1166 1388 873 1589 
Q 581 1791 425 2120 
Q 269 2450 269 2822 
Q 269 3206 444 3539 
Q 619 3872 928 4067 
Q 1238 4263 1631 4263 
Q 2019 4263 2280 4052 
Q 2541 3841 2678 3508 
Q 2816 3175 2870 2803 
Q 2925 2431 2925 2069 
Q 2925 1575 2744 1061 
Q 2563 547 2202 203 
Q 1841 -141 1331 -141 
Q 953 -141 690 37 
Q 428 216 428 575 
Q 428 706 517 795 
Q 606 884 738 884 
Q 866 884 955 795 
Q 1044 706 1044 575 
Q 1044 450 953 359 
Q 863 269 738 269 
L 722 269 
z
M 1563 1556 
Q 1825 1556 1992 1732 
Q 2159 1909 2234 2171 
Q 2309 2434 2309 2694 
L 2309 2816 
L 2309 2841 
Q 2309 3322 2168 3700 
Q 2028 4078 1631 4078 
Q 1378 4078 1220 3967 
Q 1063 3856 988 3672 
Q 913 3488 892 3278 
Q 872 3069 872 2822 
Q 872 2459 906 2203 
Q 941 1947 1094 1751 
Q 1247 1556 1563 1556 
z
" transform="scale(0.015625)"/>
      </defs>
      <use xlink:href="#Cmr10-50"/>
      <use xlink:href="#Cmr10-50" transform="translate(68.017578 0)"/>
      <use xlink:href="#Cmr10-4f" transform="translate(136.035156 0)"/>
      <use xlink:href="#Cmr10-20" transform="translate(213.720703 0)"/>
      <use xlink:href="#Cmr10-28" transform="translate(247.021484 0)"/>
      <use xlink:href="#Cmr10-73" transform="translate(285.839844 0)"/>
      <use xlink:href="#Cmr10-74" transform="translate(325.244141 0)"/>
      <use xlink:href="#Cmr10-65" transform="translate(364.0625 0)"/>
      <use xlink:href="#Cmr10-70" transform="translate(408.447266 0)"/>
      <use xlink:href="#Cmr10-73" transform="translate(463.964844 0)"/>
      <use xlink:href="#Cmr10-20" transform="translate(503.369141 0)"/>
      <use xlink:href="#Cmr10-34" transform="translate(536.669922 0)"/>
      <use xlink:href="#Cmr10-30" transform="translate(586.669922 0)"/>
      <use xlink:href="#Cmr10-39" transform="translate(636.669922 0)"/>
      <use xlink:href="#Cmr10-36" transform="translate(686.669922 0)"/>
      <use xlink:href="#Cmr10-29" transform="translate(736.669922 0)"/>
     </g>
    </g>
    <g id="line2d_107">
     <path d="M 225.246406 213.380625 
L 235.246406 213.380625 
L 245.246406 213.380625 
" style="fill: none; stroke: #00b945; stroke-linecap: square"/>
    </g>
    <g id="text_15">
     <!-- PPO (steps 2048) -->
     <g transform="translate(253.246406 216.880625) scale(0.1 -0.1)">
      <use xlink:href="#Cmr10-50"/>
      <use xlink:href="#Cmr10-50" transform="translate(68.017578 0)"/>
      <use xlink:href="#Cmr10-4f" transform="translate(136.035156 0)"/>
      <use xlink:href="#Cmr10-20" transform="translate(213.720703 0)"/>
      <use xlink:href="#Cmr10-28" transform="translate(247.021484 0)"/>
      <use xlink:href="#Cmr10-73" transform="translate(285.839844 0)"/>
      <use xlink:href="#Cmr10-74" transform="translate(325.244141 0)"/>
      <use xlink:href="#Cmr10-65" transform="translate(364.0625 0)"/>
      <use xlink:href="#Cmr10-70" transform="translate(408.447266 0)"/>
      <use xlink:href="#Cmr10-73" transform="translate(463.964844 0)"/>
      <use xlink:href="#Cmr10-20" transform="translate(503.369141 0)"/>
      <use xlink:href="#Cmr10-32" transform="translate(536.669922 0)"/>
      <use xlink:href="#Cmr10-30" transform="translate(586.669922 0)"/>
      <use xlink:href="#Cmr10-34" transform="translate(636.669922 0)"/>
      <use xlink:href="#Cmr10-38" transform="translate(686.669922 0)"/>
      <use xlink:href="#Cmr10-29" transform="translate(736.669922 0)"/>
     </g>
    </g>
    <g id="line2d_108">
     <path d="M 225.246406 228.380625 
L 235.246406 228.380625 
L 245.246406 228.380625 
" style="fill: none; stroke: #ff9500; stroke-linecap: square"/>
    </g>
    <g id="text_16">
     <!-- PPO (steps 1024) -->
     <g transform="translate(253.246406 231.880625) scale(0.1 -0.1)">
      <use xlink:href="#Cmr10-50"/>
      <use xlink:href="#Cmr10-50" transform="translate(68.017578 0)"/>
      <use xlink:href="#Cmr10-4f" transform="translate(136.035156 0)"/>
      <use xlink:href="#Cmr10-20" transform="translate(213.720703 0)"/>
      <use xlink:href="#Cmr10-28" transform="translate(247.021484 0)"/>
      <use xlink:href="#Cmr10-73" transform="translate(285.839844 0)"/>
      <use xlink:href="#Cmr10-74" transform="translate(325.244141 0)"/>
      <use xlink:href="#Cmr10-65" transform="translate(364.0625 0)"/>
      <use xlink:href="#Cmr10-70" transform="translate(408.447266 0)"/>
      <use xlink:href="#Cmr10-73" transform="translate(463.964844 0)"/>
      <use xlink:href="#Cmr10-20" transform="translate(503.369141 0)"/>
      <use xlink:href="#Cmr10-31" transform="translate(536.669922 0)"/>
      <use xlink:href="#Cmr10-30" transform="translate(586.669922 0)"/>
      <use xlink:href="#Cmr10-32" transform="translate(636.669922 0)"/>
      <use xlink:href="#Cmr10-34" transform="translate(686.669922 0)"/>
      <use xlink:href="#Cmr10-29" transform="translate(736.669922 0)"/>
     </g>
    </g>
   </g>
  </g>
 </g>
 <defs>
  <clipPath id="pc693940862">
   <rect x="36.1" y="18.6" width="303.693281" height="224.780625"/>
  </clipPath>
 </defs>
</svg>
