<?xml version="1.0" encoding="utf-8" standalone="no"?>
<!DOCTYPE svg PUBLIC "-//W3C//DTD SVG 1.1//EN"
  "http://www.w3.org/Graphics/SVG/1.1/DTD/svg11.dtd">
<svg xmlns:xlink="http://www.w3.org/1999/xlink" width="362.406953pt" height="272.236875pt" viewBox="0 0 362.406953 272.236875" xmlns="http://www.w3.org/2000/svg" version="1.1">
 <metadata>
  <rdf:RDF xmlns:dc="http://purl.org/dc/elements/1.1/" xmlns:cc="http://creativecommons.org/ns#" xmlns:rdf="http://www.w3.org/1999/02/22-rdf-syntax-ns#">
   <cc:Work>
    <dc:type rdf:resource="http://purl.org/dc/dcmitype/StillImage"/>
    <dc:date>2025-05-30T19:54:24.101059</dc:date>
    <dc:format>image/svg+xml</dc:format>
    <dc:creator>
     <cc:Agent>
      <dc:title>Matplotlib v3.10.3, https://matplotlib.org/</dc:title>
     </cc:Agent>
    </dc:creator>
   </cc:Work>
  </rdf:RDF>
 </metadata>
 <defs>
  <style type="text/css">*{stroke-linejoin: round; stroke-linecap: butt}</style>
 </defs>
 <g id="figure_1">
  <g id="patch_1">
   <path d="M 0 272.236875 
L 362.406953 272.236875 
L 362.406953 0 
L 0 0 
z
" style="fill: #ffffff"/>
  </g>
  <g id="axes_1">
   <g id="patch_2">
    <path d="M 36.1 243.380625 
L 339.793281 243.380625 
L 339.793281 18.6 
L 36.1 18.6 
z
" style="fill: #ffffff"/>
   </g>
   <g id="FillBetweenPolyCollection_1">
    <path d="M 49.90424 93.072765 
L 49.90424 233.163324 
L 52.971849 200.531321 
L 56.039458 172.25262 
L 59.107067 172.858073 
L 62.174676 145.619152 
L 65.242285 123.633685 
L 68.309893 113.589604 
L 71.377502 106.850464 
L 74.445111 104.409641 
L 77.51272 96.376683 
L 80.580329 87.941554 
L 83.647938 88.113742 
L 86.715547 78.381178 
L 89.783156 87.821916 
L 92.850765 95.773773 
L 95.918374 95.773773 
L 98.985982 95.069195 
L 102.053591 95.069195 
L 105.1212 86.911699 
L 108.188809 89.980805 
L 111.256418 89.980805 
L 114.324027 89.776655 
L 117.391636 89.776655 
L 120.459245 81.20409 
L 123.526854 70.004414 
L 126.594463 76.693217 
L 129.662071 77.799222 
L 132.72968 77.799222 
L 135.797289 77.799222 
L 138.864898 70.349693 
L 141.932507 70.349693 
L 145.000116 70.349693 
L 148.067725 70.349693 
L 151.135334 69.787542 
L 154.202943 69.195927 
L 157.270552 66.766029 
L 160.338161 65.243282 
L 163.405769 72.309507 
L 166.473378 72.309507 
L 169.540987 68.11542 
L 172.608596 68.11542 
L 175.676205 68.11542 
L 178.743814 68.11542 
L 181.811423 68.11542 
L 184.879032 68.11542 
L 187.946641 61.98789 
L 191.01425 61.98789 
L 194.081858 46.275397 
L 197.149467 46.275397 
L 200.217076 46.275397 
L 203.284685 46.275397 
L 206.352294 46.275397 
L 209.419903 46.275397 
L 212.487512 46.275397 
L 215.555121 49.094356 
L 218.62273 49.094356 
L 221.690339 49.094356 
L 224.757947 49.094356 
L 227.825556 49.094356 
L 230.893165 50.361803 
L 233.960774 50.361803 
L 237.028383 50.361803 
L 240.095992 50.361803 
L 243.163601 50.361803 
L 246.23121 48.902154 
L 249.298819 48.902154 
L 252.366428 48.902154 
L 255.434036 48.902154 
L 258.501645 48.902154 
L 261.569254 46.275397 
L 264.636863 46.275397 
L 267.704472 46.275397 
L 270.772081 46.275397 
L 273.83969 46.275397 
L 276.907299 46.275397 
L 279.974908 46.275397 
L 283.042517 46.275397 
L 286.110125 46.275397 
L 289.177734 56.91056 
L 292.245343 56.91056 
L 295.312952 56.91056 
L 298.380561 56.91056 
L 301.44817 56.91056 
L 304.515779 56.91056 
L 307.583388 56.91056 
L 310.650997 56.91056 
L 313.718606 56.91056 
L 316.786214 56.91056 
L 319.853823 46.275397 
L 322.921432 46.275397 
L 325.989041 46.275397 
L 325.989041 46.275397 
L 325.989041 46.275397 
L 322.921432 46.275397 
L 319.853823 46.275397 
L 316.786214 40.957815 
L 313.718606 40.957815 
L 310.650997 40.957815 
L 307.583388 40.957815 
L 304.515779 40.957815 
L 301.44817 40.957815 
L 298.380561 40.957815 
L 295.312952 40.957815 
L 292.245343 40.957815 
L 289.177734 40.957815 
L 286.110125 46.275397 
L 283.042517 46.275397 
L 279.974908 46.275397 
L 276.907299 46.275397 
L 273.83969 46.275397 
L 270.772081 46.275397 
L 267.704472 46.275397 
L 264.636863 46.275397 
L 261.569254 46.275397 
L 258.501645 44.962018 
L 255.434036 44.962018 
L 252.366428 44.962018 
L 249.298819 44.962018 
L 246.23121 44.962018 
L 243.163601 44.911849 
L 240.095992 44.911849 
L 237.028383 44.911849 
L 233.960774 44.911849 
L 230.893165 44.911849 
L 227.825556 44.865917 
L 224.757947 44.865917 
L 221.690339 44.865917 
L 218.62273 44.865917 
L 215.555121 44.865917 
L 212.487512 46.275397 
L 209.419903 46.275397 
L 206.352294 46.275397 
L 203.284685 46.275397 
L 200.217076 46.275397 
L 197.149467 46.275397 
L 194.081858 46.275397 
L 191.01425 38.41915 
L 187.946641 38.41915 
L 184.879032 38.954614 
L 181.811423 38.954614 
L 178.743814 38.954614 
L 175.676205 38.954614 
L 172.608596 38.954614 
L 169.540987 38.954614 
L 166.473378 40.72679 
L 163.405769 40.72679 
L 160.338161 39.936768 
L 157.270552 41.377132 
L 154.202943 40.492856 
L 151.135334 41.655082 
L 148.067725 42.918848 
L 145.000116 42.918848 
L 141.932507 42.918848 
L 138.864898 42.918848 
L 135.797289 40.578682 
L 132.72968 40.578682 
L 129.662071 40.578682 
L 126.594463 38.721576 
L 123.526854 37.201763 
L 120.459245 36.036621 
L 117.391636 37.186261 
L 114.324027 37.186261 
L 111.256418 37.943119 
L 108.188809 37.943119 
L 105.1212 38.289367 
L 102.053591 41.840162 
L 98.985982 41.840162 
L 95.918374 44.395004 
L 92.850765 44.395004 
L 89.783156 40.558487 
L 86.715547 38.451104 
L 83.647938 40.482889 
L 80.580329 39.694067 
L 77.51272 43.4157 
L 74.445111 42.670391 
L 71.377502 42.495947 
L 68.309893 48.826526 
L 65.242285 53.109484 
L 62.174676 59.44975 
L 59.107067 68.152556 
L 56.039458 74.099616 
L 52.971849 75.804388 
L 49.90424 93.072765 
z
" clip-path="url(#p62caf61033)" style="fill: #0c5da5; fill-opacity: 0.2"/>
   </g>
   <g id="FillBetweenPolyCollection_2">
    <path d="M 49.90424 64.828205 
L 49.90424 160.013452 
L 52.971849 151.173755 
L 56.039458 136.0859 
L 59.107067 117.40764 
L 62.174676 117.504431 
L 65.242285 117.510826 
L 68.309893 117.127142 
L 71.377502 111.017204 
L 74.445111 113.707349 
L 77.51272 113.472886 
L 80.580329 99.705068 
L 83.647938 94.500377 
L 86.715547 77.779904 
L 89.783156 77.779904 
L 92.850765 81.188319 
L 95.918374 80.85885 
L 98.985982 79.687402 
L 102.053591 84.736968 
L 105.1212 81.316129 
L 108.188809 75.779973 
L 111.256418 76.215351 
L 114.324027 76.215351 
L 117.391636 76.215351 
L 120.459245 76.215351 
L 123.526854 72.242622 
L 126.594463 81.713335 
L 129.662071 81.871024 
L 132.72968 76.369226 
L 135.797289 68.549411 
L 138.864898 68.549411 
L 141.932507 67.864815 
L 145.000116 67.864815 
L 148.067725 80.185061 
L 151.135334 80.185061 
L 154.202943 80.185061 
L 157.270552 72.871312 
L 160.338161 72.604598 
L 163.405769 72.604598 
L 166.473378 73.865235 
L 169.540987 73.865235 
L 172.608596 73.865235 
L 175.676205 73.865235 
L 178.743814 57.417547 
L 181.811423 57.417547 
L 184.879032 57.417547 
L 187.946641 51.881281 
L 191.01425 51.881281 
L 194.081858 51.881281 
L 197.149467 46.275397 
L 200.217076 46.275397 
L 203.284685 46.275397 
L 206.352294 46.275397 
L 209.419903 46.275397 
L 212.487512 46.275397 
L 215.555121 46.275397 
L 218.62273 46.275397 
L 221.690339 46.275397 
L 224.757947 46.275397 
L 227.825556 56.013619 
L 230.893165 56.013619 
L 233.960774 56.013619 
L 237.028383 56.013619 
L 240.095992 56.013619 
L 243.163601 56.013619 
L 246.23121 56.013619 
L 249.298819 56.013619 
L 252.366428 56.013619 
L 255.434036 56.013619 
L 258.501645 46.275397 
L 261.569254 46.275397 
L 264.636863 46.275397 
L 267.704472 46.275397 
L 270.772081 46.275397 
L 273.83969 46.275397 
L 276.907299 46.275397 
L 279.974908 46.275397 
L 283.042517 46.275397 
L 286.110125 46.275397 
L 289.177734 46.275397 
L 292.245343 46.275397 
L 295.312952 46.275397 
L 298.380561 46.275397 
L 301.44817 46.275397 
L 304.515779 46.275397 
L 307.583388 46.275397 
L 310.650997 46.275397 
L 313.718606 46.275397 
L 316.786214 46.275397 
L 319.853823 46.275397 
L 322.921432 46.275397 
L 325.989041 46.275397 
L 325.989041 46.275397 
L 325.989041 46.275397 
L 322.921432 46.275397 
L 319.853823 46.275397 
L 316.786214 46.275397 
L 313.718606 46.275397 
L 310.650997 46.275397 
L 307.583388 46.275397 
L 304.515779 46.275397 
L 301.44817 46.275397 
L 298.380561 46.275397 
L 295.312952 46.275397 
L 292.245343 46.275397 
L 289.177734 46.275397 
L 286.110125 46.275397 
L 283.042517 46.275397 
L 279.974908 46.275397 
L 276.907299 46.275397 
L 273.83969 46.275397 
L 270.772081 46.275397 
L 267.704472 46.275397 
L 264.636863 46.275397 
L 261.569254 46.275397 
L 258.501645 46.275397 
L 255.434036 41.406286 
L 252.366428 41.406286 
L 249.298819 41.406286 
L 246.23121 41.406286 
L 243.163601 41.406286 
L 240.095992 41.406286 
L 237.028383 41.406286 
L 233.960774 41.406286 
L 230.893165 41.406286 
L 227.825556 41.406286 
L 224.757947 46.275397 
L 221.690339 46.275397 
L 218.62273 46.275397 
L 215.555121 46.275397 
L 212.487512 46.275397 
L 209.419903 46.275397 
L 206.352294 46.275397 
L 203.284685 46.275397 
L 200.217076 46.275397 
L 197.149467 46.275397 
L 194.081858 43.472455 
L 191.01425 43.472455 
L 187.946641 43.472455 
L 184.879032 42.40488 
L 181.811423 42.40488 
L 178.743814 42.40488 
L 175.676205 37.745565 
L 172.608596 37.745565 
L 169.540987 37.745565 
L 166.473378 37.745565 
L 163.405769 36.20326 
L 160.338161 36.20326 
L 157.270552 36.753404 
L 154.202943 35.606128 
L 151.135334 35.606128 
L 148.067725 35.606128 
L 145.000116 36.138 
L 141.932507 36.138 
L 138.864898 37.039068 
L 135.797289 37.039068 
L 132.72968 38.068542 
L 129.662071 40.639218 
L 126.594463 39.980049 
L 123.526854 38.815599 
L 120.459245 41.065402 
L 117.391636 41.065402 
L 114.324027 41.065402 
L 111.256418 41.065402 
L 108.188809 39.915115 
L 105.1212 42.5155 
L 102.053591 41.649342 
L 98.985982 38.626435 
L 95.918374 40.690382 
L 92.850765 41.858486 
L 89.783156 39.044369 
L 86.715547 39.044369 
L 83.647938 38.68507 
L 80.580329 43.282668 
L 77.51272 47.701941 
L 74.445111 47.851881 
L 71.377502 46.786084 
L 68.309893 54.002134 
L 65.242285 55.540468 
L 62.174676 56.019358 
L 59.107067 56.82089 
L 56.039458 63.393134 
L 52.971849 60.918519 
L 49.90424 64.828205 
z
" clip-path="url(#p62caf61033)" style="fill: #00b945; fill-opacity: 0.2"/>
   </g>
   <g id="FillBetweenPolyCollection_3">
    <path d="M 49.90424 96.659564 
L 49.90424 186.379181 
L 52.971849 168.401487 
L 56.039458 161.048337 
L 59.107067 148.933663 
L 62.174676 148.048224 
L 65.242285 131.903404 
L 68.309893 117.748398 
L 71.377502 110.682661 
L 74.445111 110.29296 
L 77.51272 97.097298 
L 80.580329 97.397148 
L 83.647938 96.649127 
L 86.715547 96.649127 
L 89.783156 103.670006 
L 92.850765 97.654631 
L 95.918374 102.975658 
L 98.985982 102.975658 
L 102.053591 102.020836 
L 105.1212 94.220123 
L 108.188809 92.341036 
L 111.256418 91.883899 
L 114.324027 91.883899 
L 117.391636 114.770138 
L 120.459245 109.223938 
L 123.526854 109.223938 
L 126.594463 103.567305 
L 129.662071 110.752459 
L 132.72968 111.192156 
L 135.797289 111.192156 
L 138.864898 102.548646 
L 141.932507 102.548646 
L 145.000116 102.548646 
L 148.067725 74.113985 
L 151.135334 72.44074 
L 154.202943 84.639094 
L 157.270552 84.639094 
L 160.338161 73.308581 
L 163.405769 78.07223 
L 166.473378 78.07223 
L 169.540987 78.07223 
L 172.608596 78.07223 
L 175.676205 78.07223 
L 178.743814 77.125477 
L 181.811423 77.125477 
L 184.879032 61.406576 
L 187.946641 61.406576 
L 191.01425 61.379251 
L 194.081858 58.688427 
L 197.149467 58.688427 
L 200.217076 58.688427 
L 203.284685 58.688427 
L 206.352294 58.688427 
L 209.419903 58.688427 
L 212.487512 58.688427 
L 215.555121 58.688427 
L 218.62273 58.688427 
L 221.690339 58.688427 
L 224.757947 46.275397 
L 227.825556 46.275397 
L 230.893165 46.275397 
L 233.960774 46.275397 
L 237.028383 46.275397 
L 240.095992 46.275397 
L 243.163601 46.275397 
L 246.23121 46.275397 
L 249.298819 46.275397 
L 252.366428 46.275397 
L 255.434036 46.275397 
L 258.501645 46.275397 
L 261.569254 46.275397 
L 264.636863 46.275397 
L 267.704472 46.275397 
L 270.772081 46.275397 
L 273.83969 46.275397 
L 276.907299 68.875119 
L 279.974908 68.875119 
L 283.042517 68.875119 
L 286.110125 68.875119 
L 289.177734 68.875119 
L 292.245343 68.875119 
L 295.312952 75.062637 
L 298.380561 75.062637 
L 301.44817 75.062637 
L 304.515779 88.123407 
L 307.583388 78.956003 
L 310.650997 78.956003 
L 313.718606 78.956003 
L 316.786214 78.956003 
L 319.853823 78.956003 
L 322.921432 78.956003 
L 325.989041 73.311776 
L 325.989041 32.757207 
L 325.989041 32.757207 
L 322.921432 34.70495 
L 319.853823 34.70495 
L 316.786214 34.70495 
L 313.718606 34.70495 
L 310.650997 34.70495 
L 307.583388 34.70495 
L 304.515779 36.837407 
L 301.44817 36.379988 
L 298.380561 36.379988 
L 295.312952 36.379988 
L 292.245343 34.975536 
L 289.177734 34.975536 
L 286.110125 34.975536 
L 283.042517 34.975536 
L 279.974908 34.975536 
L 276.907299 34.975536 
L 273.83969 46.275397 
L 270.772081 46.275397 
L 267.704472 46.275397 
L 264.636863 46.275397 
L 261.569254 46.275397 
L 258.501645 46.275397 
L 255.434036 46.275397 
L 252.366428 46.275397 
L 249.298819 46.275397 
L 246.23121 46.275397 
L 243.163601 46.275397 
L 240.095992 46.275397 
L 237.028383 46.275397 
L 233.960774 46.275397 
L 230.893165 46.275397 
L 227.825556 46.275397 
L 224.757947 46.275397 
L 221.690339 40.068882 
L 218.62273 40.068882 
L 215.555121 40.068882 
L 212.487512 40.068882 
L 209.419903 40.068882 
L 206.352294 40.068882 
L 203.284685 40.068882 
L 200.217076 40.068882 
L 197.149467 40.068882 
L 194.081858 40.068882 
L 191.01425 38.72347 
L 187.946641 38.776229 
L 184.879032 38.776229 
L 181.811423 35.55845 
L 178.743814 35.55845 
L 175.676205 37.046253 
L 172.608596 37.046253 
L 169.540987 37.046253 
L 166.473378 37.046253 
L 163.405769 37.046253 
L 160.338161 36.260076 
L 157.270552 36.918147 
L 154.202943 36.918147 
L 151.135334 36.615379 
L 148.067725 38.385749 
L 145.000116 30.372524 
L 141.932507 30.372524 
L 138.864898 30.372524 
L 135.797289 35.26322 
L 132.72968 35.26322 
L 129.662071 33.700816 
L 126.594463 28.817301 
L 123.526854 33.531555 
L 120.459245 33.531555 
L 117.391636 36.546341 
L 114.324027 36.576588 
L 111.256418 36.576588 
L 108.188809 37.961384 
L 105.1212 37.395677 
L 102.053591 41.839817 
L 98.985982 45.105425 
L 95.918374 45.105425 
L 92.850765 40.055565 
L 89.783156 45.14785 
L 86.715547 40.164128 
L 83.647938 40.164128 
L 80.580329 42.635487 
L 77.51272 41.093403 
L 74.445111 36.250509 
L 71.377502 36.261228 
L 68.309893 39.117907 
L 65.242285 45.808782 
L 62.174676 54.538072 
L 59.107067 55.278339 
L 56.039458 67.709431 
L 52.971849 83.436508 
L 49.90424 96.659564 
z
" clip-path="url(#p62caf61033)" style="fill: #ff9500; fill-opacity: 0.2"/>
   </g>
   <g id="matplotlib.axis_1">
    <g id="xtick_1">
     <g id="line2d_1">
      <path d="M 49.90424 243.380625 
L 49.90424 18.6 
" clip-path="url(#p62caf61033)" style="fill: none; stroke: #b0b0b0; stroke-width: 0.5; stroke-linecap: square"/>
     </g>
     <g id="line2d_2">
      <defs>
       <path id="m19997c583e" d="M 0 0 
L 0 -3 
" style="stroke: #000000; stroke-width: 0.5"/>
      </defs>
      <g>
       <use xlink:href="#m19997c583e" x="49.90424" y="243.380625" style="stroke: #000000; stroke-width: 0.5"/>
      </g>
     </g>
     <g id="line2d_3">
      <defs>
       <path id="m33ec015ec1" d="M 0 0 
L 0 3 
" style="stroke: #000000; stroke-width: 0.5"/>
      </defs>
      <g>
       <use xlink:href="#m33ec015ec1" x="49.90424" y="18.6" style="stroke: #000000; stroke-width: 0.5"/>
      </g>
     </g>
     <g id="text_1">
      <!-- $\mathdefault{0}$ -->
      <g transform="translate(47.40424 253.819687) scale(0.1 -0.1)">
       <defs>
        <path id="Cmr10-30" d="M 1600 -141 
Q 816 -141 533 504 
Q 250 1150 250 2041 
Q 250 2597 351 3087 
Q 453 3578 754 3920 
Q 1056 4263 1600 4263 
Q 2022 4263 2290 4056 
Q 2559 3850 2700 3523 
Q 2841 3197 2892 2823 
Q 2944 2450 2944 2041 
Q 2944 1491 2842 1011 
Q 2741 531 2444 195 
Q 2147 -141 1600 -141 
z
M 1600 25 
Q 1956 25 2131 390 
Q 2306 756 2347 1200 
Q 2388 1644 2388 2144 
Q 2388 2625 2347 3031 
Q 2306 3438 2132 3767 
Q 1959 4097 1600 4097 
Q 1238 4097 1063 3765 
Q 888 3434 847 3029 
Q 806 2625 806 2144 
Q 806 1788 823 1472 
Q 841 1156 916 820 
Q 991 484 1158 254 
Q 1325 25 1600 25 
z
" transform="scale(0.015625)"/>
       </defs>
       <use xlink:href="#Cmr10-30" transform="translate(0 0.390625)"/>
      </g>
     </g>
    </g>
    <g id="xtick_2">
     <g id="line2d_4">
      <path d="M 111.256418 243.380625 
L 111.256418 18.6 
" clip-path="url(#p62caf61033)" style="fill: none; stroke: #b0b0b0; stroke-width: 0.5; stroke-linecap: square"/>
     </g>
     <g id="line2d_5">
      <g>
       <use xlink:href="#m19997c583e" x="111.256418" y="243.380625" style="stroke: #000000; stroke-width: 0.5"/>
      </g>
     </g>
     <g id="line2d_6">
      <g>
       <use xlink:href="#m33ec015ec1" x="111.256418" y="18.6" style="stroke: #000000; stroke-width: 0.5"/>
      </g>
     </g>
     <g id="text_2">
      <!-- $\mathdefault{20000}$ -->
      <g transform="translate(98.756418 253.819687) scale(0.1 -0.1)">
       <defs>
        <path id="Cmr10-32" d="M 319 0 
L 319 172 
Q 319 188 331 206 
L 1325 1306 
Q 1550 1550 1690 1715 
Q 1831 1881 1968 2097 
Q 2106 2313 2186 2536 
Q 2266 2759 2266 3009 
Q 2266 3272 2169 3511 
Q 2072 3750 1880 3894 
Q 1688 4038 1416 4038 
Q 1138 4038 916 3870 
Q 694 3703 603 3438 
Q 628 3444 672 3444 
Q 816 3444 917 3347 
Q 1019 3250 1019 3097 
Q 1019 2950 917 2848 
Q 816 2747 672 2747 
Q 522 2747 420 2851 
Q 319 2956 319 3097 
Q 319 3338 409 3548 
Q 500 3759 670 3923 
Q 841 4088 1055 4175 
Q 1269 4263 1509 4263 
Q 1875 4263 2190 4108 
Q 2506 3953 2690 3670 
Q 2875 3388 2875 3009 
Q 2875 2731 2753 2481 
Q 2631 2231 2440 2026 
Q 2250 1822 1953 1562 
Q 1656 1303 1563 1216 
L 838 519 
L 1453 519 
Q 1906 519 2211 526 
Q 2516 534 2534 550 
Q 2609 631 2688 1141 
L 2875 1141 
L 2694 0 
L 319 0 
z
" transform="scale(0.015625)"/>
       </defs>
       <use xlink:href="#Cmr10-32" transform="translate(0 0.390625)"/>
       <use xlink:href="#Cmr10-30" transform="translate(50 0.390625)"/>
       <use xlink:href="#Cmr10-30" transform="translate(100 0.390625)"/>
       <use xlink:href="#Cmr10-30" transform="translate(150 0.390625)"/>
       <use xlink:href="#Cmr10-30" transform="translate(200 0.390625)"/>
      </g>
     </g>
    </g>
    <g id="xtick_3">
     <g id="line2d_7">
      <path d="M 172.608596 243.380625 
L 172.608596 18.6 
" clip-path="url(#p62caf61033)" style="fill: none; stroke: #b0b0b0; stroke-width: 0.5; stroke-linecap: square"/>
     </g>
     <g id="line2d_8">
      <g>
       <use xlink:href="#m19997c583e" x="172.608596" y="243.380625" style="stroke: #000000; stroke-width: 0.5"/>
      </g>
     </g>
     <g id="line2d_9">
      <g>
       <use xlink:href="#m33ec015ec1" x="172.608596" y="18.6" style="stroke: #000000; stroke-width: 0.5"/>
      </g>
     </g>
     <g id="text_3">
      <!-- $\mathdefault{40000}$ -->
      <g transform="translate(160.108596 253.819687) scale(0.1 -0.1)">
       <defs>
        <path id="Cmr10-34" d="M 178 1056 
L 178 1281 
L 2156 4231 
Q 2178 4263 2222 4263 
L 2316 4263 
Q 2388 4263 2388 4191 
L 2388 1281 
L 3016 1281 
L 3016 1056 
L 2388 1056 
L 2388 428 
Q 2388 297 2575 261 
Q 2763 225 3009 225 
L 3009 0 
L 1247 0 
L 1247 225 
Q 1494 225 1681 261 
Q 1869 297 1869 428 
L 1869 1056 
L 178 1056 
z
M 391 1281 
L 1906 1281 
L 1906 3547 
L 391 1281 
z
" transform="scale(0.015625)"/>
       </defs>
       <use xlink:href="#Cmr10-34" transform="translate(0 0.390625)"/>
       <use xlink:href="#Cmr10-30" transform="translate(50 0.390625)"/>
       <use xlink:href="#Cmr10-30" transform="translate(100 0.390625)"/>
       <use xlink:href="#Cmr10-30" transform="translate(150 0.390625)"/>
       <use xlink:href="#Cmr10-30" transform="translate(200 0.390625)"/>
      </g>
     </g>
    </g>
    <g id="xtick_4">
     <g id="line2d_10">
      <path d="M 233.960774 243.380625 
L 233.960774 18.6 
" clip-path="url(#p62caf61033)" style="fill: none; stroke: #b0b0b0; stroke-width: 0.5; stroke-linecap: square"/>
     </g>
     <g id="line2d_11">
      <g>
       <use xlink:href="#m19997c583e" x="233.960774" y="243.380625" style="stroke: #000000; stroke-width: 0.5"/>
      </g>
     </g>
     <g id="line2d_12">
      <g>
       <use xlink:href="#m33ec015ec1" x="233.960774" y="18.6" style="stroke: #000000; stroke-width: 0.5"/>
      </g>
     </g>
     <g id="text_4">
      <!-- $\mathdefault{60000}$ -->
      <g transform="translate(221.460774 253.819687) scale(0.1 -0.1)">
       <defs>
        <path id="Cmr10-36" d="M 1600 -141 
Q 1203 -141 937 70 
Q 672 281 526 617 
Q 381 953 325 1322 
Q 269 1691 269 2069 
Q 269 2575 466 3084 
Q 663 3594 1045 3928 
Q 1428 4263 1953 4263 
Q 2172 4263 2361 4180 
Q 2550 4097 2658 3936 
Q 2766 3775 2766 3547 
Q 2766 3416 2677 3327 
Q 2588 3238 2456 3238 
Q 2331 3238 2240 3328 
Q 2150 3419 2150 3547 
Q 2150 3672 2240 3762 
Q 2331 3853 2456 3853 
L 2491 3853 
Q 2409 3969 2261 4023 
Q 2113 4078 1953 4078 
Q 1759 4078 1595 3993 
Q 1431 3909 1300 3765 
Q 1169 3622 1081 3448 
Q 994 3275 945 3053 
Q 897 2831 884 2637 
Q 872 2444 872 2150 
Q 984 2413 1190 2580 
Q 1397 2747 1656 2747 
Q 1941 2747 2175 2631 
Q 2409 2516 2578 2311 
Q 2747 2106 2836 1843 
Q 2925 1581 2925 1313 
Q 2925 938 2758 598 
Q 2591 259 2287 59 
Q 1984 -141 1600 -141 
z
M 1600 63 
Q 1847 63 1997 175 
Q 2147 288 2217 473 
Q 2288 659 2305 848 
Q 2322 1038 2322 1313 
Q 2322 1675 2287 1931 
Q 2253 2188 2100 2383 
Q 1947 2578 1631 2578 
Q 1372 2578 1205 2403 
Q 1038 2228 961 1961 
Q 884 1694 884 1447 
Q 884 1363 891 1319 
Q 891 1309 889 1303 
Q 888 1297 884 1288 
Q 884 1013 940 731 
Q 997 450 1156 256 
Q 1316 63 1600 63 
z
" transform="scale(0.015625)"/>
       </defs>
       <use xlink:href="#Cmr10-36" transform="translate(0 0.390625)"/>
       <use xlink:href="#Cmr10-30" transform="translate(50 0.390625)"/>
       <use xlink:href="#Cmr10-30" transform="translate(100 0.390625)"/>
       <use xlink:href="#Cmr10-30" transform="translate(150 0.390625)"/>
       <use xlink:href="#Cmr10-30" transform="translate(200 0.390625)"/>
      </g>
     </g>
    </g>
    <g id="xtick_5">
     <g id="line2d_13">
      <path d="M 295.312952 243.380625 
L 295.312952 18.6 
" clip-path="url(#p62caf61033)" style="fill: none; stroke: #b0b0b0; stroke-width: 0.5; stroke-linecap: square"/>
     </g>
     <g id="line2d_14">
      <g>
       <use xlink:href="#m19997c583e" x="295.312952" y="243.380625" style="stroke: #000000; stroke-width: 0.5"/>
      </g>
     </g>
     <g id="line2d_15">
      <g>
       <use xlink:href="#m33ec015ec1" x="295.312952" y="18.6" style="stroke: #000000; stroke-width: 0.5"/>
      </g>
     </g>
     <g id="text_5">
      <!-- $\mathdefault{80000}$ -->
      <g transform="translate(282.812952 253.819687) scale(0.1 -0.1)">
       <defs>
        <path id="Cmr10-38" d="M 269 972 
Q 269 1356 522 1651 
Q 775 1947 1172 2144 
L 934 2297 
Q 716 2441 578 2680 
Q 441 2919 441 3181 
Q 441 3488 602 3734 
Q 763 3981 1030 4122 
Q 1297 4263 1600 4263 
Q 1884 4263 2148 4147 
Q 2413 4031 2583 3815 
Q 2753 3600 2753 3303 
Q 2753 3088 2651 2903 
Q 2550 2719 2373 2572 
Q 2197 2425 1997 2322 
L 2363 2088 
Q 2616 1922 2770 1653 
Q 2925 1384 2925 1088 
Q 2925 741 2739 456 
Q 2553 172 2247 15 
Q 1941 -141 1600 -141 
Q 1269 -141 961 -6 
Q 653 128 461 383 
Q 269 638 269 972 
z
M 616 972 
Q 616 719 755 509 
Q 894 300 1122 181 
Q 1350 63 1600 63 
Q 1972 63 2275 280 
Q 2578 497 2578 856 
Q 2578 978 2529 1098 
Q 2481 1219 2395 1317 
Q 2309 1416 2203 1478 
L 1344 2034 
Q 1144 1928 976 1765 
Q 809 1603 712 1400 
Q 616 1197 616 972 
z
M 1056 2925 
L 1831 2425 
Q 2100 2581 2272 2803 
Q 2444 3025 2444 3303 
Q 2444 3519 2323 3698 
Q 2203 3878 2009 3978 
Q 1816 4078 1594 4078 
Q 1400 4078 1203 4003 
Q 1006 3928 878 3779 
Q 750 3631 750 3431 
Q 750 3131 1056 2925 
z
" transform="scale(0.015625)"/>
       </defs>
       <use xlink:href="#Cmr10-38" transform="translate(0 0.390625)"/>
       <use xlink:href="#Cmr10-30" transform="translate(50 0.390625)"/>
       <use xlink:href="#Cmr10-30" transform="translate(100 0.390625)"/>
       <use xlink:href="#Cmr10-30" transform="translate(150 0.390625)"/>
       <use xlink:href="#Cmr10-30" transform="translate(200 0.390625)"/>
      </g>
     </g>
    </g>
    <g id="xtick_6">
     <g id="line2d_16">
      <defs>
       <path id="m366b8bfb3f" d="M 0 0 
L 0 -1.5 
" style="stroke: #000000; stroke-width: 0.5"/>
      </defs>
      <g>
       <use xlink:href="#m366b8bfb3f" x="65.242285" y="243.380625" style="stroke: #000000; stroke-width: 0.5"/>
      </g>
     </g>
     <g id="line2d_17">
      <defs>
       <path id="m70daee3bf7" d="M 0 0 
L 0 1.5 
" style="stroke: #000000; stroke-width: 0.5"/>
      </defs>
      <g>
       <use xlink:href="#m70daee3bf7" x="65.242285" y="18.6" style="stroke: #000000; stroke-width: 0.5"/>
      </g>
     </g>
    </g>
    <g id="xtick_7">
     <g id="line2d_18">
      <g>
       <use xlink:href="#m366b8bfb3f" x="80.580329" y="243.380625" style="stroke: #000000; stroke-width: 0.5"/>
      </g>
     </g>
     <g id="line2d_19">
      <g>
       <use xlink:href="#m70daee3bf7" x="80.580329" y="18.6" style="stroke: #000000; stroke-width: 0.5"/>
      </g>
     </g>
    </g>
    <g id="xtick_8">
     <g id="line2d_20">
      <g>
       <use xlink:href="#m366b8bfb3f" x="95.918374" y="243.380625" style="stroke: #000000; stroke-width: 0.5"/>
      </g>
     </g>
     <g id="line2d_21">
      <g>
       <use xlink:href="#m70daee3bf7" x="95.918374" y="18.6" style="stroke: #000000; stroke-width: 0.5"/>
      </g>
     </g>
    </g>
    <g id="xtick_9">
     <g id="line2d_22">
      <g>
       <use xlink:href="#m366b8bfb3f" x="126.594463" y="243.380625" style="stroke: #000000; stroke-width: 0.5"/>
      </g>
     </g>
     <g id="line2d_23">
      <g>
       <use xlink:href="#m70daee3bf7" x="126.594463" y="18.6" style="stroke: #000000; stroke-width: 0.5"/>
      </g>
     </g>
    </g>
    <g id="xtick_10">
     <g id="line2d_24">
      <g>
       <use xlink:href="#m366b8bfb3f" x="141.932507" y="243.380625" style="stroke: #000000; stroke-width: 0.5"/>
      </g>
     </g>
     <g id="line2d_25">
      <g>
       <use xlink:href="#m70daee3bf7" x="141.932507" y="18.6" style="stroke: #000000; stroke-width: 0.5"/>
      </g>
     </g>
    </g>
    <g id="xtick_11">
     <g id="line2d_26">
      <g>
       <use xlink:href="#m366b8bfb3f" x="157.270552" y="243.380625" style="stroke: #000000; stroke-width: 0.5"/>
      </g>
     </g>
     <g id="line2d_27">
      <g>
       <use xlink:href="#m70daee3bf7" x="157.270552" y="18.6" style="stroke: #000000; stroke-width: 0.5"/>
      </g>
     </g>
    </g>
    <g id="xtick_12">
     <g id="line2d_28">
      <g>
       <use xlink:href="#m366b8bfb3f" x="187.946641" y="243.380625" style="stroke: #000000; stroke-width: 0.5"/>
      </g>
     </g>
     <g id="line2d_29">
      <g>
       <use xlink:href="#m70daee3bf7" x="187.946641" y="18.6" style="stroke: #000000; stroke-width: 0.5"/>
      </g>
     </g>
    </g>
    <g id="xtick_13">
     <g id="line2d_30">
      <g>
       <use xlink:href="#m366b8bfb3f" x="203.284685" y="243.380625" style="stroke: #000000; stroke-width: 0.5"/>
      </g>
     </g>
     <g id="line2d_31">
      <g>
       <use xlink:href="#m70daee3bf7" x="203.284685" y="18.6" style="stroke: #000000; stroke-width: 0.5"/>
      </g>
     </g>
    </g>
    <g id="xtick_14">
     <g id="line2d_32">
      <g>
       <use xlink:href="#m366b8bfb3f" x="218.62273" y="243.380625" style="stroke: #000000; stroke-width: 0.5"/>
      </g>
     </g>
     <g id="line2d_33">
      <g>
       <use xlink:href="#m70daee3bf7" x="218.62273" y="18.6" style="stroke: #000000; stroke-width: 0.5"/>
      </g>
     </g>
    </g>
    <g id="xtick_15">
     <g id="line2d_34">
      <g>
       <use xlink:href="#m366b8bfb3f" x="249.298819" y="243.380625" style="stroke: #000000; stroke-width: 0.5"/>
      </g>
     </g>
     <g id="line2d_35">
      <g>
       <use xlink:href="#m70daee3bf7" x="249.298819" y="18.6" style="stroke: #000000; stroke-width: 0.5"/>
      </g>
     </g>
    </g>
    <g id="xtick_16">
     <g id="line2d_36">
      <g>
       <use xlink:href="#m366b8bfb3f" x="264.636863" y="243.380625" style="stroke: #000000; stroke-width: 0.5"/>
      </g>
     </g>
     <g id="line2d_37">
      <g>
       <use xlink:href="#m70daee3bf7" x="264.636863" y="18.6" style="stroke: #000000; stroke-width: 0.5"/>
      </g>
     </g>
    </g>
    <g id="xtick_17">
     <g id="line2d_38">
      <g>
       <use xlink:href="#m366b8bfb3f" x="279.974908" y="243.380625" style="stroke: #000000; stroke-width: 0.5"/>
      </g>
     </g>
     <g id="line2d_39">
      <g>
       <use xlink:href="#m70daee3bf7" x="279.974908" y="18.6" style="stroke: #000000; stroke-width: 0.5"/>
      </g>
     </g>
    </g>
    <g id="xtick_18">
     <g id="line2d_40">
      <g>
       <use xlink:href="#m366b8bfb3f" x="310.650997" y="243.380625" style="stroke: #000000; stroke-width: 0.5"/>
      </g>
     </g>
     <g id="line2d_41">
      <g>
       <use xlink:href="#m70daee3bf7" x="310.650997" y="18.6" style="stroke: #000000; stroke-width: 0.5"/>
      </g>
     </g>
    </g>
    <g id="xtick_19">
     <g id="line2d_42">
      <g>
       <use xlink:href="#m366b8bfb3f" x="325.989041" y="243.380625" style="stroke: #000000; stroke-width: 0.5"/>
      </g>
     </g>
     <g id="line2d_43">
      <g>
       <use xlink:href="#m70daee3bf7" x="325.989041" y="18.6" style="stroke: #000000; stroke-width: 0.5"/>
      </g>
     </g>
    </g>
    <g id="text_6">
     <!-- Timestep -->
     <g transform="translate(167.660703 266.697812) scale(0.1 -0.1)">
      <defs>
       <path id="Cmr10-54" d="M 1081 0 
L 1081 225 
Q 1403 225 1706 261 
Q 2009 297 2009 428 
L 2009 3944 
Q 2009 4081 1932 4114 
Q 1856 4147 1684 4147 
L 1416 4147 
Q 888 4147 666 3916 
Q 550 3800 500 3545 
Q 450 3291 416 2906 
L 231 2906 
L 353 4372 
L 4263 4372 
L 4384 2906 
L 4197 2906 
Q 4159 3319 4114 3561 
Q 4069 3803 3950 3916 
Q 3725 4147 3200 4147 
L 2931 4147 
Q 2816 4147 2752 4137 
Q 2688 4128 2647 4083 
Q 2606 4038 2606 3944 
L 2606 428 
Q 2606 297 2909 261 
Q 3213 225 3531 225 
L 3531 0 
L 1081 0 
z
" transform="scale(0.015625)"/>
       <path id="Cmr10-69" d="M 197 0 
L 197 225 
Q 416 225 556 259 
Q 697 294 697 428 
L 697 2175 
Q 697 2422 601 2478 
Q 506 2534 225 2534 
L 225 2759 
L 1147 2828 
L 1147 428 
Q 1147 294 1269 259 
Q 1391 225 1594 225 
L 1594 0 
L 197 0 
z
M 469 3928 
Q 469 4069 575 4175 
Q 681 4281 819 4281 
Q 909 4281 993 4234 
Q 1078 4188 1125 4103 
Q 1172 4019 1172 3928 
Q 1172 3791 1065 3684 
Q 959 3578 819 3578 
Q 681 3578 575 3684 
Q 469 3791 469 3928 
z
" transform="scale(0.015625)"/>
       <path id="Cmr10-6d" d="M 191 0 
L 191 225 
Q 409 225 550 259 
Q 691 294 691 428 
L 691 2175 
Q 691 2347 639 2423 
Q 588 2500 491 2517 
Q 394 2534 191 2534 
L 191 2759 
L 1119 2828 
L 1119 2203 
Q 1247 2478 1498 2653 
Q 1750 2828 2047 2828 
Q 2784 2828 2913 2228 
Q 3041 2497 3287 2662 
Q 3534 2828 3828 2828 
Q 4119 2828 4317 2734 
Q 4516 2641 4616 2448 
Q 4716 2256 4716 1966 
L 4716 428 
Q 4716 294 4858 259 
Q 5000 225 5216 225 
L 5216 0 
L 3750 0 
L 3750 225 
Q 3969 225 4109 259 
Q 4250 294 4250 428 
L 4250 1947 
Q 4250 2269 4159 2466 
Q 4069 2663 3788 2663 
Q 3419 2663 3178 2366 
Q 2938 2069 2938 1691 
L 2938 428 
Q 2938 294 3078 259 
Q 3219 225 3438 225 
L 3438 0 
L 1972 0 
L 1972 225 
Q 2191 225 2331 259 
Q 2472 294 2472 428 
L 2472 1947 
Q 2472 2259 2381 2461 
Q 2291 2663 2009 2663 
Q 1638 2663 1398 2366 
Q 1159 2069 1159 1691 
L 1159 428 
Q 1159 294 1300 259 
Q 1441 225 1656 225 
L 1656 0 
L 191 0 
z
" transform="scale(0.015625)"/>
       <path id="Cmr10-65" d="M 1594 -72 
Q 1203 -72 876 133 
Q 550 338 364 680 
Q 178 1022 178 1403 
Q 178 1778 348 2115 
Q 519 2453 823 2661 
Q 1128 2869 1503 2869 
Q 1797 2869 2014 2770 
Q 2231 2672 2372 2497 
Q 2513 2322 2584 2084 
Q 2656 1847 2656 1563 
Q 2656 1478 2591 1478 
L 738 1478 
L 738 1409 
Q 738 878 952 497 
Q 1166 116 1650 116 
Q 1847 116 2014 203 
Q 2181 291 2304 447 
Q 2428 603 2472 781 
Q 2478 803 2495 820 
Q 2513 838 2534 838 
L 2591 838 
Q 2656 838 2656 756 
Q 2566 394 2266 161 
Q 1966 -72 1594 -72 
z
M 744 1638 
L 2203 1638 
Q 2203 1878 2136 2125 
Q 2069 2372 1912 2536 
Q 1756 2700 1503 2700 
Q 1141 2700 942 2361 
Q 744 2022 744 1638 
z
" transform="scale(0.015625)"/>
       <path id="Cmr10-73" d="M 213 -19 
L 213 1025 
Q 213 1075 269 1075 
L 347 1075 
Q 384 1075 397 1025 
Q 575 97 1259 97 
Q 1563 97 1767 234 
Q 1972 372 1972 659 
Q 1972 866 1812 1011 
Q 1653 1156 1434 1209 
L 1006 1294 
Q 791 1341 614 1437 
Q 438 1534 325 1695 
Q 213 1856 213 2069 
Q 213 2350 361 2529 
Q 509 2709 746 2789 
Q 984 2869 1259 2869 
Q 1588 2869 1831 2694 
L 2016 2853 
Q 2016 2869 2047 2869 
L 2094 2869 
Q 2113 2869 2128 2851 
Q 2144 2834 2144 2816 
L 2144 1978 
Q 2144 1919 2094 1919 
L 2016 1919 
Q 1959 1919 1959 1978 
Q 1959 2313 1773 2516 
Q 1588 2719 1253 2719 
Q 966 2719 755 2612 
Q 544 2506 544 2247 
Q 544 2069 695 1955 
Q 847 1841 1050 1791 
L 1484 1709 
Q 1703 1659 1892 1540 
Q 2081 1422 2192 1240 
Q 2303 1059 2303 831 
Q 2303 600 2223 429 
Q 2144 259 2001 146 
Q 1859 34 1665 -19 
Q 1472 -72 1259 -72 
Q 859 -72 575 197 
L 341 -56 
Q 341 -72 306 -72 
L 269 -72 
Q 213 -72 213 -19 
z
" transform="scale(0.015625)"/>
       <path id="Cmr10-74" d="M 653 769 
L 653 2534 
L 122 2534 
L 122 2700 
Q 541 2700 737 3090 
Q 934 3481 934 3938 
L 1119 3938 
L 1119 2759 
L 2022 2759 
L 2022 2534 
L 1119 2534 
L 1119 781 
Q 1119 516 1208 316 
Q 1297 116 1528 116 
Q 1747 116 1844 327 
Q 1941 538 1941 781 
L 1941 1159 
L 2125 1159 
L 2125 769 
Q 2125 569 2051 373 
Q 1978 178 1834 53 
Q 1691 -72 1484 -72 
Q 1100 -72 876 158 
Q 653 388 653 769 
z
" transform="scale(0.015625)"/>
       <path id="Cmr10-70" d="M 166 -1241 
L 166 -1019 
Q 384 -1019 525 -981 
Q 666 -944 666 -813 
L 666 2272 
Q 666 2447 541 2490 
Q 416 2534 166 2534 
L 166 2759 
L 1113 2828 
L 1113 2431 
Q 1288 2625 1520 2726 
Q 1753 2828 2016 2828 
Q 2394 2828 2697 2623 
Q 3000 2419 3170 2086 
Q 3341 1753 3341 1381 
Q 3341 994 3152 659 
Q 2963 325 2636 126 
Q 2309 -72 1919 -72 
Q 1453 -72 1131 306 
L 1131 -813 
Q 1131 -944 1273 -981 
Q 1416 -1019 1631 -1019 
L 1631 -1241 
L 166 -1241 
z
M 1131 622 
Q 1244 394 1444 245 
Q 1644 97 1881 97 
Q 2103 97 2273 215 
Q 2444 334 2559 534 
Q 2675 734 2729 954 
Q 2784 1175 2784 1381 
Q 2784 1638 2692 1936 
Q 2600 2234 2411 2439 
Q 2222 2644 1953 2644 
Q 1694 2644 1476 2511 
Q 1259 2378 1131 2150 
L 1131 622 
z
" transform="scale(0.015625)"/>
      </defs>
      <use xlink:href="#Cmr10-54"/>
      <use xlink:href="#Cmr10-69" transform="translate(72.216797 0)"/>
      <use xlink:href="#Cmr10-6d" transform="translate(99.902344 0)"/>
      <use xlink:href="#Cmr10-65" transform="translate(183.203125 0)"/>
      <use xlink:href="#Cmr10-73" transform="translate(227.587891 0)"/>
      <use xlink:href="#Cmr10-74" transform="translate(266.992188 0)"/>
      <use xlink:href="#Cmr10-65" transform="translate(305.810547 0)"/>
      <use xlink:href="#Cmr10-70" transform="translate(350.195312 0)"/>
     </g>
    </g>
   </g>
   <g id="matplotlib.axis_2">
    <g id="ytick_1">
     <g id="line2d_44">
      <path d="M 36.1 226.464538 
L 339.793281 226.464538 
" clip-path="url(#p62caf61033)" style="fill: none; stroke: #b0b0b0; stroke-width: 0.5; stroke-linecap: square"/>
     </g>
     <g id="line2d_45">
      <defs>
       <path id="m7c722cce9c" d="M 0 0 
L 3 0 
" style="stroke: #000000; stroke-width: 0.5"/>
      </defs>
      <g>
       <use xlink:href="#m7c722cce9c" x="36.1" y="226.464538" style="stroke: #000000; stroke-width: 0.5"/>
      </g>
     </g>
     <g id="line2d_46">
      <defs>
       <path id="made64069ba" d="M 0 0 
L -3 0 
" style="stroke: #000000; stroke-width: 0.5"/>
      </defs>
      <g>
       <use xlink:href="#made64069ba" x="339.793281" y="226.464538" style="stroke: #000000; stroke-width: 0.5"/>
      </g>
     </g>
     <g id="text_7">
      <!-- $\mathdefault{200}$ -->
      <g transform="translate(17.6 229.934069) scale(0.1 -0.1)">
       <use xlink:href="#Cmr10-32" transform="translate(0 0.390625)"/>
       <use xlink:href="#Cmr10-30" transform="translate(50 0.390625)"/>
       <use xlink:href="#Cmr10-30" transform="translate(100 0.390625)"/>
      </g>
     </g>
    </g>
    <g id="ytick_2">
     <g id="line2d_47">
      <path d="M 36.1 196.433014 
L 339.793281 196.433014 
" clip-path="url(#p62caf61033)" style="fill: none; stroke: #b0b0b0; stroke-width: 0.5; stroke-linecap: square"/>
     </g>
     <g id="line2d_48">
      <g>
       <use xlink:href="#m7c722cce9c" x="36.1" y="196.433014" style="stroke: #000000; stroke-width: 0.5"/>
      </g>
     </g>
     <g id="line2d_49">
      <g>
       <use xlink:href="#made64069ba" x="339.793281" y="196.433014" style="stroke: #000000; stroke-width: 0.5"/>
      </g>
     </g>
     <g id="text_8">
      <!-- $\mathdefault{250}$ -->
      <g transform="translate(17.6 199.902546) scale(0.1 -0.1)">
       <defs>
        <path id="Cmr10-35" d="M 556 728 
Q 622 541 758 387 
Q 894 234 1080 148 
Q 1266 63 1466 63 
Q 1928 63 2103 422 
Q 2278 781 2278 1294 
Q 2278 1516 2270 1667 
Q 2263 1819 2228 1959 
Q 2169 2184 2020 2353 
Q 1872 2522 1656 2522 
Q 1441 2522 1286 2456 
Q 1131 2391 1034 2303 
Q 938 2216 863 2119 
Q 788 2022 769 2016 
L 697 2016 
Q 681 2016 657 2036 
Q 634 2056 634 2075 
L 634 4213 
Q 634 4228 654 4245 
Q 675 4263 697 4263 
L 716 4263 
Q 1147 4056 1631 4056 
Q 2106 4056 2547 4263 
L 2566 4263 
Q 2588 4263 2606 4247 
Q 2625 4231 2625 4213 
L 2625 4153 
Q 2625 4122 2613 4122 
Q 2394 3831 2064 3668 
Q 1734 3506 1381 3506 
Q 1125 3506 856 3578 
L 856 2369 
Q 1069 2541 1236 2614 
Q 1403 2688 1663 2688 
Q 2016 2688 2295 2484 
Q 2575 2281 2725 1954 
Q 2875 1628 2875 1288 
Q 2875 903 2686 575 
Q 2497 247 2172 53 
Q 1847 -141 1466 -141 
Q 1150 -141 886 21 
Q 622 184 470 459 
Q 319 734 319 1044 
Q 319 1188 412 1278 
Q 506 1369 647 1369 
Q 788 1369 883 1276 
Q 978 1184 978 1044 
Q 978 906 883 811 
Q 788 716 647 716 
Q 625 716 597 720 
Q 569 725 556 728 
z
" transform="scale(0.015625)"/>
       </defs>
       <use xlink:href="#Cmr10-32" transform="translate(0 0.390625)"/>
       <use xlink:href="#Cmr10-35" transform="translate(50 0.390625)"/>
       <use xlink:href="#Cmr10-30" transform="translate(100 0.390625)"/>
      </g>
     </g>
    </g>
    <g id="ytick_3">
     <g id="line2d_50">
      <path d="M 36.1 166.401491 
L 339.793281 166.401491 
" clip-path="url(#p62caf61033)" style="fill: none; stroke: #b0b0b0; stroke-width: 0.5; stroke-linecap: square"/>
     </g>
     <g id="line2d_51">
      <g>
       <use xlink:href="#m7c722cce9c" x="36.1" y="166.401491" style="stroke: #000000; stroke-width: 0.5"/>
      </g>
     </g>
     <g id="line2d_52">
      <g>
       <use xlink:href="#made64069ba" x="339.793281" y="166.401491" style="stroke: #000000; stroke-width: 0.5"/>
      </g>
     </g>
     <g id="text_9">
      <!-- $\mathdefault{300}$ -->
      <g transform="translate(17.6 169.871022) scale(0.1 -0.1)">
       <defs>
        <path id="Cmr10-33" d="M 609 494 
Q 759 275 1012 169 
Q 1266 63 1556 63 
Q 1928 63 2084 380 
Q 2241 697 2241 1100 
Q 2241 1281 2208 1462 
Q 2175 1644 2097 1800 
Q 2019 1956 1883 2050 
Q 1747 2144 1550 2144 
L 1125 2144 
Q 1069 2144 1069 2203 
L 1069 2259 
Q 1069 2309 1125 2309 
L 1478 2338 
Q 1703 2338 1851 2506 
Q 2000 2675 2069 2917 
Q 2138 3159 2138 3378 
Q 2138 3684 1994 3881 
Q 1850 4078 1556 4078 
Q 1313 4078 1091 3986 
Q 869 3894 738 3706 
Q 750 3709 759 3711 
Q 769 3713 781 3713 
Q 925 3713 1022 3613 
Q 1119 3513 1119 3372 
Q 1119 3234 1022 3134 
Q 925 3034 781 3034 
Q 641 3034 541 3134 
Q 441 3234 441 3372 
Q 441 3647 606 3850 
Q 772 4053 1033 4158 
Q 1294 4263 1556 4263 
Q 1750 4263 1965 4205 
Q 2181 4147 2356 4039 
Q 2531 3931 2642 3762 
Q 2753 3594 2753 3378 
Q 2753 3109 2633 2881 
Q 2513 2653 2303 2487 
Q 2094 2322 1844 2241 
Q 2122 2188 2372 2031 
Q 2622 1875 2773 1631 
Q 2925 1388 2925 1106 
Q 2925 753 2731 467 
Q 2538 181 2222 20 
Q 1906 -141 1556 -141 
Q 1256 -141 954 -26 
Q 653 88 461 316 
Q 269 544 269 863 
Q 269 1022 375 1128 
Q 481 1234 641 1234 
Q 744 1234 830 1186 
Q 916 1138 964 1050 
Q 1013 963 1013 863 
Q 1013 706 903 600 
Q 794 494 641 494 
L 609 494 
z
" transform="scale(0.015625)"/>
       </defs>
       <use xlink:href="#Cmr10-33" transform="translate(0 0.390625)"/>
       <use xlink:href="#Cmr10-30" transform="translate(50 0.390625)"/>
       <use xlink:href="#Cmr10-30" transform="translate(100 0.390625)"/>
      </g>
     </g>
    </g>
    <g id="ytick_4">
     <g id="line2d_53">
      <path d="M 36.1 136.369967 
L 339.793281 136.369967 
" clip-path="url(#p62caf61033)" style="fill: none; stroke: #b0b0b0; stroke-width: 0.5; stroke-linecap: square"/>
     </g>
     <g id="line2d_54">
      <g>
       <use xlink:href="#m7c722cce9c" x="36.1" y="136.369967" style="stroke: #000000; stroke-width: 0.5"/>
      </g>
     </g>
     <g id="line2d_55">
      <g>
       <use xlink:href="#made64069ba" x="339.793281" y="136.369967" style="stroke: #000000; stroke-width: 0.5"/>
      </g>
     </g>
     <g id="text_10">
      <!-- $\mathdefault{350}$ -->
      <g transform="translate(17.6 139.839499) scale(0.1 -0.1)">
       <use xlink:href="#Cmr10-33" transform="translate(0 0.390625)"/>
       <use xlink:href="#Cmr10-35" transform="translate(50 0.390625)"/>
       <use xlink:href="#Cmr10-30" transform="translate(100 0.390625)"/>
      </g>
     </g>
    </g>
    <g id="ytick_5">
     <g id="line2d_56">
      <path d="M 36.1 106.338444 
L 339.793281 106.338444 
" clip-path="url(#p62caf61033)" style="fill: none; stroke: #b0b0b0; stroke-width: 0.5; stroke-linecap: square"/>
     </g>
     <g id="line2d_57">
      <g>
       <use xlink:href="#m7c722cce9c" x="36.1" y="106.338444" style="stroke: #000000; stroke-width: 0.5"/>
      </g>
     </g>
     <g id="line2d_58">
      <g>
       <use xlink:href="#made64069ba" x="339.793281" y="106.338444" style="stroke: #000000; stroke-width: 0.5"/>
      </g>
     </g>
     <g id="text_11">
      <!-- $\mathdefault{400}$ -->
      <g transform="translate(17.6 109.807975) scale(0.1 -0.1)">
       <use xlink:href="#Cmr10-34" transform="translate(0 0.390625)"/>
       <use xlink:href="#Cmr10-30" transform="translate(50 0.390625)"/>
       <use xlink:href="#Cmr10-30" transform="translate(100 0.390625)"/>
      </g>
     </g>
    </g>
    <g id="ytick_6">
     <g id="line2d_59">
      <path d="M 36.1 76.30692 
L 339.793281 76.30692 
" clip-path="url(#p62caf61033)" style="fill: none; stroke: #b0b0b0; stroke-width: 0.5; stroke-linecap: square"/>
     </g>
     <g id="line2d_60">
      <g>
       <use xlink:href="#m7c722cce9c" x="36.1" y="76.30692" style="stroke: #000000; stroke-width: 0.5"/>
      </g>
     </g>
     <g id="line2d_61">
      <g>
       <use xlink:href="#made64069ba" x="339.793281" y="76.30692" style="stroke: #000000; stroke-width: 0.5"/>
      </g>
     </g>
     <g id="text_12">
      <!-- $\mathdefault{450}$ -->
      <g transform="translate(17.6 79.776452) scale(0.1 -0.1)">
       <use xlink:href="#Cmr10-34" transform="translate(0 0.390625)"/>
       <use xlink:href="#Cmr10-35" transform="translate(50 0.390625)"/>
       <use xlink:href="#Cmr10-30" transform="translate(100 0.390625)"/>
      </g>
     </g>
    </g>
    <g id="ytick_7">
     <g id="line2d_62">
      <path d="M 36.1 46.275397 
L 339.793281 46.275397 
" clip-path="url(#p62caf61033)" style="fill: none; stroke: #b0b0b0; stroke-width: 0.5; stroke-linecap: square"/>
     </g>
     <g id="line2d_63">
      <g>
       <use xlink:href="#m7c722cce9c" x="36.1" y="46.275397" style="stroke: #000000; stroke-width: 0.5"/>
      </g>
     </g>
     <g id="line2d_64">
      <g>
       <use xlink:href="#made64069ba" x="339.793281" y="46.275397" style="stroke: #000000; stroke-width: 0.5"/>
      </g>
     </g>
     <g id="text_13">
      <!-- $\mathdefault{500}$ -->
      <g transform="translate(17.6 49.744928) scale(0.1 -0.1)">
       <use xlink:href="#Cmr10-35" transform="translate(0 0.390625)"/>
       <use xlink:href="#Cmr10-30" transform="translate(50 0.390625)"/>
       <use xlink:href="#Cmr10-30" transform="translate(100 0.390625)"/>
      </g>
     </g>
    </g>
    <g id="ytick_8">
     <g id="line2d_65">
      <defs>
       <path id="m1e574a5af6" d="M 0 0 
L 1.5 0 
" style="stroke: #000000; stroke-width: 0.5"/>
      </defs>
      <g>
       <use xlink:href="#m1e574a5af6" x="36.1" y="238.477147" style="stroke: #000000; stroke-width: 0.5"/>
      </g>
     </g>
     <g id="line2d_66">
      <defs>
       <path id="m1375b13b0c" d="M 0 0 
L -1.5 0 
" style="stroke: #000000; stroke-width: 0.5"/>
      </defs>
      <g>
       <use xlink:href="#m1375b13b0c" x="339.793281" y="238.477147" style="stroke: #000000; stroke-width: 0.5"/>
      </g>
     </g>
    </g>
    <g id="ytick_9">
     <g id="line2d_67">
      <g>
       <use xlink:href="#m1e574a5af6" x="36.1" y="232.470843" style="stroke: #000000; stroke-width: 0.5"/>
      </g>
     </g>
     <g id="line2d_68">
      <g>
       <use xlink:href="#m1375b13b0c" x="339.793281" y="232.470843" style="stroke: #000000; stroke-width: 0.5"/>
      </g>
     </g>
    </g>
    <g id="ytick_10">
     <g id="line2d_69">
      <g>
       <use xlink:href="#m1e574a5af6" x="36.1" y="220.458233" style="stroke: #000000; stroke-width: 0.5"/>
      </g>
     </g>
     <g id="line2d_70">
      <g>
       <use xlink:href="#m1375b13b0c" x="339.793281" y="220.458233" style="stroke: #000000; stroke-width: 0.5"/>
      </g>
     </g>
    </g>
    <g id="ytick_11">
     <g id="line2d_71">
      <g>
       <use xlink:href="#m1e574a5af6" x="36.1" y="214.451929" style="stroke: #000000; stroke-width: 0.5"/>
      </g>
     </g>
     <g id="line2d_72">
      <g>
       <use xlink:href="#m1375b13b0c" x="339.793281" y="214.451929" style="stroke: #000000; stroke-width: 0.5"/>
      </g>
     </g>
    </g>
    <g id="ytick_12">
     <g id="line2d_73">
      <g>
       <use xlink:href="#m1e574a5af6" x="36.1" y="208.445624" style="stroke: #000000; stroke-width: 0.5"/>
      </g>
     </g>
     <g id="line2d_74">
      <g>
       <use xlink:href="#m1375b13b0c" x="339.793281" y="208.445624" style="stroke: #000000; stroke-width: 0.5"/>
      </g>
     </g>
    </g>
    <g id="ytick_13">
     <g id="line2d_75">
      <g>
       <use xlink:href="#m1e574a5af6" x="36.1" y="202.439319" style="stroke: #000000; stroke-width: 0.5"/>
      </g>
     </g>
     <g id="line2d_76">
      <g>
       <use xlink:href="#m1375b13b0c" x="339.793281" y="202.439319" style="stroke: #000000; stroke-width: 0.5"/>
      </g>
     </g>
    </g>
    <g id="ytick_14">
     <g id="line2d_77">
      <g>
       <use xlink:href="#m1e574a5af6" x="36.1" y="190.42671" style="stroke: #000000; stroke-width: 0.5"/>
      </g>
     </g>
     <g id="line2d_78">
      <g>
       <use xlink:href="#m1375b13b0c" x="339.793281" y="190.42671" style="stroke: #000000; stroke-width: 0.5"/>
      </g>
     </g>
    </g>
    <g id="ytick_15">
     <g id="line2d_79">
      <g>
       <use xlink:href="#m1e574a5af6" x="36.1" y="184.420405" style="stroke: #000000; stroke-width: 0.5"/>
      </g>
     </g>
     <g id="line2d_80">
      <g>
       <use xlink:href="#m1375b13b0c" x="339.793281" y="184.420405" style="stroke: #000000; stroke-width: 0.5"/>
      </g>
     </g>
    </g>
    <g id="ytick_16">
     <g id="line2d_81">
      <g>
       <use xlink:href="#m1e574a5af6" x="36.1" y="178.4141" style="stroke: #000000; stroke-width: 0.5"/>
      </g>
     </g>
     <g id="line2d_82">
      <g>
       <use xlink:href="#m1375b13b0c" x="339.793281" y="178.4141" style="stroke: #000000; stroke-width: 0.5"/>
      </g>
     </g>
    </g>
    <g id="ytick_17">
     <g id="line2d_83">
      <g>
       <use xlink:href="#m1e574a5af6" x="36.1" y="172.407796" style="stroke: #000000; stroke-width: 0.5"/>
      </g>
     </g>
     <g id="line2d_84">
      <g>
       <use xlink:href="#m1375b13b0c" x="339.793281" y="172.407796" style="stroke: #000000; stroke-width: 0.5"/>
      </g>
     </g>
    </g>
    <g id="ytick_18">
     <g id="line2d_85">
      <g>
       <use xlink:href="#m1e574a5af6" x="36.1" y="160.395186" style="stroke: #000000; stroke-width: 0.5"/>
      </g>
     </g>
     <g id="line2d_86">
      <g>
       <use xlink:href="#m1375b13b0c" x="339.793281" y="160.395186" style="stroke: #000000; stroke-width: 0.5"/>
      </g>
     </g>
    </g>
    <g id="ytick_19">
     <g id="line2d_87">
      <g>
       <use xlink:href="#m1e574a5af6" x="36.1" y="154.388882" style="stroke: #000000; stroke-width: 0.5"/>
      </g>
     </g>
     <g id="line2d_88">
      <g>
       <use xlink:href="#m1375b13b0c" x="339.793281" y="154.388882" style="stroke: #000000; stroke-width: 0.5"/>
      </g>
     </g>
    </g>
    <g id="ytick_20">
     <g id="line2d_89">
      <g>
       <use xlink:href="#m1e574a5af6" x="36.1" y="148.382577" style="stroke: #000000; stroke-width: 0.5"/>
      </g>
     </g>
     <g id="line2d_90">
      <g>
       <use xlink:href="#m1375b13b0c" x="339.793281" y="148.382577" style="stroke: #000000; stroke-width: 0.5"/>
      </g>
     </g>
    </g>
    <g id="ytick_21">
     <g id="line2d_91">
      <g>
       <use xlink:href="#m1e574a5af6" x="36.1" y="142.376272" style="stroke: #000000; stroke-width: 0.5"/>
      </g>
     </g>
     <g id="line2d_92">
      <g>
       <use xlink:href="#m1375b13b0c" x="339.793281" y="142.376272" style="stroke: #000000; stroke-width: 0.5"/>
      </g>
     </g>
    </g>
    <g id="ytick_22">
     <g id="line2d_93">
      <g>
       <use xlink:href="#m1e574a5af6" x="36.1" y="130.363663" style="stroke: #000000; stroke-width: 0.5"/>
      </g>
     </g>
     <g id="line2d_94">
      <g>
       <use xlink:href="#m1375b13b0c" x="339.793281" y="130.363663" style="stroke: #000000; stroke-width: 0.5"/>
      </g>
     </g>
    </g>
    <g id="ytick_23">
     <g id="line2d_95">
      <g>
       <use xlink:href="#m1e574a5af6" x="36.1" y="124.357358" style="stroke: #000000; stroke-width: 0.5"/>
      </g>
     </g>
     <g id="line2d_96">
      <g>
       <use xlink:href="#m1375b13b0c" x="339.793281" y="124.357358" style="stroke: #000000; stroke-width: 0.5"/>
      </g>
     </g>
    </g>
    <g id="ytick_24">
     <g id="line2d_97">
      <g>
       <use xlink:href="#m1e574a5af6" x="36.1" y="118.351053" style="stroke: #000000; stroke-width: 0.5"/>
      </g>
     </g>
     <g id="line2d_98">
      <g>
       <use xlink:href="#m1375b13b0c" x="339.793281" y="118.351053" style="stroke: #000000; stroke-width: 0.5"/>
      </g>
     </g>
    </g>
    <g id="ytick_25">
     <g id="line2d_99">
      <g>
       <use xlink:href="#m1e574a5af6" x="36.1" y="112.344749" style="stroke: #000000; stroke-width: 0.5"/>
      </g>
     </g>
     <g id="line2d_100">
      <g>
       <use xlink:href="#m1375b13b0c" x="339.793281" y="112.344749" style="stroke: #000000; stroke-width: 0.5"/>
      </g>
     </g>
    </g>
    <g id="ytick_26">
     <g id="line2d_101">
      <g>
       <use xlink:href="#m1e574a5af6" x="36.1" y="100.332139" style="stroke: #000000; stroke-width: 0.5"/>
      </g>
     </g>
     <g id="line2d_102">
      <g>
       <use xlink:href="#m1375b13b0c" x="339.793281" y="100.332139" style="stroke: #000000; stroke-width: 0.5"/>
      </g>
     </g>
    </g>
    <g id="ytick_27">
     <g id="line2d_103">
      <g>
       <use xlink:href="#m1e574a5af6" x="36.1" y="94.325834" style="stroke: #000000; stroke-width: 0.5"/>
      </g>
     </g>
     <g id="line2d_104">
      <g>
       <use xlink:href="#m1375b13b0c" x="339.793281" y="94.325834" style="stroke: #000000; stroke-width: 0.5"/>
      </g>
     </g>
    </g>
    <g id="ytick_28">
     <g id="line2d_105">
      <g>
       <use xlink:href="#m1e574a5af6" x="36.1" y="88.31953" style="stroke: #000000; stroke-width: 0.5"/>
      </g>
     </g>
     <g id="line2d_106">
      <g>
       <use xlink:href="#m1375b13b0c" x="339.793281" y="88.31953" style="stroke: #000000; stroke-width: 0.5"/>
      </g>
     </g>
    </g>
    <g id="ytick_29">
     <g id="line2d_107">
      <g>
       <use xlink:href="#m1e574a5af6" x="36.1" y="82.313225" style="stroke: #000000; stroke-width: 0.5"/>
      </g>
     </g>
     <g id="line2d_108">
      <g>
       <use xlink:href="#m1375b13b0c" x="339.793281" y="82.313225" style="stroke: #000000; stroke-width: 0.5"/>
      </g>
     </g>
    </g>
    <g id="ytick_30">
     <g id="line2d_109">
      <g>
       <use xlink:href="#m1e574a5af6" x="36.1" y="70.300616" style="stroke: #000000; stroke-width: 0.5"/>
      </g>
     </g>
     <g id="line2d_110">
      <g>
       <use xlink:href="#m1375b13b0c" x="339.793281" y="70.300616" style="stroke: #000000; stroke-width: 0.5"/>
      </g>
     </g>
    </g>
    <g id="ytick_31">
     <g id="line2d_111">
      <g>
       <use xlink:href="#m1e574a5af6" x="36.1" y="64.294311" style="stroke: #000000; stroke-width: 0.5"/>
      </g>
     </g>
     <g id="line2d_112">
      <g>
       <use xlink:href="#m1375b13b0c" x="339.793281" y="64.294311" style="stroke: #000000; stroke-width: 0.5"/>
      </g>
     </g>
    </g>
    <g id="ytick_32">
     <g id="line2d_113">
      <g>
       <use xlink:href="#m1e574a5af6" x="36.1" y="58.288006" style="stroke: #000000; stroke-width: 0.5"/>
      </g>
     </g>
     <g id="line2d_114">
      <g>
       <use xlink:href="#m1375b13b0c" x="339.793281" y="58.288006" style="stroke: #000000; stroke-width: 0.5"/>
      </g>
     </g>
    </g>
    <g id="ytick_33">
     <g id="line2d_115">
      <g>
       <use xlink:href="#m1e574a5af6" x="36.1" y="52.281702" style="stroke: #000000; stroke-width: 0.5"/>
      </g>
     </g>
     <g id="line2d_116">
      <g>
       <use xlink:href="#m1375b13b0c" x="339.793281" y="52.281702" style="stroke: #000000; stroke-width: 0.5"/>
      </g>
     </g>
    </g>
    <g id="ytick_34">
     <g id="line2d_117">
      <g>
       <use xlink:href="#m1e574a5af6" x="36.1" y="40.269092" style="stroke: #000000; stroke-width: 0.5"/>
      </g>
     </g>
     <g id="line2d_118">
      <g>
       <use xlink:href="#m1375b13b0c" x="339.793281" y="40.269092" style="stroke: #000000; stroke-width: 0.5"/>
      </g>
     </g>
    </g>
    <g id="ytick_35">
     <g id="line2d_119">
      <g>
       <use xlink:href="#m1e574a5af6" x="36.1" y="34.262787" style="stroke: #000000; stroke-width: 0.5"/>
      </g>
     </g>
     <g id="line2d_120">
      <g>
       <use xlink:href="#m1375b13b0c" x="339.793281" y="34.262787" style="stroke: #000000; stroke-width: 0.5"/>
      </g>
     </g>
    </g>
    <g id="ytick_36">
     <g id="line2d_121">
      <g>
       <use xlink:href="#m1e574a5af6" x="36.1" y="28.256483" style="stroke: #000000; stroke-width: 0.5"/>
      </g>
     </g>
     <g id="line2d_122">
      <g>
       <use xlink:href="#m1375b13b0c" x="339.793281" y="28.256483" style="stroke: #000000; stroke-width: 0.5"/>
      </g>
     </g>
    </g>
    <g id="ytick_37">
     <g id="line2d_123">
      <g>
       <use xlink:href="#m1e574a5af6" x="36.1" y="22.250178" style="stroke: #000000; stroke-width: 0.5"/>
      </g>
     </g>
     <g id="line2d_124">
      <g>
       <use xlink:href="#m1375b13b0c" x="339.793281" y="22.250178" style="stroke: #000000; stroke-width: 0.5"/>
      </g>
     </g>
    </g>
    <g id="text_14">
     <!-- Mean Eval. Reward ($\pm\sigma$), Smoothed (Window = 10 ep.) -->
     <g transform="translate(11.1 255.440313) rotate(-90) scale(0.1 -0.1)">
      <defs>
       <path id="Cmr10-4d" d="M 225 0 
L 225 225 
Q 884 225 884 603 
L 884 3944 
Q 884 4147 225 4147 
L 225 4372 
L 1434 4372 
Q 1513 4372 1538 4300 
L 2931 678 
L 4325 4300 
Q 4350 4372 4428 4372 
L 5638 4372 
L 5638 4147 
Q 4978 4147 4978 3944 
L 4978 428 
Q 4978 225 5638 225 
L 5638 0 
L 3775 0 
L 3775 225 
Q 4434 225 4434 428 
L 4434 4153 
L 2859 72 
Q 2831 0 2753 0 
Q 2672 0 2644 72 
L 1088 4103 
L 1088 603 
Q 1088 225 1747 225 
L 1747 0 
L 225 0 
z
" transform="scale(0.015625)"/>
       <path id="Cmr10-61" d="M 256 628 
Q 256 1009 556 1248 
Q 856 1488 1276 1586 
Q 1697 1684 2075 1684 
L 2075 1947 
Q 2075 2131 1994 2304 
Q 1913 2478 1759 2589 
Q 1606 2700 1422 2700 
Q 997 2700 775 2509 
Q 897 2509 976 2417 
Q 1056 2325 1056 2203 
Q 1056 2075 965 1984 
Q 875 1894 750 1894 
Q 622 1894 531 1984 
Q 441 2075 441 2203 
Q 441 2541 747 2705 
Q 1053 2869 1422 2869 
Q 1681 2869 1943 2758 
Q 2206 2647 2373 2440 
Q 2541 2234 2541 1959 
L 2541 519 
Q 2541 394 2594 289 
Q 2647 184 2759 184 
Q 2866 184 2917 290 
Q 2969 397 2969 519 
L 2969 928 
L 3156 928 
L 3156 519 
Q 3156 375 3081 245 
Q 3006 116 2879 39 
Q 2753 -38 2606 -38 
Q 2419 -38 2283 107 
Q 2147 253 2131 453 
Q 2013 213 1781 70 
Q 1550 -72 1288 -72 
Q 1044 -72 808 0 
Q 572 72 414 226 
Q 256 381 256 628 
z
M 775 628 
Q 775 403 940 250 
Q 1106 97 1331 97 
Q 1538 97 1706 200 
Q 1875 303 1975 481 
Q 2075 659 2075 856 
L 2075 1522 
Q 1784 1522 1479 1426 
Q 1175 1331 975 1128 
Q 775 925 775 628 
z
" transform="scale(0.015625)"/>
       <path id="Cmr10-6e" d="M 191 0 
L 191 225 
Q 409 225 550 259 
Q 691 294 691 428 
L 691 2175 
Q 691 2347 639 2423 
Q 588 2500 491 2517 
Q 394 2534 191 2534 
L 191 2759 
L 1119 2828 
L 1119 2203 
Q 1247 2478 1498 2653 
Q 1750 2828 2047 2828 
Q 2491 2828 2714 2615 
Q 2938 2403 2938 1966 
L 2938 428 
Q 2938 294 3078 259 
Q 3219 225 3438 225 
L 3438 0 
L 1972 0 
L 1972 225 
Q 2191 225 2331 259 
Q 2472 294 2472 428 
L 2472 1947 
Q 2472 2259 2381 2461 
Q 2291 2663 2009 2663 
Q 1638 2663 1398 2366 
Q 1159 2069 1159 1691 
L 1159 428 
Q 1159 294 1300 259 
Q 1441 225 1656 225 
L 1656 0 
L 191 0 
z
" transform="scale(0.015625)"/>
       <path id="Cmr10-20" transform="scale(0.015625)"/>
       <path id="Cmr10-45" d="M 197 0 
L 197 225 
Q 856 225 856 428 
L 856 3944 
Q 856 4147 197 4147 
L 197 4372 
L 3816 4372 
L 3994 2906 
L 3809 2906 
Q 3741 3459 3617 3709 
Q 3494 3959 3222 4053 
Q 2950 4147 2406 4147 
L 1778 4147 
Q 1663 4147 1598 4137 
Q 1534 4128 1493 4083 
Q 1453 4038 1453 3944 
L 1453 2381 
L 1925 2381 
Q 2250 2381 2411 2436 
Q 2572 2491 2633 2645 
Q 2694 2800 2694 3128 
L 2881 3128 
L 2881 1409 
L 2694 1409 
Q 2694 1734 2633 1890 
Q 2572 2047 2411 2101 
Q 2250 2156 1925 2156 
L 1453 2156 
L 1453 428 
Q 1453 291 1531 258 
Q 1609 225 1778 225 
L 2456 225 
Q 2900 225 3173 295 
Q 3447 366 3598 530 
Q 3750 694 3833 955 
Q 3916 1216 3988 1678 
L 4172 1678 
L 3903 0 
L 197 0 
z
" transform="scale(0.015625)"/>
       <path id="Cmr10-76" d="M 1563 0 
L 628 2350 
Q 569 2469 445 2501 
Q 322 2534 122 2534 
L 122 2759 
L 1466 2759 
L 1466 2534 
Q 1106 2534 1106 2381 
Q 1106 2356 1113 2344 
L 1831 538 
L 2478 2169 
Q 2497 2219 2497 2272 
Q 2497 2394 2405 2464 
Q 2313 2534 2188 2534 
L 2188 2759 
L 3250 2759 
L 3250 2534 
Q 3053 2534 2904 2443 
Q 2756 2353 2675 2175 
L 1813 0 
Q 1788 -72 1709 -72 
L 1663 -72 
Q 1584 -72 1563 0 
z
" transform="scale(0.015625)"/>
       <path id="Cmr10-6c" d="M 197 0 
L 197 225 
Q 416 225 556 259 
Q 697 294 697 428 
L 697 3788 
Q 697 3959 645 4036 
Q 594 4113 497 4130 
Q 400 4147 197 4147 
L 197 4372 
L 1147 4441 
L 1147 428 
Q 1147 294 1287 259 
Q 1428 225 1644 225 
L 1644 0 
L 197 0 
z
" transform="scale(0.015625)"/>
       <path id="Cmr10-2e" d="M 538 353 
Q 538 497 644 600 
Q 750 703 891 703 
Q 978 703 1062 656 
Q 1147 609 1194 525 
Q 1241 441 1241 353 
Q 1241 213 1137 106 
Q 1034 0 891 0 
Q 750 0 644 106 
Q 538 213 538 353 
z
" transform="scale(0.015625)"/>
       <path id="Cmr10-52" d="M 213 0 
L 213 225 
Q 872 225 872 428 
L 872 3944 
Q 872 4147 213 4147 
L 213 4372 
L 2222 4372 
Q 2581 4372 2976 4242 
Q 3372 4113 3637 3847 
Q 3903 3581 3903 3213 
Q 3903 2944 3742 2733 
Q 3581 2522 3329 2380 
Q 3078 2238 2816 2175 
Q 3103 2075 3318 1856 
Q 3534 1638 3578 1356 
L 3669 788 
Q 3731 403 3800 214 
Q 3869 25 4103 25 
Q 4303 25 4401 211 
Q 4500 397 4500 616 
Q 4500 638 4520 655 
Q 4541 672 4563 672 
L 4622 672 
Q 4684 672 4684 588 
Q 4684 413 4615 245 
Q 4547 78 4417 -31 
Q 4288 -141 4109 -141 
Q 3647 -141 3314 89 
Q 2981 319 2981 763 
L 2981 1331 
Q 2981 1650 2759 1878 
Q 2538 2106 2216 2106 
L 1447 2106 
L 1447 428 
Q 1447 225 2106 225 
L 2106 0 
L 213 0 
z
M 1447 2272 
L 2131 2272 
Q 2663 2272 2941 2486 
Q 3219 2700 3219 3213 
Q 3219 3722 2944 3934 
Q 2669 4147 2131 4147 
L 1772 4147 
Q 1656 4147 1592 4137 
Q 1528 4128 1487 4083 
Q 1447 4038 1447 3944 
L 1447 2272 
z
" transform="scale(0.015625)"/>
       <path id="Cmr10-77" d="M 1416 0 
L 588 2328 
Q 531 2469 425 2501 
Q 319 2534 116 2534 
L 116 2759 
L 1434 2759 
L 1434 2534 
Q 1056 2534 1056 2375 
Q 1059 2366 1061 2356 
Q 1063 2347 1063 2328 
L 1678 603 
L 2209 2106 
L 2125 2328 
Q 2075 2469 1965 2501 
Q 1856 2534 1656 2534 
L 1656 2759 
L 2919 2759 
L 2919 2534 
Q 2541 2534 2541 2375 
Q 2541 2350 2547 2328 
L 3188 525 
L 3769 2156 
Q 3781 2206 3781 2247 
Q 3781 2381 3667 2457 
Q 3553 2534 3413 2534 
L 3413 2759 
L 4500 2759 
L 4500 2534 
Q 4306 2534 4167 2432 
Q 4028 2331 3963 2156 
L 3200 0 
Q 3178 -72 3103 -72 
L 3053 -72 
Q 2978 -72 2956 0 
L 2309 1825 
L 1663 0 
Q 1631 -72 1563 -72 
L 1516 -72 
Q 1438 -72 1416 0 
z
" transform="scale(0.015625)"/>
       <path id="Cmr10-72" d="M 166 0 
L 166 225 
Q 384 225 525 259 
Q 666 294 666 428 
L 666 2175 
Q 666 2347 614 2423 
Q 563 2500 466 2517 
Q 369 2534 166 2534 
L 166 2759 
L 1081 2828 
L 1081 2203 
Q 1184 2481 1375 2654 
Q 1566 2828 1838 2828 
Q 2028 2828 2178 2715 
Q 2328 2603 2328 2419 
Q 2328 2303 2245 2217 
Q 2163 2131 2041 2131 
Q 1922 2131 1837 2215 
Q 1753 2300 1753 2419 
Q 1753 2591 1875 2663 
L 1838 2663 
Q 1578 2663 1414 2475 
Q 1250 2288 1181 2009 
Q 1113 1731 1113 1478 
L 1113 428 
Q 1113 225 1734 225 
L 1734 0 
L 166 0 
z
" transform="scale(0.015625)"/>
       <path id="Cmr10-64" d="M 1563 -72 
Q 1184 -72 871 133 
Q 559 338 386 672 
Q 213 1006 213 1381 
Q 213 1769 402 2101 
Q 591 2434 916 2631 
Q 1241 2828 1631 2828 
Q 1866 2828 2075 2729 
Q 2284 2631 2438 2456 
L 2438 3788 
Q 2438 3959 2386 4036 
Q 2334 4113 2239 4130 
Q 2144 4147 1941 4147 
L 1941 4372 
L 2888 4441 
L 2888 581 
Q 2888 413 2939 336 
Q 2991 259 3086 242 
Q 3181 225 3384 225 
L 3384 0 
L 2419 -72 
L 2419 331 
Q 2253 141 2025 34 
Q 1797 -72 1563 -72 
z
M 909 556 
Q 1019 347 1201 222 
Q 1384 97 1600 97 
Q 1866 97 2087 250 
Q 2309 403 2419 647 
L 2419 2181 
Q 2344 2322 2230 2433 
Q 2116 2544 1973 2603 
Q 1831 2663 1672 2663 
Q 1338 2663 1134 2473 
Q 931 2284 850 1990 
Q 769 1697 769 1375 
Q 769 1119 795 928 
Q 822 738 909 556 
z
" transform="scale(0.015625)"/>
       <path id="Cmr10-28" d="M 1984 -1588 
Q 1628 -1306 1370 -942 
Q 1113 -578 948 -165 
Q 784 247 703 697 
Q 622 1147 622 1600 
Q 622 2059 703 2509 
Q 784 2959 951 3375 
Q 1119 3791 1378 4153 
Q 1638 4516 1984 4788 
Q 1984 4800 2016 4800 
L 2075 4800 
Q 2094 4800 2109 4783 
Q 2125 4766 2125 4744 
Q 2125 4716 2113 4703 
Q 1800 4397 1592 4047 
Q 1384 3697 1257 3301 
Q 1131 2906 1075 2482 
Q 1019 2059 1019 1600 
Q 1019 -434 2106 -1491 
Q 2125 -1509 2125 -1544 
Q 2125 -1559 2108 -1579 
Q 2091 -1600 2075 -1600 
L 2016 -1600 
Q 1984 -1600 1984 -1588 
z
" transform="scale(0.015625)"/>
       <path id="Cmsy10-a7" d="M 481 0 
Q 428 0 393 37 
Q 359 75 359 128 
Q 359 175 393 215 
Q 428 256 481 256 
L 2363 256 
L 2363 2003 
L 481 2003 
Q 428 2003 393 2043 
Q 359 2084 359 2131 
Q 359 2178 393 2218 
Q 428 2259 481 2259 
L 2363 2259 
L 2363 4147 
Q 2363 4197 2400 4230 
Q 2438 4263 2491 4263 
Q 2534 4263 2576 4230 
Q 2619 4197 2619 4147 
L 2619 2259 
L 4500 2259 
Q 4547 2259 4581 2218 
Q 4616 2178 4616 2131 
Q 4616 2084 4581 2043 
Q 4547 2003 4500 2003 
L 2619 2003 
L 2619 256 
L 4500 256 
Q 4547 256 4581 215 
Q 4616 175 4616 128 
Q 4616 75 4581 37 
Q 4547 0 4500 0 
L 481 0 
z
" transform="scale(0.015625)"/>
       <path id="Cmmi10-be" d="M 1197 -72 
Q 913 -72 692 64 
Q 472 200 351 431 
Q 231 663 231 941 
Q 231 1238 365 1566 
Q 500 1894 733 2166 
Q 966 2438 1259 2598 
Q 1553 2759 1863 2759 
L 3475 2759 
Q 3541 2759 3587 2715 
Q 3634 2672 3634 2597 
Q 3634 2503 3567 2433 
Q 3500 2363 3406 2363 
L 2625 2363 
Q 2809 2088 2809 1697 
Q 2809 1375 2684 1062 
Q 2559 750 2337 492 
Q 2116 234 1820 81 
Q 1525 -72 1197 -72 
z
M 1203 97 
Q 1553 97 1823 370 
Q 2094 644 2237 1039 
Q 2381 1434 2381 1772 
Q 2381 2047 2229 2205 
Q 2078 2363 1806 2363 
Q 1434 2363 1173 2113 
Q 913 1863 783 1484 
Q 653 1106 653 756 
Q 653 481 798 289 
Q 944 97 1203 97 
z
" transform="scale(0.015625)"/>
       <path id="Cmr10-29" d="M 416 -1600 
Q 359 -1600 359 -1544 
Q 359 -1516 372 -1503 
Q 1466 -434 1466 1600 
Q 1466 3634 384 4691 
Q 359 4706 359 4744 
Q 359 4766 376 4783 
Q 394 4800 416 4800 
L 475 4800 
Q 494 4800 506 4788 
Q 966 4425 1272 3906 
Q 1578 3388 1720 2800 
Q 1863 2213 1863 1600 
Q 1863 1147 1786 708 
Q 1709 269 1542 -157 
Q 1375 -584 1119 -945 
Q 863 -1306 506 -1588 
Q 494 -1600 475 -1600 
L 416 -1600 
z
" transform="scale(0.015625)"/>
       <path id="Cmr10-2c" d="M 634 -1153 
Q 634 -1125 659 -1100 
Q 891 -878 1019 -587 
Q 1147 -297 1147 25 
L 1147 103 
Q 1044 0 891 0 
Q 744 0 641 103 
Q 538 206 538 353 
Q 538 503 641 603 
Q 744 703 891 703 
Q 1119 703 1216 492 
Q 1313 281 1313 25 
Q 1313 -331 1170 -651 
Q 1028 -972 769 -1228 
Q 744 -1241 728 -1241 
Q 697 -1241 665 -1212 
Q 634 -1184 634 -1153 
z
" transform="scale(0.015625)"/>
       <path id="Cmr10-53" d="M 359 -91 
L 359 1403 
Q 359 1453 416 1453 
L 494 1453 
Q 513 1453 528 1437 
Q 544 1422 544 1403 
Q 544 775 933 429 
Q 1322 84 1953 84 
Q 2175 84 2362 212 
Q 2550 341 2654 548 
Q 2759 756 2759 978 
Q 2759 1172 2681 1355 
Q 2603 1538 2456 1672 
Q 2309 1806 2125 1850 
L 1294 2053 
Q 881 2163 620 2502 
Q 359 2841 359 3263 
Q 359 3594 528 3884 
Q 697 4175 983 4344 
Q 1269 4513 1600 4513 
Q 2241 4513 2619 4078 
L 2881 4494 
Q 2900 4513 2925 4513 
L 2969 4513 
Q 2988 4513 3005 4498 
Q 3022 4484 3022 4459 
L 3022 2975 
Q 3022 2919 2969 2919 
L 2894 2919 
Q 2834 2919 2834 2975 
Q 2834 3138 2779 3331 
Q 2725 3525 2628 3703 
Q 2531 3881 2419 3994 
Q 2109 4306 1600 4306 
Q 1381 4306 1197 4195 
Q 1013 4084 903 3893 
Q 794 3703 794 3494 
Q 794 3219 964 2995 
Q 1134 2772 1409 2700 
L 2241 2497 
Q 2447 2447 2630 2317 
Q 2813 2188 2934 2016 
Q 3056 1844 3125 1633 
Q 3194 1422 3194 1197 
Q 3194 850 3034 542 
Q 2875 234 2586 46 
Q 2297 -141 1953 -141 
Q 1741 -141 1519 -94 
Q 1297 -47 1109 50 
Q 922 147 769 300 
L 500 -122 
Q 481 -141 453 -141 
L 416 -141 
Q 359 -141 359 -91 
z
" transform="scale(0.015625)"/>
       <path id="Cmr10-6f" d="M 1600 -72 
Q 1216 -72 887 123 
Q 559 319 368 647 
Q 178 975 178 1363 
Q 178 1656 283 1928 
Q 388 2200 583 2414 
Q 778 2628 1037 2748 
Q 1297 2869 1600 2869 
Q 1994 2869 2317 2661 
Q 2641 2453 2828 2104 
Q 3016 1756 3016 1363 
Q 3016 978 2825 648 
Q 2634 319 2307 123 
Q 1981 -72 1600 -72 
z
M 1600 116 
Q 2113 116 2284 487 
Q 2456 859 2456 1434 
Q 2456 1756 2422 1967 
Q 2388 2178 2272 2350 
Q 2200 2456 2089 2536 
Q 1978 2616 1854 2658 
Q 1731 2700 1600 2700 
Q 1400 2700 1220 2609 
Q 1041 2519 922 2350 
Q 803 2169 770 1951 
Q 738 1734 738 1434 
Q 738 1075 800 789 
Q 863 503 1052 309 
Q 1241 116 1600 116 
z
" transform="scale(0.015625)"/>
       <path id="Cmr10-68" d="M 191 0 
L 191 225 
Q 409 225 550 259 
Q 691 294 691 428 
L 691 3788 
Q 691 3959 639 4036 
Q 588 4113 491 4130 
Q 394 4147 191 4147 
L 191 4372 
L 1141 4441 
L 1141 2241 
Q 1275 2506 1515 2667 
Q 1756 2828 2047 2828 
Q 2491 2828 2714 2615 
Q 2938 2403 2938 1966 
L 2938 428 
Q 2938 294 3078 259 
Q 3219 225 3438 225 
L 3438 0 
L 1972 0 
L 1972 225 
Q 2191 225 2331 259 
Q 2472 294 2472 428 
L 2472 1947 
Q 2472 2259 2381 2461 
Q 2291 2663 2009 2663 
Q 1638 2663 1398 2366 
Q 1159 2069 1159 1691 
L 1159 428 
Q 1159 294 1300 259 
Q 1441 225 1656 225 
L 1656 0 
L 191 0 
z
" transform="scale(0.015625)"/>
       <path id="Cmr10-57" d="M 1991 -72 
L 684 3944 
Q 634 4078 490 4112 
Q 347 4147 116 4147 
L 116 4372 
L 1831 4372 
L 1831 4147 
Q 1294 4147 1294 3975 
L 1294 3944 
L 2316 794 
L 3188 3488 
L 3041 3944 
Q 2991 4078 2847 4112 
Q 2703 4147 2472 4147 
L 2472 4372 
L 4184 4372 
L 4184 4147 
Q 3641 4147 3641 3975 
Q 3641 3966 3647 3947 
Q 3653 3928 3653 3922 
L 4672 794 
L 5631 3769 
Q 5638 3788 5638 3828 
Q 5638 3997 5459 4072 
Q 5281 4147 5088 4147 
L 5088 4372 
L 6456 4372 
L 6456 4147 
Q 5950 4147 5831 3769 
L 4581 -72 
Q 4559 -141 4488 -141 
L 4441 -141 
Q 4369 -141 4347 -72 
L 3291 3188 
L 2228 -72 
Q 2206 -141 2131 -141 
L 2088 -141 
Q 2013 -141 1991 -72 
z
" transform="scale(0.015625)"/>
       <path id="Cmr10-3d" d="M 481 850 
Q 428 850 393 890 
Q 359 931 359 978 
Q 359 1031 393 1068 
Q 428 1106 481 1106 
L 4500 1106 
Q 4547 1106 4581 1068 
Q 4616 1031 4616 978 
Q 4616 931 4581 890 
Q 4547 850 4500 850 
L 481 850 
z
M 481 2094 
Q 428 2094 393 2131 
Q 359 2169 359 2222 
Q 359 2269 393 2309 
Q 428 2350 481 2350 
L 4500 2350 
Q 4547 2350 4581 2309 
Q 4616 2269 4616 2222 
Q 4616 2169 4581 2131 
Q 4547 2094 4500 2094 
L 481 2094 
z
" transform="scale(0.015625)"/>
       <path id="Cmr10-31" d="M 594 0 
L 594 225 
Q 1394 225 1394 428 
L 1394 3788 
Q 1063 3628 556 3628 
L 556 3853 
Q 1341 3853 1741 4263 
L 1831 4263 
Q 1853 4263 1873 4245 
Q 1894 4228 1894 4206 
L 1894 428 
Q 1894 225 2694 225 
L 2694 0 
L 594 0 
z
" transform="scale(0.015625)"/>
      </defs>
      <use xlink:href="#Cmr10-4d"/>
      <use xlink:href="#Cmr10-65" transform="translate(91.601562 0)"/>
      <use xlink:href="#Cmr10-61" transform="translate(135.986328 0)"/>
      <use xlink:href="#Cmr10-6e" transform="translate(185.986328 0)"/>
      <use xlink:href="#Cmr10-20" transform="translate(241.503906 0)"/>
      <use xlink:href="#Cmr10-45" transform="translate(274.804688 0)"/>
      <use xlink:href="#Cmr10-76" transform="translate(342.822266 0)"/>
      <use xlink:href="#Cmr10-61" transform="translate(395.507812 0)"/>
      <use xlink:href="#Cmr10-6c" transform="translate(445.507812 0)"/>
      <use xlink:href="#Cmr10-2e" transform="translate(473.193359 0)"/>
      <use xlink:href="#Cmr10-20" transform="translate(500.878906 0)"/>
      <use xlink:href="#Cmr10-52" transform="translate(534.179688 0)"/>
      <use xlink:href="#Cmr10-65" transform="translate(607.763672 0)"/>
      <use xlink:href="#Cmr10-77" transform="translate(652.148438 0)"/>
      <use xlink:href="#Cmr10-61" transform="translate(724.365234 0)"/>
      <use xlink:href="#Cmr10-72" transform="translate(774.365234 0)"/>
      <use xlink:href="#Cmr10-64" transform="translate(813.476562 0)"/>
      <use xlink:href="#Cmr10-20" transform="translate(868.994141 0)"/>
      <use xlink:href="#Cmr10-28" transform="translate(902.294922 0)"/>
      <use xlink:href="#Cmsy10-a7" transform="translate(941.113281 0)"/>
      <use xlink:href="#Cmmi10-be" transform="translate(1018.798828 0)"/>
      <use xlink:href="#Cmr10-29" transform="translate(1075.878906 0)"/>
      <use xlink:href="#Cmr10-2c" transform="translate(1114.697266 0)"/>
      <use xlink:href="#Cmr10-20" transform="translate(1142.382812 0)"/>
      <use xlink:href="#Cmr10-53" transform="translate(1175.683594 0)"/>
      <use xlink:href="#Cmr10-6d" transform="translate(1231.201172 0)"/>
      <use xlink:href="#Cmr10-6f" transform="translate(1314.501953 0)"/>
      <use xlink:href="#Cmr10-6f" transform="translate(1364.501953 0)"/>
      <use xlink:href="#Cmr10-74" transform="translate(1414.501953 0)"/>
      <use xlink:href="#Cmr10-68" transform="translate(1453.320312 0)"/>
      <use xlink:href="#Cmr10-65" transform="translate(1508.837891 0)"/>
      <use xlink:href="#Cmr10-64" transform="translate(1553.222656 0)"/>
      <use xlink:href="#Cmr10-20" transform="translate(1608.740234 0)"/>
      <use xlink:href="#Cmr10-28" transform="translate(1642.041016 0)"/>
      <use xlink:href="#Cmr10-57" transform="translate(1680.859375 0)"/>
      <use xlink:href="#Cmr10-69" transform="translate(1783.544922 0)"/>
      <use xlink:href="#Cmr10-6e" transform="translate(1811.230469 0)"/>
      <use xlink:href="#Cmr10-64" transform="translate(1866.748047 0)"/>
      <use xlink:href="#Cmr10-6f" transform="translate(1922.265625 0)"/>
      <use xlink:href="#Cmr10-77" transform="translate(1972.265625 0)"/>
      <use xlink:href="#Cmr10-20" transform="translate(2044.482422 0)"/>
      <use xlink:href="#Cmr10-3d" transform="translate(2077.783203 0)"/>
      <use xlink:href="#Cmr10-20" transform="translate(2155.46875 0)"/>
      <use xlink:href="#Cmr10-31" transform="translate(2188.769531 0)"/>
      <use xlink:href="#Cmr10-30" transform="translate(2238.769531 0)"/>
      <use xlink:href="#Cmr10-20" transform="translate(2288.769531 0)"/>
      <use xlink:href="#Cmr10-65" transform="translate(2322.070312 0)"/>
      <use xlink:href="#Cmr10-70" transform="translate(2366.455078 0)"/>
      <use xlink:href="#Cmr10-2e" transform="translate(2421.972656 0)"/>
      <use xlink:href="#Cmr10-29" transform="translate(2449.658203 0)"/>
     </g>
    </g>
   </g>
   <g id="line2d_125">
    <path d="M 49.90424 163.118044 
L 52.971849 138.167855 
L 56.039458 123.176118 
L 59.107067 120.505315 
L 62.174676 102.534451 
L 65.242285 88.371584 
L 68.309893 81.208065 
L 71.377502 74.673206 
L 74.445111 73.540016 
L 77.51272 69.896191 
L 80.580329 63.817811 
L 83.647938 64.298315 
L 86.715547 58.416141 
L 89.783156 64.190202 
L 92.850765 70.084389 
L 95.918374 70.084389 
L 98.985982 68.454678 
L 102.053591 68.454678 
L 105.1212 62.600533 
L 108.188809 63.961962 
L 111.256418 63.961962 
L 114.324027 63.481458 
L 117.391636 63.481458 
L 120.459245 58.620355 
L 123.526854 53.603089 
L 126.594463 57.707397 
L 129.662071 59.188952 
L 132.72968 59.188952 
L 135.797289 59.188952 
L 138.864898 56.63427 
L 141.932507 56.63427 
L 145.000116 56.63427 
L 148.067725 56.63427 
L 151.135334 55.721312 
L 154.202943 54.844392 
L 157.270552 54.07158 
L 160.338161 52.590025 
L 163.405769 56.518148 
L 166.473378 56.518148 
L 169.540987 53.535017 
L 172.608596 53.535017 
L 175.676205 53.535017 
L 178.743814 53.535017 
L 181.811423 53.535017 
L 184.879032 53.535017 
L 187.946641 50.20352 
L 191.01425 50.20352 
L 194.081858 46.275397 
L 197.149467 46.275397 
L 200.217076 46.275397 
L 203.284685 46.275397 
L 206.352294 46.275397 
L 209.419903 46.275397 
L 212.487512 46.275397 
L 215.555121 46.980137 
L 218.62273 46.980137 
L 221.690339 46.980137 
L 224.757947 46.980137 
L 227.825556 46.980137 
L 230.893165 47.636826 
L 233.960774 47.636826 
L 237.028383 47.636826 
L 240.095992 47.636826 
L 243.163601 47.636826 
L 246.23121 46.932086 
L 249.298819 46.932086 
L 252.366428 46.932086 
L 255.434036 46.932086 
L 258.501645 46.932086 
L 261.569254 46.275397 
L 264.636863 46.275397 
L 267.704472 46.275397 
L 270.772081 46.275397 
L 273.83969 46.275397 
L 276.907299 46.275397 
L 279.974908 46.275397 
L 283.042517 46.275397 
L 286.110125 46.275397 
L 289.177734 48.934188 
L 292.245343 48.934188 
L 295.312952 48.934188 
L 298.380561 48.934188 
L 301.44817 48.934188 
L 304.515779 48.934188 
L 307.583388 48.934188 
L 310.650997 48.934188 
L 313.718606 48.934188 
L 316.786214 48.934188 
L 319.853823 46.275397 
L 322.921432 46.275397 
L 325.989041 46.275397 
" clip-path="url(#p62caf61033)" style="fill: none; stroke: #0c5da5; stroke-linecap: square"/>
   </g>
   <g id="line2d_126">
    <path d="M 49.90424 112.420828 
L 52.971849 106.046137 
L 56.039458 99.739517 
L 59.107067 87.114265 
L 62.174676 86.761895 
L 65.242285 86.525647 
L 68.309893 85.564638 
L 71.377502 78.901644 
L 74.445111 80.779615 
L 77.51272 80.587414 
L 80.580329 71.493868 
L 83.647938 66.592724 
L 86.715547 58.412137 
L 89.783156 58.412137 
L 92.850765 61.523402 
L 95.918374 60.774616 
L 98.985982 59.156918 
L 102.053591 63.193155 
L 105.1212 61.915814 
L 108.188809 57.847544 
L 111.256418 58.640376 
L 114.324027 58.640376 
L 117.391636 58.640376 
L 120.459245 58.640376 
L 123.526854 55.52911 
L 126.594463 60.846692 
L 129.662071 61.255121 
L 132.72968 57.218884 
L 135.797289 52.79424 
L 138.864898 52.79424 
L 141.932507 52.001407 
L 145.000116 52.001407 
L 148.067725 57.895594 
L 151.135334 57.895594 
L 154.202943 57.895594 
L 157.270552 54.812358 
L 160.338161 54.403929 
L 163.405769 54.403929 
L 166.473378 55.8054 
L 169.540987 55.8054 
L 172.608596 55.8054 
L 175.676205 55.8054 
L 178.743814 49.911213 
L 181.811423 49.911213 
L 184.879032 49.911213 
L 187.946641 47.676868 
L 191.01425 47.676868 
L 194.081858 47.676868 
L 197.149467 46.275397 
L 200.217076 46.275397 
L 203.284685 46.275397 
L 206.352294 46.275397 
L 209.419903 46.275397 
L 212.487512 46.275397 
L 215.555121 46.275397 
L 218.62273 46.275397 
L 221.690339 46.275397 
L 224.757947 46.275397 
L 227.825556 48.709952 
L 230.893165 48.709952 
L 233.960774 48.709952 
L 237.028383 48.709952 
L 240.095992 48.709952 
L 243.163601 48.709952 
L 246.23121 48.709952 
L 249.298819 48.709952 
L 252.366428 48.709952 
L 255.434036 48.709952 
L 258.501645 46.275397 
L 261.569254 46.275397 
L 264.636863 46.275397 
L 267.704472 46.275397 
L 270.772081 46.275397 
L 273.83969 46.275397 
L 276.907299 46.275397 
L 279.974908 46.275397 
L 283.042517 46.275397 
L 286.110125 46.275397 
L 289.177734 46.275397 
L 292.245343 46.275397 
L 295.312952 46.275397 
L 298.380561 46.275397 
L 301.44817 46.275397 
L 304.515779 46.275397 
L 307.583388 46.275397 
L 310.650997 46.275397 
L 313.718606 46.275397 
L 316.786214 46.275397 
L 319.853823 46.275397 
L 322.921432 46.275397 
L 325.989041 46.275397 
" clip-path="url(#p62caf61033)" style="fill: none; stroke: #00b945; stroke-linecap: square"/>
   </g>
   <g id="line2d_127">
    <path d="M 49.90424 141.519373 
L 52.971849 125.918997 
L 56.039458 114.378884 
L 59.107067 102.106001 
L 62.174676 101.293148 
L 65.242285 88.856093 
L 68.309893 78.433152 
L 71.377502 73.471945 
L 74.445111 73.271734 
L 77.51272 69.095351 
L 80.580329 70.016317 
L 83.647938 68.406628 
L 86.715547 68.406628 
L 89.783156 74.408928 
L 92.850765 68.855098 
L 95.918374 74.040541 
L 98.985982 74.040541 
L 102.053591 71.930326 
L 105.1212 65.8079 
L 108.188809 65.15121 
L 111.256418 64.230244 
L 114.324027 64.230244 
L 117.391636 75.658239 
L 120.459245 71.377746 
L 123.526854 71.377746 
L 126.594463 66.192303 
L 129.662071 72.226637 
L 132.72968 73.227688 
L 135.797289 73.227688 
L 138.864898 66.460585 
L 141.932507 66.460585 
L 145.000116 66.460585 
L 148.067725 56.249867 
L 151.135334 54.52806 
L 154.202943 60.778621 
L 157.270552 60.778621 
L 160.338161 54.784329 
L 163.405769 57.559241 
L 166.473378 57.559241 
L 169.540987 57.559241 
L 172.608596 57.559241 
L 175.676205 57.559241 
L 178.743814 56.341964 
L 181.811423 56.341964 
L 184.879032 50.091402 
L 187.946641 50.091402 
L 191.01425 50.05136 
L 194.081858 49.378654 
L 197.149467 49.378654 
L 200.217076 49.378654 
L 203.284685 49.378654 
L 206.352294 49.378654 
L 209.419903 49.378654 
L 212.487512 49.378654 
L 215.555121 49.378654 
L 218.62273 49.378654 
L 221.690339 49.378654 
L 224.757947 46.275397 
L 227.825556 46.275397 
L 230.893165 46.275397 
L 233.960774 46.275397 
L 237.028383 46.275397 
L 240.095992 46.275397 
L 243.163601 46.275397 
L 246.23121 46.275397 
L 249.298819 46.275397 
L 252.366428 46.275397 
L 255.434036 46.275397 
L 258.501645 46.275397 
L 261.569254 46.275397 
L 264.636863 46.275397 
L 267.704472 46.275397 
L 270.772081 46.275397 
L 273.83969 46.275397 
L 276.907299 51.925327 
L 279.974908 51.925327 
L 283.042517 51.925327 
L 286.110125 51.925327 
L 289.177734 51.925327 
L 292.245343 51.925327 
L 295.312952 55.721312 
L 298.380561 55.721312 
L 301.44817 55.721312 
L 304.515779 62.480407 
L 307.583388 56.830476 
L 310.650997 56.830476 
L 313.718606 56.830476 
L 316.786214 56.830476 
L 319.853823 56.830476 
L 322.921432 56.830476 
L 325.989041 53.034492 
" clip-path="url(#p62caf61033)" style="fill: none; stroke: #ff9500; stroke-linecap: square"/>
   </g>
   <g id="patch_3">
    <path d="M 36.1 243.380625 
L 36.1 18.6 
" style="fill: none; stroke: #000000; stroke-width: 0.5; stroke-linejoin: miter; stroke-linecap: square"/>
   </g>
   <g id="patch_4">
    <path d="M 339.793281 243.380625 
L 339.793281 18.6 
" style="fill: none; stroke: #000000; stroke-width: 0.5; stroke-linejoin: miter; stroke-linecap: square"/>
   </g>
   <g id="patch_5">
    <path d="M 36.1 243.380625 
L 339.793281 243.380625 
" style="fill: none; stroke: #000000; stroke-width: 0.5; stroke-linejoin: miter; stroke-linecap: square"/>
   </g>
   <g id="patch_6">
    <path d="M 36.1 18.6 
L 339.793281 18.6 
" style="fill: none; stroke: #000000; stroke-width: 0.5; stroke-linejoin: miter; stroke-linecap: square"/>
   </g>
   <g id="text_15">
    <!-- Eval. reward vs. timestep on CartPole-v1 (3 seeds avg.) for PPO -->
    <g transform="translate(17.086328 12.6) scale(0.12 -0.12)">
     <defs>
      <path id="Cmr10-43" d="M 1459 684 
Q 1678 406 2006 245 
Q 2334 84 2688 84 
Q 2984 84 3237 201 
Q 3491 319 3680 528 
Q 3869 738 3970 1003 
Q 4072 1269 4072 1563 
Q 4072 1613 4128 1613 
L 4206 1613 
Q 4256 1613 4256 1550 
Q 4256 1216 4128 905 
Q 4000 594 3765 358 
Q 3531 122 3226 -9 
Q 2922 -141 2591 -141 
Q 2131 -141 1720 45 
Q 1309 231 1004 554 
Q 700 878 529 1303 
Q 359 1728 359 2188 
Q 359 2647 529 3072 
Q 700 3497 1004 3822 
Q 1309 4147 1720 4330 
Q 2131 4513 2591 4513 
Q 2919 4513 3219 4370 
Q 3519 4228 3744 3969 
L 4116 4494 
Q 4153 4513 4159 4513 
L 4206 4513 
Q 4225 4513 4240 4497 
Q 4256 4481 4256 4459 
L 4256 2731 
Q 4256 2675 4206 2675 
L 4091 2675 
Q 4031 2675 4031 2731 
Q 4031 2916 3957 3144 
Q 3884 3372 3770 3576 
Q 3656 3781 3506 3938 
Q 3147 4288 2681 4288 
Q 2328 4288 2004 4128 
Q 1681 3969 1459 3688 
Q 1225 3388 1134 3005 
Q 1044 2622 1044 2188 
Q 1044 1753 1134 1368 
Q 1225 984 1459 684 
z
" transform="scale(0.015625)"/>
      <path id="Cmr10-50" d="M 213 0 
L 213 225 
Q 872 225 872 428 
L 872 3944 
Q 872 4147 213 4147 
L 213 4372 
L 2491 4372 
Q 2841 4372 3191 4228 
Q 3541 4084 3767 3809 
Q 3994 3534 3994 3169 
Q 3994 2813 3766 2544 
Q 3538 2275 3191 2136 
Q 2844 1997 2491 1997 
L 1466 1997 
L 1466 428 
Q 1466 225 2125 225 
L 2125 0 
L 213 0 
z
M 1447 2188 
L 2316 2188 
Q 2669 2188 2887 2289 
Q 3106 2391 3207 2605 
Q 3309 2819 3309 3169 
Q 3309 3691 3079 3919 
Q 2850 4147 2316 4147 
L 1772 4147 
Q 1656 4147 1592 4137 
Q 1528 4128 1487 4083 
Q 1447 4038 1447 3944 
L 1447 2188 
z
" transform="scale(0.015625)"/>
      <path id="Cmr10-2d" d="M 72 1184 
L 72 1581 
L 1766 1581 
L 1766 1184 
L 72 1184 
z
" transform="scale(0.015625)"/>
      <path id="Cmr10-67" d="M 178 -500 
Q 178 -272 343 -101 
Q 509 69 738 141 
Q 609 238 542 384 
Q 475 531 475 697 
Q 475 997 666 1228 
Q 372 1516 372 1888 
Q 372 2088 458 2263 
Q 544 2438 697 2566 
Q 850 2694 1037 2761 
Q 1225 2828 1422 2828 
Q 1803 2828 2106 2606 
Q 2238 2747 2417 2823 
Q 2597 2900 2791 2900 
Q 2928 2900 3015 2801 
Q 3103 2703 3103 2566 
Q 3103 2488 3043 2428 
Q 2984 2369 2906 2369 
Q 2825 2369 2765 2428 
Q 2706 2488 2706 2566 
Q 2706 2684 2784 2731 
Q 2453 2731 2216 2503 
Q 2331 2388 2401 2220 
Q 2472 2053 2472 1888 
Q 2472 1616 2322 1398 
Q 2172 1181 1926 1061 
Q 1681 941 1422 941 
Q 1072 941 781 1131 
Q 691 1006 691 850 
Q 691 681 802 554 
Q 913 428 1081 428 
L 1606 428 
Q 1988 428 2294 359 
Q 2600 291 2808 84 
Q 3016 -122 3016 -500 
Q 3016 -781 2778 -967 
Q 2541 -1153 2211 -1236 
Q 1881 -1319 1600 -1319 
Q 1316 -1319 984 -1236 
Q 653 -1153 415 -967 
Q 178 -781 178 -500 
z
M 538 -500 
Q 538 -716 713 -861 
Q 888 -1006 1134 -1076 
Q 1381 -1147 1600 -1147 
Q 1816 -1147 2062 -1076 
Q 2309 -1006 2482 -861 
Q 2656 -716 2656 -500 
Q 2656 -166 2350 -67 
Q 2044 31 1606 31 
L 1081 31 
Q 934 31 811 -39 
Q 688 -109 613 -236 
Q 538 -363 538 -500 
z
M 1422 1113 
Q 1966 1113 1966 1888 
Q 1966 2222 1850 2439 
Q 1734 2656 1422 2656 
Q 1109 2656 993 2439 
Q 878 2222 878 1888 
Q 878 1675 922 1503 
Q 966 1331 1084 1222 
Q 1203 1113 1422 1113 
z
" transform="scale(0.015625)"/>
      <path id="Cmr10-66" d="M 206 0 
L 206 225 
Q 422 225 562 259 
Q 703 294 703 428 
L 703 2534 
L 213 2534 
L 213 2759 
L 703 2759 
L 703 3525 
Q 703 3731 789 3911 
Q 875 4091 1020 4225 
Q 1166 4359 1355 4436 
Q 1544 4513 1747 4513 
Q 1963 4513 2136 4384 
Q 2309 4256 2309 4044 
Q 2309 3922 2226 3839 
Q 2144 3756 2022 3756 
Q 1900 3756 1814 3839 
Q 1728 3922 1728 4044 
Q 1728 4244 1900 4313 
Q 1797 4347 1716 4347 
Q 1528 4347 1395 4214 
Q 1263 4081 1197 3890 
Q 1131 3700 1131 3513 
L 1131 2759 
L 1869 2759 
L 1869 2534 
L 1153 2534 
L 1153 428 
Q 1153 297 1340 261 
Q 1528 225 1772 225 
L 1772 0 
L 206 0 
z
" transform="scale(0.015625)"/>
      <path id="Cmr10-4f" d="M 2491 -141 
Q 1881 -141 1395 182 
Q 909 506 634 1042 
Q 359 1578 359 2169 
Q 359 2606 517 3034 
Q 675 3463 958 3794 
Q 1241 4125 1637 4319 
Q 2034 4513 2491 4513 
Q 2944 4513 3342 4317 
Q 3741 4122 4025 3787 
Q 4309 3453 4462 3037 
Q 4616 2622 4616 2169 
Q 4616 1578 4341 1042 
Q 4066 506 3578 182 
Q 3091 -141 2491 -141 
z
M 1428 691 
Q 1616 397 1891 223 
Q 2166 50 2491 50 
Q 2700 50 2901 134 
Q 3103 219 3267 366 
Q 3431 513 3547 691 
Q 3928 1266 3928 2272 
Q 3928 3194 3547 3731 
Q 3359 4000 3079 4162 
Q 2800 4325 2491 4325 
Q 2178 4325 1897 4162 
Q 1616 4000 1428 3731 
Q 1278 3522 1195 3286 
Q 1113 3050 1078 2797 
Q 1044 2544 1044 2272 
Q 1044 1981 1076 1704 
Q 1109 1428 1198 1162 
Q 1288 897 1428 691 
z
" transform="scale(0.015625)"/>
     </defs>
     <use xlink:href="#Cmr10-45"/>
     <use xlink:href="#Cmr10-76" transform="translate(68.017578 0)"/>
     <use xlink:href="#Cmr10-61" transform="translate(120.703125 0)"/>
     <use xlink:href="#Cmr10-6c" transform="translate(170.703125 0)"/>
     <use xlink:href="#Cmr10-2e" transform="translate(198.388672 0)"/>
     <use xlink:href="#Cmr10-20" transform="translate(226.074219 0)"/>
     <use xlink:href="#Cmr10-72" transform="translate(259.375 0)"/>
     <use xlink:href="#Cmr10-65" transform="translate(298.486328 0)"/>
     <use xlink:href="#Cmr10-77" transform="translate(342.871094 0)"/>
     <use xlink:href="#Cmr10-61" transform="translate(415.087891 0)"/>
     <use xlink:href="#Cmr10-72" transform="translate(465.087891 0)"/>
     <use xlink:href="#Cmr10-64" transform="translate(504.199219 0)"/>
     <use xlink:href="#Cmr10-20" transform="translate(559.716797 0)"/>
     <use xlink:href="#Cmr10-76" transform="translate(593.017578 0)"/>
     <use xlink:href="#Cmr10-73" transform="translate(645.703125 0)"/>
     <use xlink:href="#Cmr10-2e" transform="translate(685.107422 0)"/>
     <use xlink:href="#Cmr10-20" transform="translate(712.792969 0)"/>
     <use xlink:href="#Cmr10-74" transform="translate(746.09375 0)"/>
     <use xlink:href="#Cmr10-69" transform="translate(784.912109 0)"/>
     <use xlink:href="#Cmr10-6d" transform="translate(812.597656 0)"/>
     <use xlink:href="#Cmr10-65" transform="translate(895.898438 0)"/>
     <use xlink:href="#Cmr10-73" transform="translate(940.283203 0)"/>
     <use xlink:href="#Cmr10-74" transform="translate(979.6875 0)"/>
     <use xlink:href="#Cmr10-65" transform="translate(1018.505859 0)"/>
     <use xlink:href="#Cmr10-70" transform="translate(1062.890625 0)"/>
     <use xlink:href="#Cmr10-20" transform="translate(1118.408203 0)"/>
     <use xlink:href="#Cmr10-6f" transform="translate(1151.708984 0)"/>
     <use xlink:href="#Cmr10-6e" transform="translate(1201.708984 0)"/>
     <use xlink:href="#Cmr10-20" transform="translate(1257.226562 0)"/>
     <use xlink:href="#Cmr10-43" transform="translate(1290.527344 0)"/>
     <use xlink:href="#Cmr10-61" transform="translate(1362.744141 0)"/>
     <use xlink:href="#Cmr10-72" transform="translate(1412.744141 0)"/>
     <use xlink:href="#Cmr10-74" transform="translate(1451.855469 0)"/>
     <use xlink:href="#Cmr10-50" transform="translate(1490.673828 0)"/>
     <use xlink:href="#Cmr10-6f" transform="translate(1558.691406 0)"/>
     <use xlink:href="#Cmr10-6c" transform="translate(1608.691406 0)"/>
     <use xlink:href="#Cmr10-65" transform="translate(1636.376953 0)"/>
     <use xlink:href="#Cmr10-2d" transform="translate(1680.761719 0)"/>
     <use xlink:href="#Cmr10-76" transform="translate(1714.0625 0)"/>
     <use xlink:href="#Cmr10-31" transform="translate(1766.748047 0)"/>
     <use xlink:href="#Cmr10-20" transform="translate(1816.748047 0)"/>
     <use xlink:href="#Cmr10-28" transform="translate(1850.048828 0)"/>
     <use xlink:href="#Cmr10-33" transform="translate(1888.867188 0)"/>
     <use xlink:href="#Cmr10-20" transform="translate(1938.867188 0)"/>
     <use xlink:href="#Cmr10-73" transform="translate(1972.167969 0)"/>
     <use xlink:href="#Cmr10-65" transform="translate(2011.572266 0)"/>
     <use xlink:href="#Cmr10-65" transform="translate(2055.957031 0)"/>
     <use xlink:href="#Cmr10-64" transform="translate(2100.341797 0)"/>
     <use xlink:href="#Cmr10-73" transform="translate(2155.859375 0)"/>
     <use xlink:href="#Cmr10-20" transform="translate(2195.263672 0)"/>
     <use xlink:href="#Cmr10-61" transform="translate(2228.564453 0)"/>
     <use xlink:href="#Cmr10-76" transform="translate(2278.564453 0)"/>
     <use xlink:href="#Cmr10-67" transform="translate(2331.25 0)"/>
     <use xlink:href="#Cmr10-2e" transform="translate(2381.25 0)"/>
     <use xlink:href="#Cmr10-29" transform="translate(2408.935547 0)"/>
     <use xlink:href="#Cmr10-20" transform="translate(2447.753906 0)"/>
     <use xlink:href="#Cmr10-66" transform="translate(2481.054688 0)"/>
     <use xlink:href="#Cmr10-6f" transform="translate(2511.572266 0)"/>
     <use xlink:href="#Cmr10-72" transform="translate(2561.572266 0)"/>
     <use xlink:href="#Cmr10-20" transform="translate(2600.683594 0)"/>
     <use xlink:href="#Cmr10-50" transform="translate(2633.984375 0)"/>
     <use xlink:href="#Cmr10-50" transform="translate(2702.001953 0)"/>
     <use xlink:href="#Cmr10-4f" transform="translate(2770.019531 0)"/>
    </g>
   </g>
   <g id="legend_1">
    <g id="line2d_128">
     <path d="M 210.627656 198.380625 
L 220.627656 198.380625 
L 230.627656 198.380625 
" style="fill: none; stroke: #0c5da5; stroke-linecap: square"/>
    </g>
    <g id="text_16">
     <!-- PPO (entropy 0.01) -->
     <g transform="translate(238.627656 201.880625) scale(0.1 -0.1)">
      <defs>
       <path id="Cmr10-79" d="M 441 -1050 
Q 563 -1147 709 -1147 
Q 1113 -1147 1369 -538 
L 1588 0 
L 628 2350 
Q 569 2469 447 2501 
Q 325 2534 122 2534 
L 122 2759 
L 1466 2759 
L 1466 2534 
Q 1113 2534 1113 2381 
Q 1113 2356 1119 2344 
L 1831 594 
L 2472 2169 
Q 2491 2219 2491 2278 
Q 2491 2356 2448 2414 
Q 2406 2472 2339 2503 
Q 2272 2534 2188 2534 
L 2188 2759 
L 3250 2759 
L 3250 2534 
Q 3053 2534 2904 2443 
Q 2756 2353 2675 2175 
L 1569 -538 
Q 1481 -744 1364 -917 
Q 1247 -1091 1078 -1202 
Q 909 -1313 709 -1313 
Q 475 -1313 298 -1158 
Q 122 -1003 122 -775 
Q 122 -656 203 -575 
Q 284 -494 403 -494 
Q 484 -494 548 -530 
Q 613 -566 648 -628 
Q 684 -691 684 -775 
Q 684 -878 615 -959 
Q 547 -1041 441 -1050 
z
" transform="scale(0.015625)"/>
      </defs>
      <use xlink:href="#Cmr10-50"/>
      <use xlink:href="#Cmr10-50" transform="translate(68.017578 0)"/>
      <use xlink:href="#Cmr10-4f" transform="translate(136.035156 0)"/>
      <use xlink:href="#Cmr10-20" transform="translate(213.720703 0)"/>
      <use xlink:href="#Cmr10-28" transform="translate(247.021484 0)"/>
      <use xlink:href="#Cmr10-65" transform="translate(285.839844 0)"/>
      <use xlink:href="#Cmr10-6e" transform="translate(330.224609 0)"/>
      <use xlink:href="#Cmr10-74" transform="translate(385.742188 0)"/>
      <use xlink:href="#Cmr10-72" transform="translate(424.560547 0)"/>
      <use xlink:href="#Cmr10-6f" transform="translate(463.671875 0)"/>
      <use xlink:href="#Cmr10-70" transform="translate(513.671875 0)"/>
      <use xlink:href="#Cmr10-79" transform="translate(569.189453 0)"/>
      <use xlink:href="#Cmr10-20" transform="translate(621.875 0)"/>
      <use xlink:href="#Cmr10-30" transform="translate(655.175781 0)"/>
      <use xlink:href="#Cmr10-2e" transform="translate(705.175781 0)"/>
      <use xlink:href="#Cmr10-30" transform="translate(732.861328 0)"/>
      <use xlink:href="#Cmr10-31" transform="translate(782.861328 0)"/>
      <use xlink:href="#Cmr10-29" transform="translate(832.861328 0)"/>
     </g>
    </g>
    <g id="line2d_129">
     <path d="M 210.627656 213.380625 
L 220.627656 213.380625 
L 230.627656 213.380625 
" style="fill: none; stroke: #00b945; stroke-linecap: square"/>
    </g>
    <g id="text_17">
     <!-- PPO (entropy 0.05) -->
     <g transform="translate(238.627656 216.880625) scale(0.1 -0.1)">
      <use xlink:href="#Cmr10-50"/>
      <use xlink:href="#Cmr10-50" transform="translate(68.017578 0)"/>
      <use xlink:href="#Cmr10-4f" transform="translate(136.035156 0)"/>
      <use xlink:href="#Cmr10-20" transform="translate(213.720703 0)"/>
      <use xlink:href="#Cmr10-28" transform="translate(247.021484 0)"/>
      <use xlink:href="#Cmr10-65" transform="translate(285.839844 0)"/>
      <use xlink:href="#Cmr10-6e" transform="translate(330.224609 0)"/>
      <use xlink:href="#Cmr10-74" transform="translate(385.742188 0)"/>
      <use xlink:href="#Cmr10-72" transform="translate(424.560547 0)"/>
      <use xlink:href="#Cmr10-6f" transform="translate(463.671875 0)"/>
      <use xlink:href="#Cmr10-70" transform="translate(513.671875 0)"/>
      <use xlink:href="#Cmr10-79" transform="translate(569.189453 0)"/>
      <use xlink:href="#Cmr10-20" transform="translate(621.875 0)"/>
      <use xlink:href="#Cmr10-30" transform="translate(655.175781 0)"/>
      <use xlink:href="#Cmr10-2e" transform="translate(705.175781 0)"/>
      <use xlink:href="#Cmr10-30" transform="translate(732.861328 0)"/>
      <use xlink:href="#Cmr10-35" transform="translate(782.861328 0)"/>
      <use xlink:href="#Cmr10-29" transform="translate(832.861328 0)"/>
     </g>
    </g>
    <g id="line2d_130">
     <path d="M 210.627656 228.380625 
L 220.627656 228.380625 
L 230.627656 228.380625 
" style="fill: none; stroke: #ff9500; stroke-linecap: square"/>
    </g>
    <g id="text_18">
     <!-- PPO (entropy 0.001) -->
     <g transform="translate(238.627656 231.880625) scale(0.1 -0.1)">
      <use xlink:href="#Cmr10-50"/>
      <use xlink:href="#Cmr10-50" transform="translate(68.017578 0)"/>
      <use xlink:href="#Cmr10-4f" transform="translate(136.035156 0)"/>
      <use xlink:href="#Cmr10-20" transform="translate(213.720703 0)"/>
      <use xlink:href="#Cmr10-28" transform="translate(247.021484 0)"/>
      <use xlink:href="#Cmr10-65" transform="translate(285.839844 0)"/>
      <use xlink:href="#Cmr10-6e" transform="translate(330.224609 0)"/>
      <use xlink:href="#Cmr10-74" transform="translate(385.742188 0)"/>
      <use xlink:href="#Cmr10-72" transform="translate(424.560547 0)"/>
      <use xlink:href="#Cmr10-6f" transform="translate(463.671875 0)"/>
      <use xlink:href="#Cmr10-70" transform="translate(513.671875 0)"/>
      <use xlink:href="#Cmr10-79" transform="translate(569.189453 0)"/>
      <use xlink:href="#Cmr10-20" transform="translate(621.875 0)"/>
      <use xlink:href="#Cmr10-30" transform="translate(655.175781 0)"/>
      <use xlink:href="#Cmr10-2e" transform="translate(705.175781 0)"/>
      <use xlink:href="#Cmr10-30" transform="translate(732.861328 0)"/>
      <use xlink:href="#Cmr10-30" transform="translate(782.861328 0)"/>
      <use xlink:href="#Cmr10-31" transform="translate(832.861328 0)"/>
      <use xlink:href="#Cmr10-29" transform="translate(882.861328 0)"/>
     </g>
    </g>
   </g>
  </g>
 </g>
 <defs>
  <clipPath id="p62caf61033">
   <rect x="36.1" y="18.6" width="303.693281" height="224.780625"/>
  </clipPath>
 </defs>
</svg>
