<?xml version="1.0" encoding="utf-8" standalone="no"?>
<!DOCTYPE svg PUBLIC "-//W3C//DTD SVG 1.1//EN"
  "http://www.w3.org/Graphics/SVG/1.1/DTD/svg11.dtd">
<svg xmlns:xlink="http://www.w3.org/1999/xlink" width="343.424849pt" height="272.4pt" viewBox="0 0 343.424849 272.4" xmlns="http://www.w3.org/2000/svg" version="1.1">
 <metadata>
  <rdf:RDF xmlns:dc="http://purl.org/dc/elements/1.1/" xmlns:cc="http://creativecommons.org/ns#" xmlns:rdf="http://www.w3.org/1999/02/22-rdf-syntax-ns#">
   <cc:Work>
    <dc:type rdf:resource="http://purl.org/dc/dcmitype/StillImage"/>
    <dc:date>2025-05-30T23:38:55.994543</dc:date>
    <dc:format>image/svg+xml</dc:format>
    <dc:creator>
     <cc:Agent>
      <dc:title>Matplotlib v3.10.3, https://matplotlib.org/</dc:title>
     </cc:Agent>
    </dc:creator>
   </cc:Work>
  </rdf:RDF>
 </metadata>
 <defs>
  <style type="text/css">*{stroke-linejoin: round; stroke-linecap: butt}</style>
 </defs>
 <g id="figure_1">
  <g id="patch_1">
   <path d="M 0 272.4 
L 343.424849 272.4 
L 343.424849 0 
L 0 0 
z
" style="fill: #ffffff"/>
  </g>
  <g id="axes_1">
   <g id="patch_2">
    <path d="M 43.9 243.54375 
L 339.824849 243.54375 
L 339.824849 3.6 
L 43.9 3.6 
z
" style="fill: #ffffff"/>
   </g>
   <g id="FillBetweenPolyCollection_1">
    <path d="M 57.351129 199.614967 
L 57.351129 232.637216 
L 58.602397 228.31561 
L 59.853665 221.814009 
L 61.104933 214.705357 
L 62.356201 194.637736 
L 63.607469 189.138016 
L 64.858737 165.836244 
L 66.110004 143.826517 
L 67.361272 140.58326 
L 68.61254 132.992196 
L 69.863808 131.281538 
L 71.115076 130.94618 
L 72.366344 132.043999 
L 73.617612 132.017079 
L 74.86888 127.749357 
L 76.120147 136.314121 
L 77.371415 135.262614 
L 78.622683 131.936651 
L 79.873951 130.877634 
L 81.125219 131.588235 
L 82.376487 121.148525 
L 83.627755 120.756103 
L 84.879022 116.364637 
L 86.13029 118.05509 
L 87.381558 109.055025 
L 88.632826 108.333353 
L 89.884094 107.928734 
L 91.135362 112.441989 
L 92.38663 112.409421 
L 93.637897 113.034199 
L 94.889165 108.933534 
L 96.140433 109.114603 
L 97.391701 105.020525 
L 98.642969 105.269625 
L 99.894237 99.163414 
L 101.145505 87.936729 
L 102.396772 88.137879 
L 103.64804 82.746593 
L 104.899308 81.945141 
L 106.150576 88.117948 
L 107.401844 81.948211 
L 108.653112 77.102928 
L 109.90438 76.931507 
L 111.155647 76.440084 
L 112.406915 64.090887 
L 113.658183 63.17034 
L 114.909451 61.08417 
L 116.160719 63.538874 
L 117.411987 63.561369 
L 118.663255 65.811032 
L 119.914522 66.406113 
L 121.16579 65.85463 
L 122.417058 62.385996 
L 123.668326 66.624448 
L 124.919594 59.376783 
L 126.170862 61.638467 
L 127.42213 61.504454 
L 128.673397 68.098266 
L 129.924665 64.118208 
L 131.175933 65.60759 
L 132.427201 65.411946 
L 133.678469 65.762365 
L 134.929737 60.837527 
L 136.181005 61.63394 
L 137.432272 68.265628 
L 138.68354 75.632438 
L 139.934808 76.712014 
L 141.186076 75.831744 
L 142.437344 75.247015 
L 143.688612 67.843681 
L 144.93988 52.630605 
L 146.191147 64.560723 
L 147.442415 63.396202 
L 148.693683 61.216466 
L 149.944951 60.321663 
L 151.196219 60.499094 
L 152.447487 43.75657 
L 153.698755 38.039287 
L 154.950022 37.926517 
L 156.20129 37.192591 
L 157.452558 33.268845 
L 158.703826 31.878523 
L 159.955094 21.743449 
L 161.206362 21.13016 
L 162.45763 24.106075 
L 163.708897 25.510199 
L 164.960165 25.886281 
L 166.211433 26.820879 
L 167.462701 26.384365 
L 168.713969 24.850876 
L 169.965237 25.678108 
L 171.216505 27.79776 
L 172.467773 26.709538 
L 173.71904 26.68956 
L 174.970308 28.630816 
L 176.221576 27.742337 
L 176.221576 19.232403 
L 176.221576 19.232403 
L 174.970308 19.898543 
L 173.71904 18.140878 
L 172.467773 18.281722 
L 171.216505 19.927486 
L 169.965237 19.473975 
L 168.713969 19.497094 
L 167.462701 21.126451 
L 166.211433 19.51057 
L 164.960165 19.051372 
L 163.708897 16.907899 
L 162.45763 16.006899 
L 161.206362 16.409651 
L 159.955094 17.458197 
L 158.703826 14.506534 
L 157.452558 17.404815 
L 156.20129 20.771697 
L 154.950022 23.897513 
L 153.698755 28.394993 
L 152.447487 26.912706 
L 151.196219 28.664786 
L 149.944951 28.091711 
L 148.693683 31.860765 
L 147.442415 37.72216 
L 146.191147 38.541119 
L 144.93988 34.978656 
L 143.688612 37.348855 
L 142.437344 42.972155 
L 141.186076 44.102868 
L 139.934808 45.259684 
L 138.68354 49.770144 
L 137.432272 48.077279 
L 136.181005 48.758528 
L 134.929737 47.893108 
L 133.678469 47.149658 
L 132.427201 49.483557 
L 131.175933 49.716772 
L 129.924665 44.612426 
L 128.673397 46.421983 
L 127.42213 44.867448 
L 126.170862 45.376726 
L 124.919594 41.419935 
L 123.668326 45.000994 
L 122.417058 43.825084 
L 121.16579 45.60999 
L 119.914522 47.041986 
L 118.663255 51.550417 
L 117.411987 51.977424 
L 116.160719 51.785488 
L 114.909451 51.23817 
L 113.658183 52.42206 
L 112.406915 55.200434 
L 111.155647 51.803698 
L 109.90438 46.112342 
L 108.653112 46.423389 
L 107.401844 48.225442 
L 106.150576 51.544241 
L 104.899308 49.997561 
L 103.64804 46.837378 
L 102.396772 50.934627 
L 101.145505 50.86774 
L 99.894237 49.933703 
L 98.642969 54.227357 
L 97.391701 81.226623 
L 96.140433 86.889118 
L 94.889165 87.552656 
L 93.637897 86.990088 
L 92.38663 83.004618 
L 91.135362 83.025657 
L 89.884094 74.941139 
L 88.632826 76.573607 
L 87.381558 76.388009 
L 86.13029 81.647553 
L 84.879022 79.317439 
L 83.627755 90.847415 
L 82.376487 99.782706 
L 81.125219 98.134634 
L 79.873951 97.612261 
L 78.622683 108.23969 
L 77.371415 111.293025 
L 76.120147 117.800182 
L 74.86888 117.037233 
L 73.617612 120.328175 
L 72.366344 119.765179 
L 71.115076 119.361987 
L 69.863808 119.509096 
L 68.61254 111.258318 
L 67.361272 109.939337 
L 66.110004 113.182593 
L 64.858737 113.473606 
L 63.607469 119.54877 
L 62.356201 146.159971 
L 61.104933 155.790931 
L 59.853665 184.438513 
L 58.602397 194.823289 
L 57.351129 199.614967 
z
" clip-path="url(#pc5ae78fcd0)" style="fill: #0c5da5; fill-opacity: 0.2"/>
   </g>
   <g id="FillBetweenPolyCollection_2">
    <path d="M 57.351129 224.381654 
L 57.351129 224.381654 
L 58.602397 224.381654 
L 59.853665 224.381654 
L 61.104933 224.381654 
L 62.356201 224.381654 
L 63.607469 224.381654 
L 64.858737 224.381654 
L 66.110004 224.381654 
L 67.361272 224.381654 
L 68.61254 224.381654 
L 69.863808 224.381654 
L 71.115076 224.381654 
L 72.366344 224.381654 
L 73.617612 224.381654 
L 74.86888 224.381654 
L 76.120147 224.381654 
L 77.371415 224.381654 
L 78.622683 224.381654 
L 79.873951 224.381654 
L 81.125219 224.381654 
L 82.376487 224.381654 
L 83.627755 225.614627 
L 84.879022 225.614627 
L 86.13029 225.614627 
L 87.381558 225.614627 
L 88.632826 225.614627 
L 89.884094 224.381654 
L 91.135362 224.381654 
L 92.38663 224.381654 
L 93.637897 226.579563 
L 94.889165 226.579563 
L 96.140433 225.369591 
L 97.391701 225.369591 
L 98.642969 225.369591 
L 99.894237 225.321488 
L 101.145505 225.836804 
L 102.396772 228.717291 
L 103.64804 225.054453 
L 104.899308 225.054453 
L 106.150576 227.862868 
L 107.401844 228.069063 
L 108.653112 219.835571 
L 109.90438 228.123666 
L 111.155647 220.025162 
L 112.406915 210.313068 
L 113.658183 213.581995 
L 114.909451 222.198194 
L 116.160719 222.198194 
L 117.411987 221.924304 
L 118.663255 224.460263 
L 119.914522 224.460263 
L 121.16579 216.468484 
L 122.417058 203.847925 
L 123.668326 216.017812 
L 124.919594 215.966395 
L 126.170862 217.65018 
L 127.42213 216.09537 
L 128.673397 214.832042 
L 129.924665 214.832042 
L 131.175933 214.448208 
L 132.427201 208.841678 
L 133.678469 201.594053 
L 134.929737 203.209816 
L 136.181005 181.5109 
L 137.432272 178.497859 
L 138.68354 179.013351 
L 139.934808 182.618515 
L 141.186076 175.151583 
L 142.437344 173.352494 
L 143.688612 176.692675 
L 144.93988 180.789457 
L 146.191147 174.887439 
L 147.442415 170.051207 
L 148.693683 154.86454 
L 149.944951 133.820046 
L 151.196219 135.315154 
L 152.447487 134.63629 
L 153.698755 149.261735 
L 154.950022 147.033687 
L 156.20129 140.249025 
L 157.452558 134.142133 
L 158.703826 141.266439 
L 159.955094 118.678173 
L 161.206362 121.872242 
L 162.45763 125.288011 
L 163.708897 127.641001 
L 164.960165 129.774164 
L 166.211433 138.7274 
L 167.462701 138.992593 
L 168.713969 135.571666 
L 169.965237 137.247656 
L 171.216505 127.833315 
L 172.467773 123.215211 
L 173.71904 122.662385 
L 174.970308 126.371681 
L 176.221576 137.974918 
L 177.472844 150.702195 
L 178.724112 147.014541 
L 179.97538 147.488399 
L 181.226648 149.191783 
L 182.477915 142.897819 
L 183.729183 136.821969 
L 184.980451 137.111028 
L 186.231719 139.215481 
L 187.482987 138.189317 
L 188.734255 159.470343 
L 189.985523 154.122521 
L 191.23679 154.240021 
L 192.488058 153.715035 
L 193.739326 148.383888 
L 194.990594 114.451546 
L 196.241862 106.675685 
L 197.49313 90.273592 
L 198.744398 88.471458 
L 199.995665 101.399622 
L 201.246933 105.158744 
L 202.498201 105.130564 
L 203.749469 105.097478 
L 205.000737 106.845903 
L 206.252005 104.498303 
L 207.503273 99.827917 
L 208.75454 98.589983 
L 210.005808 104.428857 
L 211.257076 103.602682 
L 212.508344 89.241908 
L 213.759612 87.065525 
L 215.01088 88.421161 
L 216.262148 90.406614 
L 217.513415 94.371152 
L 218.764683 92.687888 
L 220.015951 95.695355 
L 221.267219 92.745177 
L 222.518487 86.312271 
L 223.769755 97.827046 
L 225.021023 109.567758 
L 226.27229 110.767705 
L 227.523558 111.845512 
L 228.774826 111.272067 
L 230.026094 95.927983 
L 231.277362 96.848929 
L 232.52863 101.574326 
L 233.779898 103.539049 
L 235.031165 107.44219 
L 236.282433 107.519927 
L 237.533701 92.732019 
L 238.784969 106.166033 
L 240.036237 98.65701 
L 241.287505 92.150997 
L 242.538773 91.481212 
L 243.79004 96.858009 
L 245.041308 80.788664 
L 246.292576 80.925277 
L 247.543844 83.413061 
L 248.795112 99.504271 
L 250.04638 100.039522 
L 251.297648 105.098531 
L 252.548915 123.618957 
L 253.800183 124.148661 
L 255.051451 119.813089 
L 256.302719 119.366286 
L 257.553987 112.125638 
L 258.805255 98.237661 
L 260.056523 97.790808 
L 261.30779 94.417029 
L 262.559058 99.964831 
L 263.810326 100.06358 
L 265.061594 81.459695 
L 266.312862 81.517998 
L 267.56413 100.799768 
L 268.815398 95.144905 
L 270.066665 102.666906 
L 271.317933 101.918479 
L 272.569201 104.134177 
L 273.820469 83.785148 
L 275.071737 83.746573 
L 276.323005 68.10168 
L 277.574273 69.20383 
L 278.825541 60.504122 
L 280.076808 80.877261 
L 281.328076 77.994626 
L 282.579344 77.196539 
L 283.830612 89.499188 
L 285.08188 95.922739 
L 286.333148 86.080749 
L 287.584416 110.734743 
L 288.835683 109.531505 
L 290.086951 106.022245 
L 291.338219 102.068348 
L 292.589487 99.875732 
L 293.840755 62.77999 
L 295.092023 58.26363 
L 296.343291 52.674385 
L 297.594558 53.491483 
L 298.845826 59.168503 
L 300.097094 59.862248 
L 301.348362 58.674206 
L 302.59963 64.618174 
L 303.850898 62.502228 
L 305.102166 59.088033 
L 306.353433 73.39766 
L 307.604701 79.008694 
L 308.855969 80.369535 
L 310.107237 89.486586 
L 311.358505 91.337541 
L 312.609773 87.3199 
L 313.861041 93.685813 
L 315.112308 92.422381 
L 316.363576 80.88647 
L 317.614844 81.144443 
L 318.866112 97.951783 
L 320.11738 93.704724 
L 321.368648 98.944011 
L 322.619916 100.362745 
L 323.871183 100.332586 
L 325.122451 90.355364 
L 326.373719 89.67882 
L 326.373719 49.447294 
L 326.373719 49.447294 
L 325.122451 66.354025 
L 323.871183 65.114834 
L 322.619916 64.977459 
L 321.368648 52.994306 
L 320.11738 47.994552 
L 318.866112 48.893818 
L 317.614844 48.81478 
L 316.363576 43.0151 
L 315.112308 50.777907 
L 313.861041 53.267002 
L 312.609773 52.074252 
L 311.358505 54.382301 
L 310.107237 61.433188 
L 308.855969 48.839182 
L 307.604701 48.002114 
L 306.353433 43.159677 
L 305.102166 36.508753 
L 303.850898 37.007908 
L 302.59963 40.735185 
L 301.348362 37.190617 
L 300.097094 37.878839 
L 298.845826 44.415807 
L 297.594558 40.711506 
L 296.343291 40.778098 
L 295.092023 43.229986 
L 293.840755 43.484698 
L 292.589487 38.928736 
L 291.338219 48.797819 
L 290.086951 57.495303 
L 288.835683 65.40445 
L 287.584416 54.712676 
L 286.333148 45.27227 
L 285.08188 47.116725 
L 283.830612 41.21054 
L 282.579344 29.550616 
L 281.328076 31.325692 
L 280.076808 35.78729 
L 278.825541 39.166837 
L 277.574273 39.151552 
L 276.323005 45.131988 
L 275.071737 47.9817 
L 273.820469 48.050339 
L 272.569201 52.146352 
L 271.317933 47.607499 
L 270.066665 57.955834 
L 268.815398 47.4657 
L 267.56413 52.800383 
L 266.312862 54.874131 
L 265.061594 54.503573 
L 263.810326 53.751002 
L 262.559058 58.299177 
L 261.30779 49.051296 
L 260.056523 50.770235 
L 258.805255 52.628506 
L 257.553987 48.657925 
L 256.302719 57.713971 
L 255.051451 68.310323 
L 253.800183 72.28392 
L 252.548915 77.638304 
L 251.297648 54.934526 
L 250.04638 53.77506 
L 248.795112 53.291767 
L 247.543844 41.721482 
L 246.292576 40.831992 
L 245.041308 45.525246 
L 243.79004 42.000067 
L 242.538773 32.795612 
L 241.287505 36.307215 
L 240.036237 38.968093 
L 238.784969 48.7207 
L 237.533701 49.074472 
L 236.282433 64.574828 
L 235.031165 64.866996 
L 233.779898 55.475465 
L 232.52863 54.545381 
L 231.277362 38.524657 
L 230.026094 38.748704 
L 228.774826 48.278522 
L 227.523558 50.867923 
L 226.27229 49.801428 
L 225.021023 70.675344 
L 223.769755 65.851324 
L 222.518487 68.949714 
L 221.267219 75.38262 
L 220.015951 58.762517 
L 218.764683 54.908218 
L 217.513415 56.280585 
L 216.262148 55.152406 
L 215.01088 55.422417 
L 213.759612 68.946967 
L 212.508344 60.391285 
L 211.257076 59.914866 
L 210.005808 60.911348 
L 208.75454 51.632893 
L 207.503273 52.700083 
L 206.252005 65.559366 
L 205.000737 65.034422 
L 203.749469 52.362417 
L 202.498201 52.919014 
L 201.246933 52.944442 
L 199.995665 50.913948 
L 198.744398 53.763893 
L 197.49313 65.738899 
L 196.241862 74.961214 
L 194.990594 80.426417 
L 193.739326 84.769864 
L 192.488058 93.751932 
L 191.23679 111.989587 
L 189.985523 101.707223 
L 188.734255 108.20667 
L 187.482987 104.345755 
L 186.231719 104.606173 
L 184.980451 102.958097 
L 183.729183 104.48013 
L 182.477915 103.228959 
L 181.226648 109.371946 
L 179.97538 107.80527 
L 178.724112 97.021543 
L 177.472844 107.057421 
L 176.221576 90.354154 
L 174.970308 87.697783 
L 173.71904 87.172084 
L 172.467773 78.524518 
L 171.216505 77.658942 
L 169.965237 88.079394 
L 168.713969 82.679188 
L 167.462701 84.190155 
L 166.211433 102.681914 
L 164.960165 99.948705 
L 163.708897 99.937566 
L 162.45763 109.527575 
L 161.206362 98.040446 
L 159.955094 89.869715 
L 158.703826 86.848203 
L 157.452558 70.921264 
L 156.20129 73.552402 
L 154.950022 81.456208 
L 153.698755 89.091949 
L 152.447487 89.350571 
L 151.196219 117.351745 
L 149.944951 109.358317 
L 148.693683 106.75482 
L 147.442415 116.334839 
L 146.191147 123.935559 
L 144.93988 129.130303 
L 143.688612 142.233153 
L 142.437344 141.177514 
L 141.186076 141.093868 
L 139.934808 143.919584 
L 138.68354 137.553744 
L 137.432272 140.427969 
L 136.181005 141.917961 
L 134.929737 138.767256 
L 133.678469 137.809857 
L 132.427201 149.86095 
L 131.175933 174.757114 
L 129.924665 170.781575 
L 128.673397 170.781575 
L 127.42213 175.200646 
L 126.170862 176.969504 
L 124.919594 176.401773 
L 123.668326 176.189533 
L 122.417058 175.654432 
L 121.16579 176.971834 
L 119.914522 179.004667 
L 118.663255 179.004667 
L 117.411987 194.674475 
L 116.160719 192.202675 
L 114.909451 192.202675 
L 113.658183 184.039712 
L 112.406915 178.999469 
L 111.155647 180.54496 
L 109.90438 187.349355 
L 108.653112 179.340755 
L 107.401844 187.886425 
L 106.150576 191.684326 
L 104.899308 191.061857 
L 103.64804 191.061857 
L 102.396772 203.695714 
L 101.145505 202.180382 
L 99.894237 215.615117 
L 98.642969 214.602078 
L 97.391701 214.602078 
L 96.140433 214.602078 
L 94.889165 217.787925 
L 93.637897 217.787925 
L 92.38663 224.381654 
L 91.135362 224.381654 
L 89.884094 224.381654 
L 88.632826 220.682733 
L 87.381558 220.682733 
L 86.13029 220.682733 
L 84.879022 220.682733 
L 83.627755 220.682733 
L 82.376487 224.381654 
L 81.125219 224.381654 
L 79.873951 224.381654 
L 78.622683 224.381654 
L 77.371415 224.381654 
L 76.120147 224.381654 
L 74.86888 224.381654 
L 73.617612 224.381654 
L 72.366344 224.381654 
L 71.115076 224.381654 
L 69.863808 224.381654 
L 68.61254 224.381654 
L 67.361272 224.381654 
L 66.110004 224.381654 
L 64.858737 224.381654 
L 63.607469 224.381654 
L 62.356201 224.381654 
L 61.104933 224.381654 
L 59.853665 224.381654 
L 58.602397 224.381654 
L 57.351129 224.381654 
z
" clip-path="url(#pc5ae78fcd0)" style="fill: #00b945; fill-opacity: 0.2"/>
   </g>
   <g id="matplotlib.axis_1">
    <g id="xtick_1">
     <g id="line2d_1">
      <path d="M 57.351129 243.54375 
L 57.351129 3.6 
" clip-path="url(#pc5ae78fcd0)" style="fill: none; stroke: #b0b0b0; stroke-width: 0.5; stroke-linecap: square"/>
     </g>
     <g id="line2d_2">
      <defs>
       <path id="mf0ce084789" d="M 0 0 
L 0 -3 
" style="stroke: #000000; stroke-width: 0.5"/>
      </defs>
      <g>
       <use xlink:href="#mf0ce084789" x="57.351129" y="243.54375" style="stroke: #000000; stroke-width: 0.5"/>
      </g>
     </g>
     <g id="line2d_3">
      <defs>
       <path id="m0966f13520" d="M 0 0 
L 0 3 
" style="stroke: #000000; stroke-width: 0.5"/>
      </defs>
      <g>
       <use xlink:href="#m0966f13520" x="57.351129" y="3.6" style="stroke: #000000; stroke-width: 0.5"/>
      </g>
     </g>
     <g id="text_1">
      <!-- $\mathdefault{0}$ -->
      <g transform="translate(54.851129 253.982813) scale(0.1 -0.1)">
       <defs>
        <path id="Cmr10-30" d="M 1600 -141 
Q 816 -141 533 504 
Q 250 1150 250 2041 
Q 250 2597 351 3087 
Q 453 3578 754 3920 
Q 1056 4263 1600 4263 
Q 2022 4263 2290 4056 
Q 2559 3850 2700 3523 
Q 2841 3197 2892 2823 
Q 2944 2450 2944 2041 
Q 2944 1491 2842 1011 
Q 2741 531 2444 195 
Q 2147 -141 1600 -141 
z
M 1600 25 
Q 1956 25 2131 390 
Q 2306 756 2347 1200 
Q 2388 1644 2388 2144 
Q 2388 2625 2347 3031 
Q 2306 3438 2132 3767 
Q 1959 4097 1600 4097 
Q 1238 4097 1063 3765 
Q 888 3434 847 3029 
Q 806 2625 806 2144 
Q 806 1788 823 1472 
Q 841 1156 916 820 
Q 991 484 1158 254 
Q 1325 25 1600 25 
z
" transform="scale(0.015625)"/>
       </defs>
       <use xlink:href="#Cmr10-30" transform="translate(0 0.390625)"/>
      </g>
     </g>
    </g>
    <g id="xtick_2">
     <g id="line2d_4">
      <path d="M 119.914522 243.54375 
L 119.914522 3.6 
" clip-path="url(#pc5ae78fcd0)" style="fill: none; stroke: #b0b0b0; stroke-width: 0.5; stroke-linecap: square"/>
     </g>
     <g id="line2d_5">
      <g>
       <use xlink:href="#mf0ce084789" x="119.914522" y="243.54375" style="stroke: #000000; stroke-width: 0.5"/>
      </g>
     </g>
     <g id="line2d_6">
      <g>
       <use xlink:href="#m0966f13520" x="119.914522" y="3.6" style="stroke: #000000; stroke-width: 0.5"/>
      </g>
     </g>
     <g id="text_2">
      <!-- $\mathdefault{50000}$ -->
      <g transform="translate(107.414522 253.982813) scale(0.1 -0.1)">
       <defs>
        <path id="Cmr10-35" d="M 556 728 
Q 622 541 758 387 
Q 894 234 1080 148 
Q 1266 63 1466 63 
Q 1928 63 2103 422 
Q 2278 781 2278 1294 
Q 2278 1516 2270 1667 
Q 2263 1819 2228 1959 
Q 2169 2184 2020 2353 
Q 1872 2522 1656 2522 
Q 1441 2522 1286 2456 
Q 1131 2391 1034 2303 
Q 938 2216 863 2119 
Q 788 2022 769 2016 
L 697 2016 
Q 681 2016 657 2036 
Q 634 2056 634 2075 
L 634 4213 
Q 634 4228 654 4245 
Q 675 4263 697 4263 
L 716 4263 
Q 1147 4056 1631 4056 
Q 2106 4056 2547 4263 
L 2566 4263 
Q 2588 4263 2606 4247 
Q 2625 4231 2625 4213 
L 2625 4153 
Q 2625 4122 2613 4122 
Q 2394 3831 2064 3668 
Q 1734 3506 1381 3506 
Q 1125 3506 856 3578 
L 856 2369 
Q 1069 2541 1236 2614 
Q 1403 2688 1663 2688 
Q 2016 2688 2295 2484 
Q 2575 2281 2725 1954 
Q 2875 1628 2875 1288 
Q 2875 903 2686 575 
Q 2497 247 2172 53 
Q 1847 -141 1466 -141 
Q 1150 -141 886 21 
Q 622 184 470 459 
Q 319 734 319 1044 
Q 319 1188 412 1278 
Q 506 1369 647 1369 
Q 788 1369 883 1276 
Q 978 1184 978 1044 
Q 978 906 883 811 
Q 788 716 647 716 
Q 625 716 597 720 
Q 569 725 556 728 
z
" transform="scale(0.015625)"/>
       </defs>
       <use xlink:href="#Cmr10-35" transform="translate(0 0.390625)"/>
       <use xlink:href="#Cmr10-30" transform="translate(50 0.390625)"/>
       <use xlink:href="#Cmr10-30" transform="translate(100 0.390625)"/>
       <use xlink:href="#Cmr10-30" transform="translate(150 0.390625)"/>
       <use xlink:href="#Cmr10-30" transform="translate(200 0.390625)"/>
      </g>
     </g>
    </g>
    <g id="xtick_3">
     <g id="line2d_7">
      <path d="M 182.477915 243.54375 
L 182.477915 3.6 
" clip-path="url(#pc5ae78fcd0)" style="fill: none; stroke: #b0b0b0; stroke-width: 0.5; stroke-linecap: square"/>
     </g>
     <g id="line2d_8">
      <g>
       <use xlink:href="#mf0ce084789" x="182.477915" y="243.54375" style="stroke: #000000; stroke-width: 0.5"/>
      </g>
     </g>
     <g id="line2d_9">
      <g>
       <use xlink:href="#m0966f13520" x="182.477915" y="3.6" style="stroke: #000000; stroke-width: 0.5"/>
      </g>
     </g>
     <g id="text_3">
      <!-- $\mathdefault{100000}$ -->
      <g transform="translate(167.477915 253.982813) scale(0.1 -0.1)">
       <defs>
        <path id="Cmr10-31" d="M 594 0 
L 594 225 
Q 1394 225 1394 428 
L 1394 3788 
Q 1063 3628 556 3628 
L 556 3853 
Q 1341 3853 1741 4263 
L 1831 4263 
Q 1853 4263 1873 4245 
Q 1894 4228 1894 4206 
L 1894 428 
Q 1894 225 2694 225 
L 2694 0 
L 594 0 
z
" transform="scale(0.015625)"/>
       </defs>
       <use xlink:href="#Cmr10-31" transform="translate(0 0.390625)"/>
       <use xlink:href="#Cmr10-30" transform="translate(50 0.390625)"/>
       <use xlink:href="#Cmr10-30" transform="translate(100 0.390625)"/>
       <use xlink:href="#Cmr10-30" transform="translate(150 0.390625)"/>
       <use xlink:href="#Cmr10-30" transform="translate(200 0.390625)"/>
       <use xlink:href="#Cmr10-30" transform="translate(250 0.390625)"/>
      </g>
     </g>
    </g>
    <g id="xtick_4">
     <g id="line2d_10">
      <path d="M 245.041308 243.54375 
L 245.041308 3.6 
" clip-path="url(#pc5ae78fcd0)" style="fill: none; stroke: #b0b0b0; stroke-width: 0.5; stroke-linecap: square"/>
     </g>
     <g id="line2d_11">
      <g>
       <use xlink:href="#mf0ce084789" x="245.041308" y="243.54375" style="stroke: #000000; stroke-width: 0.5"/>
      </g>
     </g>
     <g id="line2d_12">
      <g>
       <use xlink:href="#m0966f13520" x="245.041308" y="3.6" style="stroke: #000000; stroke-width: 0.5"/>
      </g>
     </g>
     <g id="text_4">
      <!-- $\mathdefault{150000}$ -->
      <g transform="translate(230.041308 253.982813) scale(0.1 -0.1)">
       <use xlink:href="#Cmr10-31" transform="translate(0 0.390625)"/>
       <use xlink:href="#Cmr10-35" transform="translate(50 0.390625)"/>
       <use xlink:href="#Cmr10-30" transform="translate(100 0.390625)"/>
       <use xlink:href="#Cmr10-30" transform="translate(150 0.390625)"/>
       <use xlink:href="#Cmr10-30" transform="translate(200 0.390625)"/>
       <use xlink:href="#Cmr10-30" transform="translate(250 0.390625)"/>
      </g>
     </g>
    </g>
    <g id="xtick_5">
     <g id="line2d_13">
      <path d="M 307.604701 243.54375 
L 307.604701 3.6 
" clip-path="url(#pc5ae78fcd0)" style="fill: none; stroke: #b0b0b0; stroke-width: 0.5; stroke-linecap: square"/>
     </g>
     <g id="line2d_14">
      <g>
       <use xlink:href="#mf0ce084789" x="307.604701" y="243.54375" style="stroke: #000000; stroke-width: 0.5"/>
      </g>
     </g>
     <g id="line2d_15">
      <g>
       <use xlink:href="#m0966f13520" x="307.604701" y="3.6" style="stroke: #000000; stroke-width: 0.5"/>
      </g>
     </g>
     <g id="text_5">
      <!-- $\mathdefault{200000}$ -->
      <g transform="translate(292.604701 253.982813) scale(0.1 -0.1)">
       <defs>
        <path id="Cmr10-32" d="M 319 0 
L 319 172 
Q 319 188 331 206 
L 1325 1306 
Q 1550 1550 1690 1715 
Q 1831 1881 1968 2097 
Q 2106 2313 2186 2536 
Q 2266 2759 2266 3009 
Q 2266 3272 2169 3511 
Q 2072 3750 1880 3894 
Q 1688 4038 1416 4038 
Q 1138 4038 916 3870 
Q 694 3703 603 3438 
Q 628 3444 672 3444 
Q 816 3444 917 3347 
Q 1019 3250 1019 3097 
Q 1019 2950 917 2848 
Q 816 2747 672 2747 
Q 522 2747 420 2851 
Q 319 2956 319 3097 
Q 319 3338 409 3548 
Q 500 3759 670 3923 
Q 841 4088 1055 4175 
Q 1269 4263 1509 4263 
Q 1875 4263 2190 4108 
Q 2506 3953 2690 3670 
Q 2875 3388 2875 3009 
Q 2875 2731 2753 2481 
Q 2631 2231 2440 2026 
Q 2250 1822 1953 1562 
Q 1656 1303 1563 1216 
L 838 519 
L 1453 519 
Q 1906 519 2211 526 
Q 2516 534 2534 550 
Q 2609 631 2688 1141 
L 2875 1141 
L 2694 0 
L 319 0 
z
" transform="scale(0.015625)"/>
       </defs>
       <use xlink:href="#Cmr10-32" transform="translate(0 0.390625)"/>
       <use xlink:href="#Cmr10-30" transform="translate(50 0.390625)"/>
       <use xlink:href="#Cmr10-30" transform="translate(100 0.390625)"/>
       <use xlink:href="#Cmr10-30" transform="translate(150 0.390625)"/>
       <use xlink:href="#Cmr10-30" transform="translate(200 0.390625)"/>
       <use xlink:href="#Cmr10-30" transform="translate(250 0.390625)"/>
      </g>
     </g>
    </g>
    <g id="xtick_6">
     <g id="line2d_16">
      <defs>
       <path id="m98a8bc37aa" d="M 0 0 
L 0 -1.5 
" style="stroke: #000000; stroke-width: 0.5"/>
      </defs>
      <g>
       <use xlink:href="#m98a8bc37aa" x="44.838451" y="243.54375" style="stroke: #000000; stroke-width: 0.5"/>
      </g>
     </g>
     <g id="line2d_17">
      <defs>
       <path id="m6fce6029d9" d="M 0 0 
L 0 1.5 
" style="stroke: #000000; stroke-width: 0.5"/>
      </defs>
      <g>
       <use xlink:href="#m6fce6029d9" x="44.838451" y="3.6" style="stroke: #000000; stroke-width: 0.5"/>
      </g>
     </g>
    </g>
    <g id="xtick_7">
     <g id="line2d_18">
      <g>
       <use xlink:href="#m98a8bc37aa" x="69.863808" y="243.54375" style="stroke: #000000; stroke-width: 0.5"/>
      </g>
     </g>
     <g id="line2d_19">
      <g>
       <use xlink:href="#m6fce6029d9" x="69.863808" y="3.6" style="stroke: #000000; stroke-width: 0.5"/>
      </g>
     </g>
    </g>
    <g id="xtick_8">
     <g id="line2d_20">
      <g>
       <use xlink:href="#m98a8bc37aa" x="82.376487" y="243.54375" style="stroke: #000000; stroke-width: 0.5"/>
      </g>
     </g>
     <g id="line2d_21">
      <g>
       <use xlink:href="#m6fce6029d9" x="82.376487" y="3.6" style="stroke: #000000; stroke-width: 0.5"/>
      </g>
     </g>
    </g>
    <g id="xtick_9">
     <g id="line2d_22">
      <g>
       <use xlink:href="#m98a8bc37aa" x="94.889165" y="243.54375" style="stroke: #000000; stroke-width: 0.5"/>
      </g>
     </g>
     <g id="line2d_23">
      <g>
       <use xlink:href="#m6fce6029d9" x="94.889165" y="3.6" style="stroke: #000000; stroke-width: 0.5"/>
      </g>
     </g>
    </g>
    <g id="xtick_10">
     <g id="line2d_24">
      <g>
       <use xlink:href="#m98a8bc37aa" x="107.401844" y="243.54375" style="stroke: #000000; stroke-width: 0.5"/>
      </g>
     </g>
     <g id="line2d_25">
      <g>
       <use xlink:href="#m6fce6029d9" x="107.401844" y="3.6" style="stroke: #000000; stroke-width: 0.5"/>
      </g>
     </g>
    </g>
    <g id="xtick_11">
     <g id="line2d_26">
      <g>
       <use xlink:href="#m98a8bc37aa" x="132.427201" y="243.54375" style="stroke: #000000; stroke-width: 0.5"/>
      </g>
     </g>
     <g id="line2d_27">
      <g>
       <use xlink:href="#m6fce6029d9" x="132.427201" y="3.6" style="stroke: #000000; stroke-width: 0.5"/>
      </g>
     </g>
    </g>
    <g id="xtick_12">
     <g id="line2d_28">
      <g>
       <use xlink:href="#m98a8bc37aa" x="144.93988" y="243.54375" style="stroke: #000000; stroke-width: 0.5"/>
      </g>
     </g>
     <g id="line2d_29">
      <g>
       <use xlink:href="#m6fce6029d9" x="144.93988" y="3.6" style="stroke: #000000; stroke-width: 0.5"/>
      </g>
     </g>
    </g>
    <g id="xtick_13">
     <g id="line2d_30">
      <g>
       <use xlink:href="#m98a8bc37aa" x="157.452558" y="243.54375" style="stroke: #000000; stroke-width: 0.5"/>
      </g>
     </g>
     <g id="line2d_31">
      <g>
       <use xlink:href="#m6fce6029d9" x="157.452558" y="3.6" style="stroke: #000000; stroke-width: 0.5"/>
      </g>
     </g>
    </g>
    <g id="xtick_14">
     <g id="line2d_32">
      <g>
       <use xlink:href="#m98a8bc37aa" x="169.965237" y="243.54375" style="stroke: #000000; stroke-width: 0.5"/>
      </g>
     </g>
     <g id="line2d_33">
      <g>
       <use xlink:href="#m6fce6029d9" x="169.965237" y="3.6" style="stroke: #000000; stroke-width: 0.5"/>
      </g>
     </g>
    </g>
    <g id="xtick_15">
     <g id="line2d_34">
      <g>
       <use xlink:href="#m98a8bc37aa" x="194.990594" y="243.54375" style="stroke: #000000; stroke-width: 0.5"/>
      </g>
     </g>
     <g id="line2d_35">
      <g>
       <use xlink:href="#m6fce6029d9" x="194.990594" y="3.6" style="stroke: #000000; stroke-width: 0.5"/>
      </g>
     </g>
    </g>
    <g id="xtick_16">
     <g id="line2d_36">
      <g>
       <use xlink:href="#m98a8bc37aa" x="207.503273" y="243.54375" style="stroke: #000000; stroke-width: 0.5"/>
      </g>
     </g>
     <g id="line2d_37">
      <g>
       <use xlink:href="#m6fce6029d9" x="207.503273" y="3.6" style="stroke: #000000; stroke-width: 0.5"/>
      </g>
     </g>
    </g>
    <g id="xtick_17">
     <g id="line2d_38">
      <g>
       <use xlink:href="#m98a8bc37aa" x="220.015951" y="243.54375" style="stroke: #000000; stroke-width: 0.5"/>
      </g>
     </g>
     <g id="line2d_39">
      <g>
       <use xlink:href="#m6fce6029d9" x="220.015951" y="3.6" style="stroke: #000000; stroke-width: 0.5"/>
      </g>
     </g>
    </g>
    <g id="xtick_18">
     <g id="line2d_40">
      <g>
       <use xlink:href="#m98a8bc37aa" x="232.52863" y="243.54375" style="stroke: #000000; stroke-width: 0.5"/>
      </g>
     </g>
     <g id="line2d_41">
      <g>
       <use xlink:href="#m6fce6029d9" x="232.52863" y="3.6" style="stroke: #000000; stroke-width: 0.5"/>
      </g>
     </g>
    </g>
    <g id="xtick_19">
     <g id="line2d_42">
      <g>
       <use xlink:href="#m98a8bc37aa" x="257.553987" y="243.54375" style="stroke: #000000; stroke-width: 0.5"/>
      </g>
     </g>
     <g id="line2d_43">
      <g>
       <use xlink:href="#m6fce6029d9" x="257.553987" y="3.6" style="stroke: #000000; stroke-width: 0.5"/>
      </g>
     </g>
    </g>
    <g id="xtick_20">
     <g id="line2d_44">
      <g>
       <use xlink:href="#m98a8bc37aa" x="270.066665" y="243.54375" style="stroke: #000000; stroke-width: 0.5"/>
      </g>
     </g>
     <g id="line2d_45">
      <g>
       <use xlink:href="#m6fce6029d9" x="270.066665" y="3.6" style="stroke: #000000; stroke-width: 0.5"/>
      </g>
     </g>
    </g>
    <g id="xtick_21">
     <g id="line2d_46">
      <g>
       <use xlink:href="#m98a8bc37aa" x="282.579344" y="243.54375" style="stroke: #000000; stroke-width: 0.5"/>
      </g>
     </g>
     <g id="line2d_47">
      <g>
       <use xlink:href="#m6fce6029d9" x="282.579344" y="3.6" style="stroke: #000000; stroke-width: 0.5"/>
      </g>
     </g>
    </g>
    <g id="xtick_22">
     <g id="line2d_48">
      <g>
       <use xlink:href="#m98a8bc37aa" x="295.092023" y="243.54375" style="stroke: #000000; stroke-width: 0.5"/>
      </g>
     </g>
     <g id="line2d_49">
      <g>
       <use xlink:href="#m6fce6029d9" x="295.092023" y="3.6" style="stroke: #000000; stroke-width: 0.5"/>
      </g>
     </g>
    </g>
    <g id="xtick_23">
     <g id="line2d_50">
      <g>
       <use xlink:href="#m98a8bc37aa" x="320.11738" y="243.54375" style="stroke: #000000; stroke-width: 0.5"/>
      </g>
     </g>
     <g id="line2d_51">
      <g>
       <use xlink:href="#m6fce6029d9" x="320.11738" y="3.6" style="stroke: #000000; stroke-width: 0.5"/>
      </g>
     </g>
    </g>
    <g id="xtick_24">
     <g id="line2d_52">
      <g>
       <use xlink:href="#m98a8bc37aa" x="332.630058" y="243.54375" style="stroke: #000000; stroke-width: 0.5"/>
      </g>
     </g>
     <g id="line2d_53">
      <g>
       <use xlink:href="#m6fce6029d9" x="332.630058" y="3.6" style="stroke: #000000; stroke-width: 0.5"/>
      </g>
     </g>
    </g>
    <g id="text_6">
     <!-- Timestep -->
     <g transform="translate(171.576487 266.860938) scale(0.1 -0.1)">
      <defs>
       <path id="Cmr10-54" d="M 1081 0 
L 1081 225 
Q 1403 225 1706 261 
Q 2009 297 2009 428 
L 2009 3944 
Q 2009 4081 1932 4114 
Q 1856 4147 1684 4147 
L 1416 4147 
Q 888 4147 666 3916 
Q 550 3800 500 3545 
Q 450 3291 416 2906 
L 231 2906 
L 353 4372 
L 4263 4372 
L 4384 2906 
L 4197 2906 
Q 4159 3319 4114 3561 
Q 4069 3803 3950 3916 
Q 3725 4147 3200 4147 
L 2931 4147 
Q 2816 4147 2752 4137 
Q 2688 4128 2647 4083 
Q 2606 4038 2606 3944 
L 2606 428 
Q 2606 297 2909 261 
Q 3213 225 3531 225 
L 3531 0 
L 1081 0 
z
" transform="scale(0.015625)"/>
       <path id="Cmr10-69" d="M 197 0 
L 197 225 
Q 416 225 556 259 
Q 697 294 697 428 
L 697 2175 
Q 697 2422 601 2478 
Q 506 2534 225 2534 
L 225 2759 
L 1147 2828 
L 1147 428 
Q 1147 294 1269 259 
Q 1391 225 1594 225 
L 1594 0 
L 197 0 
z
M 469 3928 
Q 469 4069 575 4175 
Q 681 4281 819 4281 
Q 909 4281 993 4234 
Q 1078 4188 1125 4103 
Q 1172 4019 1172 3928 
Q 1172 3791 1065 3684 
Q 959 3578 819 3578 
Q 681 3578 575 3684 
Q 469 3791 469 3928 
z
" transform="scale(0.015625)"/>
       <path id="Cmr10-6d" d="M 191 0 
L 191 225 
Q 409 225 550 259 
Q 691 294 691 428 
L 691 2175 
Q 691 2347 639 2423 
Q 588 2500 491 2517 
Q 394 2534 191 2534 
L 191 2759 
L 1119 2828 
L 1119 2203 
Q 1247 2478 1498 2653 
Q 1750 2828 2047 2828 
Q 2784 2828 2913 2228 
Q 3041 2497 3287 2662 
Q 3534 2828 3828 2828 
Q 4119 2828 4317 2734 
Q 4516 2641 4616 2448 
Q 4716 2256 4716 1966 
L 4716 428 
Q 4716 294 4858 259 
Q 5000 225 5216 225 
L 5216 0 
L 3750 0 
L 3750 225 
Q 3969 225 4109 259 
Q 4250 294 4250 428 
L 4250 1947 
Q 4250 2269 4159 2466 
Q 4069 2663 3788 2663 
Q 3419 2663 3178 2366 
Q 2938 2069 2938 1691 
L 2938 428 
Q 2938 294 3078 259 
Q 3219 225 3438 225 
L 3438 0 
L 1972 0 
L 1972 225 
Q 2191 225 2331 259 
Q 2472 294 2472 428 
L 2472 1947 
Q 2472 2259 2381 2461 
Q 2291 2663 2009 2663 
Q 1638 2663 1398 2366 
Q 1159 2069 1159 1691 
L 1159 428 
Q 1159 294 1300 259 
Q 1441 225 1656 225 
L 1656 0 
L 191 0 
z
" transform="scale(0.015625)"/>
       <path id="Cmr10-65" d="M 1594 -72 
Q 1203 -72 876 133 
Q 550 338 364 680 
Q 178 1022 178 1403 
Q 178 1778 348 2115 
Q 519 2453 823 2661 
Q 1128 2869 1503 2869 
Q 1797 2869 2014 2770 
Q 2231 2672 2372 2497 
Q 2513 2322 2584 2084 
Q 2656 1847 2656 1563 
Q 2656 1478 2591 1478 
L 738 1478 
L 738 1409 
Q 738 878 952 497 
Q 1166 116 1650 116 
Q 1847 116 2014 203 
Q 2181 291 2304 447 
Q 2428 603 2472 781 
Q 2478 803 2495 820 
Q 2513 838 2534 838 
L 2591 838 
Q 2656 838 2656 756 
Q 2566 394 2266 161 
Q 1966 -72 1594 -72 
z
M 744 1638 
L 2203 1638 
Q 2203 1878 2136 2125 
Q 2069 2372 1912 2536 
Q 1756 2700 1503 2700 
Q 1141 2700 942 2361 
Q 744 2022 744 1638 
z
" transform="scale(0.015625)"/>
       <path id="Cmr10-73" d="M 213 -19 
L 213 1025 
Q 213 1075 269 1075 
L 347 1075 
Q 384 1075 397 1025 
Q 575 97 1259 97 
Q 1563 97 1767 234 
Q 1972 372 1972 659 
Q 1972 866 1812 1011 
Q 1653 1156 1434 1209 
L 1006 1294 
Q 791 1341 614 1437 
Q 438 1534 325 1695 
Q 213 1856 213 2069 
Q 213 2350 361 2529 
Q 509 2709 746 2789 
Q 984 2869 1259 2869 
Q 1588 2869 1831 2694 
L 2016 2853 
Q 2016 2869 2047 2869 
L 2094 2869 
Q 2113 2869 2128 2851 
Q 2144 2834 2144 2816 
L 2144 1978 
Q 2144 1919 2094 1919 
L 2016 1919 
Q 1959 1919 1959 1978 
Q 1959 2313 1773 2516 
Q 1588 2719 1253 2719 
Q 966 2719 755 2612 
Q 544 2506 544 2247 
Q 544 2069 695 1955 
Q 847 1841 1050 1791 
L 1484 1709 
Q 1703 1659 1892 1540 
Q 2081 1422 2192 1240 
Q 2303 1059 2303 831 
Q 2303 600 2223 429 
Q 2144 259 2001 146 
Q 1859 34 1665 -19 
Q 1472 -72 1259 -72 
Q 859 -72 575 197 
L 341 -56 
Q 341 -72 306 -72 
L 269 -72 
Q 213 -72 213 -19 
z
" transform="scale(0.015625)"/>
       <path id="Cmr10-74" d="M 653 769 
L 653 2534 
L 122 2534 
L 122 2700 
Q 541 2700 737 3090 
Q 934 3481 934 3938 
L 1119 3938 
L 1119 2759 
L 2022 2759 
L 2022 2534 
L 1119 2534 
L 1119 781 
Q 1119 516 1208 316 
Q 1297 116 1528 116 
Q 1747 116 1844 327 
Q 1941 538 1941 781 
L 1941 1159 
L 2125 1159 
L 2125 769 
Q 2125 569 2051 373 
Q 1978 178 1834 53 
Q 1691 -72 1484 -72 
Q 1100 -72 876 158 
Q 653 388 653 769 
z
" transform="scale(0.015625)"/>
       <path id="Cmr10-70" d="M 166 -1241 
L 166 -1019 
Q 384 -1019 525 -981 
Q 666 -944 666 -813 
L 666 2272 
Q 666 2447 541 2490 
Q 416 2534 166 2534 
L 166 2759 
L 1113 2828 
L 1113 2431 
Q 1288 2625 1520 2726 
Q 1753 2828 2016 2828 
Q 2394 2828 2697 2623 
Q 3000 2419 3170 2086 
Q 3341 1753 3341 1381 
Q 3341 994 3152 659 
Q 2963 325 2636 126 
Q 2309 -72 1919 -72 
Q 1453 -72 1131 306 
L 1131 -813 
Q 1131 -944 1273 -981 
Q 1416 -1019 1631 -1019 
L 1631 -1241 
L 166 -1241 
z
M 1131 622 
Q 1244 394 1444 245 
Q 1644 97 1881 97 
Q 2103 97 2273 215 
Q 2444 334 2559 534 
Q 2675 734 2729 954 
Q 2784 1175 2784 1381 
Q 2784 1638 2692 1936 
Q 2600 2234 2411 2439 
Q 2222 2644 1953 2644 
Q 1694 2644 1476 2511 
Q 1259 2378 1131 2150 
L 1131 622 
z
" transform="scale(0.015625)"/>
      </defs>
      <use xlink:href="#Cmr10-54"/>
      <use xlink:href="#Cmr10-69" transform="translate(72.216797 0)"/>
      <use xlink:href="#Cmr10-6d" transform="translate(99.902344 0)"/>
      <use xlink:href="#Cmr10-65" transform="translate(183.203125 0)"/>
      <use xlink:href="#Cmr10-73" transform="translate(227.587891 0)"/>
      <use xlink:href="#Cmr10-74" transform="translate(266.992188 0)"/>
      <use xlink:href="#Cmr10-65" transform="translate(305.810547 0)"/>
      <use xlink:href="#Cmr10-70" transform="translate(350.195312 0)"/>
     </g>
    </g>
   </g>
   <g id="matplotlib.axis_2">
    <g id="ytick_1">
     <g id="line2d_54">
      <path d="M 43.9 224.381654 
L 339.824849 224.381654 
" clip-path="url(#pc5ae78fcd0)" style="fill: none; stroke: #b0b0b0; stroke-width: 0.5; stroke-linecap: square"/>
     </g>
     <g id="line2d_55">
      <defs>
       <path id="m42c631adf4" d="M 0 0 
L 3 0 
" style="stroke: #000000; stroke-width: 0.5"/>
      </defs>
      <g>
       <use xlink:href="#m42c631adf4" x="43.9" y="224.381654" style="stroke: #000000; stroke-width: 0.5"/>
      </g>
     </g>
     <g id="line2d_56">
      <defs>
       <path id="mf0cdef578c" d="M 0 0 
L -3 0 
" style="stroke: #000000; stroke-width: 0.5"/>
      </defs>
      <g>
       <use xlink:href="#mf0cdef578c" x="339.824849" y="224.381654" style="stroke: #000000; stroke-width: 0.5"/>
      </g>
     </g>
     <g id="text_7">
      <!-- $\mathdefault{−200}$ -->
      <g transform="translate(17.6 227.851185) scale(0.1 -0.1)">
       <defs>
        <path id="Cmsy10-a1" d="M 653 1472 
Q 600 1472 565 1512 
Q 531 1553 531 1600 
Q 531 1647 565 1687 
Q 600 1728 653 1728 
L 4325 1728 
Q 4375 1728 4408 1687 
Q 4441 1647 4441 1600 
Q 4441 1553 4408 1512 
Q 4375 1472 4325 1472 
L 653 1472 
z
" transform="scale(0.015625)"/>
       </defs>
       <use xlink:href="#Cmsy10-a1" transform="translate(0 0.390625)"/>
       <use xlink:href="#Cmr10-32" transform="translate(77.685547 0.390625)"/>
       <use xlink:href="#Cmr10-30" transform="translate(127.685547 0.390625)"/>
       <use xlink:href="#Cmr10-30" transform="translate(177.685547 0.390625)"/>
      </g>
     </g>
    </g>
    <g id="ytick_2">
     <g id="line2d_57">
      <path d="M 43.9 184.175993 
L 339.824849 184.175993 
" clip-path="url(#pc5ae78fcd0)" style="fill: none; stroke: #b0b0b0; stroke-width: 0.5; stroke-linecap: square"/>
     </g>
     <g id="line2d_58">
      <g>
       <use xlink:href="#m42c631adf4" x="43.9" y="184.175993" style="stroke: #000000; stroke-width: 0.5"/>
      </g>
     </g>
     <g id="line2d_59">
      <g>
       <use xlink:href="#mf0cdef578c" x="339.824849" y="184.175993" style="stroke: #000000; stroke-width: 0.5"/>
      </g>
     </g>
     <g id="text_8">
      <!-- $\mathdefault{−180}$ -->
      <g transform="translate(17.6 187.645524) scale(0.1 -0.1)">
       <defs>
        <path id="Cmr10-38" d="M 269 972 
Q 269 1356 522 1651 
Q 775 1947 1172 2144 
L 934 2297 
Q 716 2441 578 2680 
Q 441 2919 441 3181 
Q 441 3488 602 3734 
Q 763 3981 1030 4122 
Q 1297 4263 1600 4263 
Q 1884 4263 2148 4147 
Q 2413 4031 2583 3815 
Q 2753 3600 2753 3303 
Q 2753 3088 2651 2903 
Q 2550 2719 2373 2572 
Q 2197 2425 1997 2322 
L 2363 2088 
Q 2616 1922 2770 1653 
Q 2925 1384 2925 1088 
Q 2925 741 2739 456 
Q 2553 172 2247 15 
Q 1941 -141 1600 -141 
Q 1269 -141 961 -6 
Q 653 128 461 383 
Q 269 638 269 972 
z
M 616 972 
Q 616 719 755 509 
Q 894 300 1122 181 
Q 1350 63 1600 63 
Q 1972 63 2275 280 
Q 2578 497 2578 856 
Q 2578 978 2529 1098 
Q 2481 1219 2395 1317 
Q 2309 1416 2203 1478 
L 1344 2034 
Q 1144 1928 976 1765 
Q 809 1603 712 1400 
Q 616 1197 616 972 
z
M 1056 2925 
L 1831 2425 
Q 2100 2581 2272 2803 
Q 2444 3025 2444 3303 
Q 2444 3519 2323 3698 
Q 2203 3878 2009 3978 
Q 1816 4078 1594 4078 
Q 1400 4078 1203 4003 
Q 1006 3928 878 3779 
Q 750 3631 750 3431 
Q 750 3131 1056 2925 
z
" transform="scale(0.015625)"/>
       </defs>
       <use xlink:href="#Cmsy10-a1" transform="translate(0 0.390625)"/>
       <use xlink:href="#Cmr10-31" transform="translate(77.685547 0.390625)"/>
       <use xlink:href="#Cmr10-38" transform="translate(127.685547 0.390625)"/>
       <use xlink:href="#Cmr10-30" transform="translate(177.685547 0.390625)"/>
      </g>
     </g>
    </g>
    <g id="ytick_3">
     <g id="line2d_60">
      <path d="M 43.9 143.970333 
L 339.824849 143.970333 
" clip-path="url(#pc5ae78fcd0)" style="fill: none; stroke: #b0b0b0; stroke-width: 0.5; stroke-linecap: square"/>
     </g>
     <g id="line2d_61">
      <g>
       <use xlink:href="#m42c631adf4" x="43.9" y="143.970333" style="stroke: #000000; stroke-width: 0.5"/>
      </g>
     </g>
     <g id="line2d_62">
      <g>
       <use xlink:href="#mf0cdef578c" x="339.824849" y="143.970333" style="stroke: #000000; stroke-width: 0.5"/>
      </g>
     </g>
     <g id="text_9">
      <!-- $\mathdefault{−160}$ -->
      <g transform="translate(17.6 147.439864) scale(0.1 -0.1)">
       <defs>
        <path id="Cmr10-36" d="M 1600 -141 
Q 1203 -141 937 70 
Q 672 281 526 617 
Q 381 953 325 1322 
Q 269 1691 269 2069 
Q 269 2575 466 3084 
Q 663 3594 1045 3928 
Q 1428 4263 1953 4263 
Q 2172 4263 2361 4180 
Q 2550 4097 2658 3936 
Q 2766 3775 2766 3547 
Q 2766 3416 2677 3327 
Q 2588 3238 2456 3238 
Q 2331 3238 2240 3328 
Q 2150 3419 2150 3547 
Q 2150 3672 2240 3762 
Q 2331 3853 2456 3853 
L 2491 3853 
Q 2409 3969 2261 4023 
Q 2113 4078 1953 4078 
Q 1759 4078 1595 3993 
Q 1431 3909 1300 3765 
Q 1169 3622 1081 3448 
Q 994 3275 945 3053 
Q 897 2831 884 2637 
Q 872 2444 872 2150 
Q 984 2413 1190 2580 
Q 1397 2747 1656 2747 
Q 1941 2747 2175 2631 
Q 2409 2516 2578 2311 
Q 2747 2106 2836 1843 
Q 2925 1581 2925 1313 
Q 2925 938 2758 598 
Q 2591 259 2287 59 
Q 1984 -141 1600 -141 
z
M 1600 63 
Q 1847 63 1997 175 
Q 2147 288 2217 473 
Q 2288 659 2305 848 
Q 2322 1038 2322 1313 
Q 2322 1675 2287 1931 
Q 2253 2188 2100 2383 
Q 1947 2578 1631 2578 
Q 1372 2578 1205 2403 
Q 1038 2228 961 1961 
Q 884 1694 884 1447 
Q 884 1363 891 1319 
Q 891 1309 889 1303 
Q 888 1297 884 1288 
Q 884 1013 940 731 
Q 997 450 1156 256 
Q 1316 63 1600 63 
z
" transform="scale(0.015625)"/>
       </defs>
       <use xlink:href="#Cmsy10-a1" transform="translate(0 0.390625)"/>
       <use xlink:href="#Cmr10-31" transform="translate(77.685547 0.390625)"/>
       <use xlink:href="#Cmr10-36" transform="translate(127.685547 0.390625)"/>
       <use xlink:href="#Cmr10-30" transform="translate(177.685547 0.390625)"/>
      </g>
     </g>
    </g>
    <g id="ytick_4">
     <g id="line2d_63">
      <path d="M 43.9 103.764672 
L 339.824849 103.764672 
" clip-path="url(#pc5ae78fcd0)" style="fill: none; stroke: #b0b0b0; stroke-width: 0.5; stroke-linecap: square"/>
     </g>
     <g id="line2d_64">
      <g>
       <use xlink:href="#m42c631adf4" x="43.9" y="103.764672" style="stroke: #000000; stroke-width: 0.5"/>
      </g>
     </g>
     <g id="line2d_65">
      <g>
       <use xlink:href="#mf0cdef578c" x="339.824849" y="103.764672" style="stroke: #000000; stroke-width: 0.5"/>
      </g>
     </g>
     <g id="text_10">
      <!-- $\mathdefault{−140}$ -->
      <g transform="translate(17.6 107.234203) scale(0.1 -0.1)">
       <defs>
        <path id="Cmr10-34" d="M 178 1056 
L 178 1281 
L 2156 4231 
Q 2178 4263 2222 4263 
L 2316 4263 
Q 2388 4263 2388 4191 
L 2388 1281 
L 3016 1281 
L 3016 1056 
L 2388 1056 
L 2388 428 
Q 2388 297 2575 261 
Q 2763 225 3009 225 
L 3009 0 
L 1247 0 
L 1247 225 
Q 1494 225 1681 261 
Q 1869 297 1869 428 
L 1869 1056 
L 178 1056 
z
M 391 1281 
L 1906 1281 
L 1906 3547 
L 391 1281 
z
" transform="scale(0.015625)"/>
       </defs>
       <use xlink:href="#Cmsy10-a1" transform="translate(0 0.390625)"/>
       <use xlink:href="#Cmr10-31" transform="translate(77.685547 0.390625)"/>
       <use xlink:href="#Cmr10-34" transform="translate(127.685547 0.390625)"/>
       <use xlink:href="#Cmr10-30" transform="translate(177.685547 0.390625)"/>
      </g>
     </g>
    </g>
    <g id="ytick_5">
     <g id="line2d_66">
      <path d="M 43.9 63.559012 
L 339.824849 63.559012 
" clip-path="url(#pc5ae78fcd0)" style="fill: none; stroke: #b0b0b0; stroke-width: 0.5; stroke-linecap: square"/>
     </g>
     <g id="line2d_67">
      <g>
       <use xlink:href="#m42c631adf4" x="43.9" y="63.559012" style="stroke: #000000; stroke-width: 0.5"/>
      </g>
     </g>
     <g id="line2d_68">
      <g>
       <use xlink:href="#mf0cdef578c" x="339.824849" y="63.559012" style="stroke: #000000; stroke-width: 0.5"/>
      </g>
     </g>
     <g id="text_11">
      <!-- $\mathdefault{−120}$ -->
      <g transform="translate(17.6 67.028543) scale(0.1 -0.1)">
       <use xlink:href="#Cmsy10-a1" transform="translate(0 0.390625)"/>
       <use xlink:href="#Cmr10-31" transform="translate(77.685547 0.390625)"/>
       <use xlink:href="#Cmr10-32" transform="translate(127.685547 0.390625)"/>
       <use xlink:href="#Cmr10-30" transform="translate(177.685547 0.390625)"/>
      </g>
     </g>
    </g>
    <g id="ytick_6">
     <g id="line2d_69">
      <path d="M 43.9 23.353351 
L 339.824849 23.353351 
" clip-path="url(#pc5ae78fcd0)" style="fill: none; stroke: #b0b0b0; stroke-width: 0.5; stroke-linecap: square"/>
     </g>
     <g id="line2d_70">
      <g>
       <use xlink:href="#m42c631adf4" x="43.9" y="23.353351" style="stroke: #000000; stroke-width: 0.5"/>
      </g>
     </g>
     <g id="line2d_71">
      <g>
       <use xlink:href="#mf0cdef578c" x="339.824849" y="23.353351" style="stroke: #000000; stroke-width: 0.5"/>
      </g>
     </g>
     <g id="text_12">
      <!-- $\mathdefault{−100}$ -->
      <g transform="translate(17.6 26.822882) scale(0.1 -0.1)">
       <use xlink:href="#Cmsy10-a1" transform="translate(0 0.390625)"/>
       <use xlink:href="#Cmr10-31" transform="translate(77.685547 0.390625)"/>
       <use xlink:href="#Cmr10-30" transform="translate(127.685547 0.390625)"/>
       <use xlink:href="#Cmr10-30" transform="translate(177.685547 0.390625)"/>
      </g>
     </g>
    </g>
    <g id="ytick_7">
     <g id="line2d_72">
      <defs>
       <path id="m6cf74e0cdb" d="M 0 0 
L 1.5 0 
" style="stroke: #000000; stroke-width: 0.5"/>
      </defs>
      <g>
       <use xlink:href="#m6cf74e0cdb" x="43.9" y="234.433069" style="stroke: #000000; stroke-width: 0.5"/>
      </g>
     </g>
     <g id="line2d_73">
      <defs>
       <path id="m731c435429" d="M 0 0 
L -1.5 0 
" style="stroke: #000000; stroke-width: 0.5"/>
      </defs>
      <g>
       <use xlink:href="#m731c435429" x="339.824849" y="234.433069" style="stroke: #000000; stroke-width: 0.5"/>
      </g>
     </g>
    </g>
    <g id="ytick_8">
     <g id="line2d_74">
      <g>
       <use xlink:href="#m6cf74e0cdb" x="43.9" y="214.330238" style="stroke: #000000; stroke-width: 0.5"/>
      </g>
     </g>
     <g id="line2d_75">
      <g>
       <use xlink:href="#m731c435429" x="339.824849" y="214.330238" style="stroke: #000000; stroke-width: 0.5"/>
      </g>
     </g>
    </g>
    <g id="ytick_9">
     <g id="line2d_76">
      <g>
       <use xlink:href="#m6cf74e0cdb" x="43.9" y="204.278823" style="stroke: #000000; stroke-width: 0.5"/>
      </g>
     </g>
     <g id="line2d_77">
      <g>
       <use xlink:href="#m731c435429" x="339.824849" y="204.278823" style="stroke: #000000; stroke-width: 0.5"/>
      </g>
     </g>
    </g>
    <g id="ytick_10">
     <g id="line2d_78">
      <g>
       <use xlink:href="#m6cf74e0cdb" x="43.9" y="194.227408" style="stroke: #000000; stroke-width: 0.5"/>
      </g>
     </g>
     <g id="line2d_79">
      <g>
       <use xlink:href="#m731c435429" x="339.824849" y="194.227408" style="stroke: #000000; stroke-width: 0.5"/>
      </g>
     </g>
    </g>
    <g id="ytick_11">
     <g id="line2d_80">
      <g>
       <use xlink:href="#m6cf74e0cdb" x="43.9" y="174.124578" style="stroke: #000000; stroke-width: 0.5"/>
      </g>
     </g>
     <g id="line2d_81">
      <g>
       <use xlink:href="#m731c435429" x="339.824849" y="174.124578" style="stroke: #000000; stroke-width: 0.5"/>
      </g>
     </g>
    </g>
    <g id="ytick_12">
     <g id="line2d_82">
      <g>
       <use xlink:href="#m6cf74e0cdb" x="43.9" y="164.073163" style="stroke: #000000; stroke-width: 0.5"/>
      </g>
     </g>
     <g id="line2d_83">
      <g>
       <use xlink:href="#m731c435429" x="339.824849" y="164.073163" style="stroke: #000000; stroke-width: 0.5"/>
      </g>
     </g>
    </g>
    <g id="ytick_13">
     <g id="line2d_84">
      <g>
       <use xlink:href="#m6cf74e0cdb" x="43.9" y="154.021748" style="stroke: #000000; stroke-width: 0.5"/>
      </g>
     </g>
     <g id="line2d_85">
      <g>
       <use xlink:href="#m731c435429" x="339.824849" y="154.021748" style="stroke: #000000; stroke-width: 0.5"/>
      </g>
     </g>
    </g>
    <g id="ytick_14">
     <g id="line2d_86">
      <g>
       <use xlink:href="#m6cf74e0cdb" x="43.9" y="133.918917" style="stroke: #000000; stroke-width: 0.5"/>
      </g>
     </g>
     <g id="line2d_87">
      <g>
       <use xlink:href="#m731c435429" x="339.824849" y="133.918917" style="stroke: #000000; stroke-width: 0.5"/>
      </g>
     </g>
    </g>
    <g id="ytick_15">
     <g id="line2d_88">
      <g>
       <use xlink:href="#m6cf74e0cdb" x="43.9" y="123.867502" style="stroke: #000000; stroke-width: 0.5"/>
      </g>
     </g>
     <g id="line2d_89">
      <g>
       <use xlink:href="#m731c435429" x="339.824849" y="123.867502" style="stroke: #000000; stroke-width: 0.5"/>
      </g>
     </g>
    </g>
    <g id="ytick_16">
     <g id="line2d_90">
      <g>
       <use xlink:href="#m6cf74e0cdb" x="43.9" y="113.816087" style="stroke: #000000; stroke-width: 0.5"/>
      </g>
     </g>
     <g id="line2d_91">
      <g>
       <use xlink:href="#m731c435429" x="339.824849" y="113.816087" style="stroke: #000000; stroke-width: 0.5"/>
      </g>
     </g>
    </g>
    <g id="ytick_17">
     <g id="line2d_92">
      <g>
       <use xlink:href="#m6cf74e0cdb" x="43.9" y="93.713257" style="stroke: #000000; stroke-width: 0.5"/>
      </g>
     </g>
     <g id="line2d_93">
      <g>
       <use xlink:href="#m731c435429" x="339.824849" y="93.713257" style="stroke: #000000; stroke-width: 0.5"/>
      </g>
     </g>
    </g>
    <g id="ytick_18">
     <g id="line2d_94">
      <g>
       <use xlink:href="#m6cf74e0cdb" x="43.9" y="83.661842" style="stroke: #000000; stroke-width: 0.5"/>
      </g>
     </g>
     <g id="line2d_95">
      <g>
       <use xlink:href="#m731c435429" x="339.824849" y="83.661842" style="stroke: #000000; stroke-width: 0.5"/>
      </g>
     </g>
    </g>
    <g id="ytick_19">
     <g id="line2d_96">
      <g>
       <use xlink:href="#m6cf74e0cdb" x="43.9" y="73.610427" style="stroke: #000000; stroke-width: 0.5"/>
      </g>
     </g>
     <g id="line2d_97">
      <g>
       <use xlink:href="#m731c435429" x="339.824849" y="73.610427" style="stroke: #000000; stroke-width: 0.5"/>
      </g>
     </g>
    </g>
    <g id="ytick_20">
     <g id="line2d_98">
      <g>
       <use xlink:href="#m6cf74e0cdb" x="43.9" y="53.507596" style="stroke: #000000; stroke-width: 0.5"/>
      </g>
     </g>
     <g id="line2d_99">
      <g>
       <use xlink:href="#m731c435429" x="339.824849" y="53.507596" style="stroke: #000000; stroke-width: 0.5"/>
      </g>
     </g>
    </g>
    <g id="ytick_21">
     <g id="line2d_100">
      <g>
       <use xlink:href="#m6cf74e0cdb" x="43.9" y="43.456181" style="stroke: #000000; stroke-width: 0.5"/>
      </g>
     </g>
     <g id="line2d_101">
      <g>
       <use xlink:href="#m731c435429" x="339.824849" y="43.456181" style="stroke: #000000; stroke-width: 0.5"/>
      </g>
     </g>
    </g>
    <g id="ytick_22">
     <g id="line2d_102">
      <g>
       <use xlink:href="#m6cf74e0cdb" x="43.9" y="33.404766" style="stroke: #000000; stroke-width: 0.5"/>
      </g>
     </g>
     <g id="line2d_103">
      <g>
       <use xlink:href="#m731c435429" x="339.824849" y="33.404766" style="stroke: #000000; stroke-width: 0.5"/>
      </g>
     </g>
    </g>
    <g id="ytick_23">
     <g id="line2d_104">
      <g>
       <use xlink:href="#m6cf74e0cdb" x="43.9" y="13.301936" style="stroke: #000000; stroke-width: 0.5"/>
      </g>
     </g>
     <g id="line2d_105">
      <g>
       <use xlink:href="#m731c435429" x="339.824849" y="13.301936" style="stroke: #000000; stroke-width: 0.5"/>
      </g>
     </g>
    </g>
    <g id="text_13">
     <!-- Mean Eval. Reward ($\pm\sigma$), Smoothed (Window = 5 ep.) -->
     <g transform="translate(11.1 245.521875) rotate(-90) scale(0.1 -0.1)">
      <defs>
       <path id="Cmr10-4d" d="M 225 0 
L 225 225 
Q 884 225 884 603 
L 884 3944 
Q 884 4147 225 4147 
L 225 4372 
L 1434 4372 
Q 1513 4372 1538 4300 
L 2931 678 
L 4325 4300 
Q 4350 4372 4428 4372 
L 5638 4372 
L 5638 4147 
Q 4978 4147 4978 3944 
L 4978 428 
Q 4978 225 5638 225 
L 5638 0 
L 3775 0 
L 3775 225 
Q 4434 225 4434 428 
L 4434 4153 
L 2859 72 
Q 2831 0 2753 0 
Q 2672 0 2644 72 
L 1088 4103 
L 1088 603 
Q 1088 225 1747 225 
L 1747 0 
L 225 0 
z
" transform="scale(0.015625)"/>
       <path id="Cmr10-61" d="M 256 628 
Q 256 1009 556 1248 
Q 856 1488 1276 1586 
Q 1697 1684 2075 1684 
L 2075 1947 
Q 2075 2131 1994 2304 
Q 1913 2478 1759 2589 
Q 1606 2700 1422 2700 
Q 997 2700 775 2509 
Q 897 2509 976 2417 
Q 1056 2325 1056 2203 
Q 1056 2075 965 1984 
Q 875 1894 750 1894 
Q 622 1894 531 1984 
Q 441 2075 441 2203 
Q 441 2541 747 2705 
Q 1053 2869 1422 2869 
Q 1681 2869 1943 2758 
Q 2206 2647 2373 2440 
Q 2541 2234 2541 1959 
L 2541 519 
Q 2541 394 2594 289 
Q 2647 184 2759 184 
Q 2866 184 2917 290 
Q 2969 397 2969 519 
L 2969 928 
L 3156 928 
L 3156 519 
Q 3156 375 3081 245 
Q 3006 116 2879 39 
Q 2753 -38 2606 -38 
Q 2419 -38 2283 107 
Q 2147 253 2131 453 
Q 2013 213 1781 70 
Q 1550 -72 1288 -72 
Q 1044 -72 808 0 
Q 572 72 414 226 
Q 256 381 256 628 
z
M 775 628 
Q 775 403 940 250 
Q 1106 97 1331 97 
Q 1538 97 1706 200 
Q 1875 303 1975 481 
Q 2075 659 2075 856 
L 2075 1522 
Q 1784 1522 1479 1426 
Q 1175 1331 975 1128 
Q 775 925 775 628 
z
" transform="scale(0.015625)"/>
       <path id="Cmr10-6e" d="M 191 0 
L 191 225 
Q 409 225 550 259 
Q 691 294 691 428 
L 691 2175 
Q 691 2347 639 2423 
Q 588 2500 491 2517 
Q 394 2534 191 2534 
L 191 2759 
L 1119 2828 
L 1119 2203 
Q 1247 2478 1498 2653 
Q 1750 2828 2047 2828 
Q 2491 2828 2714 2615 
Q 2938 2403 2938 1966 
L 2938 428 
Q 2938 294 3078 259 
Q 3219 225 3438 225 
L 3438 0 
L 1972 0 
L 1972 225 
Q 2191 225 2331 259 
Q 2472 294 2472 428 
L 2472 1947 
Q 2472 2259 2381 2461 
Q 2291 2663 2009 2663 
Q 1638 2663 1398 2366 
Q 1159 2069 1159 1691 
L 1159 428 
Q 1159 294 1300 259 
Q 1441 225 1656 225 
L 1656 0 
L 191 0 
z
" transform="scale(0.015625)"/>
       <path id="Cmr10-20" transform="scale(0.015625)"/>
       <path id="Cmr10-45" d="M 197 0 
L 197 225 
Q 856 225 856 428 
L 856 3944 
Q 856 4147 197 4147 
L 197 4372 
L 3816 4372 
L 3994 2906 
L 3809 2906 
Q 3741 3459 3617 3709 
Q 3494 3959 3222 4053 
Q 2950 4147 2406 4147 
L 1778 4147 
Q 1663 4147 1598 4137 
Q 1534 4128 1493 4083 
Q 1453 4038 1453 3944 
L 1453 2381 
L 1925 2381 
Q 2250 2381 2411 2436 
Q 2572 2491 2633 2645 
Q 2694 2800 2694 3128 
L 2881 3128 
L 2881 1409 
L 2694 1409 
Q 2694 1734 2633 1890 
Q 2572 2047 2411 2101 
Q 2250 2156 1925 2156 
L 1453 2156 
L 1453 428 
Q 1453 291 1531 258 
Q 1609 225 1778 225 
L 2456 225 
Q 2900 225 3173 295 
Q 3447 366 3598 530 
Q 3750 694 3833 955 
Q 3916 1216 3988 1678 
L 4172 1678 
L 3903 0 
L 197 0 
z
" transform="scale(0.015625)"/>
       <path id="Cmr10-76" d="M 1563 0 
L 628 2350 
Q 569 2469 445 2501 
Q 322 2534 122 2534 
L 122 2759 
L 1466 2759 
L 1466 2534 
Q 1106 2534 1106 2381 
Q 1106 2356 1113 2344 
L 1831 538 
L 2478 2169 
Q 2497 2219 2497 2272 
Q 2497 2394 2405 2464 
Q 2313 2534 2188 2534 
L 2188 2759 
L 3250 2759 
L 3250 2534 
Q 3053 2534 2904 2443 
Q 2756 2353 2675 2175 
L 1813 0 
Q 1788 -72 1709 -72 
L 1663 -72 
Q 1584 -72 1563 0 
z
" transform="scale(0.015625)"/>
       <path id="Cmr10-6c" d="M 197 0 
L 197 225 
Q 416 225 556 259 
Q 697 294 697 428 
L 697 3788 
Q 697 3959 645 4036 
Q 594 4113 497 4130 
Q 400 4147 197 4147 
L 197 4372 
L 1147 4441 
L 1147 428 
Q 1147 294 1287 259 
Q 1428 225 1644 225 
L 1644 0 
L 197 0 
z
" transform="scale(0.015625)"/>
       <path id="Cmr10-2e" d="M 538 353 
Q 538 497 644 600 
Q 750 703 891 703 
Q 978 703 1062 656 
Q 1147 609 1194 525 
Q 1241 441 1241 353 
Q 1241 213 1137 106 
Q 1034 0 891 0 
Q 750 0 644 106 
Q 538 213 538 353 
z
" transform="scale(0.015625)"/>
       <path id="Cmr10-52" d="M 213 0 
L 213 225 
Q 872 225 872 428 
L 872 3944 
Q 872 4147 213 4147 
L 213 4372 
L 2222 4372 
Q 2581 4372 2976 4242 
Q 3372 4113 3637 3847 
Q 3903 3581 3903 3213 
Q 3903 2944 3742 2733 
Q 3581 2522 3329 2380 
Q 3078 2238 2816 2175 
Q 3103 2075 3318 1856 
Q 3534 1638 3578 1356 
L 3669 788 
Q 3731 403 3800 214 
Q 3869 25 4103 25 
Q 4303 25 4401 211 
Q 4500 397 4500 616 
Q 4500 638 4520 655 
Q 4541 672 4563 672 
L 4622 672 
Q 4684 672 4684 588 
Q 4684 413 4615 245 
Q 4547 78 4417 -31 
Q 4288 -141 4109 -141 
Q 3647 -141 3314 89 
Q 2981 319 2981 763 
L 2981 1331 
Q 2981 1650 2759 1878 
Q 2538 2106 2216 2106 
L 1447 2106 
L 1447 428 
Q 1447 225 2106 225 
L 2106 0 
L 213 0 
z
M 1447 2272 
L 2131 2272 
Q 2663 2272 2941 2486 
Q 3219 2700 3219 3213 
Q 3219 3722 2944 3934 
Q 2669 4147 2131 4147 
L 1772 4147 
Q 1656 4147 1592 4137 
Q 1528 4128 1487 4083 
Q 1447 4038 1447 3944 
L 1447 2272 
z
" transform="scale(0.015625)"/>
       <path id="Cmr10-77" d="M 1416 0 
L 588 2328 
Q 531 2469 425 2501 
Q 319 2534 116 2534 
L 116 2759 
L 1434 2759 
L 1434 2534 
Q 1056 2534 1056 2375 
Q 1059 2366 1061 2356 
Q 1063 2347 1063 2328 
L 1678 603 
L 2209 2106 
L 2125 2328 
Q 2075 2469 1965 2501 
Q 1856 2534 1656 2534 
L 1656 2759 
L 2919 2759 
L 2919 2534 
Q 2541 2534 2541 2375 
Q 2541 2350 2547 2328 
L 3188 525 
L 3769 2156 
Q 3781 2206 3781 2247 
Q 3781 2381 3667 2457 
Q 3553 2534 3413 2534 
L 3413 2759 
L 4500 2759 
L 4500 2534 
Q 4306 2534 4167 2432 
Q 4028 2331 3963 2156 
L 3200 0 
Q 3178 -72 3103 -72 
L 3053 -72 
Q 2978 -72 2956 0 
L 2309 1825 
L 1663 0 
Q 1631 -72 1563 -72 
L 1516 -72 
Q 1438 -72 1416 0 
z
" transform="scale(0.015625)"/>
       <path id="Cmr10-72" d="M 166 0 
L 166 225 
Q 384 225 525 259 
Q 666 294 666 428 
L 666 2175 
Q 666 2347 614 2423 
Q 563 2500 466 2517 
Q 369 2534 166 2534 
L 166 2759 
L 1081 2828 
L 1081 2203 
Q 1184 2481 1375 2654 
Q 1566 2828 1838 2828 
Q 2028 2828 2178 2715 
Q 2328 2603 2328 2419 
Q 2328 2303 2245 2217 
Q 2163 2131 2041 2131 
Q 1922 2131 1837 2215 
Q 1753 2300 1753 2419 
Q 1753 2591 1875 2663 
L 1838 2663 
Q 1578 2663 1414 2475 
Q 1250 2288 1181 2009 
Q 1113 1731 1113 1478 
L 1113 428 
Q 1113 225 1734 225 
L 1734 0 
L 166 0 
z
" transform="scale(0.015625)"/>
       <path id="Cmr10-64" d="M 1563 -72 
Q 1184 -72 871 133 
Q 559 338 386 672 
Q 213 1006 213 1381 
Q 213 1769 402 2101 
Q 591 2434 916 2631 
Q 1241 2828 1631 2828 
Q 1866 2828 2075 2729 
Q 2284 2631 2438 2456 
L 2438 3788 
Q 2438 3959 2386 4036 
Q 2334 4113 2239 4130 
Q 2144 4147 1941 4147 
L 1941 4372 
L 2888 4441 
L 2888 581 
Q 2888 413 2939 336 
Q 2991 259 3086 242 
Q 3181 225 3384 225 
L 3384 0 
L 2419 -72 
L 2419 331 
Q 2253 141 2025 34 
Q 1797 -72 1563 -72 
z
M 909 556 
Q 1019 347 1201 222 
Q 1384 97 1600 97 
Q 1866 97 2087 250 
Q 2309 403 2419 647 
L 2419 2181 
Q 2344 2322 2230 2433 
Q 2116 2544 1973 2603 
Q 1831 2663 1672 2663 
Q 1338 2663 1134 2473 
Q 931 2284 850 1990 
Q 769 1697 769 1375 
Q 769 1119 795 928 
Q 822 738 909 556 
z
" transform="scale(0.015625)"/>
       <path id="Cmr10-28" d="M 1984 -1588 
Q 1628 -1306 1370 -942 
Q 1113 -578 948 -165 
Q 784 247 703 697 
Q 622 1147 622 1600 
Q 622 2059 703 2509 
Q 784 2959 951 3375 
Q 1119 3791 1378 4153 
Q 1638 4516 1984 4788 
Q 1984 4800 2016 4800 
L 2075 4800 
Q 2094 4800 2109 4783 
Q 2125 4766 2125 4744 
Q 2125 4716 2113 4703 
Q 1800 4397 1592 4047 
Q 1384 3697 1257 3301 
Q 1131 2906 1075 2482 
Q 1019 2059 1019 1600 
Q 1019 -434 2106 -1491 
Q 2125 -1509 2125 -1544 
Q 2125 -1559 2108 -1579 
Q 2091 -1600 2075 -1600 
L 2016 -1600 
Q 1984 -1600 1984 -1588 
z
" transform="scale(0.015625)"/>
       <path id="Cmsy10-a7" d="M 481 0 
Q 428 0 393 37 
Q 359 75 359 128 
Q 359 175 393 215 
Q 428 256 481 256 
L 2363 256 
L 2363 2003 
L 481 2003 
Q 428 2003 393 2043 
Q 359 2084 359 2131 
Q 359 2178 393 2218 
Q 428 2259 481 2259 
L 2363 2259 
L 2363 4147 
Q 2363 4197 2400 4230 
Q 2438 4263 2491 4263 
Q 2534 4263 2576 4230 
Q 2619 4197 2619 4147 
L 2619 2259 
L 4500 2259 
Q 4547 2259 4581 2218 
Q 4616 2178 4616 2131 
Q 4616 2084 4581 2043 
Q 4547 2003 4500 2003 
L 2619 2003 
L 2619 256 
L 4500 256 
Q 4547 256 4581 215 
Q 4616 175 4616 128 
Q 4616 75 4581 37 
Q 4547 0 4500 0 
L 481 0 
z
" transform="scale(0.015625)"/>
       <path id="Cmmi10-be" d="M 1197 -72 
Q 913 -72 692 64 
Q 472 200 351 431 
Q 231 663 231 941 
Q 231 1238 365 1566 
Q 500 1894 733 2166 
Q 966 2438 1259 2598 
Q 1553 2759 1863 2759 
L 3475 2759 
Q 3541 2759 3587 2715 
Q 3634 2672 3634 2597 
Q 3634 2503 3567 2433 
Q 3500 2363 3406 2363 
L 2625 2363 
Q 2809 2088 2809 1697 
Q 2809 1375 2684 1062 
Q 2559 750 2337 492 
Q 2116 234 1820 81 
Q 1525 -72 1197 -72 
z
M 1203 97 
Q 1553 97 1823 370 
Q 2094 644 2237 1039 
Q 2381 1434 2381 1772 
Q 2381 2047 2229 2205 
Q 2078 2363 1806 2363 
Q 1434 2363 1173 2113 
Q 913 1863 783 1484 
Q 653 1106 653 756 
Q 653 481 798 289 
Q 944 97 1203 97 
z
" transform="scale(0.015625)"/>
       <path id="Cmr10-29" d="M 416 -1600 
Q 359 -1600 359 -1544 
Q 359 -1516 372 -1503 
Q 1466 -434 1466 1600 
Q 1466 3634 384 4691 
Q 359 4706 359 4744 
Q 359 4766 376 4783 
Q 394 4800 416 4800 
L 475 4800 
Q 494 4800 506 4788 
Q 966 4425 1272 3906 
Q 1578 3388 1720 2800 
Q 1863 2213 1863 1600 
Q 1863 1147 1786 708 
Q 1709 269 1542 -157 
Q 1375 -584 1119 -945 
Q 863 -1306 506 -1588 
Q 494 -1600 475 -1600 
L 416 -1600 
z
" transform="scale(0.015625)"/>
       <path id="Cmr10-2c" d="M 634 -1153 
Q 634 -1125 659 -1100 
Q 891 -878 1019 -587 
Q 1147 -297 1147 25 
L 1147 103 
Q 1044 0 891 0 
Q 744 0 641 103 
Q 538 206 538 353 
Q 538 503 641 603 
Q 744 703 891 703 
Q 1119 703 1216 492 
Q 1313 281 1313 25 
Q 1313 -331 1170 -651 
Q 1028 -972 769 -1228 
Q 744 -1241 728 -1241 
Q 697 -1241 665 -1212 
Q 634 -1184 634 -1153 
z
" transform="scale(0.015625)"/>
       <path id="Cmr10-53" d="M 359 -91 
L 359 1403 
Q 359 1453 416 1453 
L 494 1453 
Q 513 1453 528 1437 
Q 544 1422 544 1403 
Q 544 775 933 429 
Q 1322 84 1953 84 
Q 2175 84 2362 212 
Q 2550 341 2654 548 
Q 2759 756 2759 978 
Q 2759 1172 2681 1355 
Q 2603 1538 2456 1672 
Q 2309 1806 2125 1850 
L 1294 2053 
Q 881 2163 620 2502 
Q 359 2841 359 3263 
Q 359 3594 528 3884 
Q 697 4175 983 4344 
Q 1269 4513 1600 4513 
Q 2241 4513 2619 4078 
L 2881 4494 
Q 2900 4513 2925 4513 
L 2969 4513 
Q 2988 4513 3005 4498 
Q 3022 4484 3022 4459 
L 3022 2975 
Q 3022 2919 2969 2919 
L 2894 2919 
Q 2834 2919 2834 2975 
Q 2834 3138 2779 3331 
Q 2725 3525 2628 3703 
Q 2531 3881 2419 3994 
Q 2109 4306 1600 4306 
Q 1381 4306 1197 4195 
Q 1013 4084 903 3893 
Q 794 3703 794 3494 
Q 794 3219 964 2995 
Q 1134 2772 1409 2700 
L 2241 2497 
Q 2447 2447 2630 2317 
Q 2813 2188 2934 2016 
Q 3056 1844 3125 1633 
Q 3194 1422 3194 1197 
Q 3194 850 3034 542 
Q 2875 234 2586 46 
Q 2297 -141 1953 -141 
Q 1741 -141 1519 -94 
Q 1297 -47 1109 50 
Q 922 147 769 300 
L 500 -122 
Q 481 -141 453 -141 
L 416 -141 
Q 359 -141 359 -91 
z
" transform="scale(0.015625)"/>
       <path id="Cmr10-6f" d="M 1600 -72 
Q 1216 -72 887 123 
Q 559 319 368 647 
Q 178 975 178 1363 
Q 178 1656 283 1928 
Q 388 2200 583 2414 
Q 778 2628 1037 2748 
Q 1297 2869 1600 2869 
Q 1994 2869 2317 2661 
Q 2641 2453 2828 2104 
Q 3016 1756 3016 1363 
Q 3016 978 2825 648 
Q 2634 319 2307 123 
Q 1981 -72 1600 -72 
z
M 1600 116 
Q 2113 116 2284 487 
Q 2456 859 2456 1434 
Q 2456 1756 2422 1967 
Q 2388 2178 2272 2350 
Q 2200 2456 2089 2536 
Q 1978 2616 1854 2658 
Q 1731 2700 1600 2700 
Q 1400 2700 1220 2609 
Q 1041 2519 922 2350 
Q 803 2169 770 1951 
Q 738 1734 738 1434 
Q 738 1075 800 789 
Q 863 503 1052 309 
Q 1241 116 1600 116 
z
" transform="scale(0.015625)"/>
       <path id="Cmr10-68" d="M 191 0 
L 191 225 
Q 409 225 550 259 
Q 691 294 691 428 
L 691 3788 
Q 691 3959 639 4036 
Q 588 4113 491 4130 
Q 394 4147 191 4147 
L 191 4372 
L 1141 4441 
L 1141 2241 
Q 1275 2506 1515 2667 
Q 1756 2828 2047 2828 
Q 2491 2828 2714 2615 
Q 2938 2403 2938 1966 
L 2938 428 
Q 2938 294 3078 259 
Q 3219 225 3438 225 
L 3438 0 
L 1972 0 
L 1972 225 
Q 2191 225 2331 259 
Q 2472 294 2472 428 
L 2472 1947 
Q 2472 2259 2381 2461 
Q 2291 2663 2009 2663 
Q 1638 2663 1398 2366 
Q 1159 2069 1159 1691 
L 1159 428 
Q 1159 294 1300 259 
Q 1441 225 1656 225 
L 1656 0 
L 191 0 
z
" transform="scale(0.015625)"/>
       <path id="Cmr10-57" d="M 1991 -72 
L 684 3944 
Q 634 4078 490 4112 
Q 347 4147 116 4147 
L 116 4372 
L 1831 4372 
L 1831 4147 
Q 1294 4147 1294 3975 
L 1294 3944 
L 2316 794 
L 3188 3488 
L 3041 3944 
Q 2991 4078 2847 4112 
Q 2703 4147 2472 4147 
L 2472 4372 
L 4184 4372 
L 4184 4147 
Q 3641 4147 3641 3975 
Q 3641 3966 3647 3947 
Q 3653 3928 3653 3922 
L 4672 794 
L 5631 3769 
Q 5638 3788 5638 3828 
Q 5638 3997 5459 4072 
Q 5281 4147 5088 4147 
L 5088 4372 
L 6456 4372 
L 6456 4147 
Q 5950 4147 5831 3769 
L 4581 -72 
Q 4559 -141 4488 -141 
L 4441 -141 
Q 4369 -141 4347 -72 
L 3291 3188 
L 2228 -72 
Q 2206 -141 2131 -141 
L 2088 -141 
Q 2013 -141 1991 -72 
z
" transform="scale(0.015625)"/>
       <path id="Cmr10-3d" d="M 481 850 
Q 428 850 393 890 
Q 359 931 359 978 
Q 359 1031 393 1068 
Q 428 1106 481 1106 
L 4500 1106 
Q 4547 1106 4581 1068 
Q 4616 1031 4616 978 
Q 4616 931 4581 890 
Q 4547 850 4500 850 
L 481 850 
z
M 481 2094 
Q 428 2094 393 2131 
Q 359 2169 359 2222 
Q 359 2269 393 2309 
Q 428 2350 481 2350 
L 4500 2350 
Q 4547 2350 4581 2309 
Q 4616 2269 4616 2222 
Q 4616 2169 4581 2131 
Q 4547 2094 4500 2094 
L 481 2094 
z
" transform="scale(0.015625)"/>
      </defs>
      <use xlink:href="#Cmr10-4d"/>
      <use xlink:href="#Cmr10-65" transform="translate(91.601562 0)"/>
      <use xlink:href="#Cmr10-61" transform="translate(135.986328 0)"/>
      <use xlink:href="#Cmr10-6e" transform="translate(185.986328 0)"/>
      <use xlink:href="#Cmr10-20" transform="translate(241.503906 0)"/>
      <use xlink:href="#Cmr10-45" transform="translate(274.804688 0)"/>
      <use xlink:href="#Cmr10-76" transform="translate(342.822266 0)"/>
      <use xlink:href="#Cmr10-61" transform="translate(395.507812 0)"/>
      <use xlink:href="#Cmr10-6c" transform="translate(445.507812 0)"/>
      <use xlink:href="#Cmr10-2e" transform="translate(473.193359 0)"/>
      <use xlink:href="#Cmr10-20" transform="translate(500.878906 0)"/>
      <use xlink:href="#Cmr10-52" transform="translate(534.179688 0)"/>
      <use xlink:href="#Cmr10-65" transform="translate(607.763672 0)"/>
      <use xlink:href="#Cmr10-77" transform="translate(652.148438 0)"/>
      <use xlink:href="#Cmr10-61" transform="translate(724.365234 0)"/>
      <use xlink:href="#Cmr10-72" transform="translate(774.365234 0)"/>
      <use xlink:href="#Cmr10-64" transform="translate(813.476562 0)"/>
      <use xlink:href="#Cmr10-20" transform="translate(868.994141 0)"/>
      <use xlink:href="#Cmr10-28" transform="translate(902.294922 0)"/>
      <use xlink:href="#Cmsy10-a7" transform="translate(941.113281 0)"/>
      <use xlink:href="#Cmmi10-be" transform="translate(1018.798828 0)"/>
      <use xlink:href="#Cmr10-29" transform="translate(1075.878906 0)"/>
      <use xlink:href="#Cmr10-2c" transform="translate(1114.697266 0)"/>
      <use xlink:href="#Cmr10-20" transform="translate(1142.382812 0)"/>
      <use xlink:href="#Cmr10-53" transform="translate(1175.683594 0)"/>
      <use xlink:href="#Cmr10-6d" transform="translate(1231.201172 0)"/>
      <use xlink:href="#Cmr10-6f" transform="translate(1314.501953 0)"/>
      <use xlink:href="#Cmr10-6f" transform="translate(1364.501953 0)"/>
      <use xlink:href="#Cmr10-74" transform="translate(1414.501953 0)"/>
      <use xlink:href="#Cmr10-68" transform="translate(1453.320312 0)"/>
      <use xlink:href="#Cmr10-65" transform="translate(1508.837891 0)"/>
      <use xlink:href="#Cmr10-64" transform="translate(1553.222656 0)"/>
      <use xlink:href="#Cmr10-20" transform="translate(1608.740234 0)"/>
      <use xlink:href="#Cmr10-28" transform="translate(1642.041016 0)"/>
      <use xlink:href="#Cmr10-57" transform="translate(1680.859375 0)"/>
      <use xlink:href="#Cmr10-69" transform="translate(1783.544922 0)"/>
      <use xlink:href="#Cmr10-6e" transform="translate(1811.230469 0)"/>
      <use xlink:href="#Cmr10-64" transform="translate(1866.748047 0)"/>
      <use xlink:href="#Cmr10-6f" transform="translate(1922.265625 0)"/>
      <use xlink:href="#Cmr10-77" transform="translate(1972.265625 0)"/>
      <use xlink:href="#Cmr10-20" transform="translate(2044.482422 0)"/>
      <use xlink:href="#Cmr10-3d" transform="translate(2077.783203 0)"/>
      <use xlink:href="#Cmr10-20" transform="translate(2155.46875 0)"/>
      <use xlink:href="#Cmr10-35" transform="translate(2188.769531 0)"/>
      <use xlink:href="#Cmr10-20" transform="translate(2238.769531 0)"/>
      <use xlink:href="#Cmr10-65" transform="translate(2272.070312 0)"/>
      <use xlink:href="#Cmr10-70" transform="translate(2316.455078 0)"/>
      <use xlink:href="#Cmr10-2e" transform="translate(2371.972656 0)"/>
      <use xlink:href="#Cmr10-29" transform="translate(2399.658203 0)"/>
     </g>
    </g>
   </g>
   <g id="line2d_106">
    <path d="M 57.351129 216.126091 
L 58.602397 211.56945 
L 59.853665 203.126261 
L 61.104933 185.248144 
L 62.356201 170.398853 
L 63.607469 154.343393 
L 64.858737 139.654925 
L 66.110004 128.504555 
L 67.361272 125.261299 
L 68.61254 122.125257 
L 69.863808 125.395317 
L 71.115076 125.154083 
L 72.366344 125.904589 
L 73.617612 126.172627 
L 74.86888 122.393295 
L 76.120147 127.057151 
L 77.371415 123.277819 
L 78.622683 120.08817 
L 79.873951 114.244948 
L 81.125219 114.861434 
L 82.376487 110.465616 
L 83.627755 105.801759 
L 84.879022 97.841038 
L 86.13029 99.851321 
L 87.381558 92.721517 
L 88.632826 92.45348 
L 89.884094 91.434936 
L 91.135362 97.733823 
L 92.38663 97.707019 
L 93.637897 100.012144 
L 94.889165 98.243095 
L 96.140433 98.001861 
L 97.391701 93.123574 
L 98.642969 79.748491 
L 99.894237 74.548559 
L 101.145505 69.402234 
L 102.396772 69.536253 
L 103.64804 64.791985 
L 104.899308 65.971351 
L 106.150576 69.831095 
L 107.401844 65.086827 
L 108.653112 61.763159 
L 109.90438 61.521925 
L 111.155647 64.121891 
L 112.406915 59.645661 
L 113.658183 57.7962 
L 114.909451 56.16117 
L 116.160719 57.662181 
L 117.411987 57.769396 
L 118.663255 58.680725 
L 119.914522 56.724049 
L 121.16579 55.73231 
L 122.417058 53.10554 
L 123.668326 55.812721 
L 124.919594 50.398359 
L 126.170862 53.507596 
L 127.42213 53.185951 
L 128.673397 57.260125 
L 129.924665 54.365317 
L 131.175933 57.662181 
L 132.427201 57.447751 
L 133.678469 56.456012 
L 134.929737 54.365317 
L 136.181005 55.196234 
L 137.432272 58.171453 
L 138.68354 62.701291 
L 139.934808 60.985849 
L 141.186076 59.967306 
L 142.437344 59.109585 
L 143.688612 52.596268 
L 144.93988 43.80463 
L 146.191147 51.550921 
L 147.442415 50.559181 
L 148.693683 46.538615 
L 149.944951 44.206687 
L 151.196219 44.58194 
L 152.447487 35.334638 
L 153.698755 33.21714 
L 154.950022 30.912015 
L 156.20129 28.982144 
L 157.452558 25.33683 
L 158.703826 23.192528 
L 159.955094 19.600823 
L 161.206362 18.769906 
L 162.45763 20.056487 
L 163.708897 21.209049 
L 164.960165 22.468827 
L 166.211433 23.165725 
L 167.462701 23.755408 
L 168.713969 22.173985 
L 169.965237 22.576042 
L 171.216505 23.862623 
L 172.467773 22.49563 
L 173.71904 22.415219 
L 174.970308 24.264679 
L 176.221576 23.48737 
" clip-path="url(#pc5ae78fcd0)" style="fill: none; stroke: #0c5da5; stroke-linecap: square"/>
   </g>
   <g id="line2d_107">
    <path d="M 57.351129 224.381654 
L 82.376487 224.381654 
L 83.627755 223.14868 
L 88.632826 223.14868 
L 89.884094 224.381654 
L 92.38663 224.381654 
L 93.637897 222.183744 
L 94.889165 222.183744 
L 96.140433 219.985835 
L 98.642969 219.985835 
L 99.894237 220.468303 
L 101.145505 214.008593 
L 102.396772 216.206503 
L 103.64804 208.058155 
L 104.899308 208.058155 
L 106.150576 209.773597 
L 107.401844 207.977744 
L 108.653112 199.588163 
L 109.90438 207.73651 
L 111.155647 200.285061 
L 112.406915 194.656269 
L 113.658183 198.810854 
L 114.909451 207.200435 
L 116.160719 207.200435 
L 117.411987 208.299389 
L 118.663255 201.732465 
L 119.914522 201.732465 
L 121.16579 196.720159 
L 122.417058 189.751178 
L 123.668326 196.103672 
L 124.919594 196.184084 
L 126.170862 197.309842 
L 127.42213 195.648008 
L 128.673397 192.806808 
L 129.924665 192.806808 
L 131.175933 194.602661 
L 132.427201 179.351314 
L 133.678469 169.701955 
L 134.929737 170.988536 
L 136.181005 161.714431 
L 137.432272 159.462914 
L 138.68354 158.283548 
L 139.934808 163.26905 
L 141.186076 158.122725 
L 142.437344 157.265004 
L 143.688612 159.462914 
L 144.93988 154.95988 
L 146.191147 149.411499 
L 147.442415 143.193023 
L 148.693683 130.80968 
L 149.944951 121.589182 
L 151.196219 126.33345 
L 152.447487 111.993431 
L 153.698755 119.176842 
L 154.950022 114.244948 
L 156.20129 106.900714 
L 157.452558 102.531699 
L 158.703826 114.057321 
L 159.955094 104.273944 
L 161.206362 109.956344 
L 162.45763 117.407793 
L 163.708897 113.789283 
L 164.960165 114.861434 
L 166.211433 120.704657 
L 167.462701 111.591374 
L 168.713969 109.125427 
L 169.965237 112.663525 
L 171.216505 102.746129 
L 172.467773 100.869865 
L 173.71904 104.917234 
L 174.970308 107.034732 
L 176.221576 114.164536 
L 177.472844 128.879808 
L 178.724112 122.018042 
L 179.97538 127.646834 
L 181.226648 129.281865 
L 182.477915 123.063389 
L 183.729183 120.65105 
L 184.980451 120.034563 
L 186.231719 121.910827 
L 187.482987 121.267536 
L 188.734255 133.838506 
L 189.985523 127.914872 
L 191.23679 133.114804 
L 192.488058 123.733483 
L 193.739326 116.576876 
L 194.990594 97.438982 
L 196.241862 90.818449 
L 197.49313 78.006246 
L 198.744398 71.117676 
L 199.995665 76.156785 
L 201.246933 79.051593 
L 202.498201 79.024789 
L 203.749469 78.729947 
L 205.000737 85.940163 
L 206.252005 85.028834 
L 207.503273 76.264 
L 208.75454 75.111438 
L 210.005808 82.670102 
L 211.257076 81.758774 
L 212.508344 74.816597 
L 213.759612 78.006246 
L 215.01088 71.921789 
L 216.262148 72.77951 
L 217.513415 75.325868 
L 218.764683 73.798053 
L 220.015951 77.228936 
L 221.267219 84.063898 
L 222.518487 77.630993 
L 223.769755 81.839185 
L 225.021023 90.121551 
L 226.27229 80.284566 
L 227.523558 81.356717 
L 228.774826 79.775295 
L 230.026094 67.338344 
L 231.277362 67.686793 
L 232.52863 78.059853 
L 233.779898 79.507257 
L 235.031165 86.154593 
L 236.282433 86.047378 
L 237.533701 70.903246 
L 238.784969 77.443366 
L 240.036237 68.812551 
L 241.287505 64.229106 
L 242.538773 62.138412 
L 243.79004 69.429038 
L 245.041308 63.156955 
L 246.292576 60.878634 
L 247.543844 62.567272 
L 248.795112 76.398019 
L 250.04638 76.907291 
L 251.297648 80.016529 
L 252.548915 100.628631 
L 253.800183 98.216291 
L 255.051451 94.061706 
L 256.302719 88.540129 
L 257.553987 80.391781 
L 258.805255 75.433083 
L 260.056523 74.280521 
L 261.30779 71.734163 
L 262.559058 79.132004 
L 263.810326 76.907291 
L 265.061594 67.981634 
L 266.312862 68.196064 
L 267.56413 76.800076 
L 268.815398 71.305302 
L 270.066665 80.31137 
L 271.317933 74.762989 
L 272.569201 78.140264 
L 273.820469 65.917744 
L 275.071737 65.864136 
L 276.323005 56.616834 
L 277.574273 54.177691 
L 278.825541 49.835479 
L 280.076808 58.332276 
L 281.328076 54.660159 
L 282.579344 53.373578 
L 283.830612 65.354864 
L 285.08188 71.519732 
L 286.333148 65.67651 
L 287.584416 82.72371 
L 288.835683 87.467978 
L 290.086951 81.758774 
L 292.589487 69.402234 
L 293.840755 53.132344 
L 295.092023 50.746808 
L 296.343291 46.726242 
L 297.594558 47.101495 
L 298.845826 51.792155 
L 300.097094 48.870544 
L 301.348362 47.932412 
L 302.59963 52.676679 
L 303.850898 49.755068 
L 305.102166 47.798393 
L 306.353433 58.278668 
L 307.604701 63.505404 
L 308.855969 64.604359 
L 310.107237 75.459887 
L 311.358505 72.859921 
L 312.609773 69.697076 
L 313.861041 73.476408 
L 315.112308 71.600144 
L 316.363576 61.950785 
L 317.614844 64.979612 
L 318.866112 73.4228 
L 320.11738 70.849638 
L 321.368648 75.969159 
L 322.619916 82.670102 
L 323.871183 82.72371 
L 325.122451 78.354695 
L 326.373719 69.563057 
L 326.373719 69.563057 
" clip-path="url(#pc5ae78fcd0)" style="fill: none; stroke: #00b945; stroke-linecap: square"/>
   </g>
   <g id="patch_3">
    <path d="M 43.9 243.54375 
L 43.9 3.6 
" style="fill: none; stroke: #000000; stroke-width: 0.5; stroke-linejoin: miter; stroke-linecap: square"/>
   </g>
   <g id="patch_4">
    <path d="M 339.824849 243.54375 
L 339.824849 3.6 
" style="fill: none; stroke: #000000; stroke-width: 0.5; stroke-linejoin: miter; stroke-linecap: square"/>
   </g>
   <g id="patch_5">
    <path d="M 43.9 243.54375 
L 339.824849 243.54375 
" style="fill: none; stroke: #000000; stroke-width: 0.5; stroke-linejoin: miter; stroke-linecap: square"/>
   </g>
   <g id="patch_6">
    <path d="M 43.9 3.6 
L 339.824849 3.6 
" style="fill: none; stroke: #000000; stroke-width: 0.5; stroke-linejoin: miter; stroke-linecap: square"/>
   </g>
   <g id="legend_1">
    <g id="line2d_108">
     <path d="M 52.9 16.1 
L 62.9 16.1 
L 72.9 16.1 
" style="fill: none; stroke: #0c5da5; stroke-linecap: square"/>
    </g>
    <g id="text_14">
     <!-- PPO -->
     <g transform="translate(80.9 19.6) scale(0.1 -0.1)">
      <defs>
       <path id="Cmr10-50" d="M 213 0 
L 213 225 
Q 872 225 872 428 
L 872 3944 
Q 872 4147 213 4147 
L 213 4372 
L 2491 4372 
Q 2841 4372 3191 4228 
Q 3541 4084 3767 3809 
Q 3994 3534 3994 3169 
Q 3994 2813 3766 2544 
Q 3538 2275 3191 2136 
Q 2844 1997 2491 1997 
L 1466 1997 
L 1466 428 
Q 1466 225 2125 225 
L 2125 0 
L 213 0 
z
M 1447 2188 
L 2316 2188 
Q 2669 2188 2887 2289 
Q 3106 2391 3207 2605 
Q 3309 2819 3309 3169 
Q 3309 3691 3079 3919 
Q 2850 4147 2316 4147 
L 1772 4147 
Q 1656 4147 1592 4137 
Q 1528 4128 1487 4083 
Q 1447 4038 1447 3944 
L 1447 2188 
z
" transform="scale(0.015625)"/>
       <path id="Cmr10-4f" d="M 2491 -141 
Q 1881 -141 1395 182 
Q 909 506 634 1042 
Q 359 1578 359 2169 
Q 359 2606 517 3034 
Q 675 3463 958 3794 
Q 1241 4125 1637 4319 
Q 2034 4513 2491 4513 
Q 2944 4513 3342 4317 
Q 3741 4122 4025 3787 
Q 4309 3453 4462 3037 
Q 4616 2622 4616 2169 
Q 4616 1578 4341 1042 
Q 4066 506 3578 182 
Q 3091 -141 2491 -141 
z
M 1428 691 
Q 1616 397 1891 223 
Q 2166 50 2491 50 
Q 2700 50 2901 134 
Q 3103 219 3267 366 
Q 3431 513 3547 691 
Q 3928 1266 3928 2272 
Q 3928 3194 3547 3731 
Q 3359 4000 3079 4162 
Q 2800 4325 2491 4325 
Q 2178 4325 1897 4162 
Q 1616 4000 1428 3731 
Q 1278 3522 1195 3286 
Q 1113 3050 1078 2797 
Q 1044 2544 1044 2272 
Q 1044 1981 1076 1704 
Q 1109 1428 1198 1162 
Q 1288 897 1428 691 
z
" transform="scale(0.015625)"/>
      </defs>
      <use xlink:href="#Cmr10-50"/>
      <use xlink:href="#Cmr10-50" transform="translate(68.017578 0)"/>
      <use xlink:href="#Cmr10-4f" transform="translate(136.035156 0)"/>
     </g>
    </g>
    <g id="line2d_109">
     <path d="M 52.9 30.090625 
L 62.9 30.090625 
L 72.9 30.090625 
" style="fill: none; stroke: #00b945; stroke-linecap: square"/>
    </g>
    <g id="text_15">
     <!-- DQN -->
     <g transform="translate(80.9 33.590625) scale(0.1 -0.1)">
      <defs>
       <path id="Cmr10-44" d="M 213 0 
L 213 225 
Q 872 225 872 428 
L 872 3944 
Q 872 4147 213 4147 
L 213 4372 
L 2572 4372 
Q 3009 4372 3371 4183 
Q 3734 3994 3990 3678 
Q 4247 3363 4386 2963 
Q 4525 2563 4525 2144 
Q 4525 1738 4384 1355 
Q 4244 972 3980 664 
Q 3716 356 3355 178 
Q 2994 0 2572 0 
L 213 0 
z
M 1447 428 
Q 1447 291 1525 258 
Q 1603 225 1772 225 
L 2406 225 
Q 2734 225 3029 367 
Q 3325 509 3519 763 
Q 3722 1031 3790 1364 
Q 3859 1697 3859 2144 
Q 3859 2609 3790 2959 
Q 3722 3309 3519 3584 
Q 3328 3856 3034 4001 
Q 2741 4147 2406 4147 
L 1772 4147 
Q 1656 4147 1592 4137 
Q 1528 4128 1487 4083 
Q 1447 4038 1447 3944 
L 1447 428 
z
" transform="scale(0.015625)"/>
       <path id="Cmr10-51" d="M 2491 -141 
Q 1881 -141 1395 182 
Q 909 506 634 1042 
Q 359 1578 359 2169 
Q 359 2606 517 3034 
Q 675 3463 958 3794 
Q 1241 4125 1637 4319 
Q 2034 4513 2491 4513 
Q 2944 4513 3342 4317 
Q 3741 4122 4025 3787 
Q 4309 3453 4462 3037 
Q 4616 2622 4616 2169 
Q 4616 1728 4461 1309 
Q 4306 891 4011 559 
Q 3716 228 3322 44 
Q 3444 -241 3572 -398 
Q 3700 -556 3928 -556 
Q 4169 -556 4341 -390 
Q 4513 -225 4513 13 
Q 4513 34 4536 53 
Q 4559 72 4581 72 
Q 4653 72 4653 -13 
Q 4653 -472 4473 -856 
Q 4294 -1241 3884 -1241 
Q 3659 -1241 3512 -1130 
Q 3366 -1019 3289 -848 
Q 3213 -678 3169 -453 
Q 3125 -228 3091 -44 
Q 2809 -141 2491 -141 
z
M 2491 44 
Q 2778 44 3047 191 
Q 2988 466 2864 630 
Q 2741 794 2491 794 
Q 2338 794 2231 680 
Q 2125 566 2125 416 
Q 2125 253 2226 148 
Q 2328 44 2491 44 
z
M 1959 416 
Q 1959 556 2028 681 
Q 2097 806 2220 882 
Q 2344 959 2491 959 
Q 2769 959 2931 779 
Q 3094 600 3219 294 
Q 3431 453 3575 670 
Q 3719 888 3798 1127 
Q 3878 1366 3914 1633 
Q 3950 1900 3950 2169 
Q 3950 2613 3861 3003 
Q 3772 3394 3559 3706 
Q 3375 3984 3090 4154 
Q 2806 4325 2491 4325 
Q 2169 4325 1886 4158 
Q 1603 3991 1416 3706 
Q 1197 3388 1111 2997 
Q 1025 2606 1025 2169 
Q 1025 1488 1256 930 
Q 1488 372 2028 141 
Q 1959 272 1959 416 
z
" transform="scale(0.015625)"/>
       <path id="Cmr10-4e" d="M 197 0 
L 197 225 
Q 856 225 856 603 
L 856 4109 
Q 647 4147 197 4147 
L 197 4372 
L 1422 4372 
Q 1453 4372 1466 4347 
L 3731 1013 
L 3731 3769 
Q 3731 4147 3072 4147 
L 3072 4372 
L 4594 4372 
L 4594 4147 
Q 3938 4147 3938 3769 
L 3938 56 
Q 3938 38 3913 19 
Q 3888 0 3872 0 
L 3794 0 
Q 3763 0 3750 25 
L 1063 3981 
L 1063 603 
Q 1063 225 1722 225 
L 1722 0 
L 197 0 
z
" transform="scale(0.015625)"/>
      </defs>
      <use xlink:href="#Cmr10-44"/>
      <use xlink:href="#Cmr10-51" transform="translate(76.318359 0)"/>
      <use xlink:href="#Cmr10-4e" transform="translate(154.003906 0)"/>
     </g>
    </g>
   </g>
  </g>
 </g>
 <defs>
  <clipPath id="pc5ae78fcd0">
   <rect x="43.9" y="3.6" width="295.924849" height="239.94375"/>
  </clipPath>
 </defs>
</svg>
