<?xml version="1.0" encoding="utf-8" standalone="no"?>
<!DOCTYPE svg PUBLIC "-//W3C//DTD SVG 1.1//EN"
  "http://www.w3.org/Graphics/SVG/1.1/DTD/svg11.dtd">
<svg xmlns:xlink="http://www.w3.org/1999/xlink" width="343.393281pt" height="272.4pt" viewBox="0 0 343.393281 272.4" xmlns="http://www.w3.org/2000/svg" version="1.1">
 <metadata>
  <rdf:RDF xmlns:dc="http://purl.org/dc/elements/1.1/" xmlns:cc="http://creativecommons.org/ns#" xmlns:rdf="http://www.w3.org/1999/02/22-rdf-syntax-ns#">
   <cc:Work>
    <dc:type rdf:resource="http://purl.org/dc/dcmitype/StillImage"/>
    <dc:date>2025-05-30T23:38:59.200904</dc:date>
    <dc:format>image/svg+xml</dc:format>
    <dc:creator>
     <cc:Agent>
      <dc:title>Matplotlib v3.10.3, https://matplotlib.org/</dc:title>
     </cc:Agent>
    </dc:creator>
   </cc:Work>
  </rdf:RDF>
 </metadata>
 <defs>
  <style type="text/css">*{stroke-linejoin: round; stroke-linecap: butt}</style>
 </defs>
 <g id="figure_1">
  <g id="patch_1">
   <path d="M 0 272.4 
L 343.393281 272.4 
L 343.393281 0 
L 0 0 
z
" style="fill: #ffffff"/>
  </g>
  <g id="axes_1">
   <g id="patch_2">
    <path d="M 36.1 243.54375 
L 339.793281 243.54375 
L 339.793281 3.6 
L 36.1 3.6 
z
" style="fill: #ffffff"/>
   </g>
   <g id="FillBetweenPolyCollection_1">
    <path d="M 49.90424 83.096507 
L 49.90424 232.637216 
L 52.971849 197.803942 
L 56.039458 167.617632 
L 59.107067 168.263928 
L 62.174676 139.187538 
L 65.242285 115.718988 
L 68.309893 104.997359 
L 71.377502 97.803614 
L 74.445111 95.198139 
L 77.51272 86.623299 
L 80.580329 77.619158 
L 83.647938 77.802961 
L 86.715547 67.413863 
L 89.783156 77.491449 
L 92.850765 85.979718 
L 95.918374 85.979718 
L 98.985982 85.22761 
L 102.053591 85.22761 
L 105.1212 76.519831 
L 108.188809 79.795971 
L 111.256418 79.795971 
L 114.324027 79.57805 
L 117.391636 79.57805 
L 120.459245 70.427201 
L 123.526854 58.472024 
L 126.594463 65.612037 
L 129.662071 66.79265 
L 132.72968 66.79265 
L 135.797289 66.79265 
L 138.864898 58.840594 
L 141.932507 58.840594 
L 145.000116 58.840594 
L 148.067725 58.840594 
L 151.135334 58.240522 
L 154.202943 57.608999 
L 157.270552 55.015186 
L 160.338161 53.389719 
L 163.405769 60.932613 
L 166.473378 60.932613 
L 169.540987 56.455604 
L 172.608596 56.455604 
L 175.676205 56.455604 
L 178.743814 56.455604 
L 181.811423 56.455604 
L 184.879032 56.455604 
L 187.946641 49.914726 
L 191.01425 49.914726 
L 194.081858 33.142308 
L 197.149467 33.142308 
L 200.217076 33.142308 
L 203.284685 33.142308 
L 206.352294 33.142308 
L 209.419903 33.142308 
L 212.487512 33.142308 
L 215.555121 36.151427 
L 218.62273 36.151427 
L 221.690339 36.151427 
L 224.757947 36.151427 
L 227.825556 36.151427 
L 230.893165 37.504373 
L 233.960774 37.504373 
L 237.028383 37.504373 
L 240.095992 37.504373 
L 243.163601 37.504373 
L 246.23121 35.94626 
L 249.298819 35.94626 
L 252.366428 35.94626 
L 255.434036 35.94626 
L 258.501645 35.94626 
L 261.569254 33.142308 
L 264.636863 33.142308 
L 267.704472 33.142308 
L 270.772081 33.142308 
L 273.83969 33.142308 
L 276.907299 33.142308 
L 279.974908 33.142308 
L 283.042517 33.142308 
L 286.110125 33.142308 
L 289.177734 44.494893 
L 292.245343 44.494893 
L 295.312952 44.494893 
L 298.380561 44.494893 
L 301.44817 44.494893 
L 304.515779 44.494893 
L 307.583388 44.494893 
L 310.650997 44.494893 
L 313.718606 44.494893 
L 316.786214 44.494893 
L 319.853823 33.142308 
L 322.921432 33.142308 
L 325.989041 33.142308 
L 325.989041 33.142308 
L 325.989041 33.142308 
L 322.921432 33.142308 
L 319.853823 33.142308 
L 316.786214 27.466016 
L 313.718606 27.466016 
L 310.650997 27.466016 
L 307.583388 27.466016 
L 304.515779 27.466016 
L 301.44817 27.466016 
L 298.380561 27.466016 
L 295.312952 27.466016 
L 292.245343 27.466016 
L 289.177734 27.466016 
L 286.110125 33.142308 
L 283.042517 33.142308 
L 279.974908 33.142308 
L 276.907299 33.142308 
L 273.83969 33.142308 
L 270.772081 33.142308 
L 267.704472 33.142308 
L 264.636863 33.142308 
L 261.569254 33.142308 
L 258.501645 31.740332 
L 255.434036 31.740332 
L 252.366428 31.740332 
L 249.298819 31.740332 
L 246.23121 31.740332 
L 243.163601 31.686779 
L 240.095992 31.686779 
L 237.028383 31.686779 
L 233.960774 31.686779 
L 230.893165 31.686779 
L 227.825556 31.637749 
L 224.757947 31.637749 
L 221.690339 31.637749 
L 218.62273 31.637749 
L 215.555121 31.637749 
L 212.487512 33.142308 
L 209.419903 33.142308 
L 206.352294 33.142308 
L 203.284685 33.142308 
L 200.217076 33.142308 
L 197.149467 33.142308 
L 194.081858 33.142308 
L 191.01425 24.756099 
L 187.946641 24.756099 
L 184.879032 25.327684 
L 181.811423 25.327684 
L 178.743814 25.327684 
L 175.676205 25.327684 
L 172.608596 25.327684 
L 169.540987 25.327684 
L 166.473378 27.219406 
L 163.405769 27.219406 
L 160.338161 26.376092 
L 157.270552 27.913619 
L 154.202943 26.969692 
L 151.135334 28.210319 
L 148.067725 29.559335 
L 145.000116 29.559335 
L 141.932507 29.559335 
L 138.864898 29.559335 
L 135.797289 27.061307 
L 132.72968 27.061307 
L 129.662071 27.061307 
L 126.594463 25.078926 
L 123.526854 23.45659 
L 120.459245 22.21285 
L 117.391636 23.440042 
L 114.324027 23.440042 
L 111.256418 24.247957 
L 108.188809 24.247957 
L 105.1212 24.617561 
L 102.053591 28.407883 
L 98.985982 28.407883 
L 95.918374 31.135069 
L 92.850765 31.135069 
L 89.783156 27.03975 
L 86.715547 24.790208 
L 83.647938 26.959052 
L 80.580329 26.117019 
L 77.51272 30.089703 
L 74.445111 29.294118 
L 71.377502 29.107907 
L 68.309893 35.86553 
L 65.242285 40.437405 
L 62.174676 47.205369 
L 59.107067 56.495244 
L 56.039458 62.843478 
L 52.971849 64.663249 
L 49.90424 83.096507 
z
" clip-path="url(#p62a635919e)" style="fill: #0c5da5; fill-opacity: 0.2"/>
   </g>
   <g id="FillBetweenPolyCollection_2">
    <path d="M 49.90424 52.946642 
L 49.90424 154.552841 
L 52.971849 145.116841 
L 56.039458 129.011198 
L 59.107067 109.07295 
L 62.174676 109.176271 
L 65.242285 109.183097 
L 68.309893 108.77353 
L 71.377502 102.251432 
L 74.445111 105.123047 
L 77.51272 104.872767 
L 80.580329 90.176208 
L 83.647938 84.620422 
L 86.715547 66.772029 
L 89.783156 66.772029 
L 92.850765 70.410367 
L 95.918374 70.058673 
L 98.985982 68.808201 
L 102.053591 74.198399 
L 105.1212 70.546798 
L 108.188809 64.637188 
L 111.256418 65.101934 
L 114.324027 65.101934 
L 117.391636 65.101934 
L 120.459245 65.101934 
L 123.526854 60.861216 
L 126.594463 70.970799 
L 129.662071 71.139125 
L 132.72968 65.26619 
L 135.797289 56.91887 
L 138.864898 56.91887 
L 141.932507 56.188093 
L 145.000116 56.188093 
L 148.067725 69.339431 
L 151.135334 69.339431 
L 154.202943 69.339431 
L 157.270552 61.532316 
L 160.338161 61.24761 
L 163.405769 61.24761 
L 166.473378 62.593287 
L 169.540987 62.593287 
L 172.608596 62.593287 
L 175.676205 62.593287 
L 178.743814 45.036079 
L 181.811423 45.036079 
L 184.879032 45.036079 
L 187.946641 39.126351 
L 191.01425 39.126351 
L 194.081858 39.126351 
L 197.149467 33.142308 
L 200.217076 33.142308 
L 203.284685 33.142308 
L 206.352294 33.142308 
L 209.419903 33.142308 
L 212.487512 33.142308 
L 215.555121 33.142308 
L 218.62273 33.142308 
L 221.690339 33.142308 
L 224.757947 33.142308 
L 227.825556 43.537446 
L 230.893165 43.537446 
L 233.960774 43.537446 
L 237.028383 43.537446 
L 240.095992 43.537446 
L 243.163601 43.537446 
L 246.23121 43.537446 
L 249.298819 43.537446 
L 252.366428 43.537446 
L 255.434036 43.537446 
L 258.501645 33.142308 
L 261.569254 33.142308 
L 264.636863 33.142308 
L 267.704472 33.142308 
L 270.772081 33.142308 
L 273.83969 33.142308 
L 276.907299 33.142308 
L 279.974908 33.142308 
L 283.042517 33.142308 
L 286.110125 33.142308 
L 289.177734 33.142308 
L 292.245343 33.142308 
L 295.312952 33.142308 
L 298.380561 33.142308 
L 301.44817 33.142308 
L 304.515779 33.142308 
L 307.583388 33.142308 
L 310.650997 33.142308 
L 313.718606 33.142308 
L 316.786214 33.142308 
L 319.853823 33.142308 
L 322.921432 33.142308 
L 325.989041 33.142308 
L 325.989041 33.142308 
L 325.989041 33.142308 
L 322.921432 33.142308 
L 319.853823 33.142308 
L 316.786214 33.142308 
L 313.718606 33.142308 
L 310.650997 33.142308 
L 307.583388 33.142308 
L 304.515779 33.142308 
L 301.44817 33.142308 
L 298.380561 33.142308 
L 295.312952 33.142308 
L 292.245343 33.142308 
L 289.177734 33.142308 
L 286.110125 33.142308 
L 283.042517 33.142308 
L 279.974908 33.142308 
L 276.907299 33.142308 
L 273.83969 33.142308 
L 270.772081 33.142308 
L 267.704472 33.142308 
L 264.636863 33.142308 
L 261.569254 33.142308 
L 258.501645 33.142308 
L 255.434036 27.944739 
L 252.366428 27.944739 
L 249.298819 27.944739 
L 246.23121 27.944739 
L 243.163601 27.944739 
L 240.095992 27.944739 
L 237.028383 27.944739 
L 233.960774 27.944739 
L 230.893165 27.944739 
L 227.825556 27.944739 
L 224.757947 33.142308 
L 221.690339 33.142308 
L 218.62273 33.142308 
L 215.555121 33.142308 
L 212.487512 33.142308 
L 209.419903 33.142308 
L 206.352294 33.142308 
L 203.284685 33.142308 
L 200.217076 33.142308 
L 197.149467 33.142308 
L 194.081858 30.150287 
L 191.01425 30.150287 
L 187.946641 30.150287 
L 184.879032 29.010696 
L 181.811423 29.010696 
L 178.743814 29.010696 
L 175.676205 24.037076 
L 172.608596 24.037076 
L 169.540987 24.037076 
L 166.473378 24.037076 
L 163.405769 22.390731 
L 160.338161 22.390731 
L 157.270552 22.977986 
L 154.202943 21.753318 
L 151.135334 21.753318 
L 148.067725 21.753318 
L 145.000116 22.321068 
L 141.932507 22.321068 
L 138.864898 23.282921 
L 135.797289 23.282921 
L 132.72968 24.38184 
L 129.662071 27.125927 
L 126.594463 26.422292 
L 123.526854 25.179291 
L 120.459245 27.58086 
L 117.391636 27.58086 
L 114.324027 27.58086 
L 111.256418 27.58086 
L 108.188809 26.352978 
L 105.1212 29.128778 
L 102.053591 28.204192 
L 98.985982 24.977367 
L 95.918374 27.180543 
L 92.850765 28.427443 
L 89.783156 25.423494 
L 86.715547 25.423494 
L 83.647938 25.039957 
L 80.580329 29.947698 
L 77.51272 34.665084 
L 74.445111 34.825138 
L 71.377502 33.687445 
L 68.309893 41.390272 
L 65.242285 43.032377 
L 62.174676 43.543573 
L 59.107067 44.399173 
L 56.039458 51.414764 
L 52.971849 48.773218 
L 49.90424 52.946642 
z
" clip-path="url(#p62a635919e)" style="fill: #00b945; fill-opacity: 0.2"/>
   </g>
   <g id="FillBetweenPolyCollection_3">
    <path d="M 49.90424 86.925262 
L 49.90424 182.697135 
L 52.971849 163.506711 
L 56.039458 155.657537 
L 59.107067 142.725638 
L 62.174676 141.780469 
L 65.242285 124.546562 
L 68.309893 109.436694 
L 71.377502 101.894321 
L 74.445111 101.478332 
L 77.51272 87.392525 
L 80.580329 87.712601 
L 83.647938 86.914121 
L 86.715547 86.914121 
L 89.783156 94.408611 
L 92.850765 87.987454 
L 95.918374 93.667424 
L 98.985982 93.667424 
L 102.053591 92.648191 
L 105.1212 84.321262 
L 108.188809 82.315418 
L 111.256418 81.827443 
L 114.324027 81.827443 
L 117.391636 106.257529 
L 120.459245 100.337196 
L 123.526854 100.337196 
L 126.594463 94.298982 
L 129.662071 101.968828 
L 132.72968 102.438186 
L 135.797289 102.438186 
L 138.864898 93.211607 
L 141.932507 93.211607 
L 145.000116 93.211607 
L 148.067725 62.858816 
L 151.135334 61.072698 
L 154.202943 74.093922 
L 157.270552 74.093922 
L 160.338161 61.999082 
L 163.405769 67.084074 
L 166.473378 67.084074 
L 169.540987 67.084074 
L 172.608596 67.084074 
L 175.676205 67.084074 
L 178.743814 66.073455 
L 181.811423 66.073455 
L 184.879032 49.294197 
L 187.946641 49.294197 
L 191.01425 49.26503 
L 194.081858 46.392689 
L 197.149467 46.392689 
L 200.217076 46.392689 
L 203.284685 46.392689 
L 206.352294 46.392689 
L 209.419903 46.392689 
L 212.487512 46.392689 
L 215.555121 46.392689 
L 218.62273 46.392689 
L 221.690339 46.392689 
L 224.757947 33.142308 
L 227.825556 33.142308 
L 230.893165 33.142308 
L 233.960774 33.142308 
L 237.028383 33.142308 
L 240.095992 33.142308 
L 243.163601 33.142308 
L 246.23121 33.142308 
L 249.298819 33.142308 
L 252.366428 33.142308 
L 255.434036 33.142308 
L 258.501645 33.142308 
L 261.569254 33.142308 
L 264.636863 33.142308 
L 267.704472 33.142308 
L 270.772081 33.142308 
L 273.83969 33.142308 
L 276.907299 57.26655 
L 279.974908 57.26655 
L 283.042517 57.26655 
L 286.110125 57.26655 
L 289.177734 57.26655 
L 292.245343 57.26655 
L 295.312952 63.871461 
L 298.380561 63.871461 
L 301.44817 63.871461 
L 304.515779 77.813278 
L 307.583388 68.027464 
L 310.650997 68.027464 
L 313.718606 68.027464 
L 316.786214 68.027464 
L 319.853823 68.027464 
L 322.921432 68.027464 
L 325.989041 62.002493 
L 325.989041 18.712216 
L 325.989041 18.712216 
L 322.921432 20.791348 
L 319.853823 20.791348 
L 316.786214 20.791348 
L 313.718606 20.791348 
L 310.650997 20.791348 
L 307.583388 20.791348 
L 304.515779 23.067656 
L 301.44817 22.57938 
L 298.380561 22.57938 
L 295.312952 22.57938 
L 292.245343 21.080187 
L 289.177734 21.080187 
L 286.110125 21.080187 
L 283.042517 21.080187 
L 279.974908 21.080187 
L 276.907299 21.080187 
L 273.83969 33.142308 
L 270.772081 33.142308 
L 267.704472 33.142308 
L 264.636863 33.142308 
L 261.569254 33.142308 
L 258.501645 33.142308 
L 255.434036 33.142308 
L 252.366428 33.142308 
L 249.298819 33.142308 
L 246.23121 33.142308 
L 243.163601 33.142308 
L 240.095992 33.142308 
L 237.028383 33.142308 
L 233.960774 33.142308 
L 230.893165 33.142308 
L 227.825556 33.142308 
L 224.757947 33.142308 
L 221.690339 26.517118 
L 218.62273 26.517118 
L 215.555121 26.517118 
L 212.487512 26.517118 
L 209.419903 26.517118 
L 206.352294 26.517118 
L 203.284685 26.517118 
L 200.217076 26.517118 
L 197.149467 26.517118 
L 194.081858 26.517118 
L 191.01425 25.080947 
L 187.946641 25.137266 
L 184.879032 25.137266 
L 181.811423 21.702424 
L 178.743814 21.702424 
L 175.676205 23.29059 
L 172.608596 23.29059 
L 169.540987 23.29059 
L 166.473378 23.29059 
L 163.405769 23.29059 
L 160.338161 22.451379 
L 157.270552 23.153842 
L 154.202943 23.153842 
L 151.135334 22.83065 
L 148.067725 24.720445 
L 145.000116 16.166668 
L 141.932507 16.166668 
L 138.864898 16.166668 
L 135.797289 21.387278 
L 132.72968 21.387278 
L 129.662071 19.719478 
L 126.594463 14.506534 
L 123.526854 19.5388 
L 120.459245 19.5388 
L 117.391636 22.756955 
L 114.324027 22.789243 
L 111.256418 22.789243 
L 108.188809 24.267454 
L 105.1212 23.663585 
L 102.053591 28.407516 
L 98.985982 31.893413 
L 95.918374 31.893413 
L 92.850765 26.502903 
L 89.783156 31.9387 
L 86.715547 26.618789 
L 83.647938 26.618789 
L 80.580329 29.256859 
L 77.51272 27.61075 
L 74.445111 22.441167 
L 71.377502 22.452609 
L 68.309893 25.501992 
L 65.242285 32.644216 
L 62.174676 41.962362 
L 59.107067 42.752566 
L 56.039458 56.022227 
L 52.971849 72.810213 
L 49.90424 86.925262 
z
" clip-path="url(#p62a635919e)" style="fill: #ff9500; fill-opacity: 0.2"/>
   </g>
   <g id="matplotlib.axis_1">
    <g id="xtick_1">
     <g id="line2d_1">
      <path d="M 49.90424 243.54375 
L 49.90424 3.6 
" clip-path="url(#p62a635919e)" style="fill: none; stroke: #b0b0b0; stroke-width: 0.5; stroke-linecap: square"/>
     </g>
     <g id="line2d_2">
      <defs>
       <path id="mc79d68848d" d="M 0 0 
L 0 -3 
" style="stroke: #000000; stroke-width: 0.5"/>
      </defs>
      <g>
       <use xlink:href="#mc79d68848d" x="49.90424" y="243.54375" style="stroke: #000000; stroke-width: 0.5"/>
      </g>
     </g>
     <g id="line2d_3">
      <defs>
       <path id="m737d4e74be" d="M 0 0 
L 0 3 
" style="stroke: #000000; stroke-width: 0.5"/>
      </defs>
      <g>
       <use xlink:href="#m737d4e74be" x="49.90424" y="3.6" style="stroke: #000000; stroke-width: 0.5"/>
      </g>
     </g>
     <g id="text_1">
      <!-- $\mathdefault{0}$ -->
      <g transform="translate(47.40424 253.982812) scale(0.1 -0.1)">
       <defs>
        <path id="Cmr10-30" d="M 1600 -141 
Q 816 -141 533 504 
Q 250 1150 250 2041 
Q 250 2597 351 3087 
Q 453 3578 754 3920 
Q 1056 4263 1600 4263 
Q 2022 4263 2290 4056 
Q 2559 3850 2700 3523 
Q 2841 3197 2892 2823 
Q 2944 2450 2944 2041 
Q 2944 1491 2842 1011 
Q 2741 531 2444 195 
Q 2147 -141 1600 -141 
z
M 1600 25 
Q 1956 25 2131 390 
Q 2306 756 2347 1200 
Q 2388 1644 2388 2144 
Q 2388 2625 2347 3031 
Q 2306 3438 2132 3767 
Q 1959 4097 1600 4097 
Q 1238 4097 1063 3765 
Q 888 3434 847 3029 
Q 806 2625 806 2144 
Q 806 1788 823 1472 
Q 841 1156 916 820 
Q 991 484 1158 254 
Q 1325 25 1600 25 
z
" transform="scale(0.015625)"/>
       </defs>
       <use xlink:href="#Cmr10-30" transform="translate(0 0.390625)"/>
      </g>
     </g>
    </g>
    <g id="xtick_2">
     <g id="line2d_4">
      <path d="M 111.256418 243.54375 
L 111.256418 3.6 
" clip-path="url(#p62a635919e)" style="fill: none; stroke: #b0b0b0; stroke-width: 0.5; stroke-linecap: square"/>
     </g>
     <g id="line2d_5">
      <g>
       <use xlink:href="#mc79d68848d" x="111.256418" y="243.54375" style="stroke: #000000; stroke-width: 0.5"/>
      </g>
     </g>
     <g id="line2d_6">
      <g>
       <use xlink:href="#m737d4e74be" x="111.256418" y="3.6" style="stroke: #000000; stroke-width: 0.5"/>
      </g>
     </g>
     <g id="text_2">
      <!-- $\mathdefault{20000}$ -->
      <g transform="translate(98.756418 253.982812) scale(0.1 -0.1)">
       <defs>
        <path id="Cmr10-32" d="M 319 0 
L 319 172 
Q 319 188 331 206 
L 1325 1306 
Q 1550 1550 1690 1715 
Q 1831 1881 1968 2097 
Q 2106 2313 2186 2536 
Q 2266 2759 2266 3009 
Q 2266 3272 2169 3511 
Q 2072 3750 1880 3894 
Q 1688 4038 1416 4038 
Q 1138 4038 916 3870 
Q 694 3703 603 3438 
Q 628 3444 672 3444 
Q 816 3444 917 3347 
Q 1019 3250 1019 3097 
Q 1019 2950 917 2848 
Q 816 2747 672 2747 
Q 522 2747 420 2851 
Q 319 2956 319 3097 
Q 319 3338 409 3548 
Q 500 3759 670 3923 
Q 841 4088 1055 4175 
Q 1269 4263 1509 4263 
Q 1875 4263 2190 4108 
Q 2506 3953 2690 3670 
Q 2875 3388 2875 3009 
Q 2875 2731 2753 2481 
Q 2631 2231 2440 2026 
Q 2250 1822 1953 1562 
Q 1656 1303 1563 1216 
L 838 519 
L 1453 519 
Q 1906 519 2211 526 
Q 2516 534 2534 550 
Q 2609 631 2688 1141 
L 2875 1141 
L 2694 0 
L 319 0 
z
" transform="scale(0.015625)"/>
       </defs>
       <use xlink:href="#Cmr10-32" transform="translate(0 0.390625)"/>
       <use xlink:href="#Cmr10-30" transform="translate(50 0.390625)"/>
       <use xlink:href="#Cmr10-30" transform="translate(100 0.390625)"/>
       <use xlink:href="#Cmr10-30" transform="translate(150 0.390625)"/>
       <use xlink:href="#Cmr10-30" transform="translate(200 0.390625)"/>
      </g>
     </g>
    </g>
    <g id="xtick_3">
     <g id="line2d_7">
      <path d="M 172.608596 243.54375 
L 172.608596 3.6 
" clip-path="url(#p62a635919e)" style="fill: none; stroke: #b0b0b0; stroke-width: 0.5; stroke-linecap: square"/>
     </g>
     <g id="line2d_8">
      <g>
       <use xlink:href="#mc79d68848d" x="172.608596" y="243.54375" style="stroke: #000000; stroke-width: 0.5"/>
      </g>
     </g>
     <g id="line2d_9">
      <g>
       <use xlink:href="#m737d4e74be" x="172.608596" y="3.6" style="stroke: #000000; stroke-width: 0.5"/>
      </g>
     </g>
     <g id="text_3">
      <!-- $\mathdefault{40000}$ -->
      <g transform="translate(160.108596 253.982812) scale(0.1 -0.1)">
       <defs>
        <path id="Cmr10-34" d="M 178 1056 
L 178 1281 
L 2156 4231 
Q 2178 4263 2222 4263 
L 2316 4263 
Q 2388 4263 2388 4191 
L 2388 1281 
L 3016 1281 
L 3016 1056 
L 2388 1056 
L 2388 428 
Q 2388 297 2575 261 
Q 2763 225 3009 225 
L 3009 0 
L 1247 0 
L 1247 225 
Q 1494 225 1681 261 
Q 1869 297 1869 428 
L 1869 1056 
L 178 1056 
z
M 391 1281 
L 1906 1281 
L 1906 3547 
L 391 1281 
z
" transform="scale(0.015625)"/>
       </defs>
       <use xlink:href="#Cmr10-34" transform="translate(0 0.390625)"/>
       <use xlink:href="#Cmr10-30" transform="translate(50 0.390625)"/>
       <use xlink:href="#Cmr10-30" transform="translate(100 0.390625)"/>
       <use xlink:href="#Cmr10-30" transform="translate(150 0.390625)"/>
       <use xlink:href="#Cmr10-30" transform="translate(200 0.390625)"/>
      </g>
     </g>
    </g>
    <g id="xtick_4">
     <g id="line2d_10">
      <path d="M 233.960774 243.54375 
L 233.960774 3.6 
" clip-path="url(#p62a635919e)" style="fill: none; stroke: #b0b0b0; stroke-width: 0.5; stroke-linecap: square"/>
     </g>
     <g id="line2d_11">
      <g>
       <use xlink:href="#mc79d68848d" x="233.960774" y="243.54375" style="stroke: #000000; stroke-width: 0.5"/>
      </g>
     </g>
     <g id="line2d_12">
      <g>
       <use xlink:href="#m737d4e74be" x="233.960774" y="3.6" style="stroke: #000000; stroke-width: 0.5"/>
      </g>
     </g>
     <g id="text_4">
      <!-- $\mathdefault{60000}$ -->
      <g transform="translate(221.460774 253.982812) scale(0.1 -0.1)">
       <defs>
        <path id="Cmr10-36" d="M 1600 -141 
Q 1203 -141 937 70 
Q 672 281 526 617 
Q 381 953 325 1322 
Q 269 1691 269 2069 
Q 269 2575 466 3084 
Q 663 3594 1045 3928 
Q 1428 4263 1953 4263 
Q 2172 4263 2361 4180 
Q 2550 4097 2658 3936 
Q 2766 3775 2766 3547 
Q 2766 3416 2677 3327 
Q 2588 3238 2456 3238 
Q 2331 3238 2240 3328 
Q 2150 3419 2150 3547 
Q 2150 3672 2240 3762 
Q 2331 3853 2456 3853 
L 2491 3853 
Q 2409 3969 2261 4023 
Q 2113 4078 1953 4078 
Q 1759 4078 1595 3993 
Q 1431 3909 1300 3765 
Q 1169 3622 1081 3448 
Q 994 3275 945 3053 
Q 897 2831 884 2637 
Q 872 2444 872 2150 
Q 984 2413 1190 2580 
Q 1397 2747 1656 2747 
Q 1941 2747 2175 2631 
Q 2409 2516 2578 2311 
Q 2747 2106 2836 1843 
Q 2925 1581 2925 1313 
Q 2925 938 2758 598 
Q 2591 259 2287 59 
Q 1984 -141 1600 -141 
z
M 1600 63 
Q 1847 63 1997 175 
Q 2147 288 2217 473 
Q 2288 659 2305 848 
Q 2322 1038 2322 1313 
Q 2322 1675 2287 1931 
Q 2253 2188 2100 2383 
Q 1947 2578 1631 2578 
Q 1372 2578 1205 2403 
Q 1038 2228 961 1961 
Q 884 1694 884 1447 
Q 884 1363 891 1319 
Q 891 1309 889 1303 
Q 888 1297 884 1288 
Q 884 1013 940 731 
Q 997 450 1156 256 
Q 1316 63 1600 63 
z
" transform="scale(0.015625)"/>
       </defs>
       <use xlink:href="#Cmr10-36" transform="translate(0 0.390625)"/>
       <use xlink:href="#Cmr10-30" transform="translate(50 0.390625)"/>
       <use xlink:href="#Cmr10-30" transform="translate(100 0.390625)"/>
       <use xlink:href="#Cmr10-30" transform="translate(150 0.390625)"/>
       <use xlink:href="#Cmr10-30" transform="translate(200 0.390625)"/>
      </g>
     </g>
    </g>
    <g id="xtick_5">
     <g id="line2d_13">
      <path d="M 295.312952 243.54375 
L 295.312952 3.6 
" clip-path="url(#p62a635919e)" style="fill: none; stroke: #b0b0b0; stroke-width: 0.5; stroke-linecap: square"/>
     </g>
     <g id="line2d_14">
      <g>
       <use xlink:href="#mc79d68848d" x="295.312952" y="243.54375" style="stroke: #000000; stroke-width: 0.5"/>
      </g>
     </g>
     <g id="line2d_15">
      <g>
       <use xlink:href="#m737d4e74be" x="295.312952" y="3.6" style="stroke: #000000; stroke-width: 0.5"/>
      </g>
     </g>
     <g id="text_5">
      <!-- $\mathdefault{80000}$ -->
      <g transform="translate(282.812952 253.982812) scale(0.1 -0.1)">
       <defs>
        <path id="Cmr10-38" d="M 269 972 
Q 269 1356 522 1651 
Q 775 1947 1172 2144 
L 934 2297 
Q 716 2441 578 2680 
Q 441 2919 441 3181 
Q 441 3488 602 3734 
Q 763 3981 1030 4122 
Q 1297 4263 1600 4263 
Q 1884 4263 2148 4147 
Q 2413 4031 2583 3815 
Q 2753 3600 2753 3303 
Q 2753 3088 2651 2903 
Q 2550 2719 2373 2572 
Q 2197 2425 1997 2322 
L 2363 2088 
Q 2616 1922 2770 1653 
Q 2925 1384 2925 1088 
Q 2925 741 2739 456 
Q 2553 172 2247 15 
Q 1941 -141 1600 -141 
Q 1269 -141 961 -6 
Q 653 128 461 383 
Q 269 638 269 972 
z
M 616 972 
Q 616 719 755 509 
Q 894 300 1122 181 
Q 1350 63 1600 63 
Q 1972 63 2275 280 
Q 2578 497 2578 856 
Q 2578 978 2529 1098 
Q 2481 1219 2395 1317 
Q 2309 1416 2203 1478 
L 1344 2034 
Q 1144 1928 976 1765 
Q 809 1603 712 1400 
Q 616 1197 616 972 
z
M 1056 2925 
L 1831 2425 
Q 2100 2581 2272 2803 
Q 2444 3025 2444 3303 
Q 2444 3519 2323 3698 
Q 2203 3878 2009 3978 
Q 1816 4078 1594 4078 
Q 1400 4078 1203 4003 
Q 1006 3928 878 3779 
Q 750 3631 750 3431 
Q 750 3131 1056 2925 
z
" transform="scale(0.015625)"/>
       </defs>
       <use xlink:href="#Cmr10-38" transform="translate(0 0.390625)"/>
       <use xlink:href="#Cmr10-30" transform="translate(50 0.390625)"/>
       <use xlink:href="#Cmr10-30" transform="translate(100 0.390625)"/>
       <use xlink:href="#Cmr10-30" transform="translate(150 0.390625)"/>
       <use xlink:href="#Cmr10-30" transform="translate(200 0.390625)"/>
      </g>
     </g>
    </g>
    <g id="xtick_6">
     <g id="line2d_16">
      <defs>
       <path id="m8dddedd0b7" d="M 0 0 
L 0 -1.5 
" style="stroke: #000000; stroke-width: 0.5"/>
      </defs>
      <g>
       <use xlink:href="#m8dddedd0b7" x="65.242285" y="243.54375" style="stroke: #000000; stroke-width: 0.5"/>
      </g>
     </g>
     <g id="line2d_17">
      <defs>
       <path id="m1b9df0aaa4" d="M 0 0 
L 0 1.5 
" style="stroke: #000000; stroke-width: 0.5"/>
      </defs>
      <g>
       <use xlink:href="#m1b9df0aaa4" x="65.242285" y="3.6" style="stroke: #000000; stroke-width: 0.5"/>
      </g>
     </g>
    </g>
    <g id="xtick_7">
     <g id="line2d_18">
      <g>
       <use xlink:href="#m8dddedd0b7" x="80.580329" y="243.54375" style="stroke: #000000; stroke-width: 0.5"/>
      </g>
     </g>
     <g id="line2d_19">
      <g>
       <use xlink:href="#m1b9df0aaa4" x="80.580329" y="3.6" style="stroke: #000000; stroke-width: 0.5"/>
      </g>
     </g>
    </g>
    <g id="xtick_8">
     <g id="line2d_20">
      <g>
       <use xlink:href="#m8dddedd0b7" x="95.918374" y="243.54375" style="stroke: #000000; stroke-width: 0.5"/>
      </g>
     </g>
     <g id="line2d_21">
      <g>
       <use xlink:href="#m1b9df0aaa4" x="95.918374" y="3.6" style="stroke: #000000; stroke-width: 0.5"/>
      </g>
     </g>
    </g>
    <g id="xtick_9">
     <g id="line2d_22">
      <g>
       <use xlink:href="#m8dddedd0b7" x="126.594463" y="243.54375" style="stroke: #000000; stroke-width: 0.5"/>
      </g>
     </g>
     <g id="line2d_23">
      <g>
       <use xlink:href="#m1b9df0aaa4" x="126.594463" y="3.6" style="stroke: #000000; stroke-width: 0.5"/>
      </g>
     </g>
    </g>
    <g id="xtick_10">
     <g id="line2d_24">
      <g>
       <use xlink:href="#m8dddedd0b7" x="141.932507" y="243.54375" style="stroke: #000000; stroke-width: 0.5"/>
      </g>
     </g>
     <g id="line2d_25">
      <g>
       <use xlink:href="#m1b9df0aaa4" x="141.932507" y="3.6" style="stroke: #000000; stroke-width: 0.5"/>
      </g>
     </g>
    </g>
    <g id="xtick_11">
     <g id="line2d_26">
      <g>
       <use xlink:href="#m8dddedd0b7" x="157.270552" y="243.54375" style="stroke: #000000; stroke-width: 0.5"/>
      </g>
     </g>
     <g id="line2d_27">
      <g>
       <use xlink:href="#m1b9df0aaa4" x="157.270552" y="3.6" style="stroke: #000000; stroke-width: 0.5"/>
      </g>
     </g>
    </g>
    <g id="xtick_12">
     <g id="line2d_28">
      <g>
       <use xlink:href="#m8dddedd0b7" x="187.946641" y="243.54375" style="stroke: #000000; stroke-width: 0.5"/>
      </g>
     </g>
     <g id="line2d_29">
      <g>
       <use xlink:href="#m1b9df0aaa4" x="187.946641" y="3.6" style="stroke: #000000; stroke-width: 0.5"/>
      </g>
     </g>
    </g>
    <g id="xtick_13">
     <g id="line2d_30">
      <g>
       <use xlink:href="#m8dddedd0b7" x="203.284685" y="243.54375" style="stroke: #000000; stroke-width: 0.5"/>
      </g>
     </g>
     <g id="line2d_31">
      <g>
       <use xlink:href="#m1b9df0aaa4" x="203.284685" y="3.6" style="stroke: #000000; stroke-width: 0.5"/>
      </g>
     </g>
    </g>
    <g id="xtick_14">
     <g id="line2d_32">
      <g>
       <use xlink:href="#m8dddedd0b7" x="218.62273" y="243.54375" style="stroke: #000000; stroke-width: 0.5"/>
      </g>
     </g>
     <g id="line2d_33">
      <g>
       <use xlink:href="#m1b9df0aaa4" x="218.62273" y="3.6" style="stroke: #000000; stroke-width: 0.5"/>
      </g>
     </g>
    </g>
    <g id="xtick_15">
     <g id="line2d_34">
      <g>
       <use xlink:href="#m8dddedd0b7" x="249.298819" y="243.54375" style="stroke: #000000; stroke-width: 0.5"/>
      </g>
     </g>
     <g id="line2d_35">
      <g>
       <use xlink:href="#m1b9df0aaa4" x="249.298819" y="3.6" style="stroke: #000000; stroke-width: 0.5"/>
      </g>
     </g>
    </g>
    <g id="xtick_16">
     <g id="line2d_36">
      <g>
       <use xlink:href="#m8dddedd0b7" x="264.636863" y="243.54375" style="stroke: #000000; stroke-width: 0.5"/>
      </g>
     </g>
     <g id="line2d_37">
      <g>
       <use xlink:href="#m1b9df0aaa4" x="264.636863" y="3.6" style="stroke: #000000; stroke-width: 0.5"/>
      </g>
     </g>
    </g>
    <g id="xtick_17">
     <g id="line2d_38">
      <g>
       <use xlink:href="#m8dddedd0b7" x="279.974908" y="243.54375" style="stroke: #000000; stroke-width: 0.5"/>
      </g>
     </g>
     <g id="line2d_39">
      <g>
       <use xlink:href="#m1b9df0aaa4" x="279.974908" y="3.6" style="stroke: #000000; stroke-width: 0.5"/>
      </g>
     </g>
    </g>
    <g id="xtick_18">
     <g id="line2d_40">
      <g>
       <use xlink:href="#m8dddedd0b7" x="310.650997" y="243.54375" style="stroke: #000000; stroke-width: 0.5"/>
      </g>
     </g>
     <g id="line2d_41">
      <g>
       <use xlink:href="#m1b9df0aaa4" x="310.650997" y="3.6" style="stroke: #000000; stroke-width: 0.5"/>
      </g>
     </g>
    </g>
    <g id="xtick_19">
     <g id="line2d_42">
      <g>
       <use xlink:href="#m8dddedd0b7" x="325.989041" y="243.54375" style="stroke: #000000; stroke-width: 0.5"/>
      </g>
     </g>
     <g id="line2d_43">
      <g>
       <use xlink:href="#m1b9df0aaa4" x="325.989041" y="3.6" style="stroke: #000000; stroke-width: 0.5"/>
      </g>
     </g>
    </g>
    <g id="text_6">
     <!-- Timestep -->
     <g transform="translate(167.660703 266.860937) scale(0.1 -0.1)">
      <defs>
       <path id="Cmr10-54" d="M 1081 0 
L 1081 225 
Q 1403 225 1706 261 
Q 2009 297 2009 428 
L 2009 3944 
Q 2009 4081 1932 4114 
Q 1856 4147 1684 4147 
L 1416 4147 
Q 888 4147 666 3916 
Q 550 3800 500 3545 
Q 450 3291 416 2906 
L 231 2906 
L 353 4372 
L 4263 4372 
L 4384 2906 
L 4197 2906 
Q 4159 3319 4114 3561 
Q 4069 3803 3950 3916 
Q 3725 4147 3200 4147 
L 2931 4147 
Q 2816 4147 2752 4137 
Q 2688 4128 2647 4083 
Q 2606 4038 2606 3944 
L 2606 428 
Q 2606 297 2909 261 
Q 3213 225 3531 225 
L 3531 0 
L 1081 0 
z
" transform="scale(0.015625)"/>
       <path id="Cmr10-69" d="M 197 0 
L 197 225 
Q 416 225 556 259 
Q 697 294 697 428 
L 697 2175 
Q 697 2422 601 2478 
Q 506 2534 225 2534 
L 225 2759 
L 1147 2828 
L 1147 428 
Q 1147 294 1269 259 
Q 1391 225 1594 225 
L 1594 0 
L 197 0 
z
M 469 3928 
Q 469 4069 575 4175 
Q 681 4281 819 4281 
Q 909 4281 993 4234 
Q 1078 4188 1125 4103 
Q 1172 4019 1172 3928 
Q 1172 3791 1065 3684 
Q 959 3578 819 3578 
Q 681 3578 575 3684 
Q 469 3791 469 3928 
z
" transform="scale(0.015625)"/>
       <path id="Cmr10-6d" d="M 191 0 
L 191 225 
Q 409 225 550 259 
Q 691 294 691 428 
L 691 2175 
Q 691 2347 639 2423 
Q 588 2500 491 2517 
Q 394 2534 191 2534 
L 191 2759 
L 1119 2828 
L 1119 2203 
Q 1247 2478 1498 2653 
Q 1750 2828 2047 2828 
Q 2784 2828 2913 2228 
Q 3041 2497 3287 2662 
Q 3534 2828 3828 2828 
Q 4119 2828 4317 2734 
Q 4516 2641 4616 2448 
Q 4716 2256 4716 1966 
L 4716 428 
Q 4716 294 4858 259 
Q 5000 225 5216 225 
L 5216 0 
L 3750 0 
L 3750 225 
Q 3969 225 4109 259 
Q 4250 294 4250 428 
L 4250 1947 
Q 4250 2269 4159 2466 
Q 4069 2663 3788 2663 
Q 3419 2663 3178 2366 
Q 2938 2069 2938 1691 
L 2938 428 
Q 2938 294 3078 259 
Q 3219 225 3438 225 
L 3438 0 
L 1972 0 
L 1972 225 
Q 2191 225 2331 259 
Q 2472 294 2472 428 
L 2472 1947 
Q 2472 2259 2381 2461 
Q 2291 2663 2009 2663 
Q 1638 2663 1398 2366 
Q 1159 2069 1159 1691 
L 1159 428 
Q 1159 294 1300 259 
Q 1441 225 1656 225 
L 1656 0 
L 191 0 
z
" transform="scale(0.015625)"/>
       <path id="Cmr10-65" d="M 1594 -72 
Q 1203 -72 876 133 
Q 550 338 364 680 
Q 178 1022 178 1403 
Q 178 1778 348 2115 
Q 519 2453 823 2661 
Q 1128 2869 1503 2869 
Q 1797 2869 2014 2770 
Q 2231 2672 2372 2497 
Q 2513 2322 2584 2084 
Q 2656 1847 2656 1563 
Q 2656 1478 2591 1478 
L 738 1478 
L 738 1409 
Q 738 878 952 497 
Q 1166 116 1650 116 
Q 1847 116 2014 203 
Q 2181 291 2304 447 
Q 2428 603 2472 781 
Q 2478 803 2495 820 
Q 2513 838 2534 838 
L 2591 838 
Q 2656 838 2656 756 
Q 2566 394 2266 161 
Q 1966 -72 1594 -72 
z
M 744 1638 
L 2203 1638 
Q 2203 1878 2136 2125 
Q 2069 2372 1912 2536 
Q 1756 2700 1503 2700 
Q 1141 2700 942 2361 
Q 744 2022 744 1638 
z
" transform="scale(0.015625)"/>
       <path id="Cmr10-73" d="M 213 -19 
L 213 1025 
Q 213 1075 269 1075 
L 347 1075 
Q 384 1075 397 1025 
Q 575 97 1259 97 
Q 1563 97 1767 234 
Q 1972 372 1972 659 
Q 1972 866 1812 1011 
Q 1653 1156 1434 1209 
L 1006 1294 
Q 791 1341 614 1437 
Q 438 1534 325 1695 
Q 213 1856 213 2069 
Q 213 2350 361 2529 
Q 509 2709 746 2789 
Q 984 2869 1259 2869 
Q 1588 2869 1831 2694 
L 2016 2853 
Q 2016 2869 2047 2869 
L 2094 2869 
Q 2113 2869 2128 2851 
Q 2144 2834 2144 2816 
L 2144 1978 
Q 2144 1919 2094 1919 
L 2016 1919 
Q 1959 1919 1959 1978 
Q 1959 2313 1773 2516 
Q 1588 2719 1253 2719 
Q 966 2719 755 2612 
Q 544 2506 544 2247 
Q 544 2069 695 1955 
Q 847 1841 1050 1791 
L 1484 1709 
Q 1703 1659 1892 1540 
Q 2081 1422 2192 1240 
Q 2303 1059 2303 831 
Q 2303 600 2223 429 
Q 2144 259 2001 146 
Q 1859 34 1665 -19 
Q 1472 -72 1259 -72 
Q 859 -72 575 197 
L 341 -56 
Q 341 -72 306 -72 
L 269 -72 
Q 213 -72 213 -19 
z
" transform="scale(0.015625)"/>
       <path id="Cmr10-74" d="M 653 769 
L 653 2534 
L 122 2534 
L 122 2700 
Q 541 2700 737 3090 
Q 934 3481 934 3938 
L 1119 3938 
L 1119 2759 
L 2022 2759 
L 2022 2534 
L 1119 2534 
L 1119 781 
Q 1119 516 1208 316 
Q 1297 116 1528 116 
Q 1747 116 1844 327 
Q 1941 538 1941 781 
L 1941 1159 
L 2125 1159 
L 2125 769 
Q 2125 569 2051 373 
Q 1978 178 1834 53 
Q 1691 -72 1484 -72 
Q 1100 -72 876 158 
Q 653 388 653 769 
z
" transform="scale(0.015625)"/>
       <path id="Cmr10-70" d="M 166 -1241 
L 166 -1019 
Q 384 -1019 525 -981 
Q 666 -944 666 -813 
L 666 2272 
Q 666 2447 541 2490 
Q 416 2534 166 2534 
L 166 2759 
L 1113 2828 
L 1113 2431 
Q 1288 2625 1520 2726 
Q 1753 2828 2016 2828 
Q 2394 2828 2697 2623 
Q 3000 2419 3170 2086 
Q 3341 1753 3341 1381 
Q 3341 994 3152 659 
Q 2963 325 2636 126 
Q 2309 -72 1919 -72 
Q 1453 -72 1131 306 
L 1131 -813 
Q 1131 -944 1273 -981 
Q 1416 -1019 1631 -1019 
L 1631 -1241 
L 166 -1241 
z
M 1131 622 
Q 1244 394 1444 245 
Q 1644 97 1881 97 
Q 2103 97 2273 215 
Q 2444 334 2559 534 
Q 2675 734 2729 954 
Q 2784 1175 2784 1381 
Q 2784 1638 2692 1936 
Q 2600 2234 2411 2439 
Q 2222 2644 1953 2644 
Q 1694 2644 1476 2511 
Q 1259 2378 1131 2150 
L 1131 622 
z
" transform="scale(0.015625)"/>
      </defs>
      <use xlink:href="#Cmr10-54"/>
      <use xlink:href="#Cmr10-69" transform="translate(72.216797 0)"/>
      <use xlink:href="#Cmr10-6d" transform="translate(99.902344 0)"/>
      <use xlink:href="#Cmr10-65" transform="translate(183.203125 0)"/>
      <use xlink:href="#Cmr10-73" transform="translate(227.587891 0)"/>
      <use xlink:href="#Cmr10-74" transform="translate(266.992188 0)"/>
      <use xlink:href="#Cmr10-65" transform="translate(305.810547 0)"/>
      <use xlink:href="#Cmr10-70" transform="translate(350.195312 0)"/>
     </g>
    </g>
   </g>
   <g id="matplotlib.axis_2">
    <g id="ytick_1">
     <g id="line2d_44">
      <path d="M 36.1 225.486547 
L 339.793281 225.486547 
" clip-path="url(#p62a635919e)" style="fill: none; stroke: #b0b0b0; stroke-width: 0.5; stroke-linecap: square"/>
     </g>
     <g id="line2d_45">
      <defs>
       <path id="m535bd1bc77" d="M 0 0 
L 3 0 
" style="stroke: #000000; stroke-width: 0.5"/>
      </defs>
      <g>
       <use xlink:href="#m535bd1bc77" x="36.1" y="225.486547" style="stroke: #000000; stroke-width: 0.5"/>
      </g>
     </g>
     <g id="line2d_46">
      <defs>
       <path id="m5a9b45ef17" d="M 0 0 
L -3 0 
" style="stroke: #000000; stroke-width: 0.5"/>
      </defs>
      <g>
       <use xlink:href="#m5a9b45ef17" x="339.793281" y="225.486547" style="stroke: #000000; stroke-width: 0.5"/>
      </g>
     </g>
     <g id="text_7">
      <!-- $\mathdefault{200}$ -->
      <g transform="translate(17.6 228.956078) scale(0.1 -0.1)">
       <use xlink:href="#Cmr10-32" transform="translate(0 0.390625)"/>
       <use xlink:href="#Cmr10-30" transform="translate(50 0.390625)"/>
       <use xlink:href="#Cmr10-30" transform="translate(100 0.390625)"/>
      </g>
     </g>
    </g>
    <g id="ytick_2">
     <g id="line2d_47">
      <path d="M 36.1 193.429174 
L 339.793281 193.429174 
" clip-path="url(#p62a635919e)" style="fill: none; stroke: #b0b0b0; stroke-width: 0.5; stroke-linecap: square"/>
     </g>
     <g id="line2d_48">
      <g>
       <use xlink:href="#m535bd1bc77" x="36.1" y="193.429174" style="stroke: #000000; stroke-width: 0.5"/>
      </g>
     </g>
     <g id="line2d_49">
      <g>
       <use xlink:href="#m5a9b45ef17" x="339.793281" y="193.429174" style="stroke: #000000; stroke-width: 0.5"/>
      </g>
     </g>
     <g id="text_8">
      <!-- $\mathdefault{250}$ -->
      <g transform="translate(17.6 196.898705) scale(0.1 -0.1)">
       <defs>
        <path id="Cmr10-35" d="M 556 728 
Q 622 541 758 387 
Q 894 234 1080 148 
Q 1266 63 1466 63 
Q 1928 63 2103 422 
Q 2278 781 2278 1294 
Q 2278 1516 2270 1667 
Q 2263 1819 2228 1959 
Q 2169 2184 2020 2353 
Q 1872 2522 1656 2522 
Q 1441 2522 1286 2456 
Q 1131 2391 1034 2303 
Q 938 2216 863 2119 
Q 788 2022 769 2016 
L 697 2016 
Q 681 2016 657 2036 
Q 634 2056 634 2075 
L 634 4213 
Q 634 4228 654 4245 
Q 675 4263 697 4263 
L 716 4263 
Q 1147 4056 1631 4056 
Q 2106 4056 2547 4263 
L 2566 4263 
Q 2588 4263 2606 4247 
Q 2625 4231 2625 4213 
L 2625 4153 
Q 2625 4122 2613 4122 
Q 2394 3831 2064 3668 
Q 1734 3506 1381 3506 
Q 1125 3506 856 3578 
L 856 2369 
Q 1069 2541 1236 2614 
Q 1403 2688 1663 2688 
Q 2016 2688 2295 2484 
Q 2575 2281 2725 1954 
Q 2875 1628 2875 1288 
Q 2875 903 2686 575 
Q 2497 247 2172 53 
Q 1847 -141 1466 -141 
Q 1150 -141 886 21 
Q 622 184 470 459 
Q 319 734 319 1044 
Q 319 1188 412 1278 
Q 506 1369 647 1369 
Q 788 1369 883 1276 
Q 978 1184 978 1044 
Q 978 906 883 811 
Q 788 716 647 716 
Q 625 716 597 720 
Q 569 725 556 728 
z
" transform="scale(0.015625)"/>
       </defs>
       <use xlink:href="#Cmr10-32" transform="translate(0 0.390625)"/>
       <use xlink:href="#Cmr10-35" transform="translate(50 0.390625)"/>
       <use xlink:href="#Cmr10-30" transform="translate(100 0.390625)"/>
      </g>
     </g>
    </g>
    <g id="ytick_3">
     <g id="line2d_50">
      <path d="M 36.1 161.371801 
L 339.793281 161.371801 
" clip-path="url(#p62a635919e)" style="fill: none; stroke: #b0b0b0; stroke-width: 0.5; stroke-linecap: square"/>
     </g>
     <g id="line2d_51">
      <g>
       <use xlink:href="#m535bd1bc77" x="36.1" y="161.371801" style="stroke: #000000; stroke-width: 0.5"/>
      </g>
     </g>
     <g id="line2d_52">
      <g>
       <use xlink:href="#m5a9b45ef17" x="339.793281" y="161.371801" style="stroke: #000000; stroke-width: 0.5"/>
      </g>
     </g>
     <g id="text_9">
      <!-- $\mathdefault{300}$ -->
      <g transform="translate(17.6 164.841332) scale(0.1 -0.1)">
       <defs>
        <path id="Cmr10-33" d="M 609 494 
Q 759 275 1012 169 
Q 1266 63 1556 63 
Q 1928 63 2084 380 
Q 2241 697 2241 1100 
Q 2241 1281 2208 1462 
Q 2175 1644 2097 1800 
Q 2019 1956 1883 2050 
Q 1747 2144 1550 2144 
L 1125 2144 
Q 1069 2144 1069 2203 
L 1069 2259 
Q 1069 2309 1125 2309 
L 1478 2338 
Q 1703 2338 1851 2506 
Q 2000 2675 2069 2917 
Q 2138 3159 2138 3378 
Q 2138 3684 1994 3881 
Q 1850 4078 1556 4078 
Q 1313 4078 1091 3986 
Q 869 3894 738 3706 
Q 750 3709 759 3711 
Q 769 3713 781 3713 
Q 925 3713 1022 3613 
Q 1119 3513 1119 3372 
Q 1119 3234 1022 3134 
Q 925 3034 781 3034 
Q 641 3034 541 3134 
Q 441 3234 441 3372 
Q 441 3647 606 3850 
Q 772 4053 1033 4158 
Q 1294 4263 1556 4263 
Q 1750 4263 1965 4205 
Q 2181 4147 2356 4039 
Q 2531 3931 2642 3762 
Q 2753 3594 2753 3378 
Q 2753 3109 2633 2881 
Q 2513 2653 2303 2487 
Q 2094 2322 1844 2241 
Q 2122 2188 2372 2031 
Q 2622 1875 2773 1631 
Q 2925 1388 2925 1106 
Q 2925 753 2731 467 
Q 2538 181 2222 20 
Q 1906 -141 1556 -141 
Q 1256 -141 954 -26 
Q 653 88 461 316 
Q 269 544 269 863 
Q 269 1022 375 1128 
Q 481 1234 641 1234 
Q 744 1234 830 1186 
Q 916 1138 964 1050 
Q 1013 963 1013 863 
Q 1013 706 903 600 
Q 794 494 641 494 
L 609 494 
z
" transform="scale(0.015625)"/>
       </defs>
       <use xlink:href="#Cmr10-33" transform="translate(0 0.390625)"/>
       <use xlink:href="#Cmr10-30" transform="translate(50 0.390625)"/>
       <use xlink:href="#Cmr10-30" transform="translate(100 0.390625)"/>
      </g>
     </g>
    </g>
    <g id="ytick_4">
     <g id="line2d_53">
      <path d="M 36.1 129.314428 
L 339.793281 129.314428 
" clip-path="url(#p62a635919e)" style="fill: none; stroke: #b0b0b0; stroke-width: 0.5; stroke-linecap: square"/>
     </g>
     <g id="line2d_54">
      <g>
       <use xlink:href="#m535bd1bc77" x="36.1" y="129.314428" style="stroke: #000000; stroke-width: 0.5"/>
      </g>
     </g>
     <g id="line2d_55">
      <g>
       <use xlink:href="#m5a9b45ef17" x="339.793281" y="129.314428" style="stroke: #000000; stroke-width: 0.5"/>
      </g>
     </g>
     <g id="text_10">
      <!-- $\mathdefault{350}$ -->
      <g transform="translate(17.6 132.783959) scale(0.1 -0.1)">
       <use xlink:href="#Cmr10-33" transform="translate(0 0.390625)"/>
       <use xlink:href="#Cmr10-35" transform="translate(50 0.390625)"/>
       <use xlink:href="#Cmr10-30" transform="translate(100 0.390625)"/>
      </g>
     </g>
    </g>
    <g id="ytick_5">
     <g id="line2d_56">
      <path d="M 36.1 97.257055 
L 339.793281 97.257055 
" clip-path="url(#p62a635919e)" style="fill: none; stroke: #b0b0b0; stroke-width: 0.5; stroke-linecap: square"/>
     </g>
     <g id="line2d_57">
      <g>
       <use xlink:href="#m535bd1bc77" x="36.1" y="97.257055" style="stroke: #000000; stroke-width: 0.5"/>
      </g>
     </g>
     <g id="line2d_58">
      <g>
       <use xlink:href="#m5a9b45ef17" x="339.793281" y="97.257055" style="stroke: #000000; stroke-width: 0.5"/>
      </g>
     </g>
     <g id="text_11">
      <!-- $\mathdefault{400}$ -->
      <g transform="translate(17.6 100.726586) scale(0.1 -0.1)">
       <use xlink:href="#Cmr10-34" transform="translate(0 0.390625)"/>
       <use xlink:href="#Cmr10-30" transform="translate(50 0.390625)"/>
       <use xlink:href="#Cmr10-30" transform="translate(100 0.390625)"/>
      </g>
     </g>
    </g>
    <g id="ytick_6">
     <g id="line2d_59">
      <path d="M 36.1 65.199681 
L 339.793281 65.199681 
" clip-path="url(#p62a635919e)" style="fill: none; stroke: #b0b0b0; stroke-width: 0.5; stroke-linecap: square"/>
     </g>
     <g id="line2d_60">
      <g>
       <use xlink:href="#m535bd1bc77" x="36.1" y="65.199681" style="stroke: #000000; stroke-width: 0.5"/>
      </g>
     </g>
     <g id="line2d_61">
      <g>
       <use xlink:href="#m5a9b45ef17" x="339.793281" y="65.199681" style="stroke: #000000; stroke-width: 0.5"/>
      </g>
     </g>
     <g id="text_12">
      <!-- $\mathdefault{450}$ -->
      <g transform="translate(17.6 68.669213) scale(0.1 -0.1)">
       <use xlink:href="#Cmr10-34" transform="translate(0 0.390625)"/>
       <use xlink:href="#Cmr10-35" transform="translate(50 0.390625)"/>
       <use xlink:href="#Cmr10-30" transform="translate(100 0.390625)"/>
      </g>
     </g>
    </g>
    <g id="ytick_7">
     <g id="line2d_62">
      <path d="M 36.1 33.142308 
L 339.793281 33.142308 
" clip-path="url(#p62a635919e)" style="fill: none; stroke: #b0b0b0; stroke-width: 0.5; stroke-linecap: square"/>
     </g>
     <g id="line2d_63">
      <g>
       <use xlink:href="#m535bd1bc77" x="36.1" y="33.142308" style="stroke: #000000; stroke-width: 0.5"/>
      </g>
     </g>
     <g id="line2d_64">
      <g>
       <use xlink:href="#m5a9b45ef17" x="339.793281" y="33.142308" style="stroke: #000000; stroke-width: 0.5"/>
      </g>
     </g>
     <g id="text_13">
      <!-- $\mathdefault{500}$ -->
      <g transform="translate(17.6 36.611839) scale(0.1 -0.1)">
       <use xlink:href="#Cmr10-35" transform="translate(0 0.390625)"/>
       <use xlink:href="#Cmr10-30" transform="translate(50 0.390625)"/>
       <use xlink:href="#Cmr10-30" transform="translate(100 0.390625)"/>
      </g>
     </g>
    </g>
    <g id="ytick_8">
     <g id="line2d_65">
      <defs>
       <path id="m533c68b27c" d="M 0 0 
L 1.5 0 
" style="stroke: #000000; stroke-width: 0.5"/>
      </defs>
      <g>
       <use xlink:href="#m533c68b27c" x="36.1" y="238.309496" style="stroke: #000000; stroke-width: 0.5"/>
      </g>
     </g>
     <g id="line2d_66">
      <defs>
       <path id="m68e05013d5" d="M 0 0 
L -1.5 0 
" style="stroke: #000000; stroke-width: 0.5"/>
      </defs>
      <g>
       <use xlink:href="#m68e05013d5" x="339.793281" y="238.309496" style="stroke: #000000; stroke-width: 0.5"/>
      </g>
     </g>
    </g>
    <g id="ytick_9">
     <g id="line2d_67">
      <g>
       <use xlink:href="#m533c68b27c" x="36.1" y="231.898022" style="stroke: #000000; stroke-width: 0.5"/>
      </g>
     </g>
     <g id="line2d_68">
      <g>
       <use xlink:href="#m68e05013d5" x="339.793281" y="231.898022" style="stroke: #000000; stroke-width: 0.5"/>
      </g>
     </g>
    </g>
    <g id="ytick_10">
     <g id="line2d_69">
      <g>
       <use xlink:href="#m533c68b27c" x="36.1" y="219.075072" style="stroke: #000000; stroke-width: 0.5"/>
      </g>
     </g>
     <g id="line2d_70">
      <g>
       <use xlink:href="#m68e05013d5" x="339.793281" y="219.075072" style="stroke: #000000; stroke-width: 0.5"/>
      </g>
     </g>
    </g>
    <g id="ytick_11">
     <g id="line2d_71">
      <g>
       <use xlink:href="#m533c68b27c" x="36.1" y="212.663598" style="stroke: #000000; stroke-width: 0.5"/>
      </g>
     </g>
     <g id="line2d_72">
      <g>
       <use xlink:href="#m68e05013d5" x="339.793281" y="212.663598" style="stroke: #000000; stroke-width: 0.5"/>
      </g>
     </g>
    </g>
    <g id="ytick_12">
     <g id="line2d_73">
      <g>
       <use xlink:href="#m533c68b27c" x="36.1" y="206.252123" style="stroke: #000000; stroke-width: 0.5"/>
      </g>
     </g>
     <g id="line2d_74">
      <g>
       <use xlink:href="#m68e05013d5" x="339.793281" y="206.252123" style="stroke: #000000; stroke-width: 0.5"/>
      </g>
     </g>
    </g>
    <g id="ytick_13">
     <g id="line2d_75">
      <g>
       <use xlink:href="#m533c68b27c" x="36.1" y="199.840649" style="stroke: #000000; stroke-width: 0.5"/>
      </g>
     </g>
     <g id="line2d_76">
      <g>
       <use xlink:href="#m68e05013d5" x="339.793281" y="199.840649" style="stroke: #000000; stroke-width: 0.5"/>
      </g>
     </g>
    </g>
    <g id="ytick_14">
     <g id="line2d_77">
      <g>
       <use xlink:href="#m533c68b27c" x="36.1" y="187.017699" style="stroke: #000000; stroke-width: 0.5"/>
      </g>
     </g>
     <g id="line2d_78">
      <g>
       <use xlink:href="#m68e05013d5" x="339.793281" y="187.017699" style="stroke: #000000; stroke-width: 0.5"/>
      </g>
     </g>
    </g>
    <g id="ytick_15">
     <g id="line2d_79">
      <g>
       <use xlink:href="#m533c68b27c" x="36.1" y="180.606225" style="stroke: #000000; stroke-width: 0.5"/>
      </g>
     </g>
     <g id="line2d_80">
      <g>
       <use xlink:href="#m68e05013d5" x="339.793281" y="180.606225" style="stroke: #000000; stroke-width: 0.5"/>
      </g>
     </g>
    </g>
    <g id="ytick_16">
     <g id="line2d_81">
      <g>
       <use xlink:href="#m533c68b27c" x="36.1" y="174.19475" style="stroke: #000000; stroke-width: 0.5"/>
      </g>
     </g>
     <g id="line2d_82">
      <g>
       <use xlink:href="#m68e05013d5" x="339.793281" y="174.19475" style="stroke: #000000; stroke-width: 0.5"/>
      </g>
     </g>
    </g>
    <g id="ytick_17">
     <g id="line2d_83">
      <g>
       <use xlink:href="#m533c68b27c" x="36.1" y="167.783275" style="stroke: #000000; stroke-width: 0.5"/>
      </g>
     </g>
     <g id="line2d_84">
      <g>
       <use xlink:href="#m68e05013d5" x="339.793281" y="167.783275" style="stroke: #000000; stroke-width: 0.5"/>
      </g>
     </g>
    </g>
    <g id="ytick_18">
     <g id="line2d_85">
      <g>
       <use xlink:href="#m533c68b27c" x="36.1" y="154.960326" style="stroke: #000000; stroke-width: 0.5"/>
      </g>
     </g>
     <g id="line2d_86">
      <g>
       <use xlink:href="#m68e05013d5" x="339.793281" y="154.960326" style="stroke: #000000; stroke-width: 0.5"/>
      </g>
     </g>
    </g>
    <g id="ytick_19">
     <g id="line2d_87">
      <g>
       <use xlink:href="#m533c68b27c" x="36.1" y="148.548852" style="stroke: #000000; stroke-width: 0.5"/>
      </g>
     </g>
     <g id="line2d_88">
      <g>
       <use xlink:href="#m68e05013d5" x="339.793281" y="148.548852" style="stroke: #000000; stroke-width: 0.5"/>
      </g>
     </g>
    </g>
    <g id="ytick_20">
     <g id="line2d_89">
      <g>
       <use xlink:href="#m533c68b27c" x="36.1" y="142.137377" style="stroke: #000000; stroke-width: 0.5"/>
      </g>
     </g>
     <g id="line2d_90">
      <g>
       <use xlink:href="#m68e05013d5" x="339.793281" y="142.137377" style="stroke: #000000; stroke-width: 0.5"/>
      </g>
     </g>
    </g>
    <g id="ytick_21">
     <g id="line2d_91">
      <g>
       <use xlink:href="#m533c68b27c" x="36.1" y="135.725902" style="stroke: #000000; stroke-width: 0.5"/>
      </g>
     </g>
     <g id="line2d_92">
      <g>
       <use xlink:href="#m68e05013d5" x="339.793281" y="135.725902" style="stroke: #000000; stroke-width: 0.5"/>
      </g>
     </g>
    </g>
    <g id="ytick_22">
     <g id="line2d_93">
      <g>
       <use xlink:href="#m533c68b27c" x="36.1" y="122.902953" style="stroke: #000000; stroke-width: 0.5"/>
      </g>
     </g>
     <g id="line2d_94">
      <g>
       <use xlink:href="#m68e05013d5" x="339.793281" y="122.902953" style="stroke: #000000; stroke-width: 0.5"/>
      </g>
     </g>
    </g>
    <g id="ytick_23">
     <g id="line2d_95">
      <g>
       <use xlink:href="#m533c68b27c" x="36.1" y="116.491478" style="stroke: #000000; stroke-width: 0.5"/>
      </g>
     </g>
     <g id="line2d_96">
      <g>
       <use xlink:href="#m68e05013d5" x="339.793281" y="116.491478" style="stroke: #000000; stroke-width: 0.5"/>
      </g>
     </g>
    </g>
    <g id="ytick_24">
     <g id="line2d_97">
      <g>
       <use xlink:href="#m533c68b27c" x="36.1" y="110.080004" style="stroke: #000000; stroke-width: 0.5"/>
      </g>
     </g>
     <g id="line2d_98">
      <g>
       <use xlink:href="#m68e05013d5" x="339.793281" y="110.080004" style="stroke: #000000; stroke-width: 0.5"/>
      </g>
     </g>
    </g>
    <g id="ytick_25">
     <g id="line2d_99">
      <g>
       <use xlink:href="#m533c68b27c" x="36.1" y="103.668529" style="stroke: #000000; stroke-width: 0.5"/>
      </g>
     </g>
     <g id="line2d_100">
      <g>
       <use xlink:href="#m68e05013d5" x="339.793281" y="103.668529" style="stroke: #000000; stroke-width: 0.5"/>
      </g>
     </g>
    </g>
    <g id="ytick_26">
     <g id="line2d_101">
      <g>
       <use xlink:href="#m533c68b27c" x="36.1" y="90.84558" style="stroke: #000000; stroke-width: 0.5"/>
      </g>
     </g>
     <g id="line2d_102">
      <g>
       <use xlink:href="#m68e05013d5" x="339.793281" y="90.84558" style="stroke: #000000; stroke-width: 0.5"/>
      </g>
     </g>
    </g>
    <g id="ytick_27">
     <g id="line2d_103">
      <g>
       <use xlink:href="#m533c68b27c" x="36.1" y="84.434105" style="stroke: #000000; stroke-width: 0.5"/>
      </g>
     </g>
     <g id="line2d_104">
      <g>
       <use xlink:href="#m68e05013d5" x="339.793281" y="84.434105" style="stroke: #000000; stroke-width: 0.5"/>
      </g>
     </g>
    </g>
    <g id="ytick_28">
     <g id="line2d_105">
      <g>
       <use xlink:href="#m533c68b27c" x="36.1" y="78.022631" style="stroke: #000000; stroke-width: 0.5"/>
      </g>
     </g>
     <g id="line2d_106">
      <g>
       <use xlink:href="#m68e05013d5" x="339.793281" y="78.022631" style="stroke: #000000; stroke-width: 0.5"/>
      </g>
     </g>
    </g>
    <g id="ytick_29">
     <g id="line2d_107">
      <g>
       <use xlink:href="#m533c68b27c" x="36.1" y="71.611156" style="stroke: #000000; stroke-width: 0.5"/>
      </g>
     </g>
     <g id="line2d_108">
      <g>
       <use xlink:href="#m68e05013d5" x="339.793281" y="71.611156" style="stroke: #000000; stroke-width: 0.5"/>
      </g>
     </g>
    </g>
    <g id="ytick_30">
     <g id="line2d_109">
      <g>
       <use xlink:href="#m533c68b27c" x="36.1" y="58.788207" style="stroke: #000000; stroke-width: 0.5"/>
      </g>
     </g>
     <g id="line2d_110">
      <g>
       <use xlink:href="#m68e05013d5" x="339.793281" y="58.788207" style="stroke: #000000; stroke-width: 0.5"/>
      </g>
     </g>
    </g>
    <g id="ytick_31">
     <g id="line2d_111">
      <g>
       <use xlink:href="#m533c68b27c" x="36.1" y="52.376732" style="stroke: #000000; stroke-width: 0.5"/>
      </g>
     </g>
     <g id="line2d_112">
      <g>
       <use xlink:href="#m68e05013d5" x="339.793281" y="52.376732" style="stroke: #000000; stroke-width: 0.5"/>
      </g>
     </g>
    </g>
    <g id="ytick_32">
     <g id="line2d_113">
      <g>
       <use xlink:href="#m533c68b27c" x="36.1" y="45.965257" style="stroke: #000000; stroke-width: 0.5"/>
      </g>
     </g>
     <g id="line2d_114">
      <g>
       <use xlink:href="#m68e05013d5" x="339.793281" y="45.965257" style="stroke: #000000; stroke-width: 0.5"/>
      </g>
     </g>
    </g>
    <g id="ytick_33">
     <g id="line2d_115">
      <g>
       <use xlink:href="#m533c68b27c" x="36.1" y="39.553783" style="stroke: #000000; stroke-width: 0.5"/>
      </g>
     </g>
     <g id="line2d_116">
      <g>
       <use xlink:href="#m68e05013d5" x="339.793281" y="39.553783" style="stroke: #000000; stroke-width: 0.5"/>
      </g>
     </g>
    </g>
    <g id="ytick_34">
     <g id="line2d_117">
      <g>
       <use xlink:href="#m533c68b27c" x="36.1" y="26.730834" style="stroke: #000000; stroke-width: 0.5"/>
      </g>
     </g>
     <g id="line2d_118">
      <g>
       <use xlink:href="#m68e05013d5" x="339.793281" y="26.730834" style="stroke: #000000; stroke-width: 0.5"/>
      </g>
     </g>
    </g>
    <g id="ytick_35">
     <g id="line2d_119">
      <g>
       <use xlink:href="#m533c68b27c" x="36.1" y="20.319359" style="stroke: #000000; stroke-width: 0.5"/>
      </g>
     </g>
     <g id="line2d_120">
      <g>
       <use xlink:href="#m68e05013d5" x="339.793281" y="20.319359" style="stroke: #000000; stroke-width: 0.5"/>
      </g>
     </g>
    </g>
    <g id="ytick_36">
     <g id="line2d_121">
      <g>
       <use xlink:href="#m533c68b27c" x="36.1" y="13.907884" style="stroke: #000000; stroke-width: 0.5"/>
      </g>
     </g>
     <g id="line2d_122">
      <g>
       <use xlink:href="#m68e05013d5" x="339.793281" y="13.907884" style="stroke: #000000; stroke-width: 0.5"/>
      </g>
     </g>
    </g>
    <g id="ytick_37">
     <g id="line2d_123">
      <g>
       <use xlink:href="#m533c68b27c" x="36.1" y="7.49641" style="stroke: #000000; stroke-width: 0.5"/>
      </g>
     </g>
     <g id="line2d_124">
      <g>
       <use xlink:href="#m68e05013d5" x="339.793281" y="7.49641" style="stroke: #000000; stroke-width: 0.5"/>
      </g>
     </g>
    </g>
    <g id="text_14">
     <!-- Mean Eval. Reward ($\pm\sigma$), Smoothed (Window = 10 ep.) -->
     <g transform="translate(11.1 248.021875) rotate(-90) scale(0.1 -0.1)">
      <defs>
       <path id="Cmr10-4d" d="M 225 0 
L 225 225 
Q 884 225 884 603 
L 884 3944 
Q 884 4147 225 4147 
L 225 4372 
L 1434 4372 
Q 1513 4372 1538 4300 
L 2931 678 
L 4325 4300 
Q 4350 4372 4428 4372 
L 5638 4372 
L 5638 4147 
Q 4978 4147 4978 3944 
L 4978 428 
Q 4978 225 5638 225 
L 5638 0 
L 3775 0 
L 3775 225 
Q 4434 225 4434 428 
L 4434 4153 
L 2859 72 
Q 2831 0 2753 0 
Q 2672 0 2644 72 
L 1088 4103 
L 1088 603 
Q 1088 225 1747 225 
L 1747 0 
L 225 0 
z
" transform="scale(0.015625)"/>
       <path id="Cmr10-61" d="M 256 628 
Q 256 1009 556 1248 
Q 856 1488 1276 1586 
Q 1697 1684 2075 1684 
L 2075 1947 
Q 2075 2131 1994 2304 
Q 1913 2478 1759 2589 
Q 1606 2700 1422 2700 
Q 997 2700 775 2509 
Q 897 2509 976 2417 
Q 1056 2325 1056 2203 
Q 1056 2075 965 1984 
Q 875 1894 750 1894 
Q 622 1894 531 1984 
Q 441 2075 441 2203 
Q 441 2541 747 2705 
Q 1053 2869 1422 2869 
Q 1681 2869 1943 2758 
Q 2206 2647 2373 2440 
Q 2541 2234 2541 1959 
L 2541 519 
Q 2541 394 2594 289 
Q 2647 184 2759 184 
Q 2866 184 2917 290 
Q 2969 397 2969 519 
L 2969 928 
L 3156 928 
L 3156 519 
Q 3156 375 3081 245 
Q 3006 116 2879 39 
Q 2753 -38 2606 -38 
Q 2419 -38 2283 107 
Q 2147 253 2131 453 
Q 2013 213 1781 70 
Q 1550 -72 1288 -72 
Q 1044 -72 808 0 
Q 572 72 414 226 
Q 256 381 256 628 
z
M 775 628 
Q 775 403 940 250 
Q 1106 97 1331 97 
Q 1538 97 1706 200 
Q 1875 303 1975 481 
Q 2075 659 2075 856 
L 2075 1522 
Q 1784 1522 1479 1426 
Q 1175 1331 975 1128 
Q 775 925 775 628 
z
" transform="scale(0.015625)"/>
       <path id="Cmr10-6e" d="M 191 0 
L 191 225 
Q 409 225 550 259 
Q 691 294 691 428 
L 691 2175 
Q 691 2347 639 2423 
Q 588 2500 491 2517 
Q 394 2534 191 2534 
L 191 2759 
L 1119 2828 
L 1119 2203 
Q 1247 2478 1498 2653 
Q 1750 2828 2047 2828 
Q 2491 2828 2714 2615 
Q 2938 2403 2938 1966 
L 2938 428 
Q 2938 294 3078 259 
Q 3219 225 3438 225 
L 3438 0 
L 1972 0 
L 1972 225 
Q 2191 225 2331 259 
Q 2472 294 2472 428 
L 2472 1947 
Q 2472 2259 2381 2461 
Q 2291 2663 2009 2663 
Q 1638 2663 1398 2366 
Q 1159 2069 1159 1691 
L 1159 428 
Q 1159 294 1300 259 
Q 1441 225 1656 225 
L 1656 0 
L 191 0 
z
" transform="scale(0.015625)"/>
       <path id="Cmr10-20" transform="scale(0.015625)"/>
       <path id="Cmr10-45" d="M 197 0 
L 197 225 
Q 856 225 856 428 
L 856 3944 
Q 856 4147 197 4147 
L 197 4372 
L 3816 4372 
L 3994 2906 
L 3809 2906 
Q 3741 3459 3617 3709 
Q 3494 3959 3222 4053 
Q 2950 4147 2406 4147 
L 1778 4147 
Q 1663 4147 1598 4137 
Q 1534 4128 1493 4083 
Q 1453 4038 1453 3944 
L 1453 2381 
L 1925 2381 
Q 2250 2381 2411 2436 
Q 2572 2491 2633 2645 
Q 2694 2800 2694 3128 
L 2881 3128 
L 2881 1409 
L 2694 1409 
Q 2694 1734 2633 1890 
Q 2572 2047 2411 2101 
Q 2250 2156 1925 2156 
L 1453 2156 
L 1453 428 
Q 1453 291 1531 258 
Q 1609 225 1778 225 
L 2456 225 
Q 2900 225 3173 295 
Q 3447 366 3598 530 
Q 3750 694 3833 955 
Q 3916 1216 3988 1678 
L 4172 1678 
L 3903 0 
L 197 0 
z
" transform="scale(0.015625)"/>
       <path id="Cmr10-76" d="M 1563 0 
L 628 2350 
Q 569 2469 445 2501 
Q 322 2534 122 2534 
L 122 2759 
L 1466 2759 
L 1466 2534 
Q 1106 2534 1106 2381 
Q 1106 2356 1113 2344 
L 1831 538 
L 2478 2169 
Q 2497 2219 2497 2272 
Q 2497 2394 2405 2464 
Q 2313 2534 2188 2534 
L 2188 2759 
L 3250 2759 
L 3250 2534 
Q 3053 2534 2904 2443 
Q 2756 2353 2675 2175 
L 1813 0 
Q 1788 -72 1709 -72 
L 1663 -72 
Q 1584 -72 1563 0 
z
" transform="scale(0.015625)"/>
       <path id="Cmr10-6c" d="M 197 0 
L 197 225 
Q 416 225 556 259 
Q 697 294 697 428 
L 697 3788 
Q 697 3959 645 4036 
Q 594 4113 497 4130 
Q 400 4147 197 4147 
L 197 4372 
L 1147 4441 
L 1147 428 
Q 1147 294 1287 259 
Q 1428 225 1644 225 
L 1644 0 
L 197 0 
z
" transform="scale(0.015625)"/>
       <path id="Cmr10-2e" d="M 538 353 
Q 538 497 644 600 
Q 750 703 891 703 
Q 978 703 1062 656 
Q 1147 609 1194 525 
Q 1241 441 1241 353 
Q 1241 213 1137 106 
Q 1034 0 891 0 
Q 750 0 644 106 
Q 538 213 538 353 
z
" transform="scale(0.015625)"/>
       <path id="Cmr10-52" d="M 213 0 
L 213 225 
Q 872 225 872 428 
L 872 3944 
Q 872 4147 213 4147 
L 213 4372 
L 2222 4372 
Q 2581 4372 2976 4242 
Q 3372 4113 3637 3847 
Q 3903 3581 3903 3213 
Q 3903 2944 3742 2733 
Q 3581 2522 3329 2380 
Q 3078 2238 2816 2175 
Q 3103 2075 3318 1856 
Q 3534 1638 3578 1356 
L 3669 788 
Q 3731 403 3800 214 
Q 3869 25 4103 25 
Q 4303 25 4401 211 
Q 4500 397 4500 616 
Q 4500 638 4520 655 
Q 4541 672 4563 672 
L 4622 672 
Q 4684 672 4684 588 
Q 4684 413 4615 245 
Q 4547 78 4417 -31 
Q 4288 -141 4109 -141 
Q 3647 -141 3314 89 
Q 2981 319 2981 763 
L 2981 1331 
Q 2981 1650 2759 1878 
Q 2538 2106 2216 2106 
L 1447 2106 
L 1447 428 
Q 1447 225 2106 225 
L 2106 0 
L 213 0 
z
M 1447 2272 
L 2131 2272 
Q 2663 2272 2941 2486 
Q 3219 2700 3219 3213 
Q 3219 3722 2944 3934 
Q 2669 4147 2131 4147 
L 1772 4147 
Q 1656 4147 1592 4137 
Q 1528 4128 1487 4083 
Q 1447 4038 1447 3944 
L 1447 2272 
z
" transform="scale(0.015625)"/>
       <path id="Cmr10-77" d="M 1416 0 
L 588 2328 
Q 531 2469 425 2501 
Q 319 2534 116 2534 
L 116 2759 
L 1434 2759 
L 1434 2534 
Q 1056 2534 1056 2375 
Q 1059 2366 1061 2356 
Q 1063 2347 1063 2328 
L 1678 603 
L 2209 2106 
L 2125 2328 
Q 2075 2469 1965 2501 
Q 1856 2534 1656 2534 
L 1656 2759 
L 2919 2759 
L 2919 2534 
Q 2541 2534 2541 2375 
Q 2541 2350 2547 2328 
L 3188 525 
L 3769 2156 
Q 3781 2206 3781 2247 
Q 3781 2381 3667 2457 
Q 3553 2534 3413 2534 
L 3413 2759 
L 4500 2759 
L 4500 2534 
Q 4306 2534 4167 2432 
Q 4028 2331 3963 2156 
L 3200 0 
Q 3178 -72 3103 -72 
L 3053 -72 
Q 2978 -72 2956 0 
L 2309 1825 
L 1663 0 
Q 1631 -72 1563 -72 
L 1516 -72 
Q 1438 -72 1416 0 
z
" transform="scale(0.015625)"/>
       <path id="Cmr10-72" d="M 166 0 
L 166 225 
Q 384 225 525 259 
Q 666 294 666 428 
L 666 2175 
Q 666 2347 614 2423 
Q 563 2500 466 2517 
Q 369 2534 166 2534 
L 166 2759 
L 1081 2828 
L 1081 2203 
Q 1184 2481 1375 2654 
Q 1566 2828 1838 2828 
Q 2028 2828 2178 2715 
Q 2328 2603 2328 2419 
Q 2328 2303 2245 2217 
Q 2163 2131 2041 2131 
Q 1922 2131 1837 2215 
Q 1753 2300 1753 2419 
Q 1753 2591 1875 2663 
L 1838 2663 
Q 1578 2663 1414 2475 
Q 1250 2288 1181 2009 
Q 1113 1731 1113 1478 
L 1113 428 
Q 1113 225 1734 225 
L 1734 0 
L 166 0 
z
" transform="scale(0.015625)"/>
       <path id="Cmr10-64" d="M 1563 -72 
Q 1184 -72 871 133 
Q 559 338 386 672 
Q 213 1006 213 1381 
Q 213 1769 402 2101 
Q 591 2434 916 2631 
Q 1241 2828 1631 2828 
Q 1866 2828 2075 2729 
Q 2284 2631 2438 2456 
L 2438 3788 
Q 2438 3959 2386 4036 
Q 2334 4113 2239 4130 
Q 2144 4147 1941 4147 
L 1941 4372 
L 2888 4441 
L 2888 581 
Q 2888 413 2939 336 
Q 2991 259 3086 242 
Q 3181 225 3384 225 
L 3384 0 
L 2419 -72 
L 2419 331 
Q 2253 141 2025 34 
Q 1797 -72 1563 -72 
z
M 909 556 
Q 1019 347 1201 222 
Q 1384 97 1600 97 
Q 1866 97 2087 250 
Q 2309 403 2419 647 
L 2419 2181 
Q 2344 2322 2230 2433 
Q 2116 2544 1973 2603 
Q 1831 2663 1672 2663 
Q 1338 2663 1134 2473 
Q 931 2284 850 1990 
Q 769 1697 769 1375 
Q 769 1119 795 928 
Q 822 738 909 556 
z
" transform="scale(0.015625)"/>
       <path id="Cmr10-28" d="M 1984 -1588 
Q 1628 -1306 1370 -942 
Q 1113 -578 948 -165 
Q 784 247 703 697 
Q 622 1147 622 1600 
Q 622 2059 703 2509 
Q 784 2959 951 3375 
Q 1119 3791 1378 4153 
Q 1638 4516 1984 4788 
Q 1984 4800 2016 4800 
L 2075 4800 
Q 2094 4800 2109 4783 
Q 2125 4766 2125 4744 
Q 2125 4716 2113 4703 
Q 1800 4397 1592 4047 
Q 1384 3697 1257 3301 
Q 1131 2906 1075 2482 
Q 1019 2059 1019 1600 
Q 1019 -434 2106 -1491 
Q 2125 -1509 2125 -1544 
Q 2125 -1559 2108 -1579 
Q 2091 -1600 2075 -1600 
L 2016 -1600 
Q 1984 -1600 1984 -1588 
z
" transform="scale(0.015625)"/>
       <path id="Cmsy10-a7" d="M 481 0 
Q 428 0 393 37 
Q 359 75 359 128 
Q 359 175 393 215 
Q 428 256 481 256 
L 2363 256 
L 2363 2003 
L 481 2003 
Q 428 2003 393 2043 
Q 359 2084 359 2131 
Q 359 2178 393 2218 
Q 428 2259 481 2259 
L 2363 2259 
L 2363 4147 
Q 2363 4197 2400 4230 
Q 2438 4263 2491 4263 
Q 2534 4263 2576 4230 
Q 2619 4197 2619 4147 
L 2619 2259 
L 4500 2259 
Q 4547 2259 4581 2218 
Q 4616 2178 4616 2131 
Q 4616 2084 4581 2043 
Q 4547 2003 4500 2003 
L 2619 2003 
L 2619 256 
L 4500 256 
Q 4547 256 4581 215 
Q 4616 175 4616 128 
Q 4616 75 4581 37 
Q 4547 0 4500 0 
L 481 0 
z
" transform="scale(0.015625)"/>
       <path id="Cmmi10-be" d="M 1197 -72 
Q 913 -72 692 64 
Q 472 200 351 431 
Q 231 663 231 941 
Q 231 1238 365 1566 
Q 500 1894 733 2166 
Q 966 2438 1259 2598 
Q 1553 2759 1863 2759 
L 3475 2759 
Q 3541 2759 3587 2715 
Q 3634 2672 3634 2597 
Q 3634 2503 3567 2433 
Q 3500 2363 3406 2363 
L 2625 2363 
Q 2809 2088 2809 1697 
Q 2809 1375 2684 1062 
Q 2559 750 2337 492 
Q 2116 234 1820 81 
Q 1525 -72 1197 -72 
z
M 1203 97 
Q 1553 97 1823 370 
Q 2094 644 2237 1039 
Q 2381 1434 2381 1772 
Q 2381 2047 2229 2205 
Q 2078 2363 1806 2363 
Q 1434 2363 1173 2113 
Q 913 1863 783 1484 
Q 653 1106 653 756 
Q 653 481 798 289 
Q 944 97 1203 97 
z
" transform="scale(0.015625)"/>
       <path id="Cmr10-29" d="M 416 -1600 
Q 359 -1600 359 -1544 
Q 359 -1516 372 -1503 
Q 1466 -434 1466 1600 
Q 1466 3634 384 4691 
Q 359 4706 359 4744 
Q 359 4766 376 4783 
Q 394 4800 416 4800 
L 475 4800 
Q 494 4800 506 4788 
Q 966 4425 1272 3906 
Q 1578 3388 1720 2800 
Q 1863 2213 1863 1600 
Q 1863 1147 1786 708 
Q 1709 269 1542 -157 
Q 1375 -584 1119 -945 
Q 863 -1306 506 -1588 
Q 494 -1600 475 -1600 
L 416 -1600 
z
" transform="scale(0.015625)"/>
       <path id="Cmr10-2c" d="M 634 -1153 
Q 634 -1125 659 -1100 
Q 891 -878 1019 -587 
Q 1147 -297 1147 25 
L 1147 103 
Q 1044 0 891 0 
Q 744 0 641 103 
Q 538 206 538 353 
Q 538 503 641 603 
Q 744 703 891 703 
Q 1119 703 1216 492 
Q 1313 281 1313 25 
Q 1313 -331 1170 -651 
Q 1028 -972 769 -1228 
Q 744 -1241 728 -1241 
Q 697 -1241 665 -1212 
Q 634 -1184 634 -1153 
z
" transform="scale(0.015625)"/>
       <path id="Cmr10-53" d="M 359 -91 
L 359 1403 
Q 359 1453 416 1453 
L 494 1453 
Q 513 1453 528 1437 
Q 544 1422 544 1403 
Q 544 775 933 429 
Q 1322 84 1953 84 
Q 2175 84 2362 212 
Q 2550 341 2654 548 
Q 2759 756 2759 978 
Q 2759 1172 2681 1355 
Q 2603 1538 2456 1672 
Q 2309 1806 2125 1850 
L 1294 2053 
Q 881 2163 620 2502 
Q 359 2841 359 3263 
Q 359 3594 528 3884 
Q 697 4175 983 4344 
Q 1269 4513 1600 4513 
Q 2241 4513 2619 4078 
L 2881 4494 
Q 2900 4513 2925 4513 
L 2969 4513 
Q 2988 4513 3005 4498 
Q 3022 4484 3022 4459 
L 3022 2975 
Q 3022 2919 2969 2919 
L 2894 2919 
Q 2834 2919 2834 2975 
Q 2834 3138 2779 3331 
Q 2725 3525 2628 3703 
Q 2531 3881 2419 3994 
Q 2109 4306 1600 4306 
Q 1381 4306 1197 4195 
Q 1013 4084 903 3893 
Q 794 3703 794 3494 
Q 794 3219 964 2995 
Q 1134 2772 1409 2700 
L 2241 2497 
Q 2447 2447 2630 2317 
Q 2813 2188 2934 2016 
Q 3056 1844 3125 1633 
Q 3194 1422 3194 1197 
Q 3194 850 3034 542 
Q 2875 234 2586 46 
Q 2297 -141 1953 -141 
Q 1741 -141 1519 -94 
Q 1297 -47 1109 50 
Q 922 147 769 300 
L 500 -122 
Q 481 -141 453 -141 
L 416 -141 
Q 359 -141 359 -91 
z
" transform="scale(0.015625)"/>
       <path id="Cmr10-6f" d="M 1600 -72 
Q 1216 -72 887 123 
Q 559 319 368 647 
Q 178 975 178 1363 
Q 178 1656 283 1928 
Q 388 2200 583 2414 
Q 778 2628 1037 2748 
Q 1297 2869 1600 2869 
Q 1994 2869 2317 2661 
Q 2641 2453 2828 2104 
Q 3016 1756 3016 1363 
Q 3016 978 2825 648 
Q 2634 319 2307 123 
Q 1981 -72 1600 -72 
z
M 1600 116 
Q 2113 116 2284 487 
Q 2456 859 2456 1434 
Q 2456 1756 2422 1967 
Q 2388 2178 2272 2350 
Q 2200 2456 2089 2536 
Q 1978 2616 1854 2658 
Q 1731 2700 1600 2700 
Q 1400 2700 1220 2609 
Q 1041 2519 922 2350 
Q 803 2169 770 1951 
Q 738 1734 738 1434 
Q 738 1075 800 789 
Q 863 503 1052 309 
Q 1241 116 1600 116 
z
" transform="scale(0.015625)"/>
       <path id="Cmr10-68" d="M 191 0 
L 191 225 
Q 409 225 550 259 
Q 691 294 691 428 
L 691 3788 
Q 691 3959 639 4036 
Q 588 4113 491 4130 
Q 394 4147 191 4147 
L 191 4372 
L 1141 4441 
L 1141 2241 
Q 1275 2506 1515 2667 
Q 1756 2828 2047 2828 
Q 2491 2828 2714 2615 
Q 2938 2403 2938 1966 
L 2938 428 
Q 2938 294 3078 259 
Q 3219 225 3438 225 
L 3438 0 
L 1972 0 
L 1972 225 
Q 2191 225 2331 259 
Q 2472 294 2472 428 
L 2472 1947 
Q 2472 2259 2381 2461 
Q 2291 2663 2009 2663 
Q 1638 2663 1398 2366 
Q 1159 2069 1159 1691 
L 1159 428 
Q 1159 294 1300 259 
Q 1441 225 1656 225 
L 1656 0 
L 191 0 
z
" transform="scale(0.015625)"/>
       <path id="Cmr10-57" d="M 1991 -72 
L 684 3944 
Q 634 4078 490 4112 
Q 347 4147 116 4147 
L 116 4372 
L 1831 4372 
L 1831 4147 
Q 1294 4147 1294 3975 
L 1294 3944 
L 2316 794 
L 3188 3488 
L 3041 3944 
Q 2991 4078 2847 4112 
Q 2703 4147 2472 4147 
L 2472 4372 
L 4184 4372 
L 4184 4147 
Q 3641 4147 3641 3975 
Q 3641 3966 3647 3947 
Q 3653 3928 3653 3922 
L 4672 794 
L 5631 3769 
Q 5638 3788 5638 3828 
Q 5638 3997 5459 4072 
Q 5281 4147 5088 4147 
L 5088 4372 
L 6456 4372 
L 6456 4147 
Q 5950 4147 5831 3769 
L 4581 -72 
Q 4559 -141 4488 -141 
L 4441 -141 
Q 4369 -141 4347 -72 
L 3291 3188 
L 2228 -72 
Q 2206 -141 2131 -141 
L 2088 -141 
Q 2013 -141 1991 -72 
z
" transform="scale(0.015625)"/>
       <path id="Cmr10-3d" d="M 481 850 
Q 428 850 393 890 
Q 359 931 359 978 
Q 359 1031 393 1068 
Q 428 1106 481 1106 
L 4500 1106 
Q 4547 1106 4581 1068 
Q 4616 1031 4616 978 
Q 4616 931 4581 890 
Q 4547 850 4500 850 
L 481 850 
z
M 481 2094 
Q 428 2094 393 2131 
Q 359 2169 359 2222 
Q 359 2269 393 2309 
Q 428 2350 481 2350 
L 4500 2350 
Q 4547 2350 4581 2309 
Q 4616 2269 4616 2222 
Q 4616 2169 4581 2131 
Q 4547 2094 4500 2094 
L 481 2094 
z
" transform="scale(0.015625)"/>
       <path id="Cmr10-31" d="M 594 0 
L 594 225 
Q 1394 225 1394 428 
L 1394 3788 
Q 1063 3628 556 3628 
L 556 3853 
Q 1341 3853 1741 4263 
L 1831 4263 
Q 1853 4263 1873 4245 
Q 1894 4228 1894 4206 
L 1894 428 
Q 1894 225 2694 225 
L 2694 0 
L 594 0 
z
" transform="scale(0.015625)"/>
      </defs>
      <use xlink:href="#Cmr10-4d"/>
      <use xlink:href="#Cmr10-65" transform="translate(91.601562 0)"/>
      <use xlink:href="#Cmr10-61" transform="translate(135.986328 0)"/>
      <use xlink:href="#Cmr10-6e" transform="translate(185.986328 0)"/>
      <use xlink:href="#Cmr10-20" transform="translate(241.503906 0)"/>
      <use xlink:href="#Cmr10-45" transform="translate(274.804688 0)"/>
      <use xlink:href="#Cmr10-76" transform="translate(342.822266 0)"/>
      <use xlink:href="#Cmr10-61" transform="translate(395.507812 0)"/>
      <use xlink:href="#Cmr10-6c" transform="translate(445.507812 0)"/>
      <use xlink:href="#Cmr10-2e" transform="translate(473.193359 0)"/>
      <use xlink:href="#Cmr10-20" transform="translate(500.878906 0)"/>
      <use xlink:href="#Cmr10-52" transform="translate(534.179688 0)"/>
      <use xlink:href="#Cmr10-65" transform="translate(607.763672 0)"/>
      <use xlink:href="#Cmr10-77" transform="translate(652.148438 0)"/>
      <use xlink:href="#Cmr10-61" transform="translate(724.365234 0)"/>
      <use xlink:href="#Cmr10-72" transform="translate(774.365234 0)"/>
      <use xlink:href="#Cmr10-64" transform="translate(813.476562 0)"/>
      <use xlink:href="#Cmr10-20" transform="translate(868.994141 0)"/>
      <use xlink:href="#Cmr10-28" transform="translate(902.294922 0)"/>
      <use xlink:href="#Cmsy10-a7" transform="translate(941.113281 0)"/>
      <use xlink:href="#Cmmi10-be" transform="translate(1018.798828 0)"/>
      <use xlink:href="#Cmr10-29" transform="translate(1075.878906 0)"/>
      <use xlink:href="#Cmr10-2c" transform="translate(1114.697266 0)"/>
      <use xlink:href="#Cmr10-20" transform="translate(1142.382812 0)"/>
      <use xlink:href="#Cmr10-53" transform="translate(1175.683594 0)"/>
      <use xlink:href="#Cmr10-6d" transform="translate(1231.201172 0)"/>
      <use xlink:href="#Cmr10-6f" transform="translate(1314.501953 0)"/>
      <use xlink:href="#Cmr10-6f" transform="translate(1364.501953 0)"/>
      <use xlink:href="#Cmr10-74" transform="translate(1414.501953 0)"/>
      <use xlink:href="#Cmr10-68" transform="translate(1453.320312 0)"/>
      <use xlink:href="#Cmr10-65" transform="translate(1508.837891 0)"/>
      <use xlink:href="#Cmr10-64" transform="translate(1553.222656 0)"/>
      <use xlink:href="#Cmr10-20" transform="translate(1608.740234 0)"/>
      <use xlink:href="#Cmr10-28" transform="translate(1642.041016 0)"/>
      <use xlink:href="#Cmr10-57" transform="translate(1680.859375 0)"/>
      <use xlink:href="#Cmr10-69" transform="translate(1783.544922 0)"/>
      <use xlink:href="#Cmr10-6e" transform="translate(1811.230469 0)"/>
      <use xlink:href="#Cmr10-64" transform="translate(1866.748047 0)"/>
      <use xlink:href="#Cmr10-6f" transform="translate(1922.265625 0)"/>
      <use xlink:href="#Cmr10-77" transform="translate(1972.265625 0)"/>
      <use xlink:href="#Cmr10-20" transform="translate(2044.482422 0)"/>
      <use xlink:href="#Cmr10-3d" transform="translate(2077.783203 0)"/>
      <use xlink:href="#Cmr10-20" transform="translate(2155.46875 0)"/>
      <use xlink:href="#Cmr10-31" transform="translate(2188.769531 0)"/>
      <use xlink:href="#Cmr10-30" transform="translate(2238.769531 0)"/>
      <use xlink:href="#Cmr10-20" transform="translate(2288.769531 0)"/>
      <use xlink:href="#Cmr10-65" transform="translate(2322.070312 0)"/>
      <use xlink:href="#Cmr10-70" transform="translate(2366.455078 0)"/>
      <use xlink:href="#Cmr10-2e" transform="translate(2421.972656 0)"/>
      <use xlink:href="#Cmr10-29" transform="translate(2449.658203 0)"/>
     </g>
    </g>
   </g>
   <g id="line2d_125">
    <path d="M 49.90424 157.866861 
L 52.971849 131.233596 
L 56.039458 115.230555 
L 59.107067 112.379586 
L 62.174676 93.196454 
L 65.242285 78.078197 
L 68.309893 70.431445 
L 71.377502 63.45576 
L 74.445111 62.246129 
L 77.51272 58.356501 
L 80.580329 51.868088 
L 83.647938 52.381006 
L 86.715547 46.102036 
L 89.783156 52.2656 
L 92.850765 58.557394 
L 95.918374 58.557394 
L 98.985982 56.817747 
L 102.053591 56.817747 
L 105.1212 50.568696 
L 108.188809 52.021964 
L 111.256418 52.021964 
L 114.324027 51.509046 
L 117.391636 51.509046 
L 120.459245 46.320026 
L 123.526854 40.964307 
L 126.594463 45.345482 
L 129.662071 46.926979 
L 132.72968 46.926979 
L 135.797289 46.926979 
L 138.864898 44.199965 
L 141.932507 44.199965 
L 145.000116 44.199965 
L 148.067725 44.199965 
L 151.135334 43.225421 
L 154.202943 42.289345 
L 157.270552 41.464402 
L 160.338161 39.882905 
L 163.405769 44.07601 
L 166.473378 44.07601 
L 169.540987 40.891644 
L 172.608596 40.891644 
L 175.676205 40.891644 
L 178.743814 40.891644 
L 181.811423 40.891644 
L 184.879032 40.891644 
L 187.946641 37.335413 
L 191.01425 37.335413 
L 194.081858 33.142308 
L 197.149467 33.142308 
L 200.217076 33.142308 
L 203.284685 33.142308 
L 206.352294 33.142308 
L 209.419903 33.142308 
L 212.487512 33.142308 
L 215.555121 33.894588 
L 218.62273 33.894588 
L 221.690339 33.894588 
L 224.757947 33.894588 
L 227.825556 33.894588 
L 230.893165 34.595576 
L 233.960774 34.595576 
L 237.028383 34.595576 
L 240.095992 34.595576 
L 243.163601 34.595576 
L 246.23121 33.843296 
L 249.298819 33.843296 
L 252.366428 33.843296 
L 255.434036 33.843296 
L 258.501645 33.843296 
L 261.569254 33.142308 
L 264.636863 33.142308 
L 267.704472 33.142308 
L 270.772081 33.142308 
L 273.83969 33.142308 
L 276.907299 33.142308 
L 279.974908 33.142308 
L 283.042517 33.142308 
L 286.110125 33.142308 
L 289.177734 35.980454 
L 292.245343 35.980454 
L 295.312952 35.980454 
L 298.380561 35.980454 
L 301.44817 35.980454 
L 304.515779 35.980454 
L 307.583388 35.980454 
L 310.650997 35.980454 
L 313.718606 35.980454 
L 316.786214 35.980454 
L 319.853823 33.142308 
L 322.921432 33.142308 
L 325.989041 33.142308 
" clip-path="url(#p62a635919e)" style="fill: none; stroke: #0c5da5; stroke-linecap: square"/>
   </g>
   <g id="line2d_126">
    <path d="M 49.90424 103.749741 
L 52.971849 96.945029 
L 56.039458 90.212981 
L 59.107067 76.736061 
L 62.174676 76.359922 
L 65.242285 76.107737 
L 68.309893 75.081901 
L 71.377502 67.969438 
L 74.445111 69.974093 
L 77.51272 69.768926 
L 80.580329 60.061953 
L 83.647938 54.83019 
L 86.715547 46.097761 
L 89.783156 46.097761 
L 92.850765 49.418905 
L 95.918374 48.619608 
L 98.985982 46.892784 
L 102.053591 51.201295 
L 105.1212 49.837788 
L 108.188809 45.495083 
L 111.256418 46.341397 
L 114.324027 46.341397 
L 117.391636 46.341397 
L 120.459245 46.341397 
L 123.526854 43.020253 
L 126.594463 48.696546 
L 129.662071 49.132526 
L 132.72968 44.824015 
L 135.797289 40.100895 
L 138.864898 40.100895 
L 141.932507 39.254581 
L 145.000116 39.254581 
L 148.067725 45.546374 
L 151.135334 45.546374 
L 154.202943 45.546374 
L 157.270552 42.255151 
L 160.338161 41.819171 
L 163.405769 41.819171 
L 166.473378 43.315181 
L 169.540987 43.315181 
L 172.608596 43.315181 
L 175.676205 43.315181 
L 178.743814 37.023388 
L 181.811423 37.023388 
L 184.879032 37.023388 
L 187.946641 34.638319 
L 191.01425 34.638319 
L 194.081858 34.638319 
L 197.149467 33.142308 
L 200.217076 33.142308 
L 203.284685 33.142308 
L 206.352294 33.142308 
L 209.419903 33.142308 
L 212.487512 33.142308 
L 215.555121 33.142308 
L 218.62273 33.142308 
L 221.690339 33.142308 
L 224.757947 33.142308 
L 227.825556 35.741093 
L 230.893165 35.741093 
L 233.960774 35.741093 
L 237.028383 35.741093 
L 240.095992 35.741093 
L 243.163601 35.741093 
L 246.23121 35.741093 
L 249.298819 35.741093 
L 252.366428 35.741093 
L 255.434036 35.741093 
L 258.501645 33.142308 
L 261.569254 33.142308 
L 264.636863 33.142308 
L 267.704472 33.142308 
L 270.772081 33.142308 
L 273.83969 33.142308 
L 276.907299 33.142308 
L 279.974908 33.142308 
L 283.042517 33.142308 
L 286.110125 33.142308 
L 289.177734 33.142308 
L 292.245343 33.142308 
L 295.312952 33.142308 
L 298.380561 33.142308 
L 301.44817 33.142308 
L 304.515779 33.142308 
L 307.583388 33.142308 
L 310.650997 33.142308 
L 313.718606 33.142308 
L 316.786214 33.142308 
L 319.853823 33.142308 
L 322.921432 33.142308 
L 325.989041 33.142308 
" clip-path="url(#p62a635919e)" style="fill: none; stroke: #00b945; stroke-linecap: square"/>
   </g>
   <g id="line2d_127">
    <path d="M 49.90424 134.811199 
L 52.971849 118.158462 
L 56.039458 105.839882 
L 59.107067 92.739102 
L 62.174676 91.871416 
L 65.242285 78.595389 
L 68.309893 67.469343 
L 71.377502 62.173465 
L 74.445111 61.95975 
L 77.51272 57.501637 
L 80.580329 58.48473 
L 83.647938 56.766455 
L 86.715547 56.766455 
L 89.783156 63.173655 
L 92.850765 57.245179 
L 95.918374 62.780418 
L 98.985982 62.780418 
L 102.053591 60.527854 
L 105.1212 53.992424 
L 108.188809 53.291436 
L 111.256418 52.308343 
L 114.324027 52.308343 
L 117.391636 64.507242 
L 120.459245 59.937998 
L 123.526854 59.937998 
L 126.594463 54.402758 
L 129.662071 60.844153 
L 132.72968 61.912732 
L 135.797289 61.912732 
L 138.864898 54.689137 
L 141.932507 54.689137 
L 145.000116 54.689137 
L 148.067725 43.78963 
L 151.135334 41.951674 
L 154.202943 48.623882 
L 157.270552 48.623882 
L 160.338161 42.225231 
L 163.405769 45.187332 
L 166.473378 45.187332 
L 169.540987 45.187332 
L 172.608596 45.187332 
L 175.676205 45.187332 
L 178.743814 43.88794 
L 181.811423 43.88794 
L 184.879032 37.215732 
L 187.946641 37.215732 
L 191.01425 37.172989 
L 194.081858 36.454903 
L 197.149467 36.454903 
L 200.217076 36.454903 
L 203.284685 36.454903 
L 206.352294 36.454903 
L 209.419903 36.454903 
L 212.487512 36.454903 
L 215.555121 36.454903 
L 218.62273 36.454903 
L 221.690339 36.454903 
L 224.757947 33.142308 
L 227.825556 33.142308 
L 230.893165 33.142308 
L 233.960774 33.142308 
L 237.028383 33.142308 
L 240.095992 33.142308 
L 243.163601 33.142308 
L 246.23121 33.142308 
L 249.298819 33.142308 
L 252.366428 33.142308 
L 255.434036 33.142308 
L 258.501645 33.142308 
L 261.569254 33.142308 
L 264.636863 33.142308 
L 267.704472 33.142308 
L 270.772081 33.142308 
L 273.83969 33.142308 
L 276.907299 39.173369 
L 279.974908 39.173369 
L 283.042517 39.173369 
L 286.110125 39.173369 
L 289.177734 39.173369 
L 292.245343 39.173369 
L 295.312952 43.225421 
L 298.380561 43.225421 
L 301.44817 43.225421 
L 304.515779 50.440467 
L 307.583388 44.409406 
L 310.650997 44.409406 
L 313.718606 44.409406 
L 316.786214 44.409406 
L 319.853823 44.409406 
L 322.921432 44.409406 
L 325.989041 40.357354 
" clip-path="url(#p62a635919e)" style="fill: none; stroke: #ff9500; stroke-linecap: square"/>
   </g>
   <g id="patch_3">
    <path d="M 36.1 243.54375 
L 36.1 3.6 
" style="fill: none; stroke: #000000; stroke-width: 0.5; stroke-linejoin: miter; stroke-linecap: square"/>
   </g>
   <g id="patch_4">
    <path d="M 339.793281 243.54375 
L 339.793281 3.6 
" style="fill: none; stroke: #000000; stroke-width: 0.5; stroke-linejoin: miter; stroke-linecap: square"/>
   </g>
   <g id="patch_5">
    <path d="M 36.1 243.54375 
L 339.793281 243.54375 
" style="fill: none; stroke: #000000; stroke-width: 0.5; stroke-linejoin: miter; stroke-linecap: square"/>
   </g>
   <g id="patch_6">
    <path d="M 36.1 3.6 
L 339.793281 3.6 
" style="fill: none; stroke: #000000; stroke-width: 0.5; stroke-linejoin: miter; stroke-linecap: square"/>
   </g>
   <g id="legend_1">
    <g id="line2d_128">
     <path d="M 210.627656 198.54375 
L 220.627656 198.54375 
L 230.627656 198.54375 
" style="fill: none; stroke: #0c5da5; stroke-linecap: square"/>
    </g>
    <g id="text_15">
     <!-- PPO (entropy 0.01) -->
     <g transform="translate(238.627656 202.04375) scale(0.1 -0.1)">
      <defs>
       <path id="Cmr10-50" d="M 213 0 
L 213 225 
Q 872 225 872 428 
L 872 3944 
Q 872 4147 213 4147 
L 213 4372 
L 2491 4372 
Q 2841 4372 3191 4228 
Q 3541 4084 3767 3809 
Q 3994 3534 3994 3169 
Q 3994 2813 3766 2544 
Q 3538 2275 3191 2136 
Q 2844 1997 2491 1997 
L 1466 1997 
L 1466 428 
Q 1466 225 2125 225 
L 2125 0 
L 213 0 
z
M 1447 2188 
L 2316 2188 
Q 2669 2188 2887 2289 
Q 3106 2391 3207 2605 
Q 3309 2819 3309 3169 
Q 3309 3691 3079 3919 
Q 2850 4147 2316 4147 
L 1772 4147 
Q 1656 4147 1592 4137 
Q 1528 4128 1487 4083 
Q 1447 4038 1447 3944 
L 1447 2188 
z
" transform="scale(0.015625)"/>
       <path id="Cmr10-4f" d="M 2491 -141 
Q 1881 -141 1395 182 
Q 909 506 634 1042 
Q 359 1578 359 2169 
Q 359 2606 517 3034 
Q 675 3463 958 3794 
Q 1241 4125 1637 4319 
Q 2034 4513 2491 4513 
Q 2944 4513 3342 4317 
Q 3741 4122 4025 3787 
Q 4309 3453 4462 3037 
Q 4616 2622 4616 2169 
Q 4616 1578 4341 1042 
Q 4066 506 3578 182 
Q 3091 -141 2491 -141 
z
M 1428 691 
Q 1616 397 1891 223 
Q 2166 50 2491 50 
Q 2700 50 2901 134 
Q 3103 219 3267 366 
Q 3431 513 3547 691 
Q 3928 1266 3928 2272 
Q 3928 3194 3547 3731 
Q 3359 4000 3079 4162 
Q 2800 4325 2491 4325 
Q 2178 4325 1897 4162 
Q 1616 4000 1428 3731 
Q 1278 3522 1195 3286 
Q 1113 3050 1078 2797 
Q 1044 2544 1044 2272 
Q 1044 1981 1076 1704 
Q 1109 1428 1198 1162 
Q 1288 897 1428 691 
z
" transform="scale(0.015625)"/>
       <path id="Cmr10-79" d="M 441 -1050 
Q 563 -1147 709 -1147 
Q 1113 -1147 1369 -538 
L 1588 0 
L 628 2350 
Q 569 2469 447 2501 
Q 325 2534 122 2534 
L 122 2759 
L 1466 2759 
L 1466 2534 
Q 1113 2534 1113 2381 
Q 1113 2356 1119 2344 
L 1831 594 
L 2472 2169 
Q 2491 2219 2491 2278 
Q 2491 2356 2448 2414 
Q 2406 2472 2339 2503 
Q 2272 2534 2188 2534 
L 2188 2759 
L 3250 2759 
L 3250 2534 
Q 3053 2534 2904 2443 
Q 2756 2353 2675 2175 
L 1569 -538 
Q 1481 -744 1364 -917 
Q 1247 -1091 1078 -1202 
Q 909 -1313 709 -1313 
Q 475 -1313 298 -1158 
Q 122 -1003 122 -775 
Q 122 -656 203 -575 
Q 284 -494 403 -494 
Q 484 -494 548 -530 
Q 613 -566 648 -628 
Q 684 -691 684 -775 
Q 684 -878 615 -959 
Q 547 -1041 441 -1050 
z
" transform="scale(0.015625)"/>
      </defs>
      <use xlink:href="#Cmr10-50"/>
      <use xlink:href="#Cmr10-50" transform="translate(68.017578 0)"/>
      <use xlink:href="#Cmr10-4f" transform="translate(136.035156 0)"/>
      <use xlink:href="#Cmr10-20" transform="translate(213.720703 0)"/>
      <use xlink:href="#Cmr10-28" transform="translate(247.021484 0)"/>
      <use xlink:href="#Cmr10-65" transform="translate(285.839844 0)"/>
      <use xlink:href="#Cmr10-6e" transform="translate(330.224609 0)"/>
      <use xlink:href="#Cmr10-74" transform="translate(385.742188 0)"/>
      <use xlink:href="#Cmr10-72" transform="translate(424.560547 0)"/>
      <use xlink:href="#Cmr10-6f" transform="translate(463.671875 0)"/>
      <use xlink:href="#Cmr10-70" transform="translate(513.671875 0)"/>
      <use xlink:href="#Cmr10-79" transform="translate(569.189453 0)"/>
      <use xlink:href="#Cmr10-20" transform="translate(621.875 0)"/>
      <use xlink:href="#Cmr10-30" transform="translate(655.175781 0)"/>
      <use xlink:href="#Cmr10-2e" transform="translate(705.175781 0)"/>
      <use xlink:href="#Cmr10-30" transform="translate(732.861328 0)"/>
      <use xlink:href="#Cmr10-31" transform="translate(782.861328 0)"/>
      <use xlink:href="#Cmr10-29" transform="translate(832.861328 0)"/>
     </g>
    </g>
    <g id="line2d_129">
     <path d="M 210.627656 213.54375 
L 220.627656 213.54375 
L 230.627656 213.54375 
" style="fill: none; stroke: #00b945; stroke-linecap: square"/>
    </g>
    <g id="text_16">
     <!-- PPO (entropy 0.05) -->
     <g transform="translate(238.627656 217.04375) scale(0.1 -0.1)">
      <use xlink:href="#Cmr10-50"/>
      <use xlink:href="#Cmr10-50" transform="translate(68.017578 0)"/>
      <use xlink:href="#Cmr10-4f" transform="translate(136.035156 0)"/>
      <use xlink:href="#Cmr10-20" transform="translate(213.720703 0)"/>
      <use xlink:href="#Cmr10-28" transform="translate(247.021484 0)"/>
      <use xlink:href="#Cmr10-65" transform="translate(285.839844 0)"/>
      <use xlink:href="#Cmr10-6e" transform="translate(330.224609 0)"/>
      <use xlink:href="#Cmr10-74" transform="translate(385.742188 0)"/>
      <use xlink:href="#Cmr10-72" transform="translate(424.560547 0)"/>
      <use xlink:href="#Cmr10-6f" transform="translate(463.671875 0)"/>
      <use xlink:href="#Cmr10-70" transform="translate(513.671875 0)"/>
      <use xlink:href="#Cmr10-79" transform="translate(569.189453 0)"/>
      <use xlink:href="#Cmr10-20" transform="translate(621.875 0)"/>
      <use xlink:href="#Cmr10-30" transform="translate(655.175781 0)"/>
      <use xlink:href="#Cmr10-2e" transform="translate(705.175781 0)"/>
      <use xlink:href="#Cmr10-30" transform="translate(732.861328 0)"/>
      <use xlink:href="#Cmr10-35" transform="translate(782.861328 0)"/>
      <use xlink:href="#Cmr10-29" transform="translate(832.861328 0)"/>
     </g>
    </g>
    <g id="line2d_130">
     <path d="M 210.627656 228.54375 
L 220.627656 228.54375 
L 230.627656 228.54375 
" style="fill: none; stroke: #ff9500; stroke-linecap: square"/>
    </g>
    <g id="text_17">
     <!-- PPO (entropy 0.001) -->
     <g transform="translate(238.627656 232.04375) scale(0.1 -0.1)">
      <use xlink:href="#Cmr10-50"/>
      <use xlink:href="#Cmr10-50" transform="translate(68.017578 0)"/>
      <use xlink:href="#Cmr10-4f" transform="translate(136.035156 0)"/>
      <use xlink:href="#Cmr10-20" transform="translate(213.720703 0)"/>
      <use xlink:href="#Cmr10-28" transform="translate(247.021484 0)"/>
      <use xlink:href="#Cmr10-65" transform="translate(285.839844 0)"/>
      <use xlink:href="#Cmr10-6e" transform="translate(330.224609 0)"/>
      <use xlink:href="#Cmr10-74" transform="translate(385.742188 0)"/>
      <use xlink:href="#Cmr10-72" transform="translate(424.560547 0)"/>
      <use xlink:href="#Cmr10-6f" transform="translate(463.671875 0)"/>
      <use xlink:href="#Cmr10-70" transform="translate(513.671875 0)"/>
      <use xlink:href="#Cmr10-79" transform="translate(569.189453 0)"/>
      <use xlink:href="#Cmr10-20" transform="translate(621.875 0)"/>
      <use xlink:href="#Cmr10-30" transform="translate(655.175781 0)"/>
      <use xlink:href="#Cmr10-2e" transform="translate(705.175781 0)"/>
      <use xlink:href="#Cmr10-30" transform="translate(732.861328 0)"/>
      <use xlink:href="#Cmr10-30" transform="translate(782.861328 0)"/>
      <use xlink:href="#Cmr10-31" transform="translate(832.861328 0)"/>
      <use xlink:href="#Cmr10-29" transform="translate(882.861328 0)"/>
     </g>
    </g>
   </g>
  </g>
 </g>
 <defs>
  <clipPath id="p62a635919e">
   <rect x="36.1" y="3.6" width="303.693281" height="239.94375"/>
  </clipPath>
 </defs>
</svg>
